<svg xmlns="http://www.w3.org/2000/svg" xmlns:xlink="http://www.w3.org/1999/xlink" width="940" height="620.467" viewBox="0 0 940 620.467">
  <defs>
    <linearGradient id="linear-gradient" x1="0.5" y1="1" x2="0.5" gradientUnits="objectBoundingBox">
      <stop offset="0" stop-color="gray" stop-opacity="0.251"/>
      <stop offset="0.54" stop-color="gray" stop-opacity="0.122"/>
      <stop offset="1" stop-color="gray" stop-opacity="0.102"/>
    </linearGradient>
  </defs>
  <g id="undraw_dashboard_nklg" transform="translate(0 -0.05)" opacity="0.05">
    <path id="Path_27" data-name="Path 27" d="M971.868,157.25a169.714,169.714,0,0,0-37.292-43.159l-517.3-3.7L843.188,66.936a322.626,322.626,0,0,0-86.413-12.452C715.772,30.432,663.073,16,605.592,16c-51.575,0-99.266,11.644-138.147,31.4C434.4,35.035,396.737,28.023,356.717,28.023c-114.938,0-210.71,57.827-232.2,134.516Z" transform="translate(-50.052 -15.95)" fill="#544c9a" opacity="0.1"/>
    <path id="Path_28" data-name="Path 28" d="M975,279.37a124.66,124.66,0,0,0-16.121-60.7L62.335,287.033a141.329,141.329,0,0,0-21,38.534l277.633,30.064L35,377.546c8.543,86.818,110.995,155.367,236.148,155.367,63,0,120.237-17.369,162.653-45.7,42.55,28.863,100.339,46.612,164.018,46.612,94.474,0,176.021-39.078,214-95.575C888,420.684,947.174,376.582,967.43,321.407l-351.1-39.556H975Z" transform="translate(-35 -73.753)" fill="#544c9a" opacity="0.1"/>
    <ellipse id="Ellipse_27" data-name="Ellipse 27" cx="241.222" cy="9.249" rx="241.222" ry="9.249" transform="translate(174.69 602.018)" fill="#544c9a" opacity="0.1"/>
    <path id="Path_29" data-name="Path 29" d="M668.207,808.724v5.59H475.84v-4.539c23.992-7.638,40.261-26.948,41.214-48.918s-13.6-42.267-36.863-51.417H666.9c-22.72,8.938-37.181,28.537-36.9,50.007S645.258,800.229,668.207,808.724Z" transform="translate(-109.124 -213.726)" fill="#c8cad7"/>
    <path id="Path_30" data-name="Path 30" d="M667.782,709.44c-17.379,6.856-30.22,20.094-34.938,36.018H516.018c-4.72-15.923-17.561-29.16-34.938-36.018Z" transform="translate(-110.005 -213.726)" opacity="0.1"/>
    <path id="Path_31" data-name="Path 31" d="M211,669.6v31.379c0,17.326,14.757,31.372,32.967,31.372H809.98c18.209,0,32.967-14.046,32.967-31.372V669.6Z" transform="translate(-64.593 -202.363)" fill="#c8cad7"/>
    <path id="Path_32" data-name="Path 32" d="M668.207,846.05v5.59H475.84V847.1a67.236,67.236,0,0,0,14.832-6.79H656.411a66.992,66.992,0,0,0,11.8,5.74Z" transform="translate(-109.124 -251.051)" opacity="0.1"/>
    <rect id="Rectangle_45" data-name="Rectangle 45" width="319.509" height="16.562" rx="8.281" transform="translate(303.146 591.003)" fill="#c8cad7"/>
    <path id="Path_33" data-name="Path 33" d="M842.946,177.284C842.923,161.655,828.169,149,809.98,149H243.992c-18.2-.016-32.969,12.646-32.991,28.284v349.94H842.946Z" transform="translate(-64.593 -53.883)" fill="#474157"/>
    <path id="Path_34" data-name="Path 34" d="M829.234,200.686V501.376a13.024,13.024,0,0,1-4.751,9.863A17.663,17.663,0,0,1,813,515.322H247.99a17.662,17.662,0,0,1-11.479-4.082,13.024,13.024,0,0,1-4.751-9.863V200.686c0-7.7,7.266-13.946,16.23-13.946H812.963a17.679,17.679,0,0,1,11.5,4.072A13.035,13.035,0,0,1,829.234,200.686Z" transform="translate(-68.084 -64.647)" fill="#4c4c78"/>
    <ellipse id="Ellipse_28" data-name="Ellipse 28" cx="7.612" cy="6.54" rx="7.612" ry="6.54" transform="translate(454.777 102.043)" fill="#fff"/>
    <ellipse id="Ellipse_29" data-name="Ellipse 29" cx="18.767" cy="16.126" rx="18.767" ry="16.126" transform="translate(443.622 483.799)" fill="#fff"/>
    <path id="Path_35" data-name="Path 35" d="M358.011,196.5V518.106H247.99a17.662,17.662,0,0,1-11.479-4.082,13.024,13.024,0,0,1-4.751-9.863V203.469l.591-1.894,1.581-5.075Z" transform="translate(-68.084 -67.43)" fill="#fff"/>
    <path id="Path_36" data-name="Path 36" d="M337.128,187.65V216.6H196.76V189.544l.591-1.894Z" transform="translate(-33.084 -53.505)" fill="#4c4c78"/>
    <path id="Path_37" data-name="Path 37" d="M829.234,200.688H231.76c0-7.7,7.268-13.942,16.23-13.938H812.963a17.672,17.672,0,0,1,11.5,4.067A13.029,13.029,0,0,1,829.234,200.688Z" transform="translate(-68.084 -64.65)" fill="#c8cad7"/>
    <ellipse id="Ellipse_30" data-name="Ellipse 30" cx="4.059" cy="3.488" rx="4.059" ry="3.488" transform="translate(175.847 125.581)" fill="#ededf4"/>
    <ellipse id="Ellipse_31" data-name="Ellipse 31" cx="4.059" cy="3.488" rx="4.059" ry="3.488" transform="translate(188.017 125.581)" fill="#ededf4"/>
    <ellipse id="Ellipse_32" data-name="Ellipse 32" cx="4.059" cy="3.488" rx="4.059" ry="3.488" transform="translate(200.187 125.581)" fill="#ededf4"/>
    <rect id="Rectangle_46" data-name="Rectangle 46" width="84.292" height="6.669" transform="translate(184.656 146.889)" fill="#544c9a"/>
    <rect id="Rectangle_47" data-name="Rectangle 47" width="84.292" height="6.669" transform="translate(184.656 179.412)" fill="#544c9a" opacity="0.5"/>
    <rect id="Rectangle_48" data-name="Rectangle 48" width="84.292" height="6.669" transform="translate(184.656 202.407)" fill="#544c9a" opacity="0.5"/>
    <rect id="Rectangle_49" data-name="Rectangle 49" width="84.292" height="6.669" transform="translate(184.656 225.402)" fill="#544c9a" opacity="0.5"/>
    <rect id="Rectangle_50" data-name="Rectangle 50" width="84.292" height="6.669" transform="translate(184.656 248.39)" fill="#544c9a" opacity="0.5"/>
    <rect id="Rectangle_51" data-name="Rectangle 51" width="84.292" height="6.669" transform="translate(184.656 271.384)" fill="#544c9a" opacity="0.5"/>
    <rect id="Rectangle_52" data-name="Rectangle 52" width="84.292" height="6.669" transform="translate(184.656 294.379)" fill="#544c9a" opacity="0.5"/>
    <rect id="Rectangle_53" data-name="Rectangle 53" width="84.292" height="6.669" transform="translate(184.656 317.367)" fill="#544c9a" opacity="0.5"/>
    <rect id="Rectangle_54" data-name="Rectangle 54" width="373.513" height="1.072" transform="translate(358.939 171.414)" fill="#dce0ed" opacity="0.5"/>
    <rect id="Rectangle_55" data-name="Rectangle 55" width="373.513" height="1.072" transform="translate(358.939 196.31)" fill="#dce0ed" opacity="0.5"/>
    <rect id="Rectangle_56" data-name="Rectangle 56" width="373.513" height="1.072" transform="translate(358.939 221.213)" fill="#dce0ed" opacity="0.5"/>
    <rect id="Rectangle_57" data-name="Rectangle 57" width="373.513" height="1.072" transform="translate(358.939 246.109)" fill="#dce0ed" opacity="0.5"/>
    <rect id="Rectangle_58" data-name="Rectangle 58" width="373.513" height="1.072" transform="translate(358.939 271.006)" fill="#dce0ed" opacity="0.5"/>
    <path id="Path_38" data-name="Path 38" d="M804.919,346.5H430.94V297.539l34.3,14.525,35.5,4.132,31.145-8.07,37.575-25.039,18.9-9.378,13.817-2.287,13.218.608,21.745,9.228,29.548,16.176L689.873,300l18.392-5.447,38.973-27.434,19.9-6.1,20.821,2.766,16.962,8.413Z" transform="translate(-72.459 -74.431)" fill="#544c9a" opacity="0.5"/>
    <path id="Path_39" data-name="Path 39" d="M531.124,332.1c-33.674,0-64.8-17.7-65.184-17.927l.923-1.187c.482.279,48.381,27.512,89.084,13.867,14.857-4.968,25.4-12.709,35.653-20.186,10.673-7.813,20.755-15.2,34.489-18.4a58.13,58.13,0,0,1,46.068,8.892c11.18,7.9,33.457,20.586,56.991,16.79,12-1.93,22.111-9.464,32.817-17.434,20.5-15.3,41.759-31.086,78.436-8.413l-.973,1.158c-35.645-22.008-56.367-6.583-76.4,8.334-10.881,8.106-21.162,15.725-33.6,17.763-24.207,3.9-46.95-9.035-58.355-17.091a56.273,56.273,0,0,0-44.571-8.613c-13.385,3.116-23.292,10.393-33.848,18.1-10.323,7.555-21,15.375-36.1,20.436A80.045,80.045,0,0,1,531.124,332.1Z" transform="translate(-107.459 -90.319)" fill="#544c9a"/>
    <ellipse id="Ellipse_33" data-name="Ellipse 33" cx="9.259" cy="7.956" rx="9.259" ry="7.956" transform="translate(529.411 188.89)" fill="#544c9a"/>
    <path id="Path_40" data-name="Path 40" d="M380.469,510.149c-12.653-6.262-17.469-7.813-17.469-7.82l-.258-.157a9.425,9.425,0,0,1-3.194-3.467c0-.25,0-.5,0-.715v.072c.208-3.317,2.945-6.326,5.548-8.956q3.327-3.367,6.655-6.726a6.5,6.5,0,0,0,1.714-2.387,4.639,4.639,0,0,0,.183-1.43v-.586c0-1.673-.092-3.345-.158-5-.066-1.465-.5-3.3-2.2-3.574-.882-.157-2.046.114-2.5-.536a1.051,1.051,0,0,1-.116-.865v.064a.316.316,0,0,1,0-.079,17.211,17.211,0,0,0,.632-3.438,4.29,4.29,0,0,0-.275-1.737c-.99-2.423-4.376-3.417-7.37-3.874s-6.355-.851-8.235-2.859a23.973,23.973,0,0,0-1.664-1.937,7.027,7.027,0,0,0-3.07-1.3,19.86,19.86,0,0,0-11.13.836,11.218,11.218,0,0,1-4.492,1.222c-1.589-.079-3.061-1.072-4.692-1.308a6.939,6.939,0,0,0-6.447,3.245,7.03,7.03,0,0,0-1.19,3.824v.222h0a5.193,5.193,0,0,0,1.714,3.9c1.131,1.015,2.82,1.708,3.327,3.038.191.543.15,1.129.316,1.673a.7.7,0,0,0,.075.207l-.091.093a15.524,15.524,0,0,0-4.159,10.45c.054,7.539,5.77,14.184,14.142,16.44v.515a6.911,6.911,0,0,1-2.745,5.754l-17.951,6.19s-10.814-1.1-14.707,12.473A19.865,19.865,0,0,0,300,528.5c.141,2.052-.191,5.654-2.961,10.314-4.434,7.462-3.427,24.582,5.64,26.276,8.56,1.6,11.912.936,12.262.858v.3c-.141,3.217-1.5,30.922-6.43,34.31-1.373.922-1.115,1.551,0,1.973v.5c-.15,2.03-.915,9.743-4.218,14.139-3.793,5.068-3.361,34.374-3.361,34.374l-2.612,17.291s1.605,10.679,0,12.545c-1.439,1.665-3.327,41.179-3.76,49.742h-.166a5.008,5.008,0,0,0-3.876,2.03c-2.146,2.959-9.55,8.413-9.55,8.413-1.605,1.966-7.562,3.846-10.706,4.732a7.49,7.49,0,0,0-1.214.45,5.952,5.952,0,0,0-2.7,2.445,2.3,2.3,0,0,0-.283,2.037c.832,1.694,17.527,2.859,21.753,1.187,3.327-1.33,16.5-3.088,21.978-3.774a4.234,4.234,0,0,0,3.91-3.36,1.989,1.989,0,0,0-.5-1.68h0c-1.048-1.115-1.589-4.16-1.83-6.147a5.087,5.087,0,0,0,1.231-.629,39.3,39.3,0,0,1,3.02-18.141c4.026-9.149,5.241-26.1,4.234-37.126,0,0,12.287-45.439,21.961-49.678h0c.15.157,4.841,5.332,5.44,21.358.6,16.276,7.445,26.955,7.445,26.955s-3.02,27.634,0,37.977l-3.968,16.29a5.944,5.944,0,0,1-.474-.372s.117.458.283,1.18l-.083.343.166.036c.449,2.037,1.115,5.59.832,7.677-.158,1.194-.541,2.816-.832,4.417-.416,2.509-.532,4.946,1.007,5.475,2.5.872,17.328,2.066,19.848-.715a3.573,3.573,0,0,0,.732-4.189,4.207,4.207,0,0,0-.732-1.065s-3.935-5.525-2.82-9.421a2.532,2.532,0,0,0-.474-2.23,100.335,100.335,0,0,1,3.452-18.291c2.5-8.156,7.836-26.04,3.926-37.805h0c-.15-.457-.316-.915-.5-1.358a43.967,43.967,0,0,1-2.221-19.835,34.79,34.79,0,0,1,0-17.291c2.4-9.485,4.084-18.778,4.084-18.778s1.331-12.544.166-20.236l-.075-.493.632-.122s-3.419-13.052-4.633-21.358c-.283-1.966-.657-4.446-1.065-7.1a24.8,24.8,0,0,0,3.286-.715c10.881-3.224,14.3-32.387,14.3-32.387v-9.25S393.163,516.446,380.469,510.149ZM299.421,735.307l-.532-.243h0Z" transform="translate(-73.829 -140.416)" fill="url(#linear-gradient)"/>
    <path id="Path_41" data-name="Path 41" d="M379.832,735.535c4.717,11.658-.832,30.579-3.327,39.028a103.079,103.079,0,0,0-3.327,18.585,53.109,53.109,0,0,1-17.3-.343l4.159-17.4c-2.945-10.307,0-37.848,0-37.848s-6.655-10.651-7.27-26.869c-.582-15.961-5.158-21.122-5.307-21.287h0c-9.508,4.246-21.47,49.514-21.47,49.514.982,10.979-.2,27.877-4.159,37A39.877,39.877,0,0,0,318.874,794a7.354,7.354,0,0,1-5.349.879c-5.615-.779-12.345-4.939-12.345-4.939s2.163-49.32,3.735-51.193,0-12.5,0-12.5l2.554-17.234s-.391-29.228,3.327-34.31c3.228-4.382,3.968-12.073,4.118-14.089v-.5l5.69-5.854s55.061-3.574,59.187,0c1.015.872,1.664,2.859,2.013,5.347,1.131,7.663-.166,20.164-.166,20.164s-1.664,9.292-4.01,18.749a35.4,35.4,0,0,0,0,17.234,44.581,44.581,0,0,0,2.2,19.785Z" transform="translate(-79.756 -197.534)" fill="#65617d"/>
    <path id="Path_42" data-name="Path 42" d="M387.4,863.905c-2.454,2.788-16.9,1.608-19.366.715-1.506-.536-1.389-2.959-.982-5.461.258-1.594.632-3.217.782-4.4.4-3.045-1.173-9.214-1.173-9.214s3.244,2.959,4.026,0a3.557,3.557,0,0,1,2.8-2.287,8.474,8.474,0,0,1,5.108.272c2.554.951,6.813,2.981,6.048,5.718-1.081,3.881,2.753,9.385,2.753,9.385a4.136,4.136,0,0,1,.715,1.065,3.608,3.608,0,0,1-.715,4.2Z" transform="translate(-90.766 -251.816)" fill="#a27772"/>
    <path id="Path_43" data-name="Path 43" d="M387.424,870.356c-2.454,2.788-16.9,1.608-19.366.715-1.506-.536-1.389-2.959-.982-5.461,1.547.622,4.159,1.144,8.585.793a27.961,27.961,0,0,1,3.095-.086,82.339,82.339,0,0,0,9.383-.157A3.608,3.608,0,0,1,387.424,870.356Z" transform="translate(-90.791 -258.267)" opacity="0.1"/>
    <path id="Path_44" data-name="Path 44" d="M328.481,752.279c.982,10.979-.2,27.877-4.159,37a39.876,39.876,0,0,0-2.953,18.077,7.354,7.354,0,0,1-5.349.879c1.19-7.148,6.239-37.834,9.483-62.087,3.685-27.627,20.938-46.633,20.938-46.633l3.444,3.252C340.443,707.011,328.481,752.279,328.481,752.279Z" transform="translate(-82.251 -210.896)" opacity="0.1"/>
    <path id="Path_45" data-name="Path 45" d="M376.4,516.811,374,526.947l-11.754,16.984-14.5-5.325s-19.715-17.741-7.329-20.271a11.872,11.872,0,0,0,4.118-1.573,6.938,6.938,0,0,0,3.211-6.111,16.658,16.658,0,0,0-2.013-7.269l25.363-6.841a30.326,30.326,0,0,0-1.822,8.828c-.191,5.933,2.371,8.863,4.475,10.257A8.03,8.03,0,0,0,376.4,516.811Z" transform="translate(-85.665 -153.005)" fill="#fbbebe"/>
    <path id="Path_46" data-name="Path 46" d="M372.993,496.54a30.325,30.325,0,0,0-1.822,8.828c-5.257,5.361-13.77,7.449-21.529,5.282a16.659,16.659,0,0,0-2.013-7.269Z" transform="translate(-87.566 -153.005)" opacity="0.1"/>
    <path id="Path_47" data-name="Path 47" d="M373.5,485.764c0,9.518-8.979,17.234-20.056,17.234s-20.056-7.716-20.056-17.234,8.979-17.234,20.056-17.234a21.788,21.788,0,0,1,14.2,5.035A16.058,16.058,0,0,1,373.5,485.764Z" transform="translate(-85.172 -145.016)" fill="#fbbebe"/>
    <path id="Path_48" data-name="Path 48" d="M376.4,524.427,374,534.562l-11.754,16.983-14.5-5.325s-19.715-17.741-7.329-20.271a11.871,11.871,0,0,0,4.118-1.573c-2.238,5.282,7,16.269,7,16.269,1.073,1.358,3.544.508,3.544.508,5.94-.772,16.9-15.468,18.675-17.913A8.032,8.032,0,0,0,376.4,524.427Z" transform="translate(-85.665 -160.62)" opacity="0.1"/>
    <path id="Path_49" data-name="Path 49" d="M384.625,659.634c-3.494.715-22.81,4.353-30.13,3.438-8.061-1.015-23.741-1.687-23.741-1.687s-9.982.458-13.044-.715v-.5l5.69-5.854s55.061-3.574,59.187,0C383.668,655.16,384.25,657.14,384.625,659.634Z" transform="translate(-82.535 -197.551)" opacity="0.1"/>
    <path id="Path_50" data-name="Path 50" d="M345.631,541.207s-10.373-12.344-6.464-17.155l-17.527,6.176s-10.548-1.1-14.35,12.423a20.379,20.379,0,0,0-.657,6.869c.141,2.037-.183,5.625-2.887,10.271-4.326,7.434-3.327,24.5,5.507,26.19s12,.843,12,.843-1.181,30.922-6.289,34.467,13.035,2.7,13.035,2.7,15.672.715,23.733,1.694,30.671-3.574,30.671-3.574-3.327-13.009-4.525-21.286-3.926-25.9-3.926-25.9L394,551.578s3.535-14.11-8.851-20.357S368.1,523.43,368.1,523.43s-12.478,17.419-18.933,18.263C349.167,541.707,346.7,542.565,345.631,541.207Z" transform="translate(-79.769 -160.674)" fill="#ff748e"/>
    <path id="Path_51" data-name="Path 51" d="M326.266,555.16s-.191,5.575.99,7.77,5.5,14.36,5.5,14.36H322.93s5.307-4.9,4.916-7.262S326.266,555.16,326.266,555.16Z" transform="translate(-83.413 -169.724)" opacity="0.1"/>
    <path id="Path_52" data-name="Path 52" d="M355.6,604.551s-21.712-4.56-23.733-8.442-7.6-12.587-7.6-12.587l2.288-2.652,10.565,7.148S349.7,596.6,355.6,597.482,355.6,604.551,355.6,604.551Z" transform="translate(-83.637 -177.056)" fill="#fbbebe"/>
    <path id="Path_53" data-name="Path 53" d="M355.6,604.551s-21.712-4.56-23.733-8.442-7.6-12.587-7.6-12.587l2.288-2.652,10.565,7.148S349.7,596.6,355.6,597.482,355.6,604.551,355.6,604.551Z" transform="translate(-83.637 -177.056)" opacity="0.05"/>
    <path id="Path_54" data-name="Path 54" d="M376.57,583.247v10.121h-1.9a62.312,62.312,0,0,0-26.736,5.947L344.394,601l-.957.458-6.1-11.794,5.707-4.4h.291c1.4.114,7.428.543,9.982-.193s5.449-2.959,12.594-1.387c3.527.772,6.53,4.167,9.982,3.109Z" transform="translate(-85.836 -177.704)" fill="#fbbebe"/>
    <path id="Path_55" data-name="Path 55" d="M398.655,552.934l3.935,3.8v9.206s-3.327,29.063-13.959,32.273-29.573-1.858-29.573-1.858-4.9-11.151-2.612-11.83,20.247-4.746,20.247-4.746-.258-17.048,3.677-22.115c0,0-2.554-15.883,6.289-16.219S398.655,552.934,398.655,552.934Z" transform="translate(-88.946 -165.811)" opacity="0.1"/>
    <path id="Path_56" data-name="Path 56" d="M399.346,552.934l3.935,3.8v9.206s-3.327,29.063-13.967,32.273-29.564-1.858-29.564-1.858-4.9-11.151-2.612-11.83,20.239-4.746,20.239-4.746-.25-17.048,3.685-22.115c0,0-2.562-15.883,6.289-16.219S399.346,552.934,399.346,552.934Z" transform="translate(-89.062 -165.811)" fill="#ff748e"/>
    <path id="Path_57" data-name="Path 57" d="M368.834,493.073a5.791,5.791,0,0,0-.449-3.288,3.034,3.034,0,0,0-3.111-1.544c-1.664.336-2.412,2.216-4.059,2.666a3.383,3.383,0,0,1-3.577-1.58,7.064,7.064,0,0,1-.682-3.674v-4.239c0-1.537-.058-3.2-1.165-4.4-1.373-1.5-4.592-2.144-6.738-2.094a6.246,6.246,0,0,0-3.852,1.33,5.492,5.492,0,0,1-4.051,1.244,3.387,3.387,0,0,1-2.82-2.1.147.147,0,0,1,0-.057c4.557-5.177,12.112-7.715,19.547-6.565s13.487,5.79,15.659,12.007.094,12.955-5.375,17.432a41.3,41.3,0,0,0,.674-5.132Z" transform="translate(-86.002 -145.005)" opacity="0.1"/>
    <path id="Path_58" data-name="Path 58" d="M340.089,472.8a3.414,3.414,0,0,1-2.828-2.1c-.158-.543-.116-1.129-.308-1.665-.457-1.33-2.1-2.023-3.211-3.031-2.213-2.016-2.071-5.339-.507-7.77,1.273-1.959,3.727-3.61,6.3-3.231,1.589.243,2.961,1.215,4.575,1.3s2.97-.658,4.384-1.215a19.009,19.009,0,0,1,10.864-.829,6.724,6.724,0,0,1,2.995,1.294,22.255,22.255,0,0,1,1.6,1.93c1.83,2.009,5.116,2.4,8.036,2.859s6.231,1.43,7.187,3.867c.641,1.6,0,3.338-.341,5a1.246,1.246,0,0,0,.075,1.036c.458.651,1.6.379,2.5.529,1.664.3,2.08,2.144,2.138,3.574q.117,2.487.158,5a5.556,5.556,0,0,1-.166,1.851,6.482,6.482,0,0,1-1.664,2.323l-6.5,6.7c-2.878,2.974-5.931,6.433-5.357,10.272a2.849,2.849,0,0,1-3.427-1.716,6.552,6.552,0,0,1,.216-3.8,40.537,40.537,0,0,0,1.023-6.6,5.809,5.809,0,0,0-.449-3.3,3.043,3.043,0,0,0-3.119-1.544c-1.664.336-2.4,2.216-4.051,2.666a3.372,3.372,0,0,1-3.577-1.58,7.144,7.144,0,0,1-.682-3.674v-4.239c0-1.537-.058-3.2-1.165-4.4-1.364-1.5-4.592-2.144-6.738-2.094a6.245,6.245,0,0,0-3.851,1.329A5.5,5.5,0,0,1,340.089,472.8Z" transform="translate(-84.95 -140.821)" fill="#7c5c5c"/>
    <path id="Path_59" data-name="Path 59" d="M347.15,554.57l6.164,21.73S358.164,576.278,347.15,554.57Z" transform="translate(-87.485 -169.555)" opacity="0.1"/>
    <path id="Path_60" data-name="Path 60" d="M371.309,549.48s-8.069,11.351-4.916,23.081l1.5.093S365.211,567.221,371.309,549.48Z" transform="translate(-90.598 -168.104)" opacity="0.1"/>
    <path id="Path_61" data-name="Path 61" d="M378.59,639.069s9.9-2.816,10.623,3.717C389.213,642.786,387.341,638.3,378.59,639.069Z" transform="translate(-92.772 -193.483)" opacity="0.1"/>
    <path id="Path_62" data-name="Path 62" d="M340.782,586.83s-1.963,11.83,1.572,16.562a49.8,49.8,0,0,1-17.3,2.023L323.87,586.83Z" transform="translate(-83.571 -178.756)" opacity="0.1"/>
    <path id="Path_63" data-name="Path 63" d="M344.394,601.853l-.957.457-6.1-11.794,5.707-4.4h.291C343.246,586.692,341.657,596.849,344.394,601.853Z" transform="translate(-85.836 -178.554)" opacity="0.1"/>
    <path id="Path_64" data-name="Path 64" d="M339.63,586.12s-1.963,11.83,1.572,16.562a49.793,49.793,0,0,1-17.3,2.023L317.02,586.12Z" transform="translate(-82.419 -178.554)" fill="#ff748e"/>
    <path id="Path_65" data-name="Path 65" d="M314.327,856.567a4.155,4.155,0,0,1-3.818,3.345c-5.332.715-18.2,2.43-21.445,3.76-4.159,1.694-20.447.508-21.237-1.179a2.35,2.35,0,0,1,.283-2.037,6.28,6.28,0,0,1,3.818-2.859c3.078-.886,8.884-2.752,10.448-4.711,0,0,7.237-5.447,9.3-8.384a4.846,4.846,0,0,1,3.785-2.023c1.722-.072,3.635.679,4.425,3.917,0,0,9.433,4.625,11.987.572,0,0,.391,6.226,1.955,7.934h0A2.008,2.008,0,0,1,314.327,856.567Z" transform="translate(-74.128 -251.668)" fill="#a27772"/>
    <path id="Path_66" data-name="Path 66" d="M314.327,861.517a4.155,4.155,0,0,1-3.818,3.345c-5.332.715-18.2,2.43-21.445,3.76-4.159,1.694-20.447.507-21.237-1.18a2.35,2.35,0,0,1,.283-2.037,5.841,5.841,0,0,1,2.637-2.43c2.662,1.515,8.568,3,21.562,1.258,12.395-1.666,18.525-3.3,21.52-4.4h0A2.008,2.008,0,0,1,314.327,861.517Z" transform="translate(-74.128 -256.618)" opacity="0.1"/>
    <g id="Group_3" data-name="Group 3" transform="translate(247.112 321.005)" opacity="0.1">
      <path id="Path_67" data-name="Path 67" d="M388.239,474.107a.307.307,0,0,0,0-.086,13.38,13.38,0,0,0,.607-3.831,21.127,21.127,0,0,1-.607,3.074A1.617,1.617,0,0,0,388.239,474.107Z" transform="translate(-341.496 -466.495)"/>
      <path id="Path_68" data-name="Path 68" d="M367.331,488.444a4.414,4.414,0,0,1,.482,1.93,5.065,5.065,0,0,0-.482-2.688,3.05,3.05,0,0,0-3.119-1.551c-1.664.336-2.4,2.223-4.051,2.673a3.388,3.388,0,0,1-3.577-1.587,6.983,6.983,0,0,1-.682-3.674v-4.232c0-1.537-.058-3.2-1.165-4.4-1.373-1.508-4.592-2.144-6.746-2.1a6.2,6.2,0,0,0-3.843,1.337,5.5,5.5,0,0,1-4.051,1.237,3.373,3.373,0,0,1-2.828-2.1c-.166-.543-.116-1.122-.308-1.665-.457-1.33-2.1-2.016-3.211-3.023a5.168,5.168,0,0,1-1.664-3.574,5.285,5.285,0,0,0,1.664,4.332c1.106,1.008,2.753,1.7,3.211,3.031.191.536.141,1.122.308,1.665a3.405,3.405,0,0,0,2.828,2.1,5.492,5.492,0,0,0,4.051-1.244,6.3,6.3,0,0,1,3.835-1.322c2.155-.057,5.374.6,6.746,2.1,1.106,1.208,1.156,2.859,1.165,4.4v4.232a6.994,6.994,0,0,0,.682,3.681,3.383,3.383,0,0,0,3.577,1.58c1.664-.45,2.371-2.33,4.051-2.673A3.074,3.074,0,0,1,367.331,488.444Z" transform="translate(-332.06 -465.02)"/>
      <path id="Path_69" data-name="Path 69" d="M391.144,490.844a6.569,6.569,0,0,1-1.664,2.33q-3.261,3.345-6.5,6.7c-2.728,2.823-5.623,6.09-5.415,9.693.2-3.3,2.878-6.3,5.415-8.928l6.5-6.7a6.544,6.544,0,0,0,1.664-2.323,5.555,5.555,0,0,0,.166-1.858,4.024,4.024,0,0,1-.166,1.094Z" transform="translate(-339.71 -472.073)"/>
      <path id="Path_70" data-name="Path 70" d="M373.466,515.528a3.492,3.492,0,0,1-.2-.908,3.922,3.922,0,0,0,.2,1.665A2.845,2.845,0,0,0,376.893,518c0-.25-.058-.5-.066-.715A2.867,2.867,0,0,1,373.466,515.528Z" transform="translate(-338.985 -479.166)"/>
    </g>
    <path id="Path_71" data-name="Path 71" d="M295,847.42s2.055,3.1,9.508.365" transform="translate(-78.717 -253.079)" opacity="0.1"/>
    <path id="Path_72" data-name="Path 72" d="M370.65,848.46s6.43,6.5,14.524,2.144" transform="translate(-91.437 -253.376)" opacity="0.1"/>
    <path id="Path_73" data-name="Path 73" d="M392.18,740.94s-4.542,2.437-4.692,3.831,2.346-1.015,2.346-1.015Z" transform="translate(-94.267 -222.71)" opacity="0.1"/>
    <path id="Path_74" data-name="Path 74" d="M393.633,767.08a10.347,10.347,0,0,1-5.59,1.873c-3.394.129-3.111,3.931-.89,2.788A54.621,54.621,0,0,0,393.633,767.08Z" transform="translate(-93.931 -230.165)" opacity="0.1"/>
    <path id="Path_75" data-name="Path 75" d="M395.521,770.49s-2.179,9.192-3.951,7.419" transform="translate(-94.954 -231.138)" opacity="0.1"/>
    <g id="Group_4" data-name="Group 4" transform="translate(391.947 327.853)" opacity="0.5">
      <rect id="Rectangle_59" data-name="Rectangle 59" width="54.903" height="10.007" fill="#dce0ed"/>
      <rect id="Rectangle_60" data-name="Rectangle 60" width="54.903" height="10.007" transform="translate(126.068)" fill="#dce0ed"/>
      <rect id="Rectangle_61" data-name="Rectangle 61" width="54.903" height="10.007" transform="translate(252.136)" fill="#dce0ed"/>
    </g>
    <ellipse id="Ellipse_34" data-name="Ellipse 34" cx="22.402" cy="3.252" rx="22.402" ry="3.252" transform="translate(770.135 569.516)" fill="#544c9a" opacity="0.1"/>
    <ellipse id="Ellipse_35" data-name="Ellipse 35" cx="22.402" cy="3.252" rx="22.402" ry="3.252" transform="translate(73.445 610.581)" fill="#544c9a" opacity="0.1"/>
    <ellipse id="Ellipse_36" data-name="Ellipse 36" cx="33.449" cy="4.861" rx="33.449" ry="4.861" transform="translate(710.058 602.761)" fill="#544c9a"/>
    <path id="Path_76" data-name="Path 76" d="M939.158,849.6a8.354,8.354,0,0,0,3.186-4.139,3.524,3.524,0,0,0-2.221-4.21c-2.046-.672-4.234.543-5.9,1.78s-3.552,2.63-5.723,2.373a6.9,6.9,0,0,0,2.7-7.012,2.743,2.743,0,0,0-.749-1.43c-1.14-1.044-3.194-.6-4.559.222-4.326,2.616-5.532,7.662-5.557,12.209-.433-1.637-.067-3.345-.075-5s-.549-3.574-2.2-4.453a7.557,7.557,0,0,0-3.327-.672c-1.947-.064-4.118.1-5.44,1.322-1.664,1.522-1.223,4.067.208,5.718s3.627,2.716,5.632,3.874a11.992,11.992,0,0,1,4.026,3.3,3.2,3.2,0,0,1,.291.593h12.195A34.829,34.829,0,0,0,939.158,849.6Z" transform="translate(-181.825 -249.924)" fill="#544c9a"/>
    <path id="Path_77" data-name="Path 77" d="M148.907,807.19s4.575,5.139-2.1,12.866-12.187,14.3-9.982,19.135c0,0,10.082-14.4,18.3-14.6S157.933,815.853,148.907,807.19Z" transform="translate(-52.037 -241.605)" fill="#544c9a"/>
    <path id="Path_78" data-name="Path 78" d="M148.962,807.19a6.13,6.13,0,0,1,.94,1.615c8,8.077,12.262,15.618,4.567,15.8-7.162.179-15.755,11.186-17.818,13.967a5.973,5.973,0,0,0,.241.636s10.082-14.4,18.3-14.6S157.987,815.853,148.962,807.19Z" transform="translate(-52.092 -241.605)" opacity="0.1"/>
    <path id="Path_79" data-name="Path 79" d="M161.448,815.883c0,1.808-.233,3.274-.524,3.274s-.524-1.43-.524-3.274.291-.958.582-.958S161.448,814.074,161.448,815.883Z" transform="translate(-56.085 -243.75)" fill="#ffd037"/>
    <path id="Path_80" data-name="Path 80" d="M164.442,818.874c-1.847.865-3.461,1.387-3.594,1.165s1.239-1.1,3.086-1.966,1.123-.236,1.256,0S166.289,818.009,164.442,818.874Z" transform="translate(-56.159 -244.583)" fill="#ffd037"/>
    <path id="Path_81" data-name="Path 81" d="M120.364,807.19s-4.575,5.139,2.1,12.866,12.187,14.3,9.982,19.135c0,0-10.074-14.4-18.3-14.6S111.339,815.853,120.364,807.19Z" transform="translate(-47.627 -241.605)" fill="#544c9a"/>
    <path id="Path_82" data-name="Path 82" d="M120.361,807.19a6.13,6.13,0,0,0-.94,1.615c-8,8.077-12.262,15.618-4.567,15.8,7.162.179,15.755,11.186,17.818,13.967a4.643,4.643,0,0,1-.25.636s-10.074-14.4-18.3-14.6S111.335,815.853,120.361,807.19Z" transform="translate(-47.623 -241.605)" opacity="0.1"/>
    <path id="Path_83" data-name="Path 83" d="M112.22,815.883c0,1.808.241,3.274.532,3.274s.524-1.43.524-3.274-.291-.958-.582-.958S112.22,814.074,112.22,815.883Z" transform="translate(-47.984 -243.75)" fill="#ffd037"/>
    <path id="Path_84" data-name="Path 84" d="M108.492,818.874c1.847.865,3.452,1.387,3.594,1.165s-1.239-1.1-3.086-1.966-1.123-.236-1.264,0S106.646,818.009,108.492,818.874Z" transform="translate(-47.168 -244.583)" fill="#ffd037"/>
    <path id="Path_85" data-name="Path 85" d="M114,848.682s12.777-.343,16.637-2.695,19.657-5.175,20.613-1.394,19.2,18.792,4.775,18.892-33.516-1.93-37.359-3.939S114,848.682,114,848.682Z" transform="translate(-48.283 -251.746)" fill="#a8a8a8"/>
    <path id="Path_86" data-name="Path 86" d="M156.245,864.532c-14.424.1-33.524-1.93-37.367-3.938-2.92-1.537-4.093-7.034-4.475-9.564h-.433s.832,8.849,4.658,10.865,22.934,4.039,37.359,3.939c4.159,0,5.6-1.3,5.524-3.188C160.928,863.8,159.34,864.511,156.245,864.532Z" transform="translate(-48.278 -254.109)" opacity="0.2"/>
    <path id="Path_87" data-name="Path 87" d="M499.936,559.41c0-14.61,13.834-25.832,30.845-25.832h.241V526.93h-.241c-21.279,0-38.582,14.2-38.582,32.48,0,9.571,4.822,18.669,13.222,24.949l5.479-4.713C503.95,574.621,499.937,567.215,499.936,559.41Z" transform="translate(-111.874 -161.672)" fill="#544c9a"/>
    <path id="Path_88" data-name="Path 88" d="M534.621,526.94v6.648c13.614.078,25.558,7.818,29.386,19.044s-1.363,23.281-12.774,29.662-26.341,5.575-36.735-1.98l-5.5,4.711c12.879,9.676,31.638,10.9,46.076,3.018s21.1-23.005,16.368-37.132-19.732-23.886-36.84-23.969Z" transform="translate(-114.699 -161.675)" fill="#544c9a" opacity="0.5"/>
    <path id="Path_89" data-name="Path 89" d="M837.932,533.107c17,0,30.063,11.887,30.063,26.5v.207h7.736v-.207c0-18.277-16.529-33.152-37.8-33.152-11.134,0-21.724,4.14-29.032,11.358l5.482,4.71a33.037,33.037,0,0,1,23.55-9.421Z" transform="translate(-165.125 -161.538)" fill="#544c9a" opacity="0.5"/>
    <path id="Path_90" data-name="Path 90" d="M873.645,565.281h-7.736c-.091,11.7-9.1,21.961-22.163,25.251s-27.095-1.171-34.52-10.976-6.489-22.634,2.3-31.566l-5.457-4.71c-11.261,11.067-12.691,27.186-3.512,39.592S829.334,601,845.775,596.936s27.8-16.955,27.9-31.655Z" transform="translate(-163.047 -166.335)" fill="#544c9a"/>
    <path id="Path_91" data-name="Path 91" d="M698.419,529.66l-1.539,6.619c11.322,3.924,18.559,13.459,18.559,24.575,0,13.232-11.351,24.438-26.6,26.255s-29.728-6.315-33.91-19.049,3.209-26.168,17.316-31.472l-3.427-5.969C651.3,537.391,642.26,554.2,647.6,570.05s23.436,25.908,42.449,23.6,33.149-16.292,33.16-32.792C723.209,546.508,713.326,534.27,698.419,529.66Z" transform="translate(-137.747 -162.451)" fill="#544c9a" opacity="0.5"/>
    <path id="Path_92" data-name="Path 92" d="M690.4,533.037a30.764,30.764,0,0,1,10.739,1.916l1.539-6.612A39,39,0,0,0,690.4,526.39a43.8,43.8,0,0,0-15.806,2.924l3.461,5.954A34.839,34.839,0,0,1,690.4,533.037Z" transform="translate(-142.541 -161.518)" fill="#544c9a"/>
  </g>
</svg>
