<svg xmlns="http://www.w3.org/2000/svg" xmlns:xlink="http://www.w3.org/1999/xlink" width="940" height="868.04" viewBox="0 0 940 868.04">
  <defs>
    <linearGradient id="linear-gradient" x1="0.5" y1="1" x2="0.5" gradientUnits="objectBoundingBox">
      <stop offset="0" stop-color="gray" stop-opacity="0.251"/>
      <stop offset="0.54" stop-color="gray" stop-opacity="0.122"/>
      <stop offset="1" stop-color="gray" stop-opacity="0.102"/>
    </linearGradient>
  </defs>
  <g id="undraw_dashboard_nklg" transform="translate(0 -0.05)" opacity="0.1">
    <path id="Path_27" data-name="Path 27" d="M971.868,213.61a233.342,233.342,0,0,0-37.292-60.38l-517.3-5.18L843.188,87.26a238.337,238.337,0,0,0-86.413-17.42,239.179,239.179,0,0,0-289.329-9.91A238.014,238.014,0,0,0,356.717,32.82c-114.938,0-210.71,80.9-232.2,188.19Z" transform="translate(-50.052 -15.95)" fill="#544c9a" opacity="0.1"/>
    <path id="Path_28" data-name="Path 28" d="M975,303.59a230.591,230.591,0,0,0-16.121-84.92L62.335,314.31a230.966,230.966,0,0,0-21,53.91l277.633,42.06L35,440.94C43.543,562.4,145.995,658.3,271.148,658.3A237.485,237.485,0,0,0,433.8,594.37a237.508,237.508,0,0,0,164.018,65.21c94.474,0,176.021-54.67,214-133.71C888,501.29,947.174,439.59,967.43,362.4l-351.1-55.34H975Z" transform="translate(-35 -15.95)" fill="#544c9a" opacity="0.1"/>
    <ellipse id="Ellipse_27" data-name="Ellipse 27" cx="241.222" cy="12.94" rx="241.222" ry="12.94" transform="translate(174.69 842.21)" fill="#544c9a" opacity="0.1"/>
    <path id="Path_29" data-name="Path 29" d="M668.207,848.34v7.82H475.84v-6.35c23.992-10.685,40.261-37.7,41.214-68.436s-13.6-59.132-36.863-71.934H666.9c-22.72,12.505-37.181,39.924-36.9,69.96s15.255,57.055,38.2,68.94Z" transform="translate(-109.124 -15.95)" fill="#c8cad7"/>
    <path id="Path_30" data-name="Path 30" d="M667.782,709.44c-17.379,9.592-30.22,28.112-34.938,50.39H516.018c-4.72-22.276-17.561-40.8-34.938-50.39Z" transform="translate(-110.005 -15.95)" opacity="0.1"/>
    <path id="Path_31" data-name="Path 31" d="M211,669.6v43.9c0,24.24,14.757,43.89,32.967,43.89H809.98c18.209,0,32.967-19.65,32.967-43.89V669.6Z" transform="translate(-64.593 -15.95)" fill="#c8cad7"/>
    <path id="Path_32" data-name="Path 32" d="M668.207,848.34v7.82H475.84v-6.35a60.589,60.589,0,0,0,14.832-9.5H656.411a61.682,61.682,0,0,0,11.8,8.03Z" transform="translate(-109.124 -15.95)" opacity="0.1"/>
    <rect id="Rectangle_45" data-name="Rectangle 45" width="319.509" height="23.17" rx="9.5" transform="translate(303.146 826.8)" fill="#c8cad7"/>
    <path id="Path_33" data-name="Path 33" d="M842.946,188.57c-.023-21.866-14.777-39.576-32.966-39.57H243.992c-18.2-.022-32.969,17.692-32.991,39.57V678.14H842.946Z" transform="translate(-64.593 -15.95)" fill="#474157"/>
    <path id="Path_34" data-name="Path 34" d="M829.234,206.25V626.92a21.664,21.664,0,0,1-4.751,13.8A14.977,14.977,0,0,1,813,646.43H247.99a14.976,14.976,0,0,1-11.479-5.711,21.664,21.664,0,0,1-4.751-13.8V206.25c0-10.775,7.266-19.51,16.23-19.51H812.963a14.974,14.974,0,0,1,11.5,5.7A21.668,21.668,0,0,1,829.234,206.25Z" transform="translate(-68.084 -15.95)" fill="#4c4c78"/>
    <ellipse id="Ellipse_28" data-name="Ellipse 28" cx="7.612" cy="9.15" rx="7.612" ry="9.15" transform="translate(454.777 142.74)" fill="#fff"/>
    <ellipse id="Ellipse_29" data-name="Ellipse 29" cx="18.767" cy="22.56" rx="18.767" ry="22.56" transform="translate(443.622 676.82)" fill="#fff"/>
    <path id="Path_35" data-name="Path 35" d="M358.011,196.5V646.43H247.99a14.976,14.976,0,0,1-11.479-5.711,21.664,21.664,0,0,1-4.751-13.8V206.25l.591-2.65,1.581-7.1Z" transform="translate(-68.084 -15.95)" fill="#fff"/>
    <path id="Path_36" data-name="Path 36" d="M337.128,187.65v40.5H196.76V190.3l.591-2.65Z" transform="translate(-33.084)" fill="#4c4c78"/>
    <path id="Path_37" data-name="Path 37" d="M829.234,206.25H231.76c0-10.773,7.268-19.506,16.23-19.5H812.963a14.964,14.964,0,0,1,11.5,5.69A21.656,21.656,0,0,1,829.234,206.25Z" transform="translate(-68.084 -15.95)" fill="#c8cad7"/>
    <ellipse id="Ellipse_30" data-name="Ellipse 30" cx="4.059" cy="4.88" rx="4.059" ry="4.88" transform="translate(175.847 175.67)" fill="#ededf4"/>
    <ellipse id="Ellipse_31" data-name="Ellipse 31" cx="4.059" cy="4.88" rx="4.059" ry="4.88" transform="translate(188.017 175.67)" fill="#ededf4"/>
    <ellipse id="Ellipse_32" data-name="Ellipse 32" cx="4.059" cy="4.88" rx="4.059" ry="4.88" transform="translate(200.187 175.67)" fill="#ededf4"/>
    <rect id="Rectangle_46" data-name="Rectangle 46" width="84.292" height="9.33" transform="translate(184.656 205.48)" fill="#544c9a"/>
    <rect id="Rectangle_47" data-name="Rectangle 47" width="84.292" height="9.33" transform="translate(184.656 250.98)" fill="#544c9a" opacity="0.5"/>
    <rect id="Rectangle_48" data-name="Rectangle 48" width="84.292" height="9.33" transform="translate(184.656 283.15)" fill="#544c9a" opacity="0.5"/>
    <rect id="Rectangle_49" data-name="Rectangle 49" width="84.292" height="9.33" transform="translate(184.656 315.32)" fill="#544c9a" opacity="0.5"/>
    <rect id="Rectangle_50" data-name="Rectangle 50" width="84.292" height="9.33" transform="translate(184.656 347.48)" fill="#544c9a" opacity="0.5"/>
    <rect id="Rectangle_51" data-name="Rectangle 51" width="84.292" height="9.33" transform="translate(184.656 379.65)" fill="#544c9a" opacity="0.5"/>
    <rect id="Rectangle_52" data-name="Rectangle 52" width="84.292" height="9.33" transform="translate(184.656 411.82)" fill="#544c9a" opacity="0.5"/>
    <rect id="Rectangle_53" data-name="Rectangle 53" width="84.292" height="9.33" transform="translate(184.656 443.98)" fill="#544c9a" opacity="0.5"/>
    <rect id="Rectangle_54" data-name="Rectangle 54" width="373.513" height="1.5" transform="translate(358.939 239.79)" fill="#dce0ed" opacity="0.5"/>
    <rect id="Rectangle_55" data-name="Rectangle 55" width="373.513" height="1.5" transform="translate(358.939 274.62)" fill="#dce0ed" opacity="0.5"/>
    <rect id="Rectangle_56" data-name="Rectangle 56" width="373.513" height="1.5" transform="translate(358.939 309.46)" fill="#dce0ed" opacity="0.5"/>
    <rect id="Rectangle_57" data-name="Rectangle 57" width="373.513" height="1.5" transform="translate(358.939 344.29)" fill="#dce0ed" opacity="0.5"/>
    <rect id="Rectangle_58" data-name="Rectangle 58" width="373.513" height="1.5" transform="translate(358.939 379.12)" fill="#dce0ed" opacity="0.5"/>
    <path id="Path_38" data-name="Path 38" d="M804.919,380.61H430.94v-68.5l34.3,20.32,35.5,5.78,31.145-11.29,37.575-35.03,18.9-13.12,13.817-3.2,13.218.85,21.745,12.91,29.548,22.63,23.192,3.59,18.392-7.62,38.973-38.38,19.9-8.53,20.821,3.87,16.962,11.77Z" transform="translate(-72.459)" fill="#544c9a" opacity="0.5"/>
    <path id="Path_39" data-name="Path 39" d="M531.124,354.18c-33.674,0-64.8-24.76-65.184-25.08l.923-1.66c.482.39,48.381,38.49,89.084,19.4,14.857-6.95,25.4-17.78,35.653-28.24,10.673-10.93,20.755-21.26,34.489-25.74,15.805-5.13,32.983-.48,46.068,12.44,11.18,11.05,33.457,28.8,56.991,23.49,12-2.7,22.111-13.24,32.817-24.39,20.5-21.4,41.759-43.49,78.436-11.77l-.973,1.62c-35.645-30.79-56.367-9.21-76.4,11.66-10.881,11.34-21.162,22-33.6,24.85-24.207,5.45-46.95-12.64-58.355-23.91-12.669-12.52-29.331-17-44.571-12.05-13.385,4.36-23.292,14.54-33.848,25.32-10.323,10.57-21,21.51-36.1,28.59a59.456,59.456,0,0,1-25.43,5.47Z" transform="translate(-107.459 -15.95)" fill="#544c9a"/>
    <ellipse id="Ellipse_33" data-name="Ellipse 33" cx="9.259" cy="11.13" rx="9.259" ry="11.13" transform="translate(529.411 264.24)" fill="#544c9a"/>
    <path id="Path_40" data-name="Path 40" d="M380.469,533.19C367.817,524.43,363,522.26,363,522.25l-.258-.22a12.565,12.565,0,0,1-3.194-4.85c0-.35,0-.7,0-1v.1c.208-4.64,2.945-8.85,5.548-12.53q3.327-4.71,6.655-9.41a9.65,9.65,0,0,0,1.714-3.34,8.946,8.946,0,0,0,.183-2v-.82c0-2.34-.092-4.68-.158-7-.066-2.05-.5-4.62-2.2-5-.882-.22-2.046.16-2.5-.75a1.987,1.987,0,0,1-.116-1.21v.09a.618.618,0,0,1,0-.11,32.837,32.837,0,0,0,.632-4.81,8.206,8.206,0,0,0-.275-2.43c-.99-3.39-4.376-4.78-7.37-5.42s-6.355-1.19-8.235-4q-.773-1.406-1.664-2.71a6.2,6.2,0,0,0-3.07-1.82,14.579,14.579,0,0,0-11.13,1.17c-1.447.78-2.9,1.82-4.492,1.71s-3.061-1.5-4.692-1.83c-2.629-.54-5.149,1.79-6.447,4.54a12.76,12.76,0,0,0-1.19,5.35v.31h0a8.826,8.826,0,0,0,1.714,5.46c1.131,1.42,2.82,2.39,3.327,4.25.191.76.15,1.58.316,2.34a1.243,1.243,0,0,0,.075.29l-.091.13a27,27,0,0,0-4.159,14.62c.054,10.547,5.77,19.844,14.142,23v.72a11.476,11.476,0,0,1-2.745,8.05l-17.951,8.66s-10.814-1.54-14.707,17.45a38.474,38.474,0,0,0-.665,9.63,33.047,33.047,0,0,1-2.961,14.43c-4.434,10.44-3.427,34.39,5.64,36.76,8.56,2.24,11.912,1.31,12.262,1.2v.42c-.141,4.5-1.5,43.26-6.43,48-1.373,1.29-1.115,2.17,0,2.76v.7c-.15,2.84-.915,13.63-4.218,19.78C300.494,690,300.927,731,300.927,731l-2.612,24.19s1.605,14.94,0,17.55c-1.439,2.33-3.327,57.61-3.76,69.59h-.166a4.82,4.82,0,0,0-3.876,2.84c-2.146,4.14-9.55,11.77-9.55,11.77-1.605,2.75-7.562,5.38-10.706,6.62a6.322,6.322,0,0,0-1.214.63,7.27,7.27,0,0,0-2.7,3.42,4.318,4.318,0,0,0-.283,2.85c.832,2.37,17.527,4,21.753,1.66,3.327-1.86,16.5-4.32,21.978-5.28a5.038,5.038,0,0,0,3.91-4.7,3.58,3.58,0,0,0-.5-2.35h0c-1.048-1.56-1.589-5.82-1.83-8.6a4.777,4.777,0,0,0,1.231-.88,74.9,74.9,0,0,1,3.02-25.38c4.026-12.8,5.241-36.52,4.234-51.94,0,0,12.287-63.57,21.961-69.5h0c.15.22,4.841,7.46,5.44,29.88.6,22.77,7.445,37.71,7.445,37.71s-3.02,38.66,0,53.13L350.73,847a6.759,6.759,0,0,1-.474-.52s.117.64.283,1.65l-.083.48.166.05c.449,2.85,1.115,7.82.832,10.74-.158,1.67-.541,3.94-.832,6.18-.416,3.51-.532,6.92,1.007,7.66,2.5,1.22,17.328,2.89,19.848-1a6.524,6.524,0,0,0,.732-5.86,6.362,6.362,0,0,0-.732-1.49s-3.935-7.73-2.82-13.18a4.679,4.679,0,0,0-.474-3.12A191.251,191.251,0,0,1,371.635,823c2.5-11.41,7.836-36.43,3.926-52.89h0c-.15-.64-.316-1.28-.5-1.9a84.737,84.737,0,0,1-2.221-27.75,67.57,67.57,0,0,1,0-24.19c2.4-13.27,4.084-26.27,4.084-26.27s1.331-17.55.166-28.31l-.075-.69.632-.17s-3.419-18.26-4.633-29.88c-.283-2.75-.657-6.22-1.065-9.93a18.9,18.9,0,0,0,3.286-1c10.881-4.51,14.3-45.31,14.3-45.31V561.77S393.163,542,380.469,533.19Zm-81.048,315-.532-.34h0Z" transform="translate(-73.829 -15.95)" fill="url(#linear-gradient)"/>
    <path id="Path_41" data-name="Path 41" d="M379.832,768.6c4.717,16.31-.832,42.78-3.327,54.6a196.978,196.978,0,0,0-3.327,26,38.226,38.226,0,0,1-17.3-.48l4.159-24.34c-2.945-14.42,0-52.95,0-52.95s-6.655-14.9-7.27-37.59c-.582-22.33-5.158-29.55-5.307-29.78h0c-9.508,5.94-21.47,69.27-21.47,69.27.982,15.36-.2,39-4.159,51.77a76.079,76.079,0,0,0-2.953,25.29c-1.373,1.39-3.286,1.63-5.349,1.23-5.615-1.09-12.345-6.91-12.345-6.91s2.163-69,3.735-71.62,0-17.49,0-17.49l2.554-24.11s-.391-40.89,3.327-48c3.228-6.13,3.968-16.89,4.118-19.71v-.7l5.69-8.19s55.061-5,59.187,0c1.015,1.22,1.664,4,2.013,7.48,1.131,10.72-.166,28.21-.166,28.21s-1.664,13-4.01,26.23a68.766,68.766,0,0,0,0,24.11,85.944,85.944,0,0,0,2.2,27.68Z" transform="translate(-79.756 -15.95)" fill="#65617d"/>
    <path id="Path_42" data-name="Path 42" d="M387.4,872.25c-2.454,3.9-16.9,2.25-19.366,1-1.506-.75-1.389-4.14-.982-7.64.258-2.23.632-4.5.782-6.15.4-4.26-1.173-12.89-1.173-12.89s3.244,4.14,4.026,0a4.137,4.137,0,0,1,2.8-3.2,6.217,6.217,0,0,1,5.108.38c2.554,1.33,6.813,4.17,6.048,8-1.081,5.43,2.753,13.13,2.753,13.13a6.311,6.311,0,0,1,.715,1.49,6.6,6.6,0,0,1-.715,5.88Z" transform="translate(-90.766 -15.95)" fill="#a27772"/>
    <path id="Path_43" data-name="Path 43" d="M387.424,872.25c-2.454,3.9-16.9,2.25-19.366,1-1.506-.75-1.389-4.14-.982-7.64,1.547.87,4.159,1.6,8.585,1.11a20.03,20.03,0,0,1,3.095-.12,58.9,58.9,0,0,0,9.383-.22,6.6,6.6,0,0,1-.715,5.87Z" transform="translate(-90.791 -15.95)" opacity="0.1"/>
    <path id="Path_44" data-name="Path 44" d="M328.481,773.33c.982,15.36-.2,39-4.159,51.77a76.078,76.078,0,0,0-2.953,25.29c-1.372,1.39-3.286,1.63-5.349,1.23,1.19-10,6.239-52.93,9.483-86.86,3.685-38.65,20.938-65.24,20.938-65.24l3.444,4.55C340.443,710,328.481,773.33,328.481,773.33Z" transform="translate(-82.251 -15.95)" opacity="0.1"/>
    <path id="Path_45" data-name="Path 45" d="M376.4,524.9,374,539.08l-11.754,23.76-14.5-7.45s-19.715-24.82-7.329-28.36a10.129,10.129,0,0,0,4.118-2.2c2.429-2.21,3.194-5.41,3.211-8.55a30.735,30.735,0,0,0-2.013-10.17l25.363-9.57a57.435,57.435,0,0,0-1.822,12.35c-.191,8.3,2.371,12.4,4.475,14.35A7.2,7.2,0,0,0,376.4,524.9Z" transform="translate(-85.665 -15.95)" fill="#fbbebe"/>
    <path id="Path_46" data-name="Path 46" d="M372.993,496.54a57.433,57.433,0,0,0-1.822,12.35c-5.257,7.5-13.77,10.422-21.529,7.39a30.735,30.735,0,0,0-2.013-10.17Z" transform="translate(-87.566 -15.95)" opacity="0.1"/>
    <path id="Path_47" data-name="Path 47" d="M373.5,492.64c0,13.316-8.979,24.11-20.056,24.11s-20.056-10.794-20.056-24.11,8.979-24.11,20.056-24.11a18.464,18.464,0,0,1,14.2,7.044A26.727,26.727,0,0,1,373.5,492.64Z" transform="translate(-85.172 -15.95)" fill="#fbbebe"/>
    <path id="Path_48" data-name="Path 48" d="M376.4,524.9,374,539.08l-11.754,23.76-14.5-7.45s-19.715-24.82-7.329-28.36a10.129,10.129,0,0,0,4.118-2.2c-2.238,7.39,7,22.76,7,22.76,1.073,1.9,3.544.71,3.544.71,5.94-1.08,16.9-21.64,18.675-25.06A7.194,7.194,0,0,0,376.4,524.9Z" transform="translate(-85.665 -15.95)" opacity="0.1"/>
    <path id="Path_49" data-name="Path 49" d="M384.625,662.39c-3.494,1-22.81,6.09-30.13,4.81-8.061-1.42-23.741-2.36-23.741-2.36s-9.982.64-13.044-1v-.7l5.69-8.19s55.061-5,59.187,0C383.668,656.13,384.25,658.9,384.625,662.39Z" transform="translate(-82.535 -15.95)" opacity="0.1"/>
    <path id="Path_50" data-name="Path 50" d="M345.631,548.3s-10.373-17.27-6.464-24l-17.527,8.64s-10.548-1.54-14.35,17.38a39.483,39.483,0,0,0-.657,9.61,33.46,33.46,0,0,1-2.887,14.37c-4.326,10.4-3.327,34.28,5.507,36.64s12,1.18,12,1.18-1.181,43.26-6.289,48.22S328,664.12,328,664.12s15.672,1,23.733,2.37,30.671-5,30.671-5-3.327-18.2-4.525-29.78-3.926-36.24-3.926-36.24L394,562.81s3.535-19.74-8.851-28.48-17.053-10.9-17.053-10.9-12.478,24.37-18.933,25.55C349.167,549,346.7,550.2,345.631,548.3Z" transform="translate(-79.769 -15.95)" fill="#ff748e"/>
    <path id="Path_51" data-name="Path 51" d="M326.266,555.16s-.191,7.8.99,10.87,5.5,20.09,5.5,20.09H322.93s5.307-6.85,4.916-10.16S326.266,555.16,326.266,555.16Z" transform="translate(-83.413 -15.95)" opacity="0.1"/>
    <path id="Path_52" data-name="Path 52" d="M355.6,614s-21.712-6.38-23.733-11.81-7.6-17.61-7.6-17.61l2.288-3.71,10.565,10s12.586,12,18.484,13.24S355.6,614,355.6,614Z" transform="translate(-83.637 -15.95)" fill="#fbbebe"/>
    <path id="Path_53" data-name="Path 53" d="M355.6,614s-21.712-6.38-23.733-11.81-7.6-17.61-7.6-17.61l2.288-3.71,10.565,10s12.586,12,18.484,13.24S355.6,614,355.6,614Z" transform="translate(-83.637 -15.95)" opacity="0.05"/>
    <path id="Path_54" data-name="Path 54" d="M376.57,583.29v14.16h-1.9a48.044,48.044,0,0,0-26.736,8.32l-3.544,2.36-.957.64-6.1-16.5,5.707-6.15h.291c1.4.16,7.428.76,9.982-.27s5.449-4.14,12.594-1.94c3.527,1.08,6.53,5.83,9.982,4.35Z" transform="translate(-85.836 -15.95)" fill="#fbbebe"/>
    <path id="Path_55" data-name="Path 55" d="M398.655,557.52l3.935,5.32v12.88s-3.327,40.66-13.959,45.15-29.573-2.6-29.573-2.6-4.9-15.6-2.612-16.55,20.247-6.64,20.247-6.64-.258-23.85,3.677-30.94c0,0-2.554-22.22,6.289-22.69S398.655,557.52,398.655,557.52Z" transform="translate(-88.946 -15.95)" opacity="0.1"/>
    <path id="Path_56" data-name="Path 56" d="M399.346,557.52l3.935,5.32v12.88s-3.327,40.66-13.967,45.15-29.564-2.6-29.564-2.6-4.9-15.6-2.612-16.55,20.239-6.64,20.239-6.64-.25-23.85,3.685-30.94c0,0-2.562-22.22,6.289-22.69S399.346,557.52,399.346,557.52Z" transform="translate(-89.062 -15.95)" fill="#ff748e"/>
    <path id="Path_57" data-name="Path 57" d="M368.834,502.88a11.07,11.07,0,0,0-.449-4.6,2.906,2.906,0,0,0-3.111-2.16c-1.664.47-2.412,3.1-4.059,3.73-1.389.53-2.912-.65-3.577-2.21a13.375,13.375,0,0,1-.682-5.14v-5.93c0-2.15-.058-4.47-1.165-6.16-1.373-2.1-4.592-3-6.738-2.93a5.248,5.248,0,0,0-3.852,1.86,4.534,4.534,0,0,1-4.051,1.74,3.784,3.784,0,0,1-2.82-2.94.288.288,0,0,1,0-.08c4.557-7.242,12.112-10.793,19.547-9.185s13.487,8.1,15.659,16.8.094,18.124-5.375,24.387q.5-3.565.674-7.18Z" transform="translate(-86.002 -15.95)" opacity="0.1"/>
    <path id="Path_58" data-name="Path 58" d="M340.089,480.37a3.808,3.808,0,0,1-2.828-2.94c-.158-.76-.116-1.58-.308-2.33-.457-1.86-2.1-2.83-3.211-4.24-2.213-2.82-2.071-7.47-.507-10.87,1.273-2.74,3.727-5.05,6.3-4.52,1.589.34,2.961,1.7,4.575,1.82s2.97-.92,4.384-1.7a13.969,13.969,0,0,1,10.864-1.16,5.972,5.972,0,0,1,2.995,1.81,31.221,31.221,0,0,1,1.6,2.7c1.83,2.81,5.116,3.36,8.036,4s6.231,2,7.187,5.41c.641,2.24,0,4.67-.341,7a2.375,2.375,0,0,0,.075,1.45c.458.91,1.6.53,2.5.74,1.664.42,2.08,3,2.138,5q.117,3.48.158,7a10.772,10.772,0,0,1-.166,2.59,9.634,9.634,0,0,1-1.664,3.25l-6.5,9.38c-2.878,4.16-5.931,9-5.357,14.37-1.364.73-2.978-.68-3.427-2.4a12.661,12.661,0,0,1,.216-5.32,77.91,77.91,0,0,0,1.023-9.23,11.105,11.105,0,0,0-.449-4.61,2.913,2.913,0,0,0-3.119-2.16c-1.664.47-2.4,3.1-4.051,3.73-1.389.54-2.911-.65-3.577-2.21a13.531,13.531,0,0,1-.682-5.14v-5.93c0-2.15-.058-4.47-1.165-6.16-1.364-2.1-4.592-3-6.738-2.93a5.248,5.248,0,0,0-3.851,1.86,4.529,4.529,0,0,1-4.1,1.74Z" transform="translate(-84.95 -15.95)" fill="#7c5c5c"/>
    <path id="Path_59" data-name="Path 59" d="M347.15,554.57l6.164,30.4S358.164,584.94,347.15,554.57Z" transform="translate(-87.485 -15.95)" opacity="0.1"/>
    <path id="Path_60" data-name="Path 60" d="M371.309,549.48s-8.069,15.88-4.916,32.29l1.5.13S365.211,574.3,371.309,549.48Z" transform="translate(-90.598 -15.95)" opacity="0.1"/>
    <path id="Path_61" data-name="Path 61" d="M378.59,639.31s9.9-3.94,10.623,5.2C389.213,644.51,387.341,638.24,378.59,639.31Z" transform="translate(-92.772 -15.95)" opacity="0.1"/>
    <path id="Path_62" data-name="Path 62" d="M340.782,586.83s-1.963,16.55,1.572,23.17a36.538,36.538,0,0,1-17.3,2.83l-1.181-26Z" transform="translate(-83.571 -15.95)" opacity="0.1"/>
    <path id="Path_63" data-name="Path 63" d="M344.394,608.13l-.957.64-6.1-16.5,5.707-6.15h.291C343.246,586.92,341.657,601.13,344.394,608.13Z" transform="translate(-85.836 -15.95)" opacity="0.1"/>
    <path id="Path_64" data-name="Path 64" d="M339.63,586.12s-1.963,16.55,1.572,23.17a36.538,36.538,0,0,1-17.3,2.83l-6.879-26Z" transform="translate(-82.419 -15.95)" fill="#ff748e"/>
    <path id="Path_65" data-name="Path 65" d="M314.327,862.19a4.987,4.987,0,0,1-3.818,4.68c-5.332,1-18.2,3.4-21.445,5.26-4.159,2.37-20.447.71-21.237-1.65a4.427,4.427,0,0,1,.283-2.85,7.012,7.012,0,0,1,3.818-4c3.078-1.24,8.884-3.85,10.448-6.59,0,0,7.237-7.62,9.3-11.73a4.7,4.7,0,0,1,3.785-2.83c1.722-.1,3.635.95,4.425,5.48,0,0,9.433,6.47,11.987.8,0,0,.391,8.71,1.955,11.1h0A3.614,3.614,0,0,1,314.327,862.19Z" transform="translate(-74.128 -15.95)" fill="#a27772"/>
    <path id="Path_66" data-name="Path 66" d="M314.327,862.19a4.987,4.987,0,0,1-3.818,4.68c-5.332,1-18.2,3.4-21.445,5.26-4.159,2.37-20.447.71-21.237-1.65a4.427,4.427,0,0,1,.283-2.85,7.2,7.2,0,0,1,2.637-3.4c2.662,2.12,8.568,4.2,21.562,1.76,12.395-2.33,18.525-4.61,21.52-6.16h0A3.616,3.616,0,0,1,314.327,862.19Z" transform="translate(-74.128 -15.95)" opacity="0.1"/>
    <g id="Group_3" data-name="Group 3" transform="translate(247.112 449.07)" opacity="0.1">
      <path id="Path_67" data-name="Path 67" d="M388.239,475.67a.6.6,0,0,0,0-.12,25.652,25.652,0,0,0,.607-5.36,40.188,40.188,0,0,1-.607,4.3A3.139,3.139,0,0,0,388.239,475.67Z" transform="translate(-341.496 -465.02)"/>
      <path id="Path_68" data-name="Path 68" d="M367.331,497.79a8.221,8.221,0,0,1,.482,2.7,9.6,9.6,0,0,0-.482-3.76,2.923,2.923,0,0,0-3.119-2.17c-1.664.47-2.4,3.11-4.051,3.74-1.389.53-2.911-.66-3.577-2.22a13.219,13.219,0,0,1-.682-5.14v-5.92c0-2.15-.058-4.47-1.165-6.16-1.373-2.11-4.592-3-6.746-2.94a5.223,5.223,0,0,0-3.843,1.87,4.531,4.531,0,0,1-4.051,1.73,3.763,3.763,0,0,1-2.828-2.94c-.166-.76-.116-1.57-.308-2.33-.457-1.86-2.1-2.82-3.211-4.23a8.693,8.693,0,0,1-1.664-5,9.184,9.184,0,0,0,1.664,6.06c1.106,1.41,2.753,2.38,3.211,4.24.191.75.141,1.57.308,2.33a3.8,3.8,0,0,0,2.828,2.94,4.534,4.534,0,0,0,4.051-1.74,5.292,5.292,0,0,1,3.835-1.85c2.155-.08,5.374.84,6.746,2.94,1.106,1.69,1.156,4,1.165,6.16v5.92a13.242,13.242,0,0,0,.682,5.15c.665,1.56,2.188,2.74,3.577,2.21,1.664-.63,2.371-3.26,4.051-3.74A2.933,2.933,0,0,1,367.331,497.79Z" transform="translate(-332.06 -465.02)"/>
      <path id="Path_69" data-name="Path 69" d="M391.144,491.28a9.777,9.777,0,0,1-1.664,3.26q-3.261,4.68-6.5,9.37c-2.728,3.95-5.623,8.52-5.415,13.56.2-4.62,2.878-8.82,5.415-12.49l6.5-9.38a9.728,9.728,0,0,0,1.664-3.25,10.771,10.771,0,0,0,.166-2.6,7.727,7.727,0,0,1-.166,1.53Z" transform="translate(-339.71 -465.02)"/>
      <path id="Path_70" data-name="Path 70" d="M373.466,515.89a6.6,6.6,0,0,1-.2-1.27,7.554,7.554,0,0,0,.2,2.33c.441,1.72,2.063,3.13,3.427,2.4,0-.35-.058-.7-.066-1C375.479,519,373.874,517.57,373.466,515.89Z" transform="translate(-338.985 -465.02)"/>
    </g>
    <path id="Path_71" data-name="Path 71" d="M295,847.42s2.055,4.34,9.508.51" transform="translate(-78.717 -15.95)" opacity="0.1"/>
    <path id="Path_72" data-name="Path 72" d="M370.65,848.46s6.43,9.09,14.524,3" transform="translate(-91.437 -15.95)" opacity="0.1"/>
    <path id="Path_73" data-name="Path 73" d="M392.18,740.94s-4.542,3.41-4.692,5.36,2.346-1.42,2.346-1.42Z" transform="translate(-94.267 -15.95)" opacity="0.1"/>
    <path id="Path_74" data-name="Path 74" d="M393.633,767.08a8.6,8.6,0,0,1-5.59,2.62c-3.394.18-3.111,5.5-.89,3.9S393.633,767.08,393.633,767.08Z" transform="translate(-93.931 -15.95)" opacity="0.1"/>
    <path id="Path_75" data-name="Path 75" d="M395.521,770.49s-2.179,12.86-3.951,10.38" transform="translate(-94.954 -15.95)" opacity="0.1"/>
    <g id="Group_4" data-name="Group 4" transform="translate(391.947 458.65)" opacity="0.5">
      <rect id="Rectangle_59" data-name="Rectangle 59" width="54.903" height="14" fill="#dce0ed"/>
      <rect id="Rectangle_60" data-name="Rectangle 60" width="54.903" height="14" transform="translate(126.068)" fill="#dce0ed"/>
      <rect id="Rectangle_61" data-name="Rectangle 61" width="54.903" height="14" transform="translate(252.136)" fill="#dce0ed"/>
    </g>
    <ellipse id="Ellipse_34" data-name="Ellipse 34" cx="22.402" cy="4.55" rx="22.402" ry="4.55" transform="translate(770.135 796.74)" fill="#544c9a" opacity="0.1"/>
    <ellipse id="Ellipse_35" data-name="Ellipse 35" cx="22.402" cy="4.55" rx="22.402" ry="4.55" transform="translate(73.445 854.19)" fill="#544c9a" opacity="0.1"/>
    <ellipse id="Ellipse_36" data-name="Ellipse 36" cx="33.449" cy="6.8" rx="33.449" ry="6.8" transform="translate(710.058 843.25)" fill="#544c9a"/>
    <path id="Path_76" data-name="Path 76" d="M939.158,854.89a12.024,12.024,0,0,0,3.186-5.79c.416-2.3-.4-5.05-2.221-5.89-2.046-.94-4.234.76-5.9,2.49s-3.552,3.68-5.723,3.32a11.841,11.841,0,0,0,2.7-9.81,4.509,4.509,0,0,0-.749-2c-1.14-1.46-3.194-.84-4.559.31-4.326,3.66-5.532,10.72-5.557,17.08-.433-2.29-.067-4.68-.075-7s-.549-5-2.2-6.23a5.766,5.766,0,0,0-3.327-.94c-1.947-.09-4.118.14-5.44,1.85-1.664,2.13-1.223,5.69.208,8s3.627,3.8,5.632,5.42a13.957,13.957,0,0,1,4.026,4.61,5.387,5.387,0,0,1,.291.83h12.195A34.827,34.827,0,0,0,939.158,854.89Z" transform="translate(-181.825 -15.95)" fill="#544c9a"/>
    <path id="Path_77" data-name="Path 77" d="M148.907,807.19s4.575,7.19-2.1,18-12.187,20-9.982,26.77c0,0,10.082-20.15,18.3-20.43S157.933,819.31,148.907,807.19Z" transform="translate(-52.037 -15.95)" fill="#544c9a"/>
    <path id="Path_78" data-name="Path 78" d="M148.962,807.19a9.826,9.826,0,0,1,.94,2.26c8,11.3,12.262,21.85,4.567,22.11-7.162.25-15.755,15.65-17.818,19.54q.1.452.241.89s10.082-20.15,18.3-20.43S157.987,819.31,148.962,807.19Z" transform="translate(-52.092 -15.95)" opacity="0.1"/>
    <path id="Path_79" data-name="Path 79" d="M161.448,816.35c0,2.53-.233,4.58-.524,4.58s-.524-2-.524-4.58.291-1.34.582-1.34S161.448,813.82,161.448,816.35Z" transform="translate(-56.085 -15.95)" fill="#ffd037"/>
    <path id="Path_80" data-name="Path 80" d="M164.442,819.37c-1.847,1.21-3.461,1.94-3.594,1.63s1.239-1.54,3.086-2.75,1.123-.33,1.256,0S166.289,818.16,164.442,819.37Z" transform="translate(-56.159 -15.95)" fill="#ffd037"/>
    <path id="Path_81" data-name="Path 81" d="M120.364,807.19s-4.575,7.19,2.1,18,12.187,20,9.982,26.77c0,0-10.074-20.15-18.3-20.43S111.339,819.31,120.364,807.19Z" transform="translate(-47.627 -15.95)" fill="#544c9a"/>
    <path id="Path_82" data-name="Path 82" d="M120.361,807.19a9.826,9.826,0,0,0-.94,2.26c-8,11.3-12.262,21.85-4.567,22.11,7.162.25,15.755,15.65,17.818,19.54a8.193,8.193,0,0,1-.25.89s-10.074-20.15-18.3-20.43S111.335,819.31,120.361,807.19Z" transform="translate(-47.623 -15.95)" opacity="0.1"/>
    <path id="Path_83" data-name="Path 83" d="M112.22,816.35c0,2.53.241,4.58.532,4.58s.524-2,.524-4.58-.291-1.34-.582-1.34S112.22,813.82,112.22,816.35Z" transform="translate(-47.984 -15.95)" fill="#ffd037"/>
    <path id="Path_84" data-name="Path 84" d="M108.492,819.37c1.847,1.21,3.452,1.94,3.594,1.63s-1.239-1.54-3.086-2.75-1.123-.33-1.264,0S106.646,818.16,108.492,819.37Z" transform="translate(-47.168 -15.95)" fill="#ffd037"/>
    <path id="Path_85" data-name="Path 85" d="M114,851.05s12.777-.48,16.637-3.77,19.657-7.24,20.613-1.95,19.2,26.29,4.775,26.43-33.516-2.7-37.359-5.51S114,851.05,114,851.05Z" transform="translate(-48.283 -15.95)" fill="#a8a8a8"/>
    <path id="Path_86" data-name="Path 86" d="M156.245,869.92c-14.424.14-33.524-2.7-37.367-5.51-2.92-2.15-4.093-9.84-4.475-13.38h-.433s.832,12.38,4.658,15.2,22.934,5.65,37.359,5.51c4.159,0,5.6-1.82,5.524-4.46C160.928,868.9,159.34,869.89,156.245,869.92Z" transform="translate(-48.278 -15.95)" opacity="0.2"/>
    <path id="Path_87" data-name="Path 87" d="M499.936,572.37c0-20.44,13.834-36.14,30.845-36.14h.241v-9.3h-.241c-21.279,0-38.582,19.87-38.582,45.44,0,13.389,4.822,26.118,13.222,34.9l5.479-6.593C503.95,593.65,499.937,583.289,499.936,572.37Z" transform="translate(-111.874 -15.95)" fill="#544c9a"/>
    <path id="Path_88" data-name="Path 88" d="M534.621,526.94v9.3c13.614.109,25.558,10.938,29.386,26.643s-1.363,32.571-12.774,41.5-26.341,7.8-36.735-2.771L509,608.2c12.879,13.537,31.638,15.256,46.076,4.222s21.1-32.184,16.368-51.948-19.732-33.416-36.84-33.534Z" transform="translate(-114.699 -15.95)" fill="#544c9a" opacity="0.5"/>
    <path id="Path_89" data-name="Path 89" d="M837.932,535.76c17,0,30.063,16.63,30.063,37.08v.29h7.736v-.29c0-25.57-16.529-46.38-37.8-46.38-11.134,0-21.724,5.792-29.032,15.89l5.482,6.59c5.848-8.355,14.467-13.179,23.55-13.18Z" transform="translate(-165.125 -15.95)" fill="#544c9a" opacity="0.5"/>
    <path id="Path_90" data-name="Path 90" d="M873.645,574.06h-7.736c-.091,16.366-9.1,30.723-22.163,35.326s-27.095-1.638-34.52-15.356-6.489-31.666,2.3-44.16l-5.457-6.59c-11.261,15.483-12.691,38.033-3.512,55.389s26.773,25.367,43.213,19.677,27.8-23.72,27.9-44.286Z" transform="translate(-163.047 -15.95)" fill="#544c9a"/>
    <path id="Path_91" data-name="Path 91" d="M698.419,529.66l-1.539,9.26c11.322,5.49,18.559,18.83,18.559,34.38,0,18.511-11.351,34.19-26.6,36.73s-29.728-8.835-33.91-26.65,3.209-36.609,17.316-44.03L668.813,531c-17.51,9.475-26.553,32.993-21.214,55.166s23.436,36.246,42.449,33.01,33.149-22.793,33.16-45.877C723.209,553.23,713.326,536.11,698.419,529.66Z" transform="translate(-137.747 -15.95)" fill="#544c9a" opacity="0.5"/>
    <path id="Path_92" data-name="Path 92" d="M690.4,535.69a23.121,23.121,0,0,1,10.739,2.68l1.539-9.25a29.026,29.026,0,0,0-12.278-2.73,33.041,33.041,0,0,0-15.806,4.091l3.461,8.329A26.219,26.219,0,0,1,690.4,535.69Z" transform="translate(-142.541 -15.95)" fill="#544c9a"/>
  </g>
</svg>
