<svg id="control_panel" xmlns="http://www.w3.org/2000/svg" xmlns:xlink="http://www.w3.org/1999/xlink" width="400" height="326" viewBox="0 0 400 326">
  <defs>
    <linearGradient id="linear-gradient" x1="0.5" y1="1" x2="0.5" gradientUnits="objectBoundingBox">
      <stop offset="0" stop-color="gray" stop-opacity="0.251"/>
      <stop offset="0.54" stop-color="gray" stop-opacity="0.122"/>
      <stop offset="1" stop-color="gray" stop-opacity="0.102"/>
    </linearGradient>
    <linearGradient id="linear-gradient-8" x1="0.5" x2="0.5" y2="0" xlink:href="#linear-gradient"/>
    <linearGradient id="linear-gradient-17" x1="0" y1="0.5" x2="1" y2="0.5" xlink:href="#linear-gradient"/>
    <linearGradient id="linear-gradient-19" x1="0.5" x2="0.5" y2="-0.001" xlink:href="#linear-gradient"/>
    <linearGradient id="linear-gradient-20" x1="0.5" x2="0.5" y2="0" xlink:href="#linear-gradient"/>
    <linearGradient id="linear-gradient-24" x1="0.5" x2="0.5" y2="0" xlink:href="#linear-gradient"/>
  </defs>
  <rect id="Rectangle_358" data-name="Rectangle 358" width="400" height="214.321" transform="translate(0 55.839)" opacity="0.5" fill="url(#linear-gradient)"/>
  <rect id="Rectangle_359" data-name="Rectangle 359" width="392.999" height="206.947" transform="translate(3.501 59.524)" fill="#fff"/>
  <rect id="Rectangle_360" data-name="Rectangle 360" width="204.501" height="6.179" transform="translate(21.501 93.061)" fill="#f5f5f5"/>
  <ellipse id="Ellipse_318" data-name="Ellipse 318" cx="11.828" cy="10.439" rx="11.828" ry="10.439" transform="translate(111.67 85.712)" opacity="0.5" fill="url(#linear-gradient)"/>
  <ellipse id="Ellipse_319" data-name="Ellipse 319" cx="11.828" cy="10.439" rx="11.828" ry="10.439" transform="translate(48.874 113.835)" opacity="0.5" fill="url(#linear-gradient)"/>
  <ellipse id="Ellipse_320" data-name="Ellipse 320" cx="11.828" cy="10.439" rx="11.828" ry="10.439" transform="translate(182.902 142.371)" opacity="0.5" fill="url(#linear-gradient)"/>
  <ellipse id="Ellipse_321" data-name="Ellipse 321" cx="11.828" cy="10.439" rx="11.828" ry="10.439" transform="translate(87.77 170.494)" opacity="0.5" fill="url(#linear-gradient)"/>
  <ellipse id="Ellipse_322" data-name="Ellipse 322" cx="11.828" cy="10.439" rx="11.828" ry="10.439" transform="translate(26.379 198.617)" opacity="0.5" fill="url(#linear-gradient)"/>
  <ellipse id="Ellipse_323" data-name="Ellipse 323" cx="11.828" cy="10.439" rx="11.828" ry="10.439" transform="translate(150.566 226.74)" opacity="0.5" fill="url(#linear-gradient)"/>
  <ellipse id="Ellipse_324" data-name="Ellipse 324" cx="8.998" cy="7.941" rx="8.998" ry="7.941" transform="translate(114.501 88.21)" fill="#0091d7" opacity="0.5"/>
  <rect id="Rectangle_361" data-name="Rectangle 361" width="204.501" height="6.179" transform="translate(21.501 121.3)" fill="#f5f5f5"/>
  <ellipse id="Ellipse_325" data-name="Ellipse 325" cx="8.998" cy="7.941" rx="8.998" ry="7.941" transform="translate(51.503 116.448)" fill="#0091d7" opacity="0.5"/>
  <rect id="Rectangle_362" data-name="Rectangle 362" width="204.501" height="6.179" transform="translate(21.501 149.542)" fill="#f5f5f5"/>
  <ellipse id="Ellipse_326" data-name="Ellipse 326" cx="8.998" cy="7.941" rx="8.998" ry="7.941" transform="translate(185.503 144.691)" fill="#0091d7"/>
  <rect id="Rectangle_363" data-name="Rectangle 363" width="204.501" height="6.179" transform="translate(21.501 177.781)" fill="#f5f5f5"/>
  <ellipse id="Ellipse_327" data-name="Ellipse 327" cx="8.998" cy="7.941" rx="8.998" ry="7.941" transform="translate(90.502 172.93)" fill="#0091d7"/>
  <rect id="Rectangle_364" data-name="Rectangle 364" width="204.501" height="6.179" transform="translate(21.501 206.024)" fill="#f5f5f5"/>
  <ellipse id="Ellipse_328" data-name="Ellipse 328" cx="8.998" cy="7.941" rx="8.998" ry="7.941" transform="translate(29.004 201.173)" fill="#0091d7" opacity="0.5"/>
  <rect id="Rectangle_365" data-name="Rectangle 365" width="204.501" height="6.179" transform="translate(21.501 234.263)" fill="#f5f5f5"/>
  <ellipse id="Ellipse_329" data-name="Ellipse 329" cx="8.998" cy="7.941" rx="8.998" ry="7.941" transform="translate(153.505 229.411)" fill="#0091d7"/>
  <rect id="Rectangle_366" data-name="Rectangle 366" width="31.998" height="19.165" transform="translate(254.499 169.084)" opacity="0.5" fill="url(#linear-gradient-8)"/>
  <rect id="Rectangle_367" data-name="Rectangle 367" width="31.998" height="19.165" transform="translate(297.501 169.084)" opacity="0.5" fill="url(#linear-gradient-8)"/>
  <rect id="Rectangle_368" data-name="Rectangle 368" width="31.998" height="19.165" transform="translate(340.503 169.084)" opacity="0.5" fill="url(#linear-gradient-8)"/>
  <rect id="Rectangle_369" data-name="Rectangle 369" width="31.998" height="19.165" transform="translate(254.499 198.207)" opacity="0.5" fill="url(#linear-gradient-8)"/>
  <rect id="Rectangle_370" data-name="Rectangle 370" width="31.998" height="19.165" transform="translate(297.501 198.207)" opacity="0.5" fill="url(#linear-gradient-8)"/>
  <rect id="Rectangle_371" data-name="Rectangle 371" width="31.998" height="19.165" transform="translate(340.503 198.207)" opacity="0.5" fill="url(#linear-gradient-8)"/>
  <rect id="Rectangle_372" data-name="Rectangle 372" width="31.998" height="19.165" transform="translate(254.499 227.327)" opacity="0.5" fill="url(#linear-gradient)"/>
  <rect id="Rectangle_373" data-name="Rectangle 373" width="31.998" height="19.165" transform="translate(297.501 227.327)" opacity="0.5" fill="url(#linear-gradient)"/>
  <rect id="Rectangle_374" data-name="Rectangle 374" width="31.998" height="19.165" transform="translate(340.503 227.327)" opacity="0.5" fill="url(#linear-gradient)"/>
  <rect id="Rectangle_375" data-name="Rectangle 375" width="28.001" height="16.766" transform="translate(256.501 170.279)" fill="#0091d7"/>
  <rect id="Rectangle_376" data-name="Rectangle 376" width="28.001" height="16.766" transform="translate(299.502 170.279)" fill="#0091d7"/>
  <rect id="Rectangle_377" data-name="Rectangle 377" width="28.001" height="16.766" transform="translate(342.499 170.279)" fill="#0091d7" opacity="0.5"/>
  <rect id="Rectangle_378" data-name="Rectangle 378" width="28.001" height="16.766" transform="translate(256.501 199.403)" fill="#0091d7"/>
  <rect id="Rectangle_379" data-name="Rectangle 379" width="28.001" height="16.766" transform="translate(299.502 199.403)" fill="#0091d7"/>
  <rect id="Rectangle_380" data-name="Rectangle 380" width="28.001" height="16.766" transform="translate(342.499 199.403)" fill="#0091d7" opacity="0.5"/>
  <rect id="Rectangle_381" data-name="Rectangle 381" width="28.001" height="16.766" transform="translate(256.501 228.526)" fill="#0091d7"/>
  <rect id="Rectangle_382" data-name="Rectangle 382" width="28.001" height="16.766" transform="translate(299.502 228.526)" fill="#0091d7" opacity="0.5"/>
  <rect id="Rectangle_383" data-name="Rectangle 383" width="28.001" height="16.766" transform="translate(342.499 228.526)" fill="#3ad29f" opacity="0.5"/>
  <path id="Path_538" data-name="Path 538" d="M379.8,736.029c-2.812,0-4.9.414-6.378,2.688H313.137v-5.732c0-1.489-2.156-.93-3.576-.93h-1.176c-1.406,0-2.577-.558-2.577.93v1.278H238.1c-3.505,0-4.9,2.713-5.375,6.241a2.648,2.648,0,0,0-.037-.269c-.023.252-.038.509-.038.765v3.859c0,4.02,1.612,7.275,5.455,7.275h67.708v1.94c0,1.489,1.153.93,2.577.93h1.176c1.406,0,3.576.558,3.576-.93v-5.658H373.8a8.541,8.541,0,0,0,.909,1.009c2.6,1.162,2.634,1.419,5.01,1.419l18.586-.662V736.935Z" transform="translate(-204.799 -452.345)" opacity="0.5" fill="url(#linear-gradient-17)"/>
  <rect id="Rectangle_384" data-name="Rectangle 384" width="93" height="7.941" transform="translate(77.999 287.212)" fill="#e6e6e6"/>
  <path id="Path_539" data-name="Path 539" d="M531.58,754.32h0a6.472,6.472,0,0,0,1.406,3.97h1.172V750.35h-1.172A6.472,6.472,0,0,0,531.58,754.32Z" transform="translate(-363.641 -463.134)" opacity="0.03"/>
  <path id="Path_540" data-name="Path 540" d="M557.227,755.407l-16.58,1.654c-4.4,0-7.967-3.148-7.967-7.031h0c0-3.883,3.567-7.031,7.967-7.031l16.58,1.625Z" transform="translate(-364.226 -458.823)" fill="#e6e6e6"/>
  <path id="Path_541" data-name="Path 541" d="M430.4,763.15H338.55v2.2H430.4A8.31,8.31,0,0,0,437,768.427l16.58-1.617v-2.2L437,766.231A8.307,8.307,0,0,1,430.4,763.15Z" transform="translate(-261.071 -470.64)" opacity="0.05"/>
  <path id="Path_542" data-name="Path 542" d="M67.827,683.53h67.384v14.632H67.827c-3.494,0-6.327-2.5-6.327-5.583V689.1c.008-3.079,2.838-5.571,6.327-5.571Z" transform="translate(-32.679 -399.961)" fill="#0091d7"/>
  <rect id="Rectangle_385" data-name="Rectangle 385" width="6.139" height="21.675" rx="3.07" transform="translate(101.304 280.318)" fill="#0091d7"/>
  <rect id="Rectangle_386" data-name="Rectangle 386" width="1.228" height="14.632" transform="translate(100.076 283.569)" opacity="0.05"/>
  <rect id="Rectangle_387" data-name="Rectangle 387" width="56.493" height="1.084" transform="translate(39.281 286.278)" opacity="0.05"/>
  <rect id="Rectangle_388" data-name="Rectangle 388" width="56.493" height="1.084" transform="translate(39.281 290.07)" opacity="0.05"/>
  <rect id="Rectangle_389" data-name="Rectangle 389" width="56.493" height="1.084" transform="translate(39.281 293.867)" opacity="0.05"/>
  <path id="Path_543" data-name="Path 543" d="M310.871,762.474h-1.139a2.365,2.365,0,0,1-2.5-2.2v-1.588H241.518c-3.453,0-6.349-2.3-6.711-5.331a5.319,5.319,0,0,0-.038.628V756.7c0,3.289,3.021,5.955,6.748,5.955H307.23v1.588a2.365,2.365,0,0,0,2.5,2.2h1.139a2.365,2.365,0,0,0,2.5-2.2v-3.97a2.364,2.364,0,0,1-2.493,2.2Z" transform="translate(-205.926 -464.893)" opacity="0.05"/>
  <path id="Path_544" data-name="Path 544" d="M678.892,34.04,666,40.612V56.6l12.892,6.568L691.784,56.6V40.612Z" transform="translate(-353.892 -19.082)" fill="url(#linear-gradient)"/>
  <path id="Path_545" data-name="Path 545" d="M862.851,126.454a3.853,3.853,0,0,1-3.421-1.91,4.02,4.02,0,0,1,6.842,0A3.853,3.853,0,0,1,862.851,126.454Z" transform="translate(-537.851 -95.024)" opacity="0.5" fill="url(#linear-gradient-19)"/>
  <path id="Path_546" data-name="Path 546" d="M853.122,100.88l-12,6.113v12.229l12,6.108,12-6.113V107Zm0,15.3a3.114,3.114,0,1,1,3.5-3.089,2.915,2.915,0,0,1-1.019,2.2,3.749,3.749,0,0,1-2.482.911Z" transform="translate(-528.121 -82.266)" fill="#e6e6e6"/>
  <path id="Path_547" data-name="Path 547" d="M853.122,94.48l-12,6.113v12.229l12,6.113,12-6.113V100.6Zm0,15.3a3.114,3.114,0,1,1,3.5-3.094,2.913,2.913,0,0,1-1.017,2.2,3.749,3.749,0,0,1-2.484.912Z" transform="translate(-528.121 -78.513)" fill="#fff"/>
  <path id="Path_548" data-name="Path 548" d="M607.407,34.04l-12.9,6.572V56.6l12.9,6.568L620.3,56.6V40.612Z" transform="translate(-315.904 -19.082)" fill="url(#linear-gradient-20)"/>
  <path id="Path_549" data-name="Path 549" d="M791.371,126.454a3.853,3.853,0,0,1-3.421-1.91,4.02,4.02,0,0,1,6.842,0A3.853,3.853,0,0,1,791.371,126.454Z" transform="translate(-499.869 -95.024)" opacity="0.5" fill="url(#linear-gradient-19)"/>
  <path id="Path_550" data-name="Path 550" d="M781.642,100.88l-12,6.113v12.229l12,6.108,12-6.113V107Zm0,15.3a3.114,3.114,0,1,1,3.5-3.089,2.915,2.915,0,0,1-1.019,2.2,3.749,3.749,0,0,1-2.482.911Z" transform="translate(-490.139 -82.266)" fill="#e6e6e6"/>
  <path id="Path_551" data-name="Path 551" d="M781.642,94.48l-12,6.113v12.229l12,6.113,12-6.113V100.6Zm0,15.3a3.114,3.114,0,1,1,3.5-3.089,2.915,2.915,0,0,1-1.019,2.2,3.749,3.749,0,0,1-2.482.911Z" transform="translate(-490.139 -78.513)" fill="#fff"/>
  <path id="Path_552" data-name="Path 552" d="M637.282,30.84,624.39,37.412v15.98l12.892,6.572,12.892-6.572V37.412Z" transform="translate(-331.781 -17.206)" fill="url(#linear-gradient)"/>
  <path id="Path_553" data-name="Path 553" d="M821.241,123.254a3.853,3.853,0,0,1-3.421-1.91,4.02,4.02,0,0,1,6.842,0A3.853,3.853,0,0,1,821.241,123.254Z" transform="translate(-515.741 -93.148)" opacity="0.5" fill="url(#linear-gradient-19)"/>
  <path id="Path_554" data-name="Path 554" d="M811.512,97.68l-12,6.113V116.01l12,6.113,12-6.113V103.8Zm0,15.3a3.114,3.114,0,1,1,3.5-3.089,2.915,2.915,0,0,1-1.019,2.2,3.749,3.749,0,0,1-2.482.911Z" transform="translate(-506.011 -80.39)" fill="#e6e6e6"/>
  <path id="Path_555" data-name="Path 555" d="M811.512,91.28l-12,6.113v12.229l12,6.113,12-6.113V97.4Zm0,15.3a3.114,3.114,0,1,1,3.5-3.089,2.914,2.914,0,0,1-1.019,2.2,3.749,3.749,0,0,1-2.482.911Z" transform="translate(-506.011 -76.637)" fill="#fff"/>
  <path id="Path_556" data-name="Path 556" d="M161.11,52.273V16.97h166" transform="translate(-85.609 -9.072)" fill="none" stroke="#3ad29f" stroke-miterlimit="10" stroke-width="3" stroke-dasharray="12" opacity="0.5"/>
  <ellipse id="Ellipse_330" data-name="Ellipse 330" cx="7.001" cy="6.179" rx="7.001" ry="6.179" transform="translate(250.75 1.5)" fill="none" stroke="#3ad29f" stroke-miterlimit="10" stroke-width="3" stroke-dasharray="12" opacity="0.5"/>
  <path id="Path_557" data-name="Path 557" d="M624.783,681.67v35.3h-166" transform="translate(-243.781 -398.87)" fill="none" stroke="#3ad29f" stroke-miterlimit="10" stroke-width="3" stroke-dasharray="12" opacity="0.5"/>
  <ellipse id="Ellipse_331" data-name="Ellipse 331" cx="7.001" cy="6.179" rx="7.001" ry="6.179" transform="translate(191.75 312.142)" fill="none" stroke="#3ad29f" stroke-miterlimit="10" stroke-width="3" stroke-dasharray="12" opacity="0.5"/>
  <ellipse id="Ellipse_332" data-name="Ellipse 332" cx="18.342" cy="16.187" rx="18.342" ry="16.187" transform="translate(271.023 78.532)" fill="url(#linear-gradient-24)"/>
  <ellipse id="Ellipse_333" data-name="Ellipse 333" cx="17.194" cy="15.174" rx="17.194" ry="15.174" transform="translate(272.172 79.545)" fill="#fff"/>
  <ellipse id="Ellipse_334" data-name="Ellipse 334" cx="1.148" cy="1.013" rx="1.148" ry="1.013" transform="translate(288.217 93.706)" fill="#333"/>
  <line id="Line_40" data-name="Line 40" y1="9.103" x2="10.315" transform="translate(289.366 85.616)" fill="none" stroke="#333" stroke-miterlimit="10" stroke-width="3"/>
  <path id="Path_558" data-name="Path 558" d="M797.05,266.843a14.782,14.782,0,0,0,7.7,12.651,14.563,14.563,0,0,0,6.73-12.566,14.864,14.864,0,0,0-7.691-12.129A14.605,14.605,0,0,0,797.05,266.843Z" transform="translate(-504.704 -172.529)" opacity="0.05"/>
  <ellipse id="Ellipse_335" data-name="Ellipse 335" cx="18.342" cy="16.187" rx="18.342" ry="16.187" transform="translate(319.292 78.532)" fill="url(#linear-gradient-24)"/>
  <ellipse id="Ellipse_336" data-name="Ellipse 336" cx="17.194" cy="15.174" rx="17.194" ry="15.174" transform="translate(320.441 79.545)" fill="#fff"/>
  <ellipse id="Ellipse_337" data-name="Ellipse 337" cx="1.148" cy="1.013" rx="1.148" ry="1.013" transform="translate(336.486 93.706)" fill="#333"/>
  <line id="Line_41" data-name="Line 41" y1="9.103" x2="10.315" transform="translate(337.635 85.616)" fill="none" stroke="#333" stroke-miterlimit="10" stroke-width="3"/>
  <path id="Path_559" data-name="Path 559" d="M900.05,266.843a14.783,14.783,0,0,0,7.7,12.651,14.564,14.564,0,0,0,6.73-12.566,14.865,14.865,0,0,0-7.691-12.129A14.605,14.605,0,0,0,900.05,266.843Z" transform="translate(-559.435 -172.529)" opacity="0.05"/>
  <ellipse id="Ellipse_338" data-name="Ellipse 338" cx="18.342" cy="16.187" rx="18.342" ry="16.187" transform="translate(271.023 116.581)" fill="url(#linear-gradient-24)"/>
  <ellipse id="Ellipse_339" data-name="Ellipse 339" cx="17.194" cy="15.174" rx="17.194" ry="15.174" transform="translate(272.172 117.594)" fill="#fff"/>
  <ellipse id="Ellipse_340" data-name="Ellipse 340" cx="1.148" cy="1.013" rx="1.148" ry="1.013" transform="translate(288.217 131.755)" fill="#333"/>
  <line id="Line_42" data-name="Line 42" x1="10.966" y2="9.678" transform="translate(278.4 132.768)" fill="none" stroke="#333" stroke-miterlimit="10" stroke-width="3"/>
  <path id="Path_560" data-name="Path 560" d="M797.05,358.843a14.782,14.782,0,0,0,7.7,12.651,14.564,14.564,0,0,0,6.73-12.566,14.864,14.864,0,0,0-7.691-12.129A14.605,14.605,0,0,0,797.05,358.843Z" transform="translate(-504.704 -226.481)" opacity="0.05"/>
  <ellipse id="Ellipse_341" data-name="Ellipse 341" cx="18.342" cy="16.187" rx="18.342" ry="16.187" transform="translate(319.292 116.581)" fill="url(#linear-gradient-24)"/>
  <ellipse id="Ellipse_342" data-name="Ellipse 342" cx="17.194" cy="15.174" rx="17.194" ry="15.174" transform="translate(320.441 117.594)" fill="#fff"/>
  <ellipse id="Ellipse_343" data-name="Ellipse 343" cx="1.148" cy="1.013" rx="1.148" ry="1.013" transform="translate(336.486 131.755)" fill="#333"/>
  <line id="Line_43" data-name="Line 43" y1="9.103" x2="10.315" transform="translate(337.635 123.665)" fill="none" stroke="#333" stroke-miterlimit="10" stroke-width="3"/>
  <path id="Path_561" data-name="Path 561" d="M900.05,358.843a14.783,14.783,0,0,0,7.7,12.651,14.563,14.563,0,0,0,6.73-12.566,14.864,14.864,0,0,0-7.691-12.129A14.605,14.605,0,0,0,900.05,358.843Z" transform="translate(-559.435 -226.481)" opacity="0.05"/>
</svg>
