<svg xmlns="http://www.w3.org/2000/svg" xmlns:xlink="http://www.w3.org/1999/xlink" width="460" height="295" viewBox="0 0 460 295">
  <defs>
    <linearGradient id="linear-gradient" x1="9.046" y1="1" x2="9.046" gradientUnits="objectBoundingBox">
      <stop offset="0" stop-color="gray" stop-opacity="0.251"/>
      <stop offset="0.54" stop-color="gray" stop-opacity="0.122"/>
      <stop offset="1" stop-color="gray" stop-opacity="0.102"/>
    </linearGradient>
  </defs>
  <g id="undraw_personal_settings_kihd_2_" data-name="undraw_personal_settings_kihd (2)" transform="translate(0)">
    <path id="Path_151" data-name="Path 151" d="M488,287.543a79.27,79.27,0,0,1-10.5,39.678c0,14.632-6.49,27.894-17.017,37.56A58.394,58.394,0,0,1,452,371.239c-.121.08-.245.156-.37.232-.225.139-.45.279-.68.423l-.213.131h0a63.677,63.677,0,0,1-32.61,8.791H115.323q-3.619,0-7.173-.3A81.463,81.463,0,0,1,83.6,374.536q-2.3-.955-4.512-2.054-1.053-.52-2.087-1.069c-.43-.228-.86-.465-1.287-.7a75.288,75.288,0,0,1-13.856-9.886c-13.671-12.354-22.148-29.42-22.148-48.27A79.138,79.138,0,0,1,28,270.853c0-41.9,31.862-75.869,71.171-75.869,1.206,0,2.413.038,3.619.106a3.5,3.5,0,0,1,.515.025,127.489,127.489,0,0,1,26.136-32.383c29.048-26.162,71.5-42.653,118.792-42.653,39.735,0,76.057,11.644,103.878,30.882a67.408,67.408,0,0,1,34.56-9.531c39.3,0,71.171,33.968,71.171,75.868q-.009,3.977-.4,7.937C476.665,239.542,488.065,262.785,488,287.543Z" transform="translate(-28 -112.016)" fill="#544c9a" opacity="0.1"/>
    <g id="Group_7" data-name="Group 7" transform="translate(31.943 148.236)" opacity="0.2">
      <path id="Path_152" data-name="Path 152" d="M154.585,712.5a5.287,5.287,0,0,1-.04.571q-2.3-.955-4.512-2.054a3.593,3.593,0,0,1-2.087-1.069c-.43-.228-.861-.465-1.287-.7a5.87,5.87,0,0,1,.326-.617,3.669,3.669,0,0,1,6.808.22,7.431,7.431,0,0,1,.792,3.652Z" transform="translate(-130.89 -598.789)" fill="#3f3d56"/>
      <path id="Path_153" data-name="Path 153" d="M154.109,695.382a7.4,7.4,0,0,1-1.009,3.584,4.021,4.021,0,0,1-3.474,2.189l-.285-.021a3.593,3.593,0,0,1-2.087-1.069,5.275,5.275,0,0,1-.961-1.319,7.748,7.748,0,0,1,.217-7.236,3.669,3.669,0,0,1,6.808.22A7.43,7.43,0,0,1,154.109,695.382Z" transform="translate(-130.197 -588.905)" fill="#3f3d56"/>
      <path id="Path_182" data-name="Path 182" d="M6.006.231c3.27-.005,5.918,1.917,5.914,4.294S9.263,8.832,5.992,8.837.075,6.919.079,4.543,2.736.236,6.006.231Z" transform="translate(15.109 104.966) rotate(-88.19)" fill="#3f3d56"/>
      <path id="Path_183" data-name="Path 183" d="M6.006.231c3.27-.005,5.918,1.917,5.914,4.294S9.263,8.832,5.992,8.837.075,6.919.079,4.543,2.736.236,6.006.231Z" transform="translate(15.325 97.731) rotate(-88.19)" fill="#3f3d56"/>
      <path id="Path_184" data-name="Path 184" d="M6,.219c3.27,0,5.918,1.918,5.914,4.294S9.259,8.82,5.989,8.825.071,6.907.074,4.531,2.732.224,6,.219Z" transform="translate(15.594 90.03) rotate(-88.282)" fill="#3f3d56"/>
      <path id="Path_154" data-name="Path 154" d="M113.082,486.315a21.165,21.165,0,0,1-1.528-2.536l11.363-1.576-12.232-.309a22.736,22.736,0,0,1,.125-17.176l16.132,9.488-14.777-12.193A20.336,20.336,0,0,1,131.328,451.8a20.729,20.729,0,0,1,17.4,13.246,22.555,22.555,0,0,1-3.252,22.321,21.893,21.893,0,0,1,2.232,4.028l-14.914,7.527,15.814-5a22.556,22.556,0,0,1-3.949,20.249,22.461,22.461,0,0,1-3.091,29.234,19.893,19.893,0,0,1-27.97-.927,22.487,22.487,0,0,1-1.332-29.38,22.546,22.546,0,0,1,.8-26.787Z" transform="translate(-107.44 -451.737)" fill="#544c9a"/>
      <path id="Path_155" data-name="Path 155" d="M149.484,567.648a22.226,22.226,0,0,1-4.825,13.246,22.461,22.461,0,0,1-3.091,29.234,19.893,19.893,0,0,1-27.97-.927,22.487,22.487,0,0,1-1.332-29.38C109.624,576.046,149.556,565.214,149.484,567.648Z" transform="translate(-107.44 -518.456)" opacity="0.1"/>
    </g>
    <path id="Path_156" data-name="Path 156" d="M524.419,228.781V431.3a7.6,7.6,0,0,1-7.4,7.781H221.4a6.961,6.961,0,0,1-2.043-.3A7.724,7.724,0,0,1,214,431.3V253.357a3.5,3.5,0,0,1,.515.025A127.489,127.489,0,0,1,240.651,221H517.017A7.6,7.6,0,0,1,524.419,228.781Z" transform="translate(-139.21 -170.283)" fill="#fff"/>
    <rect id="Rectangle_157" data-name="Rectangle 157" width="55.421" height="15.198" rx="7.599" transform="translate(286.362 77.018)" fill="#3f3d56"/>
    <rect id="Rectangle_158" data-name="Rectangle 158" width="48.195" height="10.114" rx="5.057" transform="translate(289.972 79.558)" opacity="0.1"/>
    <rect id="Rectangle_159" data-name="Rectangle 159" width="17.403" height="9.007" rx="4.503" transform="translate(319.559 80.112)" fill="#544c9a"/>
    <ellipse id="Ellipse_94" data-name="Ellipse 94" cx="2.678" cy="2.815" rx="2.678" ry="2.815" transform="translate(325.449 81.802)" fill="#fff"/>
    <rect id="Rectangle_160" data-name="Rectangle 160" width="55.421" height="15.198" rx="7.599" transform="translate(286.362 177.205)" fill="#3f3d56"/>
    <rect id="Rectangle_161" data-name="Rectangle 161" width="48.195" height="10.114" rx="5.057" transform="translate(289.972 179.745)" opacity="0.1"/>
    <rect id="Rectangle_162" data-name="Rectangle 162" width="17.403" height="9.007" rx="4.503" transform="translate(319.559 180.299)" fill="#544c9a"/>
    <ellipse id="Ellipse_95" data-name="Ellipse 95" cx="2.678" cy="2.815" rx="2.678" ry="2.815" transform="translate(325.449 181.99)" fill="#fff"/>
    <rect id="Rectangle_163" data-name="Rectangle 163" width="55.421" height="15.198" rx="7.599" transform="translate(286.362 227.297)" fill="#3f3d56"/>
    <rect id="Rectangle_164" data-name="Rectangle 164" width="48.195" height="10.114" rx="5.057" transform="translate(289.972 229.841)" opacity="0.1"/>
    <rect id="Rectangle_165" data-name="Rectangle 165" width="17.403" height="9.007" rx="4.503" transform="translate(319.559 230.395)" fill="#544c9a"/>
    <ellipse id="Ellipse_96" data-name="Ellipse 96" cx="2.678" cy="2.815" rx="2.678" ry="2.815" transform="translate(325.449 232.081)" fill="#fff"/>
    <rect id="Rectangle_166" data-name="Rectangle 166" width="32.397" height="9.007" rx="4.503" transform="translate(118.216 67.449)" fill="#544c9a"/>
    <rect id="Rectangle_167" data-name="Rectangle 167" width="89.961" height="9.007" rx="4.503" transform="translate(118.216 80.112)" fill="#544c9a"/>
    <rect id="Rectangle_168" data-name="Rectangle 168" width="89.961" height="9.007" rx="4.503" transform="translate(118.216 92.778)" fill="#544c9a"/>
    <g id="Group_8" data-name="Group 8" transform="translate(118.216 117.541)" opacity="0.5">
      <rect id="Rectangle_169" data-name="Rectangle 169" width="32.397" height="9.007" rx="4.503" fill="#544c9a"/>
      <rect id="Rectangle_170" data-name="Rectangle 170" width="67.15" height="9.007" rx="4.503" transform="translate(0 12.667)" fill="#544c9a"/>
      <rect id="Rectangle_171" data-name="Rectangle 171" width="89.961" height="9.007" rx="4.503" transform="translate(0 25.329)" fill="#544c9a"/>
    </g>
    <rect id="Rectangle_172" data-name="Rectangle 172" width="32.397" height="9.007" rx="4.503" transform="translate(118.216 167.637)" fill="#544c9a"/>
    <rect id="Rectangle_173" data-name="Rectangle 173" width="89.961" height="9.007" rx="4.503" transform="translate(118.216 180.299)" fill="#544c9a"/>
    <rect id="Rectangle_174" data-name="Rectangle 174" width="55.892" height="9.007" rx="4.503" transform="translate(118.216 192.966)" fill="#544c9a"/>
    <rect id="Rectangle_175" data-name="Rectangle 175" width="32.397" height="9.007" rx="4.503" transform="translate(118.216 217.728)" fill="#544c9a"/>
    <rect id="Rectangle_176" data-name="Rectangle 176" width="89.961" height="9.007" rx="4.503" transform="translate(118.216 230.395)" fill="#544c9a"/>
    <rect id="Rectangle_177" data-name="Rectangle 177" width="72.378" height="9.007" rx="4.503" transform="translate(118.216 243.057)" fill="#544c9a"/>
    <line id="Line_13" data-name="Line 13" x2="262.168" transform="translate(104.545 109.883)" fill="none" stroke="#3f3d56" stroke-linecap="round" stroke-miterlimit="10" stroke-width="1" opacity="0.7"/>
    <line id="Line_14" data-name="Line 14" x2="262.168" transform="translate(104.545 160.811)" fill="none" stroke="#3f3d56" stroke-linecap="round" stroke-miterlimit="10" stroke-width="1" opacity="0.7"/>
    <line id="Line_15" data-name="Line 15" x2="262.168" transform="translate(104.545 211.74)" fill="none" stroke="#3f3d56" stroke-linecap="round" stroke-miterlimit="10" stroke-width="1" opacity="0.7"/>
    <line id="Line_16" data-name="Line 16" x2="262.168" transform="translate(104.545 263.936)" fill="none" stroke="#3f3d56" stroke-linecap="round" stroke-miterlimit="10" stroke-width="1" opacity="0.7"/>
    <ellipse id="Ellipse_97" data-name="Ellipse 97" cx="59.382" cy="4.438" rx="59.382" ry="4.438" transform="translate(260.286 286.125)" fill="#544c9a" opacity="0.1"/>
    <ellipse id="Ellipse_98" data-name="Ellipse 98" cx="8.697" cy="9.142" rx="8.697" ry="9.142" transform="translate(19.658 50.527)" fill="#544c9a" opacity="0.1"/>
    <ellipse id="Ellipse_99" data-name="Ellipse 99" cx="8.697" cy="9.142" rx="8.697" ry="9.142" transform="translate(55.907 0)" fill="#544c9a" opacity="0.1"/>
    <ellipse id="Ellipse_100" data-name="Ellipse 100" cx="14.576" cy="15.321" rx="14.576" ry="15.321" transform="translate(47.081 28.533)" fill="#544c9a" opacity="0.1"/>
    <rect id="Rectangle_178" data-name="Rectangle 178" width="55.421" height="15.198" rx="7.599" transform="translate(286.362 127.11)" fill="#3f3d56"/>
    <rect id="Rectangle_179" data-name="Rectangle 179" width="48.195" height="10.114" rx="5.057" transform="translate(289.972 129.654)" opacity="0.1"/>
    <path id="Path_157" data-name="Path 157" d="M733,552.645c.631-.1,1.263-.232,1.882-.385a6.416,6.416,0,0,1-.531,1.877,7.928,7.928,0,0,1-2.923,2.718.871.871,0,0,0-1.142-.08c-1.331.845-2.393,2.037-3.8,2.764-.495.254-1.009.456-1.492.74a8.28,8.28,0,0,0-2.815,3.056,2.185,2.185,0,0,0-.334,2.168,1.82,1.82,0,0,0,.571.537,3.138,3.138,0,0,0,1.958.613c.4-.038.8-.2,1.242-.27.551-.1,1.114-.051,1.669-.1a9.377,9.377,0,0,0,2.348-.638l2.762-1.014a15.525,15.525,0,0,0,2.272-.981c.438-.249.852-.541,1.3-.769a10.124,10.124,0,0,1,1.552-.575l1.568-.482a1.46,1.46,0,0,1,.708-.1c.217.042.4.186.623.245a1.8,1.8,0,0,0,1.005-.1l1.818-.541a3.337,3.337,0,0,0,1.082-.473,3.568,3.568,0,0,0,.977-2.933,23.306,23.306,0,0,0-.523-4.852,1.446,1.446,0,0,0-.591.469,8.984,8.984,0,0,0-.6-.79,9.585,9.585,0,0,1-1.814-3.521,6.108,6.108,0,0,0,1.608-1.91c-.961-3.85-1.946-7.76-3.9-11.158-.639-1.107-1.371-2.147-2.01-3.237-1.9-3.17-2.292-7.185-4.467-10.143a1.831,1.831,0,0,1,0-2.063c.249-.346.651-.672.575-1.1-.056-.309-.362-.592-.245-.879.056-.14.193-.216.3-.317.37-.363.322-.976.358-1.509a7.521,7.521,0,0,1,1.572-3.618,2.186,2.186,0,0,1,.579-.659c.2-.127.43-.186.627-.313.692-.461.643-1.53.973-2.325.434-1.048,1.528-1.576,2.244-2.426.913-1.082,1.146-2.587,2.107-3.529a2.486,2.486,0,0,1,.318-.27,17.83,17.83,0,0,0-.567,4.924c-.092,5.718,1.259,11.635.627,17.328a12.106,12.106,0,0,0,5.83,11.251,27.152,27.152,0,0,0,4.54,2.024c2.324.875,4.64,1.775,6.92,2.781q2.413,1.065,4.761,2.286a58.485,58.485,0,0,1,5.629,3.3,22.078,22.078,0,0,1,6.064,5.292,4.662,4.662,0,0,0,2.678-1.035c.611.507,1.351.892,1.926,1.454a6.228,6.228,0,0,1,1.528,3.153H782.1c.028.562.052,1.124.081,1.691a.752.752,0,0,1-.06.423.743.743,0,0,1-.217.207l-1.238.883c-.9.638-1.894,1.445-1.942,2.591a1.365,1.365,0,0,0,.269.926,1.858,1.858,0,0,0,1.1.524,18.51,18.51,0,0,0,6.546.634,4.219,4.219,0,0,0,2.786-1.352,5.986,5.986,0,0,0,.973-2.806c.269-1.691.495-3.419.672-5.135a11.86,11.86,0,0,1,.667-3.411.42.42,0,0,1,.173-.228c.093-.042.2,0,.3-.042s.161-.2.193-.325a21.143,21.143,0,0,0,.575-5.105,3.6,3.6,0,0,0-.189-1.314,2.547,2.547,0,0,0-1.721-1.395,13.063,13.063,0,0,0-2.224-.279,10.564,10.564,0,0,1-1.846-.355,1.613,1.613,0,0,0-.768-.106.558.558,0,0,0-.466.562.746.746,0,0,0,.1.275l-.627-.131c-.507-.1-1.206-.33-1.966-.524a3.882,3.882,0,0,1,.024-.423.8.8,0,0,0-.426-.727l-10.623-5.968-1.986-1.116c-4.351-2.447-8.846-4.708-13.209-7.155-.289.093-.531-.258-.615-.571s-.145-.685-.422-.824c-.137-.068-.318-.063-.4-.186a.524.524,0,0,1-.076-.376c.141-2.227,1.657-4.281,1.355-6.487a8.593,8.593,0,0,1-.4-2.8,13.549,13.549,0,0,1,.8-1.767c.523-1.361,0-3,.571-4.328a10.41,10.41,0,0,0,.768-2.756,19.644,19.644,0,0,1,1.608-5.469,9.932,9.932,0,0,1,1.5-2.4c.318-.363.675-.689.981-1.065a9.178,9.178,0,0,0,1.528-4.226,21.226,21.226,0,0,0,.209-8.208,12.27,12.27,0,0,1-.495-2.76c0-1.124.43-2.413-.088-3.314a2.95,2.95,0,0,0,1-1.8,2.438,2.438,0,0,1,.141-.748,2.1,2.1,0,0,1,.672-.634,3,3,0,0,0,1.037-2.9c.551.262,1.13-.325,1.391-.9s.458-1.268,1.017-1.53a8,8,0,0,1,1.206-.177c.639-.173,1.029-.845,1.48-1.34a11.325,11.325,0,0,1,3.418-2.215c3.563-1.906,6.466-4.92,9.309-7.886a32.66,32.66,0,0,0,4.021-4.759c.318-.495.607-1.006.881-1.53l.072-.038.024.093c.044.186.1.372.149.554.129.423.273.875.4,1.306a9.971,9.971,0,0,0,1.789,3.58,4.246,4.246,0,0,0,.917.748,5.934,5.934,0,0,0,2.36.744c.314.042.631.068.949.085s.635.03.949.038l6.506.182c-2.236-3.406-2.413-7.836-2.264-11.982.374-10.651,2.348-21.4.515-31.88a8.435,8.435,0,0,0-1.251-3.554,6.86,6.86,0,0,0-4.093-2.35,23.627,23.627,0,0,1-4.592-1.238,18.958,18.958,0,0,0-3.619-1.813,7.588,7.588,0,0,0-2.9.051q-1.761.275-3.5.651l-.281.063h.012l-.193.047h-.052l-.173.042H781.1l-.161.047-.072.021-.149.051-.084.03-.137.046-.089.038-.129.051-.1.042-.117.055-.1.051-.109.055-.1.059-.1.059-.1.068-.093.063-.1.072-.08.068-.093.085-.076.072a1,1,0,0,0-.089.1l-.068.072a1.254,1.254,0,0,0-.088.118c0,.021-.036.042-.052.068s-.072.11-.109.173v.025a2.634,2.634,0,0,0-.221.5c-.028.089-.056.178-.076.266a4.22,4.22,0,0,0-.088.549,1.345,1.345,0,0,1-.02.283v.562a8.709,8.709,0,0,0,.1.947,10.585,10.585,0,0,0-.466,17.426,4.857,4.857,0,0,1,.032.5v.11a14.62,14.62,0,0,1-.177,1.784,22.474,22.474,0,0,0-4.825-.452c-.965,0-1.938.093-2.911.173a46.081,46.081,0,0,1-2.911-4.142l-2.147-3.309a31.829,31.829,0,0,1-2.01-3.381c-.527-1.073-.937-2.215-1.524-3.254-1.206-2.143-3.177-3.964-3.422-6.445l-.567.123c-.31-.533-.7-1.095-.844-1.4a28.683,28.683,0,0,1-1.785-5.494,8.757,8.757,0,0,0-.857-2.849,6.3,6.3,0,0,0-1.25-1.395,8.227,8.227,0,0,0-2.678-1.775,3.31,3.31,0,0,0-2.738.169,3.911,3.911,0,0,0-.4-.169,3.181,3.181,0,0,0-3.04.372,4.386,4.386,0,0,0-1.335,2.958,7.629,7.629,0,0,0,.716,4.488c.8,1.513,2.244,2.536,3.434,3.736A14.514,14.514,0,0,1,748.867,414a32.488,32.488,0,0,1-.165,6.851c-.153.972-.4,1.927-.474,2.908-.294,3.542,1.46,7.083.832,10.566a2.632,2.632,0,0,0,1.138,2.734,12.072,12.072,0,0,0,2.943.845c1.942.524,3.619,1.83,5.581,2.316.9.228,1.846.27,2.746.524l.141.047a7,7,0,0,0-1.443,2.882c-.4,1.775-.024,3.673-.426,5.448a12.375,12.375,0,0,1-1.974,3.977q-2.356,3.584-4.721,7.185a43.864,43.864,0,0,1-3.478,4.805c-2.167,2.489-5.907,4.463-7.009,7.455-.024-.072-.056-.144-.08-.216-1.56,1.2-2.143,3.449-3.386,5.008-.607.757-1.355,1.369-2.01,2.071a23.73,23.73,0,0,0-2.224,2.9,52,52,0,0,0-5.034,8.427c-.692,1.572-1.226,3.208-1.777,4.835-2.163,6.411-5.694,12.493-7.161,19.125-.358,1.619-1.295,3.081-1.436,4.738a9.507,9.507,0,0,0,1.407,5.025c1.206,2.384,2.549,4.7,3.619,7.151.631,1.429,1.178,2.9,1.882,4.3.768,1.522,1.709,2.933,2.513,4.434A57.493,57.493,0,0,1,733,552.645Zm26.6-121.108-.193-.1a6.647,6.647,0,0,1-1.95-1.357c-1.733-1.944-2.477-4.873-3.02-7.489-.064-.313-.121-.621-.173-.934a45.611,45.611,0,0,1,5.336,9.89Z" transform="translate(-441.408 -273.278)" fill="url(#linear-gradient)"/>
    <path id="Path_158" data-name="Path 158" d="M785.925,406.929a8.6,8.6,0,0,0-.852-2.827,6.284,6.284,0,0,0-1.255-1.386,8.29,8.29,0,0,0-2.686-1.762,3.215,3.215,0,0,0-3.04.368,4.356,4.356,0,0,0-1.339,2.958,7.537,7.537,0,0,0,.716,4.459c.824,1.5,2.248,2.51,3.442,3.711a14.44,14.44,0,0,1,2.244,2.958,8.571,8.571,0,0,0,1.021,1.572,1.9,1.9,0,0,0,1.608.68,2.789,2.789,0,0,0,1.315-.816c.491-.452,1.809-1.268,1.85-1.974.032-.579-1-1.889-1.251-2.434A28.623,28.623,0,0,1,785.925,406.929Z" transform="translate(-475.634 -274.05)" fill="#fbbebe"/>
    <path id="Path_159" data-name="Path 159" d="M785.925,406.929a8.6,8.6,0,0,0-.852-2.827,6.284,6.284,0,0,0-1.255-1.386,8.29,8.29,0,0,0-2.686-1.762,3.215,3.215,0,0,0-3.04.368,4.356,4.356,0,0,0-1.339,2.958,7.537,7.537,0,0,0,.716,4.459c.824,1.5,2.248,2.51,3.442,3.711a14.44,14.44,0,0,1,2.244,2.958,8.571,8.571,0,0,0,1.021,1.572,1.9,1.9,0,0,0,1.608.68,2.789,2.789,0,0,0,1.315-.816c.491-.452,1.809-1.268,1.85-1.974.032-.579-1-1.889-1.251-2.434A28.623,28.623,0,0,1,785.925,406.929Z" transform="translate(-475.634 -274.05)" opacity="0.1"/>
    <path id="Path_160" data-name="Path 160" d="M822.234,453.823a22.589,22.589,0,0,0-6.506-.845c-3.663.055-7.435.989-10.925-.194a18.579,18.579,0,0,1-2.614-1.171,6.647,6.647,0,0,1-1.954-1.348c-1.737-1.931-2.485-4.844-3.024-7.439a52.08,52.08,0,0,1-.824-7.916,5.549,5.549,0,0,1-2.855.79,2.144,2.144,0,0,1-2.01-1.94,33.725,33.725,0,0,1-.133,7.375c-.153.964-.4,1.915-.47,2.887-.3,3.521,1.46,7.037.832,10.507a2.587,2.587,0,0,0,1.138,2.713,12.291,12.291,0,0,0,2.947.845c1.942.52,3.619,1.817,5.589,2.3.9.224,1.85.266,2.75.52,1.283.359,2.453,1.133,3.764,1.374.981.186,2.01.059,2.988.148.865.076,1.709.313,2.578.338a7.3,7.3,0,0,0,5.533-2.878A25.622,25.622,0,0,0,822.234,453.823Z" transform="translate(-484.131 -293.122)" fill="#f86d70"/>
    <path id="Path_161" data-name="Path 161" d="M822.234,453.823a22.589,22.589,0,0,0-6.506-.845c-3.663.055-7.435.989-10.925-.194a18.579,18.579,0,0,1-2.614-1.171,6.647,6.647,0,0,1-1.954-1.348c-1.737-1.931-2.485-4.844-3.024-7.439a52.08,52.08,0,0,1-.824-7.916,5.549,5.549,0,0,1-2.855.79,2.144,2.144,0,0,1-2.01-1.94,33.725,33.725,0,0,1-.133,7.375c-.153.964-.4,1.915-.47,2.887-.3,3.521,1.46,7.037.832,10.507a2.587,2.587,0,0,0,1.138,2.713,12.291,12.291,0,0,0,2.947.845c1.942.52,3.619,1.817,5.589,2.3.9.224,1.85.266,2.75.52,1.283.359,2.453,1.133,3.764,1.374.981.186,2.01.059,2.988.148.865.076,1.709.313,2.578.338a7.3,7.3,0,0,0,5.533-2.878A25.622,25.622,0,0,0,822.234,453.823Z" transform="translate(-484.131 -293.122)" opacity="0.1"/>
    <path id="Path_162" data-name="Path 162" d="M872.107,737.541a5.312,5.312,0,0,1,1.878.617,4.639,4.639,0,0,1,1.633,2.316,21.037,21.037,0,0,1,1.1,7.231,16.314,16.314,0,0,1-.708,5.862,3.76,3.76,0,0,1-.929,1.534,3.8,3.8,0,0,1-4.278.262,5.15,5.15,0,0,1-1.339-3.288,7.82,7.82,0,0,0-1.781-4.472c-.852-.845-2.075-1.268-2.694-2.291-.74-1.23-.35-2.836.121-4.205.4-1.188,1.009-3.592,2.191-4.2S870.881,737.309,872.107,737.541Z" transform="translate(-528.19 -468.035)" fill="#fbbebe"/>
    <path id="Path_163" data-name="Path 163" d="M755.679,749.288a9.519,9.519,0,0,0,1.842,3.6c.523.634,1.178,1.4.9,2.189a2.033,2.033,0,0,1-.495.7c-3.884,3.99-9.317,5.917-14.7,6.644a.5.5,0,0,1-.261,0c-.157-.072-.2-.283-.213-.465a6,6,0,0,1,0-1.779,5.289,5.289,0,0,1,2.545-3.123,8.045,8.045,0,0,0,2.992-2.747c.784-1.547.454-3.563,1.387-5.013a4.9,4.9,0,0,1,3.5-1.9c.462-.076,1.448-.609,1.842-.363S755.542,748.8,755.679,749.288Z" transform="translate(-455.312 -473.949)" fill="#fbbebe"/>
    <path id="Path_164" data-name="Path 164" d="M874.137,737.556A.553.553,0,0,1,874.6,737a1.67,1.67,0,0,1,.768.1,10.191,10.191,0,0,0,1.846.359,13.065,13.065,0,0,1,2.228.275,2.541,2.541,0,0,1,1.725,1.382,3.592,3.592,0,0,1,.189,1.31,20.865,20.865,0,0,1-.575,5.072c-.032.127-.08.275-.2.321s-.2,0-.294.047a.377.377,0,0,0-.173.228,11.663,11.663,0,0,0-.672,3.381c-.177,1.691-.4,3.406-.671,5.1a5.779,5.779,0,0,1-.973,2.789,4.228,4.228,0,0,1-2.791,1.344,18.748,18.748,0,0,1-6.554-.63,1.876,1.876,0,0,1-1.106-.52,1.352,1.352,0,0,1-.269-.921c.048-1.137,1.045-1.94,1.942-2.574l1.242-.875a.655.655,0,0,0,.217-.207.738.738,0,0,0,.06-.423l-.08-1.691a4.539,4.539,0,0,1,3.969,2.6c.169.359.334.778.688.917a.907.907,0,0,0,1.082-.689,3.073,3.073,0,0,0-.036-1.466c-.728-4.087-.555-8.288-1-12.417a2.9,2.9,0,0,0-.4-1.31C874.579,738.211,874.181,737.936,874.137,737.556Z" transform="translate(-529.688 -468.193)" fill="#f86d70"/>
    <rect id="Rectangle_180" data-name="Rectangle 180" width="17.403" height="9.007" rx="4.503" transform="translate(308.581 139.214) rotate(180)" fill="#544c9a"/>
    <ellipse id="Ellipse_101" data-name="Ellipse 101" cx="2.678" cy="2.815" rx="2.678" ry="2.815" transform="translate(297.335 131.894)" fill="#fff"/>
    <path id="Path_165" data-name="Path 165" d="M735.082,767.685c-.181.317-.466.562-.635.888a.788.788,0,0,0,.137.993.891.891,0,0,0,.575.059,18.928,18.928,0,0,0,10.455-4.979,7.568,7.568,0,0,0,1.283-1.475c.342-.545.631-1.213,1.206-1.441a23.014,23.014,0,0,1,.539,4.839,3.55,3.55,0,0,1-.977,2.916,3.378,3.378,0,0,1-1.086.465l-1.817.541a1.845,1.845,0,0,1-1.009.1c-.213-.059-.4-.2-.623-.245a1.46,1.46,0,0,0-.708.1l-1.572.482a9.676,9.676,0,0,0-1.552.571c-.45.224-.865.511-1.3.761a15.168,15.168,0,0,1-2.276.972l-2.762,1.01a9.621,9.621,0,0,1-2.352.634c-.555.051-1.122,0-1.673.1a10.889,10.889,0,0,1-1.247.271,3.148,3.148,0,0,1-1.958-.609,1.854,1.854,0,0,1-.571-.532,2.182,2.182,0,0,1,.334-2.156,8.342,8.342,0,0,1,2.815-3.035c.483-.279,1-.482,1.5-.735,1.411-.719,2.477-1.919,3.808-2.739C734.865,764.663,735.674,766.662,735.082,767.685Z" transform="translate(-444.724 -482.478)" fill="#f86d70"/>
    <path id="Path_166" data-name="Path 166" d="M846.69,480.062a11.167,11.167,0,0,0,4.889,2,18.943,18.943,0,0,0,2.766.156,66.972,66.972,0,0,0,11.512-1.01,15.088,15.088,0,0,1-3.619-5.917,10.253,10.253,0,0,1-.177-3.707,29.092,29.092,0,0,1,1.078-4.649,29.707,29.707,0,0,1-4.865-.131c-.921-.1-3.181-.981-3.981-.313s-.185,2.819-.173,3.829a.97.97,0,0,1,0,.11,12.757,12.757,0,0,1-.929,4.472C852.042,477.632,849.549,479.88,846.69,480.062Z" transform="translate(-517.497 -311.876)" fill="#fbbebe"/>
    <path id="Path_167" data-name="Path 167" d="M864.827,470.276a9.278,9.278,0,0,0,7.941,1.268,29.078,29.078,0,0,1,1.078-4.649,29.7,29.7,0,0,1-4.865-.131c-.921-.1-3.181-.981-3.981-.313S864.815,469.266,864.827,470.276Z" transform="translate(-528.199 -311.852)" opacity="0.1"/>
    <ellipse id="Ellipse_102" data-name="Ellipse 102" cx="9.695" cy="10.19" rx="9.695" ry="10.19" transform="translate(332.241 139.231)" fill="#fbbebe"/>
    <path id="Path_168" data-name="Path 168" d="M776.09,525.745a4.8,4.8,0,0,0,2.187,4.087,8.447,8.447,0,0,0,2.372.879,44.449,44.449,0,0,0,13.531,1.754,7.128,7.128,0,0,0,2.871-.634,3.211,3.211,0,0,0,1.773-2.329,2.285,2.285,0,0,1,.137-.74,2.094,2.094,0,0,1,.672-.63,2.967,2.967,0,0,0,1.041-2.882c.551.262,1.13-.325,1.391-.9s.462-1.268,1.017-1.517a7.993,7.993,0,0,1,1.206-.177c.639-.173,1.029-.845,1.48-1.331a11.521,11.521,0,0,1,3.422-2.2c3.571-1.889,6.478-4.886,9.329-7.832a32.38,32.38,0,0,0,4.021-4.725,17.567,17.567,0,0,0,.885-1.521,44.2,44.2,0,0,0,2.232-5.372,6.467,6.467,0,0,0,.579-3.077,1.46,1.46,0,0,0-.052-.283,6.041,6.041,0,0,0-.881-1.868,7.533,7.533,0,0,0-3.973-3.432c-1.7-.473-3.386.1-5.111.482a12.229,12.229,0,0,1-1.733.279,15.56,15.56,0,0,1-5.4-.892l-1.922-.558c-.961-.279-1.443-1.5-2.413-1.716a3.111,3.111,0,0,0-1.307.072,17.4,17.4,0,0,0-5.71,1.961,8.568,8.568,0,0,0-1.11.795,7.407,7.407,0,0,0-2.581,4c-.4,1.762-.024,3.647-.426,5.41a12.27,12.27,0,0,1-1.974,3.948l-4.737,7.13a43.845,43.845,0,0,1-3.482,4.767C780.879,519.6,776.158,521.794,776.09,525.745Z" transform="translate(-475.285 -324.766)" fill="#f86d70"/>
    <path id="Path_169" data-name="Path 169" d="M793.775,406.929a8.6,8.6,0,0,0-.852-2.827,6.284,6.284,0,0,0-1.255-1.386,8.291,8.291,0,0,0-2.686-1.762,3.215,3.215,0,0,0-3.04.368,4.355,4.355,0,0,0-1.339,2.958,7.536,7.536,0,0,0,.716,4.459c.8,1.5,2.248,2.51,3.442,3.711A14.437,14.437,0,0,1,791,415.407a8.568,8.568,0,0,0,1.021,1.572,1.9,1.9,0,0,0,1.608.68,2.79,2.79,0,0,0,1.315-.816c.491-.452,1.809-1.268,1.85-1.974.032-.579-1-1.889-1.25-2.434A28.625,28.625,0,0,1,793.775,406.929Z" transform="translate(-480.328 -274.05)" fill="#fbbebe"/>
    <path id="Path_170" data-name="Path 170" d="M720.69,623.931c1.206,2.367,2.549,4.649,3.639,7.1.631,1.424,1.178,2.887,1.882,4.273.768,1.509,1.713,2.912,2.517,4.4a52.777,52.777,0,0,1,4.19,12.185,22.353,22.353,0,0,0,8.251-3.052,5.168,5.168,0,0,0,.495-.334,6.04,6.04,0,0,0,1.665-1.931c-.961-3.8-1.946-7.7-3.9-11.082-.639-1.1-1.371-2.113-2.01-3.216-1.9-3.149-2.3-7.117-4.471-10.063a1.8,1.8,0,0,1,0-2.046c.249-.342.651-.668.575-1.095-.056-.309-.362-.588-.245-.875.056-.139.193-.216.3-.317.37-.355.322-.968.358-1.492a7.488,7.488,0,0,1,1.576-3.6,2.217,2.217,0,0,1,.579-.655c.2-.127.43-.186.627-.313.692-.452.643-1.517.977-2.308.434-1.04,1.528-1.568,2.248-2.409.913-1.073,1.142-2.565,2.107-3.5a2.894,2.894,0,0,1,.318-.271,17.591,17.591,0,0,0-.567,4.907c-.093,5.68,1.258,11.555.627,17.2a12.006,12.006,0,0,0,5.838,11.175,27.53,27.53,0,0,0,4.548,2.012c2.324.866,4.648,1.758,6.928,2.76,1.608.7,3.217,1.462,4.769,2.27a57.939,57.939,0,0,1,5.629,3.28,21.989,21.989,0,0,1,6.072,5.253,5.385,5.385,0,0,0,3.924-2.27,16.207,16.207,0,0,0,2.147-4.273,12.351,12.351,0,0,0,1.021-4.028.808.808,0,0,0-.426-.723l-10.64-5.917-2.01-1.107c-4.355-2.43-8.846-4.679-13.225-7.1-.294.089-.535-.262-.619-.566s-.145-.685-.422-.82c-.141-.068-.318-.068-.4-.186a.529.529,0,0,1-.072-.372c.141-2.215,1.661-4.252,1.355-6.445a8.485,8.485,0,0,1-.4-2.777,13.212,13.212,0,0,1,.8-1.758c.519-1.352,0-2.958.571-4.3a10.245,10.245,0,0,0,.768-2.739,19.232,19.232,0,0,1,1.628-5.427,9.853,9.853,0,0,1,1.5-2.384c.322-.359.68-.685.981-1.057a9.09,9.09,0,0,0,1.532-4.176,20.95,20.95,0,0,0,.209-8.153,12.127,12.127,0,0,1-.495-2.743c0-1.23.527-2.671-.286-3.563a2.61,2.61,0,0,0-1.206-.642,34.77,34.77,0,0,0-5.77-1.12l-8.87-1.213a7.842,7.842,0,0,1-2.955-.807,6.157,6.157,0,0,1-2.493-3.347c-1.56,1.2-2.147,3.423-3.39,4.97-.607.756-1.355,1.365-2.01,2.058a23.113,23.113,0,0,0-2.228,2.887,51.706,51.706,0,0,0-5.046,8.368c-.688,1.56-1.206,3.187-1.777,4.8-2.167,6.369-5.7,12.413-7.169,18.994-.362,1.61-1.3,3.06-1.44,4.708A9.225,9.225,0,0,0,720.69,623.931Z" transform="translate(-441.309 -373.034)" fill="#434175"/>
    <path id="Path_171" data-name="Path 171" d="M836.572,567.333a3.013,3.013,0,0,1,.326,1.378c-.2-1.031-1.548-1.6-1.633-2.62-.04-.469.04-.448.318-.2C836.005,566.26,836.186,566.927,836.572,567.333Z" transform="translate(-510.661 -369.308)" opacity="0.1"/>
    <path id="Path_172" data-name="Path 172" d="M827.01,576.489a2.184,2.184,0,0,1,.615.955,2.544,2.544,0,0,1,.121,1.661c-.2-.1-.265-.351-.326-.575a4.075,4.075,0,0,0-.4-.985c-.161-.266-.9-.9-.889-1.192C826.118,575.914,826.813,576.332,827.01,576.489Z" transform="translate(-505.204 -375.336)" opacity="0.1"/>
    <path id="Path_173" data-name="Path 173" d="M827.14,491.383a10.123,10.123,0,0,0,2.043,1.429c1.922,1.023,4.049,1.56,5.983,2.536a28.706,28.706,0,0,1,2.775,1.691c1.918,1.268,3.832,2.536,5.746,3.825a6.376,6.376,0,0,1,1.267,1.01c.692.778.688,2.113,1.319,2.958a3.706,3.706,0,0,0,2.786,1.352,8.652,8.652,0,0,0,3.108-.549,14.9,14.9,0,0,0,1.777-.68,8.14,8.14,0,0,0,1.7-1.023,5.188,5.188,0,0,0,2.01-3.335,6.9,6.9,0,0,0-.342-2.722,10.939,10.939,0,0,0-.611-1.653,6.484,6.484,0,0,0-.491-.866c-1.319-1.965-3.643-2.891-5.891-3.352-1.186-.241-2.392-.389-3.583-.6a12.23,12.23,0,0,1-1.733.279,15.559,15.559,0,0,1-5.4-.892l-1.922-.558c-.961-.279-1.444-1.5-2.413-1.716a3.111,3.111,0,0,0-1.307.072,17.406,17.406,0,0,0-5.71,1.961A8.581,8.581,0,0,0,827.14,491.383Z" transform="translate(-505.808 -324.714)" opacity="0.1"/>
    <path id="Path_174" data-name="Path 174" d="M805.236,431.36c.245,2.464,2.224,4.273,3.43,6.4.587,1.035,1,2.168,1.524,3.237a32,32,0,0,0,2.01,3.381l2.151,3.284a33.764,33.764,0,0,0,4.162,5.494c2.815.5,5.187,2.7,7.861,3.774,2.143.845,4.475.972,6.723,1.433s4.572,1.382,5.891,3.352a9.025,9.025,0,0,1,1.1,2.536,6.88,6.88,0,0,1,.342,2.718,5.187,5.187,0,0,1-2.01,3.339A10.9,10.9,0,0,1,834.943,472a8.742,8.742,0,0,1-3.108.549,3.721,3.721,0,0,1-2.791-1.352c-.627-.845-.623-2.194-1.315-2.958a6.375,6.375,0,0,0-1.267-1.01l-5.746-3.8a28.7,28.7,0,0,0-2.774-1.691c-1.934-.993-4.061-1.53-5.983-2.536a7.328,7.328,0,0,1-4.089-4.936c-1.17-6.843-5.678-12.612-9.53-18.262.125-.025.089-.33.133-.456a5.786,5.786,0,0,1,2.815-2.992A13.691,13.691,0,0,1,805.236,431.36Z" transform="translate(-488.588 -291.736)" fill="#f86d70"/>
    <path id="Path_175" data-name="Path 175" d="M865.973,425.023a3.913,3.913,0,0,1,.4-2.147,4.515,4.515,0,0,1,3.189-1.771c1.214-.262,2.332-.465,3.506-.642a7.7,7.7,0,0,1,2.9-.055,19.162,19.162,0,0,1,3.619,1.8,24.715,24.715,0,0,0,4.6,1.234,6.976,6.976,0,0,1,4.1,2.333,8.346,8.346,0,0,1,1.25,3.529c1.838,10.41-.141,21.086-.515,31.664-.149,4.117.028,8.516,2.268,11.9l-6.518-.182c-1.669-.046-3.462-.139-4.773-1.221a8.346,8.346,0,0,1-2.2-3.935A12.771,12.771,0,0,1,876.97,464c-.1-2.485,1.243-4.924.8-7.371a8.329,8.329,0,0,0-2.943-4.5,27.7,27.7,0,0,1-3.953-3.7c-1.95-2.6-2.324-6.145-2.083-9.446a37.528,37.528,0,0,0,.318-5.887,7.637,7.637,0,0,0-1.476-4.125A5.955,5.955,0,0,1,865.973,425.023Z" transform="translate(-529.015 -285.348)" fill="#434175"/>
    <path id="Path_176" data-name="Path 176" d="M866.371,424a4.421,4.421,0,0,1,3.124-1.754,3.112,3.112,0,0,0-1.548,1.268,3.97,3.97,0,0,0-.4,2.151,5.864,5.864,0,0,0,1.669,3.952,7.6,7.6,0,0,1,1.48,4.125,38.057,38.057,0,0,1-.318,5.887c-.245,3.3.129,6.847,2.083,9.446a26.893,26.893,0,0,0,3.953,3.7,8.256,8.256,0,0,1,2.943,4.5c.434,2.443-.909,4.886-.8,7.371a12.555,12.555,0,0,0,.832,3.525,8.41,8.41,0,0,0,2.2,3.939c1.311,1.082,3.108,1.175,4.777,1.221l4.616.127c.1.177.209.355.322.528l-6.518-.182c-1.669-.046-3.462-.139-4.773-1.221a8.346,8.346,0,0,1-2.2-3.935,12.77,12.77,0,0,1-.836-3.529c-.1-2.485,1.242-4.924.8-7.371a8.329,8.329,0,0,0-2.943-4.5,27.7,27.7,0,0,1-3.953-3.7c-1.95-2.6-2.324-6.145-2.083-9.446a37.528,37.528,0,0,0,.318-5.887,7.637,7.637,0,0,0-1.476-4.125,5.886,5.886,0,0,1-1.673-3.952,3.911,3.911,0,0,1,.406-2.139Z" transform="translate(-529.011 -286.476)" opacity="0.1"/>
    <path id="Path_177" data-name="Path 177" d="M745.22,652.4l11.974,30.663a6.04,6.04,0,0,0,1.665-1.932c-.961-3.8-1.946-7.7-3.9-11.082-.639-1.1-1.371-2.113-2.01-3.216-1.9-3.149-2.3-7.117-4.471-10.063a1.8,1.8,0,0,1,0-2.046c.249-.342.651-.668.575-1.095-.056-.308-.362-.587-.245-.875.056-.139.193-.215.3-.317.37-.355.322-.968.358-1.492a7.487,7.487,0,0,1,1.576-3.6,2.218,2.218,0,0,1,.579-.655c.2-.127.43-.186.627-.313.692-.452.643-1.517.977-2.308.434-1.04,1.528-1.568,2.248-2.409.913-1.074,1.142-2.565,2.107-3.5l.084-.22-.9-5.917Z" transform="translate(-456.828 -407.588)" opacity="0.1"/>
    <ellipse id="Ellipse_103" data-name="Ellipse 103" cx="13.651" cy="2.76" rx="13.651" ry="2.76" transform="translate(379.218 275.909)" fill="#544c9a"/>
    <ellipse id="Ellipse_104" data-name="Ellipse 104" cx="1.588" cy="2.185" rx="1.588" ry="2.185" transform="translate(391.51 275.309)" fill="#3f3d56"/>
    <ellipse id="Ellipse_105" data-name="Ellipse 105" cx="1.588" cy="2.185" rx="1.588" ry="2.185" transform="translate(391.51 272.638)" fill="#3f3d56"/>
    <ellipse id="Ellipse_106" data-name="Ellipse 106" cx="1.588" cy="2.185" rx="1.588" ry="2.185" transform="translate(391.51 269.963)" fill="#3f3d56"/>
    <ellipse id="Ellipse_107" data-name="Ellipse 107" cx="1.588" cy="2.185" rx="1.588" ry="2.185" transform="translate(391.51 267.292)" fill="#3f3d56"/>
    <ellipse id="Ellipse_108" data-name="Ellipse 108" cx="1.588" cy="2.185" rx="1.588" ry="2.185" transform="translate(391.51 264.616)" fill="#3f3d56"/>
    <ellipse id="Ellipse_109" data-name="Ellipse 109" cx="1.588" cy="2.185" rx="1.588" ry="2.185" transform="translate(391.51 261.945)" fill="#3f3d56"/>
    <ellipse id="Ellipse_110" data-name="Ellipse 110" cx="1.588" cy="2.185" rx="1.588" ry="2.185" transform="translate(391.51 259.274)" fill="#3f3d56"/>
    <path id="Path_178" data-name="Path 178" d="M988.4,658.619a7.994,7.994,0,0,1-.591-.917l4.174-.723-4.516.038a8.407,8.407,0,0,1-.145-6.34l6.06,3.3-5.589-4.315a7.539,7.539,0,0,1,6.964-4.015,7.626,7.626,0,0,1,6.576,4.684,8.339,8.339,0,0,1-.967,8.287,7.825,7.825,0,0,1,.869,1.458l-5.42,2.958L1001.6,661a8.435,8.435,0,0,1,.4,2.565,8.229,8.229,0,0,1-1.632,4.949,8.3,8.3,0,0,1-.819,10.823,7.342,7.342,0,0,1-10.329,0,8.3,8.3,0,0,1-.819-10.823,8.328,8.328,0,0,1,0-9.894Z" transform="translate(-601.251 -415.452)" fill="#544c9a"/>
    <path id="Path_179" data-name="Path 179" d="M1002,687.89a8.229,8.229,0,0,1-1.633,4.949,8.3,8.3,0,0,1-.819,10.823,7.342,7.342,0,0,1-10.329,0,8.3,8.3,0,0,1-.819-10.823C987.377,691.478,1002,686.994,1002,687.89Z" transform="translate(-601.251 -439.777)" opacity="0.1"/>
    <ellipse id="Ellipse_111" data-name="Ellipse 111" cx="9.18" cy="1.855" rx="9.18" ry="1.855" transform="translate(410.276 246.164)" fill="#544c9a"/>
    <ellipse id="Ellipse_112" data-name="Ellipse 112" cx="1.07" cy="1.471" rx="1.07" ry="1.471" transform="translate(418.543 245.762)" fill="#3f3d56"/>
    <ellipse id="Ellipse_113" data-name="Ellipse 113" cx="1.07" cy="1.471" rx="1.07" ry="1.471" transform="translate(418.543 243.966)" fill="#3f3d56"/>
    <ellipse id="Ellipse_114" data-name="Ellipse 114" cx="1.07" cy="1.471" rx="1.07" ry="1.471" transform="translate(418.543 242.165)" fill="#3f3d56"/>
    <ellipse id="Ellipse_115" data-name="Ellipse 115" cx="1.07" cy="1.471" rx="1.07" ry="1.471" transform="translate(418.543 240.369)" fill="#3f3d56"/>
    <ellipse id="Ellipse_116" data-name="Ellipse 116" cx="1.07" cy="1.471" rx="1.07" ry="1.471" transform="translate(418.543 238.573)" fill="#3f3d56"/>
    <ellipse id="Ellipse_117" data-name="Ellipse 117" cx="1.07" cy="1.471" rx="1.07" ry="1.471" transform="translate(418.543 236.777)" fill="#3f3d56"/>
    <ellipse id="Ellipse_118" data-name="Ellipse 118" cx="1.07" cy="1.471" rx="1.07" ry="1.471" transform="translate(418.543 234.976)" fill="#3f3d56"/>
    <path id="Path_180" data-name="Path 180" d="M1059.966,619.41a4.657,4.657,0,0,1-.4-.617l2.815-.486-3.036.025a5.567,5.567,0,0,1-.47-2.249,5.647,5.647,0,0,1,.37-2.016l4.077,2.223-3.76-2.9a5.069,5.069,0,0,1,4.687-2.72,5.126,5.126,0,0,1,4.43,3.16,5.6,5.6,0,0,1-.673,5.582,5.362,5.362,0,0,1,.583.981l-3.643,1.991,3.884-1.374a5.619,5.619,0,0,1-.824,5.072,5.584,5.584,0,0,1-.543,7.289,4.941,4.941,0,0,1-6.956,0,5.584,5.584,0,0,1-.543-7.289,5.589,5.589,0,0,1,0-6.652Z" transform="translate(-644.354 -395.257)" fill="#544c9a"/>
    <path id="Path_181" data-name="Path 181" d="M1069.117,639.121a5.553,5.553,0,0,1-1.094,3.326,5.584,5.584,0,0,1-.543,7.289,4.942,4.942,0,0,1-6.956,0,5.584,5.584,0,0,1-.543-7.289C1059.29,641.531,1069.117,638.517,1069.117,639.121Z" transform="translate(-644.366 -411.643)" opacity="0.1"/>
  </g>
</svg>
