<svg xmlns="http://www.w3.org/2000/svg" xmlns:xlink="http://www.w3.org/1999/xlink" width="460" height="295" viewBox="0 0 460 295">
  <defs>
    <linearGradient id="linear-gradient" x1="0.5" y1="1" x2="0.5" gradientUnits="objectBoundingBox">
      <stop offset="0" stop-color="gray" stop-opacity="0.251"/>
      <stop offset="0.54" stop-color="gray" stop-opacity="0.122"/>
      <stop offset="1" stop-color="gray" stop-opacity="0.102"/>
    </linearGradient>
  </defs>
  <g id="Dashboard" transform="translate(0 -0.05)">
    <path id="Path_187" data-name="Path 187" d="M539.18,83.157a81.4,81.4,0,0,0-18.249-20.52l-253.147-1.76L476.208,40.217a162.182,162.182,0,0,0-42.287-5.92C413.856,22.861,388.067,16,359.938,16c-25.239,0-48.577,5.536-67.6,14.929a159.15,159.15,0,0,0-54.186-9.213c-56.246,0-103.113,27.494-113.628,63.956Z" transform="translate(-88.078 -15.95)" fill="#544c9a" opacity="0.1"/>
    <path id="Path_188" data-name="Path 188" d="M495,247.53a57.969,57.969,0,0,0-7.889-28.86l-438.734,32.5A66.631,66.631,0,0,0,38.1,269.494l135.863,14.294L35,294.208c4.181,41.278,54.317,73.869,115.562,73.869,30.828,0,58.839-8.258,79.6-21.726,20.822,13.723,49.1,22.161,80.264,22.161,46.232,0,86.138-18.579,104.721-45.441,37.28-8.353,66.24-29.322,76.152-55.555L319.479,248.709H495Z" transform="translate(-35 -149.743)" fill="#544c9a" opacity="0.1"/>
    <ellipse id="Ellipse_119" data-name="Ellipse 119" cx="118.045" cy="4.398" rx="118.045" ry="4.398" transform="translate(85.487 286.255)" fill="#544c9a" opacity="0.1"/>
    <path id="Path_189" data-name="Path 189" d="M569.977,756.645V759.3H475.84v-2.158c11.741-3.631,19.7-12.812,20.168-23.258s-6.655-20.1-18.039-24.446h91.369c-11.118,4.25-18.195,13.568-18.057,23.776S558.747,752.606,569.977,756.645Z" transform="translate(-296.383 -473.727)" fill="#c8cad7"/>
    <path id="Path_190" data-name="Path 190" d="M572.445,709.44c-8.5,3.26-14.788,9.554-17.1,17.125h-57.17c-2.31-7.57-8.594-13.864-17.1-17.125Z" transform="translate(-299.49 -473.727)" opacity="0.1"/>
    <path id="Path_191" data-name="Path 191" d="M211,669.6v14.919c0,8.238,7.222,14.916,16.133,14.916H504.118c8.911,0,16.133-6.678,16.133-14.916V669.6Z" transform="translate(-139.354 -447.427)" fill="#c8cad7"/>
    <path id="Path_192" data-name="Path 192" d="M569.977,843.039V845.7H475.84v-2.158a33.363,33.363,0,0,0,7.258-3.229H564.2a33.192,33.192,0,0,0,5.772,2.729Z" transform="translate(-296.383 -560.122)" opacity="0.1"/>
    <rect id="Rectangle_181" data-name="Rectangle 181" width="156.355" height="7.874" rx="3.937" transform="translate(148.348 281.018)" fill="#c8cad7"/>
    <path id="Path_193" data-name="Path 193" d="M520.25,162.448c-.011-7.431-7.231-13.45-16.133-13.448H227.145c-8.906-.008-16.134,6.013-16.145,13.448V328.826H520.25Z" transform="translate(-139.354 -103.75)" fill="#474157"/>
    <path id="Path_194" data-name="Path 194" d="M524.141,193.37V336.333a6.126,6.126,0,0,1-2.325,4.689,8.8,8.8,0,0,1-5.617,1.941H239.7a8.8,8.8,0,0,1-5.617-1.941,6.126,6.126,0,0,1-2.325-4.689V193.37c0-3.662,3.556-6.63,7.942-6.63H516.178a8.808,8.808,0,0,1,5.629,1.936A6.132,6.132,0,0,1,524.141,193.37Z" transform="translate(-151.663 -128.665)" fill="#4c4c78"/>
    <ellipse id="Ellipse_120" data-name="Ellipse 120" cx="3.725" cy="3.11" rx="3.725" ry="3.11" transform="translate(222.55 48.543)" fill="#fff"/>
    <ellipse id="Ellipse_121" data-name="Ellipse 121" cx="9.184" cy="7.667" rx="9.184" ry="7.667" transform="translate(217.091 230.048)" fill="#fff"/>
    <path id="Path_195" data-name="Path 195" d="M293.542,196.5V349.407H239.7a8.8,8.8,0,0,1-5.617-1.941,6.126,6.126,0,0,1-2.325-4.689V199.814l.289-.9.773-2.413Z" transform="translate(-151.663 -135.108)" fill="#fff"/>
    <path id="Path_196" data-name="Path 196" d="M265.451,187.65v13.764H196.76V188.551l.289-.9Z" transform="translate(-116.663 -123.845)" fill="#4c4c78"/>
    <path id="Path_197" data-name="Path 197" d="M524.141,193.377H231.76c0-3.661,3.556-6.629,7.942-6.627H516.178a8.8,8.8,0,0,1,5.629,1.934A6.129,6.129,0,0,1,524.141,193.377Z" transform="translate(-151.663 -128.671)" fill="#c8cad7"/>
    <ellipse id="Ellipse_122" data-name="Ellipse 122" cx="1.987" cy="1.658" rx="1.987" ry="1.658" transform="translate(86.053 59.734)" fill="#ededf4"/>
    <ellipse id="Ellipse_123" data-name="Ellipse 123" cx="1.987" cy="1.658" rx="1.987" ry="1.658" transform="translate(92.008 59.734)" fill="#ededf4"/>
    <ellipse id="Ellipse_124" data-name="Ellipse 124" cx="1.987" cy="1.658" rx="1.987" ry="1.658" transform="translate(97.964 59.734)" fill="#ededf4"/>
    <rect id="Rectangle_182" data-name="Rectangle 182" width="41.249" height="3.171" transform="translate(90.364 69.865)" fill="#544c9a"/>
    <rect id="Rectangle_183" data-name="Rectangle 183" width="41.249" height="3.171" transform="translate(90.364 85.328)" fill="#544c9a" opacity="0.5"/>
    <rect id="Rectangle_184" data-name="Rectangle 184" width="41.249" height="3.171" transform="translate(90.364 96.26)" fill="#544c9a" opacity="0.5"/>
    <rect id="Rectangle_185" data-name="Rectangle 185" width="41.249" height="3.171" transform="translate(90.364 107.193)" fill="#544c9a" opacity="0.5"/>
    <rect id="Rectangle_186" data-name="Rectangle 186" width="41.249" height="3.171" transform="translate(90.364 118.123)" fill="#544c9a" opacity="0.5"/>
    <rect id="Rectangle_187" data-name="Rectangle 187" width="41.249" height="3.171" transform="translate(90.364 129.056)" fill="#544c9a" opacity="0.5"/>
    <rect id="Rectangle_188" data-name="Rectangle 188" width="41.249" height="3.171" transform="translate(90.364 139.988)" fill="#544c9a" opacity="0.5"/>
    <rect id="Rectangle_189" data-name="Rectangle 189" width="41.249" height="3.171" transform="translate(90.364 150.918)" fill="#544c9a" opacity="0.5"/>
    <rect id="Rectangle_190" data-name="Rectangle 190" width="182.783" height="0.51" transform="translate(175.651 81.525)" fill="#dce0ed" opacity="0.5"/>
    <rect id="Rectangle_191" data-name="Rectangle 191" width="182.783" height="0.51" transform="translate(175.651 93.362)" fill="#dce0ed" opacity="0.5"/>
    <rect id="Rectangle_192" data-name="Rectangle 192" width="182.783" height="0.51" transform="translate(175.651 105.202)" fill="#dce0ed" opacity="0.5"/>
    <rect id="Rectangle_193" data-name="Rectangle 193" width="182.783" height="0.51" transform="translate(175.651 117.039)" fill="#dce0ed" opacity="0.5"/>
    <rect id="Rectangle_194" data-name="Rectangle 194" width="182.783" height="0.51" transform="translate(175.651 128.875)" fill="#dce0ed" opacity="0.5"/>
    <path id="Path_198" data-name="Path 198" d="M613.951,301.662H430.94V278.383l16.784,6.906,17.37,1.964,15.241-3.837,18.388-11.9,9.249-4.459,6.762-1.087,6.469.289,10.641,4.387,14.459,7.691,11.349,1.22,9-2.59,19.072-13.043,9.737-2.9,10.189,1.315,8.3,4Z" transform="translate(-255.513 -172.28)" fill="#544c9a" opacity="0.5"/>
    <path id="Path_199" data-name="Path 199" d="M497.839,303.065c-16.479,0-31.711-8.415-31.9-8.523l.452-.564c.236.133,23.676,13.081,43.594,6.593,7.27-2.362,12.432-6.042,17.447-9.6,5.223-3.715,10.157-7.225,16.878-8.748a29.125,29.125,0,0,1,22.544,4.228c5.471,3.755,16.373,9.788,27.889,7.983,5.87-.918,10.82-4.5,16.059-8.289,10.03-7.273,20.435-14.78,38.384-4l-.476.551c-17.443-10.464-27.584-3.13-37.386,3.963-5.325,3.854-10.356,7.477-16.442,8.445-11.846,1.852-22.976-4.3-28.557-8.126a28.2,28.2,0,0,0-21.811-4.1c-6.55,1.482-11.4,4.941-16.564,8.6-5.052,3.592-10.279,7.31-17.667,9.716a40.224,40.224,0,0,1-12.444,1.859Z" transform="translate(-290.513 -188.086)" fill="#544c9a"/>
    <ellipse id="Ellipse_125" data-name="Ellipse 125" cx="4.531" cy="3.782" rx="4.531" ry="3.782" transform="translate(259.074 89.834)" fill="#544c9a"/>
    <path id="Path_200" data-name="Path 200" d="M321.983,479.857a78.277,78.277,0,0,0-8.549-3.718l-.126-.075a4.533,4.533,0,0,1-1.563-1.648c0-.119,0-.238,0-.34v.034c.1-1.577,1.441-3.008,2.715-4.258q1.628-1.6,3.257-3.2a3.094,3.094,0,0,0,.839-1.135,2.146,2.146,0,0,0,.09-.68v-.279c0-.8-.045-1.59-.077-2.379-.033-.7-.244-1.57-1.079-1.7-.431-.075-1,.054-1.221-.255a.488.488,0,0,1-.057-.411v.031a.147.147,0,0,1,0-.037,7.976,7.976,0,0,0,.309-1.635,1.987,1.987,0,0,0-.134-.826c-.484-1.152-2.141-1.624-3.607-1.842s-3.11-.4-4.03-1.359a11.51,11.51,0,0,0-.814-.921,3.492,3.492,0,0,0-1.5-.619,9.986,9.986,0,0,0-5.447.4,5.615,5.615,0,0,1-2.2.581c-.778-.037-1.5-.51-2.3-.622a3.426,3.426,0,0,0-3.155,1.543,3.276,3.276,0,0,0-.582,1.818v.105h0a2.437,2.437,0,0,0,.839,1.856c.554.483,1.38.812,1.628,1.444.094.258.073.537.155.8a.324.324,0,0,0,.037.1l-.045.044a7.268,7.268,0,0,0-2.035,4.969c.026,3.584,2.824,6.744,6.92,7.816v.245a3.251,3.251,0,0,1-1.343,2.736l-8.785,2.943s-5.292-.523-7.2,5.93a9.188,9.188,0,0,0-.326,3.273,8.332,8.332,0,0,1-1.449,4.9c-2.17,3.548-1.677,11.687,2.76,12.493,4.189.761,5.829.445,6,.408v.143c-.069,1.529-.733,14.7-3.147,16.313-.672.438-.546.737,0,.938v.238c-.073.965-.448,4.632-2.064,6.722-1.856,2.409-1.645,16.343-1.645,16.343L281.78,555.3s.786,5.077,0,5.964c-.7.792-1.628,19.579-1.84,23.65h-.081a2.472,2.472,0,0,0-1.9.965,31.334,31.334,0,0,1-4.673,4c-.786.935-3.7,1.828-5.239,2.25a3.74,3.74,0,0,0-.594.214,2.884,2.884,0,0,0-1.323,1.162,1.065,1.065,0,0,0-.138.969c.407.805,8.577,1.359,10.645.564,1.628-.632,8.076-1.468,10.755-1.794a2.053,2.053,0,0,0,1.913-1.6.928.928,0,0,0-.244-.8h0a6.306,6.306,0,0,1-.9-2.923,2.516,2.516,0,0,0,.6-.3A18.211,18.211,0,0,1,290.247,579c1.97-4.35,2.565-12.411,2.072-17.652,0,0,6.013-21.6,10.747-23.619h0c.073.075,2.369,2.535,2.662,10.155a26.966,26.966,0,0,0,3.643,12.816s-1.478,13.138,0,18.056L307.43,586.5a2.891,2.891,0,0,1-.232-.177s.057.218.138.561l-.041.163.081.017a12.6,12.6,0,0,1,.407,3.65c-.077.568-.265,1.339-.407,2.1-.2,1.193-.261,2.352.493,2.6,1.221.415,8.479.982,9.713-.34a1.664,1.664,0,0,0,.358-1.991,2,2,0,0,0-.358-.506s-1.926-2.627-1.38-4.479a1.177,1.177,0,0,0-.232-1.06,46.5,46.5,0,0,1,1.689-8.7c1.221-3.878,3.835-12.381,1.921-17.974h0c-.073-.217-.155-.435-.244-.646a20.348,20.348,0,0,1-1.087-9.431,16.086,16.086,0,0,1,0-8.221c1.172-4.51,2-8.928,2-8.928a47.327,47.327,0,0,0,.081-9.621l-.037-.234.309-.058s-1.673-6.206-2.267-10.155c-.138-.935-.322-2.114-.521-3.375a12.435,12.435,0,0,0,1.608-.34c5.325-1.533,7-15.4,7-15.4v-4.4S328.195,482.852,321.983,479.857ZM282.321,586.909l-.261-.116h0Z" transform="translate(-171.925 -304.043)" fill="url(#linear-gradient)"/>
    <path id="Path_201" data-name="Path 201" d="M339.669,692.067c2.308,5.543-.407,14.539-1.628,18.556a47.752,47.752,0,0,0-1.628,8.836,26.74,26.74,0,0,1-8.467-.163l2.035-8.272c-1.441-4.9,0-17.995,0-17.995a27.49,27.49,0,0,1-3.558-12.775c-.285-7.589-2.524-10.042-2.6-10.121h0c-4.653,2.019-10.507,23.541-10.507,23.541.48,5.22-.1,13.254-2.035,17.594a18.477,18.477,0,0,0-1.445,8.595,3.688,3.688,0,0,1-2.617.418,19.585,19.585,0,0,1-6.041-2.348s1.058-23.449,1.828-24.34,0-5.944,0-5.944l1.25-8.194s-.191-13.9,1.628-16.313c1.579-2.083,1.942-5.74,2.015-6.7v-.238l2.784-2.783s26.945-1.7,28.964,0a4.262,4.262,0,0,1,.985,2.542,48.3,48.3,0,0,1-.081,9.587s-.814,4.418-1.962,8.914a16.365,16.365,0,0,0,0,8.194A20.631,20.631,0,0,0,339.669,692.067Z" transform="translate(-192.824 -436.249)" fill="#65617d"/>
    <path id="Path_202" data-name="Path 202" d="M376.808,852.935c-1.2,1.325-8.272.765-9.477.34-.737-.255-.68-1.407-.48-2.6.126-.758.309-1.529.383-2.09a16.144,16.144,0,0,0-.574-4.381s1.588,1.407,1.97,0A1.729,1.729,0,0,1,370,843.12a4.262,4.262,0,0,1,2.5.129c1.25.452,3.334,1.417,2.959,2.719-.529,1.845,1.347,4.462,1.347,4.462a1.965,1.965,0,0,1,.35.506,1.68,1.68,0,0,1-.35,2Z" transform="translate(-231.648 -561.892)" fill="#a27772"/>
    <path id="Path_203" data-name="Path 203" d="M376.9,867.867c-1.2,1.325-8.272.765-9.477.34-.737-.255-.68-1.407-.48-2.6a9.646,9.646,0,0,0,4.2.377,14.083,14.083,0,0,1,1.514-.041,41.455,41.455,0,0,0,4.592-.075A1.68,1.68,0,0,1,376.9,867.867Z" transform="translate(-231.737 -576.823)" opacity="0.1"/>
    <path id="Path_204" data-name="Path 204" d="M322.118,724.6c.48,5.22-.1,13.254-2.035,17.594a18.477,18.477,0,0,0-1.445,8.595,3.688,3.688,0,0,1-2.617.418c.582-3.4,3.053-17.988,4.641-29.519a44.539,44.539,0,0,1,10.246-22.172l1.685,1.546C327.972,703.082,322.118,724.6,322.118,724.6Z" transform="translate(-201.622 -467.178)" opacity="0.1"/>
    <path id="Path_205" data-name="Path 205" d="M355.937,506.178,354.76,511l-5.752,8.075-7.1-2.532s-9.648-8.435-3.586-9.638a5.913,5.913,0,0,0,2.015-.748,3.272,3.272,0,0,0,1.571-2.906,7.749,7.749,0,0,0-.985-3.456l12.412-3.252a14.063,14.063,0,0,0-.892,4.2c-.094,2.821,1.16,4.214,2.19,4.877A3.987,3.987,0,0,0,355.937,506.178Z" transform="translate(-213.663 -333.18)" fill="#fbbebe"/>
    <path id="Path_206" data-name="Path 206" d="M360.042,496.54a14.062,14.062,0,0,0-.891,4.2,11.084,11.084,0,0,1-10.535,2.511,7.749,7.749,0,0,0-.985-3.456Z" transform="translate(-220.365 -333.18)" opacity="0.1"/>
    <path id="Path_207" data-name="Path 207" d="M353.019,476.724c0,4.525-4.394,8.194-9.815,8.194s-9.815-3.668-9.815-8.194,4.394-8.194,9.815-8.194a10.855,10.855,0,0,1,6.947,2.394A7.553,7.553,0,0,1,353.019,476.724Z" transform="translate(-211.922 -314.689)" fill="#fbbebe"/>
    <path id="Path_208" data-name="Path 208" d="M355.937,523.8l-1.176,4.819-5.752,8.075-7.1-2.532s-9.648-8.435-3.586-9.638a5.913,5.913,0,0,0,2.015-.748c-1.1,2.511,3.424,7.735,3.424,7.735.525.646,1.734.241,1.734.241,2.907-.367,8.268-7.354,9.139-8.517A3.987,3.987,0,0,0,355.937,523.8Z" transform="translate(-213.663 -350.807)" opacity="0.1"/>
    <path id="Path_209" data-name="Path 209" d="M350.455,656.011c-1.71.34-11.162,2.07-14.744,1.635-3.945-.483-11.618-.8-11.618-.8s-4.885.217-6.383-.34v-.238l2.784-2.783s26.945-1.7,28.964,0A4.046,4.046,0,0,1,350.455,656.011Z" transform="translate(-202.625 -436.288)" opacity="0.1"/>
    <path id="Path_210" data-name="Path 210" d="M322.973,531.882s-5.076-5.869-3.163-8.156l-8.577,2.936s-5.162-.523-7.022,5.907a9.425,9.425,0,0,0-.322,3.266,8.415,8.415,0,0,1-1.413,4.884c-2.117,3.534-1.628,11.65,2.695,12.452s5.87.4,5.87.4-.578,14.7-3.078,16.387,6.379,1.285,6.379,1.285,7.669.34,11.614.805,15.009-1.7,15.009-1.7-1.628-6.185-2.215-10.121-1.921-12.316-1.921-12.316l9.815-11.1s1.73-6.708-4.331-9.679a75.428,75.428,0,0,0-8.345-3.7s-6.106,8.282-9.265,8.683C324.7,532.12,323.5,532.528,322.973,531.882Z" transform="translate(-192.87 -350.932)" fill="#ff748e"/>
    <path id="Path_211" data-name="Path 211" d="M324.562,555.16a10.139,10.139,0,0,0,.484,3.694c.578,1.043,2.691,6.828,2.691,6.828H322.93s2.6-2.328,2.406-3.453S324.562,555.16,324.562,555.16Z" transform="translate(-205.72 -371.879)" opacity="0.1"/>
    <path id="Path_212" data-name="Path 212" d="M339.595,592.129s-10.625-2.168-11.614-4.014-3.721-5.985-3.721-5.985l1.119-1.261,5.17,3.4s6.159,4.078,9.045,4.5S339.595,592.129,339.595,592.129Z" transform="translate(-206.508 -388.851)" fill="#fbbebe"/>
    <path id="Path_213" data-name="Path 213" d="M339.595,592.129s-10.625-2.168-11.614-4.014-3.721-5.985-3.721-5.985l1.119-1.261,5.17,3.4s6.159,4.078,9.045,4.5S339.595,592.129,339.595,592.129Z" transform="translate(-206.508 -388.851)" opacity="0.05"/>
    <path id="Path_214" data-name="Path 214" d="M356.538,583.191V588h-.928a31.241,31.241,0,0,0-13.083,2.827l-1.734.8-.468.217-2.984-5.607,2.793-2.09h.142a20.128,20.128,0,0,0,4.885-.092c1.25-.35,2.666-1.407,6.163-.659,1.726.367,3.2,1.981,4.885,1.478Z" transform="translate(-214.264 -390.35)" fill="#fbbebe"/>
    <path id="Path_215" data-name="Path 215" d="M376.792,546.9l1.926,1.808v4.377s-1.628,13.818-6.831,15.344-14.472-.884-14.472-.884-2.4-5.3-1.278-5.624,9.908-2.257,9.908-2.257-.126-8.105,1.8-10.515c0,0-1.25-7.551,3.078-7.711S376.792,546.9,376.792,546.9Z" transform="translate(-225.232 -362.821)" opacity="0.1"/>
    <path id="Path_216" data-name="Path 216" d="M377.482,546.9l1.925,1.808v4.377s-1.628,13.818-6.835,15.344-14.468-.884-14.468-.884-2.4-5.3-1.278-5.624,9.9-2.257,9.9-2.257-.122-8.105,1.8-10.515c0,0-1.254-7.551,3.078-7.711S377.482,546.9,377.482,546.9Z" transform="translate(-225.641 -362.821)" fill="#ff748e"/>
    <path id="Path_217" data-name="Path 217" d="M353.256,480.18a2.683,2.683,0,0,0-.22-1.563,1.5,1.5,0,0,0-1.523-.734c-.814.16-1.18,1.054-1.987,1.268a1.674,1.674,0,0,1-1.75-.751,3.275,3.275,0,0,1-.334-1.747v-2.015a2.89,2.89,0,0,0-.57-2.093,5,5,0,0,0-3.3-1,3.114,3.114,0,0,0-1.885.632,2.741,2.741,0,0,1-1.982.591,1.652,1.652,0,0,1-1.38-1,.069.069,0,0,1,0-.027,10.848,10.848,0,0,1,9.565-3.122,9.4,9.4,0,0,1,7.663,5.709,7.318,7.318,0,0,1-2.63,8.288A19.1,19.1,0,0,0,353.256,480.18Z" transform="translate(-214.849 -314.665)" opacity="0.1"/>
    <path id="Path_218" data-name="Path 218" d="M335.993,462.844a1.665,1.665,0,0,1-1.384-1c-.077-.258-.057-.537-.151-.792-.224-.632-1.03-.962-1.571-1.441a2.808,2.808,0,0,1-.248-3.694,3.332,3.332,0,0,1,3.082-1.536c.778.116,1.449.578,2.239.618a5.189,5.189,0,0,0,2.145-.578,9.559,9.559,0,0,1,5.316-.394,3.34,3.34,0,0,1,1.466.615,10.647,10.647,0,0,1,.782.918c.9.955,2.5,1.142,3.932,1.359s3.049.68,3.517,1.839a4.062,4.062,0,0,1-.167,2.379.577.577,0,0,0,.037.493c.224.309.782.18,1.221.251.814.143,1.018,1.02,1.046,1.7q.057,1.183.077,2.379a2.57,2.57,0,0,1-.081.88,3.085,3.085,0,0,1-.814,1.1l-3.179,3.188c-1.409,1.414-2.9,3.059-2.622,4.884a1.4,1.4,0,0,1-1.677-.816,3.032,3.032,0,0,1,.106-1.808,18.766,18.766,0,0,0,.5-3.137,2.69,2.69,0,0,0-.22-1.567,1.5,1.5,0,0,0-1.527-.734c-.814.16-1.176,1.054-1.982,1.268a1.669,1.669,0,0,1-1.75-.751,3.313,3.313,0,0,1-.334-1.747V464.71a2.891,2.891,0,0,0-.57-2.093,4.991,4.991,0,0,0-3.3-1,3.114,3.114,0,0,0-1.885.632A2.743,2.743,0,0,1,335.993,462.844Z" transform="translate(-211.138 -304.98)" fill="#7c5c5c"/>
    <path id="Path_219" data-name="Path 219" d="M347.15,554.57l3.016,10.331S352.54,564.891,347.15,554.57Z" transform="translate(-220.08 -371.489)" opacity="0.1"/>
    <path id="Path_220" data-name="Path 220" d="M368.425,549.48s-3.949,5.4-2.406,10.974l.733.044S365.441,557.915,368.425,549.48Z" transform="translate(-231.056 -368.129)" opacity="0.1"/>
    <path id="Path_221" data-name="Path 221" d="M378.59,638.752s4.844-1.339,5.2,1.767C383.788,640.52,382.872,638.389,378.59,638.752Z" transform="translate(-238.721 -426.873)" opacity="0.1"/>
    <path id="Path_222" data-name="Path 222" d="M332.146,586.83s-.961,5.624.769,7.874a25.042,25.042,0,0,1-8.467.962l-.578-8.836Z" transform="translate(-206.277 -392.786)" opacity="0.1"/>
    <path id="Path_223" data-name="Path 223" d="M340.792,593.6l-.468.218-2.984-5.607,2.793-2.09h.142C340.23,586.392,339.453,591.221,340.792,593.6Z" transform="translate(-214.264 -392.317)" opacity="0.1"/>
    <path id="Path_224" data-name="Path 224" d="M328.084,586.12s-.961,5.624.769,7.874a25.04,25.04,0,0,1-8.467.962l-3.367-8.836Z" transform="translate(-202.215 -392.317)" fill="#ff748e"/>
    <path id="Path_225" data-name="Path 225" d="M290.523,849.174a2.014,2.014,0,0,1-1.868,1.59c-2.609.34-8.907,1.156-10.495,1.788-2.035.805-10.006.241-10.393-.561a1.091,1.091,0,0,1,.138-.969,3.065,3.065,0,0,1,1.868-1.359c1.506-.421,4.348-1.308,5.113-2.24a30.357,30.357,0,0,0,4.551-3.986,2.39,2.39,0,0,1,1.852-.962c.843-.034,1.779.323,2.166,1.862,0,0,4.616,2.2,5.866.272,0,0,.191,2.96.957,3.772h0A.937.937,0,0,1,290.523,849.174Z" transform="translate(-172.979 -561.55)" fill="#a27772"/>
    <path id="Path_226" data-name="Path 226" d="M290.523,860.632a2.014,2.014,0,0,1-1.868,1.59c-2.609.34-8.907,1.156-10.495,1.788-2.035.805-10.006.241-10.393-.561a1.091,1.091,0,0,1,.138-.969,2.828,2.828,0,0,1,1.29-1.156c1.3.72,4.193,1.427,10.552.6a54.361,54.361,0,0,0,10.531-2.093h0A.936.936,0,0,1,290.523,860.632Z" transform="translate(-172.979 -573.008)" opacity="0.1"/>
    <g id="Group_9" data-name="Group 9" transform="translate(120.927 152.648)" opacity="0.1">
      <path id="Path_227" data-name="Path 227" d="M388.21,472.052a.143.143,0,0,0,0-.041,6.2,6.2,0,0,0,.3-1.822,9.8,9.8,0,0,1-.3,1.461A.748.748,0,0,0,388.21,472.052Z" transform="translate(-365.336 -468.433)"/>
      <path id="Path_228" data-name="Path 228" d="M349.32,476.157a2.052,2.052,0,0,1,.236.918,2.349,2.349,0,0,0-.236-1.278,1.506,1.506,0,0,0-1.527-.737c-.814.16-1.176,1.057-1.982,1.271a1.676,1.676,0,0,1-1.75-.754,3.238,3.238,0,0,1-.334-1.747v-2.012a2.89,2.89,0,0,0-.57-2.093,5,5,0,0,0-3.3-1,3.093,3.093,0,0,0-1.881.635,2.742,2.742,0,0,1-1.982.588,1.645,1.645,0,0,1-1.384-1c-.081-.258-.057-.534-.151-.792-.224-.632-1.03-.958-1.571-1.438a2.428,2.428,0,0,1-.814-1.7,2.474,2.474,0,0,0,.814,2.059c.541.479,1.347.809,1.571,1.441.094.255.069.534.151.792a1.661,1.661,0,0,0,1.384,1,2.741,2.741,0,0,0,1.982-.591,3.142,3.142,0,0,1,1.877-.629,4.985,4.985,0,0,1,3.3,1,2.9,2.9,0,0,1,.57,2.093V474.2a3.244,3.244,0,0,0,.334,1.75,1.674,1.674,0,0,0,1.75.751c.814-.214,1.16-1.108,1.982-1.271A1.517,1.517,0,0,1,349.32,476.157Z" transform="translate(-332.06 -465.02)"/>
      <path id="Path_229" data-name="Path 229" d="M384.206,490.27a3.127,3.127,0,0,1-.814,1.108q-1.6,1.59-3.179,3.184c-1.335,1.342-2.752,2.9-2.65,4.608.1-1.57,1.408-3,2.65-4.245l3.179-3.188a3.115,3.115,0,0,0,.814-1.1,2.568,2.568,0,0,0,.081-.884,1.862,1.862,0,0,1-.081.52Z" transform="translate(-359.036 -481.346)"/>
      <path id="Path_230" data-name="Path 230" d="M373.355,515.052a1.622,1.622,0,0,1-.1-.432,1.815,1.815,0,0,0,.1.792,1.4,1.4,0,0,0,1.677.816c0-.119-.029-.238-.033-.34A1.412,1.412,0,0,1,373.355,515.052Z" transform="translate(-356.481 -497.764)"/>
    </g>
    <path id="Path_231" data-name="Path 231" d="M295,847.42s1.005,1.475,4.653.173" transform="translate(-189.159 -564.815)" opacity="0.1"/>
    <path id="Path_232" data-name="Path 232" d="M370.65,848.46a6.276,6.276,0,0,0,7.108,1.02" transform="translate(-234.014 -565.502)" opacity="0.1"/>
    <path id="Path_233" data-name="Path 233" d="M389.781,740.94s-2.223,1.159-2.3,1.822,1.148-.483,1.148-.483Z" transform="translate(-243.994 -494.522)" opacity="0.1"/>
    <path id="Path_234" data-name="Path 234" d="M389.473,767.08a5.162,5.162,0,0,1-2.736.89c-1.661.061-1.522,1.869-.436,1.325A26.711,26.711,0,0,0,389.473,767.08Z" transform="translate(-242.81 -511.778)" opacity="0.1"/>
    <path id="Path_235" data-name="Path 235" d="M393.5,770.49s-1.067,4.37-1.934,3.528" transform="translate(-246.418 -514.03)" opacity="0.1"/>
    <g id="Group_10" data-name="Group 10" transform="translate(191.804 155.903)" opacity="0.5">
      <rect id="Rectangle_195" data-name="Rectangle 195" width="26.867" height="4.758" fill="#dce0ed"/>
      <rect id="Rectangle_196" data-name="Rectangle 196" width="26.867" height="4.758" transform="translate(61.693)" fill="#dce0ed"/>
      <rect id="Rectangle_197" data-name="Rectangle 197" width="26.867" height="4.758" transform="translate(123.386)" fill="#dce0ed"/>
    </g>
    <ellipse id="Ellipse_126" data-name="Ellipse 126" cx="10.963" cy="1.546" rx="10.963" ry="1.546" transform="translate(376.874 270.802)" fill="#544c9a" opacity="0.1"/>
    <ellipse id="Ellipse_127" data-name="Ellipse 127" cx="10.963" cy="1.546" rx="10.963" ry="1.546" transform="translate(35.941 290.326)" fill="#544c9a" opacity="0.1"/>
    <ellipse id="Ellipse_128" data-name="Ellipse 128" cx="16.369" cy="2.311" rx="16.369" ry="2.311" transform="translate(347.475 286.608)" fill="#544c9a"/>
    <path id="Path_236" data-name="Path 236" d="M923.362,842.655a3.987,3.987,0,0,0,1.559-1.968,1.666,1.666,0,0,0-1.087-2,3.438,3.438,0,0,0-2.886.846,4.184,4.184,0,0,1-2.8,1.128,3.235,3.235,0,0,0,1.319-3.334,1.293,1.293,0,0,0-.366-.68,2.049,2.049,0,0,0-2.231.105c-2.117,1.244-2.707,3.643-2.719,5.8a9.123,9.123,0,0,1-.037-2.379,2.294,2.294,0,0,0-1.075-2.117,3.79,3.79,0,0,0-1.628-.319,3.866,3.866,0,0,0-2.662.629,1.915,1.915,0,0,0,.1,2.719,10.494,10.494,0,0,0,2.756,1.842,5.836,5.836,0,0,1,1.97,1.567,1.5,1.5,0,0,1,.142.282h5.968a17.156,17.156,0,0,0,3.676-2.124Z" transform="translate(-552.753 -557.511)" fill="#544c9a"/>
    <path id="Path_237" data-name="Path 237" d="M142.483,807.19s2.239,2.444-1.03,6.117-5.964,6.8-4.885,9.1c0,0,4.934-6.848,8.956-6.943S146.9,811.309,142.483,807.19Z" transform="translate(-95.079 -538.257)" fill="#544c9a"/>
    <path id="Path_238" data-name="Path 238" d="M142.675,807.19a2.9,2.9,0,0,1,.46.768c3.916,3.84,6,7.426,2.235,7.514-3.5.085-7.71,5.319-8.72,6.641a2.781,2.781,0,0,0,.118.3s4.934-6.848,8.956-6.943S147.092,811.309,142.675,807.19Z" transform="translate(-95.27 -538.257)" opacity="0.1"/>
    <path id="Path_239" data-name="Path 239" d="M160.913,815.269c0,.86-.114,1.556-.256,1.556s-.256-.68-.256-1.556.142-.455.285-.455S160.913,814.409,160.913,815.269Z" transform="translate(-109.352 -543.223)" fill="#ffd037"/>
    <path id="Path_240" data-name="Path 240" d="M162.6,818.222a4.057,4.057,0,0,1-1.759.554c-.065-.105.607-.523,1.51-.935s.55-.112.615,0S163.506,817.811,162.6,818.222Z" transform="translate(-109.613 -545.15)" fill="#ffd037"/>
    <path id="Path_241" data-name="Path 241" d="M115.12,807.19s-2.239,2.444,1.03,6.117,5.964,6.8,4.885,9.1c0,0-4.93-6.848-8.956-6.943S110.7,811.309,115.12,807.19Z" transform="translate(-79.525 -538.257)" fill="#544c9a"/>
    <path id="Path_242" data-name="Path 242" d="M115.107,807.19a2.9,2.9,0,0,0-.46.768c-3.916,3.84-6,7.426-2.235,7.514,3.5.085,7.71,5.319,8.72,6.641a2.166,2.166,0,0,1-.122.3s-4.93-6.848-8.956-6.943S110.69,811.309,115.107,807.19Z" transform="translate(-79.512 -538.257)" opacity="0.1"/>
    <path id="Path_243" data-name="Path 243" d="M112.22,815.269c0,.86.118,1.556.261,1.556s.256-.68.256-1.556-.142-.455-.285-.455S112.22,814.409,112.22,815.269Z" transform="translate(-80.785 -543.223)" fill="#ffd037"/>
    <path id="Path_244" data-name="Path 244" d="M107.918,818.222a4.043,4.043,0,0,0,1.759.554c.069-.105-.607-.523-1.51-.935s-.55-.112-.619,0S107.014,817.811,107.918,818.222Z" transform="translate(-77.908 -545.15)" fill="#ffd037"/>
    <path id="Path_245" data-name="Path 245" d="M114,845.568s6.253-.163,8.142-1.281,9.619-2.461,10.087-.663,9.4,8.935,2.337,8.982-16.4-.918-18.282-1.873S114,845.568,114,845.568Z" transform="translate(-81.841 -561.73)" fill="#a8a8a8"/>
    <path id="Path_246" data-name="Path 246" d="M134.658,857.45c-7.059.048-16.405-.918-18.286-1.873-1.429-.731-2-3.344-2.19-4.547h-.212s.407,4.207,2.28,5.166,11.223,1.92,18.282,1.873c2.035,0,2.74-.619,2.7-1.516C136.95,857.1,136.172,857.439,134.658,857.45Z" transform="translate(-81.823 -567.198)" opacity="0.2"/>
    <path id="Path_247" data-name="Path 247" d="M495.986,542.373c0-6.946,6.77-12.282,15.095-12.282h.118V526.93h-.118c-10.413,0-18.88,6.753-18.88,15.443a14.769,14.769,0,0,0,6.47,11.862l2.681-2.241A11.858,11.858,0,0,1,495.986,542.373Z" transform="translate(-306.083 -353.242)" fill="#544c9a"/>
    <path id="Path_248" data-name="Path 248" d="M521.538,526.94V530.1c6.662.037,12.507,3.717,14.381,9.055s-.667,11.069-6.251,14.1a17.506,17.506,0,0,1-17.977-.942L509,554.556a21.87,21.87,0,0,0,22.548,1.435c7.065-3.75,10.326-10.938,8.01-17.654s-9.656-11.356-18.028-11.4Z" transform="translate(-316.044 -353.249)" fill="#544c9a" opacity="0.5"/>
    <path id="Path_249" data-name="Path 249" d="M823.107,529.621c8.321,0,14.712,5.652,14.712,12.6v.1H841.6v-.1c0-8.69-8.089-15.762-18.5-15.762a20.588,20.588,0,0,0-14.207,5.4l2.683,2.24A16.418,16.418,0,0,1,823.107,529.621Z" transform="translate(-493.861 -352.932)" fill="#544c9a" opacity="0.5"/>
    <path id="Path_250" data-name="Path 250" d="M834.272,553.74h-3.786c-.044,5.562-4.453,10.441-10.846,12.005s-13.259-.557-16.893-5.219a10.992,10.992,0,0,1,1.128-15.008l-2.67-2.24c-5.511,5.262-6.21,12.926-1.719,18.824s13.1,8.621,21.147,6.687,13.6-8.061,13.651-15.05Z" transform="translate(-486.533 -364.036)" fill="#544c9a"/>
    <path id="Path_251" data-name="Path 251" d="M671.689,529.66l-.753,3.147c5.54,1.866,9.082,6.4,9.082,11.684,0,6.291-5.555,11.619-13.019,12.483s-14.548-3-16.594-9.057,1.57-12.442,8.474-14.963l-1.677-2.838c-8.569,3.22-12.994,11.213-10.381,18.748s11.469,12.318,20.773,11.218,16.222-7.746,16.227-15.591C683.82,537.67,678.984,531.852,671.689,529.66Z" transform="translate(-397.318 -355.045)" fill="#544c9a" opacity="0.5"/>
    <path id="Path_252" data-name="Path 252" d="M682.324,529.551a15.447,15.447,0,0,1,5.255.911l.753-3.144a19.594,19.594,0,0,0-6.009-.928,21.99,21.99,0,0,0-7.735,1.39l1.694,2.831A17.493,17.493,0,0,1,682.324,529.551Z" transform="translate(-414.225 -352.886)" fill="#544c9a"/>
  </g>
</svg>
