<svg xmlns="http://www.w3.org/2000/svg" xmlns:xlink="http://www.w3.org/1999/xlink" width="460" height="377" viewBox="0 0 460 377">
  <defs>
    <linearGradient id="linear-gradient" x1="9.046" y1="1" x2="9.046" gradientUnits="objectBoundingBox">
      <stop offset="0" stop-color="gray" stop-opacity="0.251"/>
      <stop offset="0.54" stop-color="gray" stop-opacity="0.122"/>
      <stop offset="1" stop-color="gray" stop-opacity="0.102"/>
    </linearGradient>
  </defs>
  <g id="personal_settings" transform="translate(0)">
    <path id="Path_476" data-name="Path 476" d="M488,334.093A123.781,123.781,0,0,1,477.5,384.8c0,18.7-6.49,35.648-17.017,48A62.525,62.525,0,0,1,452,441.053c-.121.1-.245.2-.37.3-.225.178-.45.356-.68.54l-.213.167h0c-9.968,7.458-21.2,11.328-32.61,11.235H115.323a65.913,65.913,0,0,1-7.173-.389A67.365,67.365,0,0,1,83.6,445.266q-2.3-1.221-4.512-2.625-1.053-.664-2.087-1.367c-.43-.292-.86-.594-1.287-.9a78.772,78.772,0,0,1-13.856-12.633c-13.671-15.788-22.148-37.6-22.148-61.687A122.926,122.926,0,0,1,28,312.763c0-53.548,31.862-96.957,71.171-96.957,1.206,0,2.413.049,3.619.135a2.747,2.747,0,0,1,.515.032,162.193,162.193,0,0,1,26.136-41.384c29.048-33.434,71.5-54.509,118.792-54.509A156.309,156.309,0,0,1,352.11,159.547c10.542-8.005,22.45-12.2,34.56-12.18,39.3,0,71.171,43.41,71.171,96.957q-.009,5.082-.4,10.144C476.665,272.749,488.065,302.453,488,334.093Z" transform="translate(-28 -109.774)" fill="#6c63ff" opacity="0.1"/>
    <g id="Group_40" data-name="Group 40" transform="translate(31.943 189.441)" opacity="0.2">
      <path id="Path_477" data-name="Path 477" d="M154.585,714.189c0,.248-.02.491-.04.729q-2.3-1.221-4.512-2.625a3.4,3.4,0,0,1-2.087-1.367c-.43-.292-.861-.594-1.287-.9a8.407,8.407,0,0,1,.326-.789c.828-1.761,2.087-2.863,3.474-2.8s2.59,1.264,3.333,3.084a11.748,11.748,0,0,1,.792,4.667Z" transform="translate(-130.89 -568.867)" fill="#3f3d56"/>
      <path id="Path_478" data-name="Path 478" d="M154.109,697.069a11.508,11.508,0,0,1-1.009,4.58c-.828,1.755-2.087,2.857-3.474,2.8l-.285-.027a3.4,3.4,0,0,1-2.087-1.366,6.928,6.928,0,0,1-.961-1.685,12.364,12.364,0,0,1,.217-9.247c.828-1.761,2.087-2.863,3.474-2.8s2.589,1.264,3.333,3.084A11.748,11.748,0,0,1,154.109,697.069Z" transform="translate(-130.197 -560.994)" fill="#3f3d56"/>
      <path id="Path_535" data-name="Path 535" d="M7.662.132C11.84.1,15.206,2,15.18,4.375S11.746,8.706,7.568,8.74.024,6.874.05,4.5,3.483.166,7.662.132Z" transform="translate(15.157 134.134) rotate(-88.19)" fill="#3f3d56"/>
      <path id="Path_536" data-name="Path 536" d="M7.662.132C11.84.1,15.206,2,15.18,4.375S11.746,8.706,7.568,8.74.024,6.874.05,4.5,3.483.166,7.662.132Z" transform="translate(15.372 124.887) rotate(-88.19)" fill="#3f3d56"/>
      <path id="Path_537" data-name="Path 537" d="M7.657.125C11.835.093,15.2,1.994,15.178,4.371S11.746,8.7,7.568,8.732.023,6.864.047,4.487,3.478.157,7.657.125Z" transform="translate(15.639 115.046) rotate(-88.282)" fill="#3f3d56"/>
      <path id="Path_479" data-name="Path 479" d="M113.082,495.926a29.346,29.346,0,0,1-1.528-3.241l11.363-2.015-12.232-.394a36.6,36.6,0,0,1,.125-21.951l16.132,12.126-14.777-15.583c4.063-8.828,11.46-13.863,19.163-13.046s14.419,7.352,17.4,16.928,1.725,20.586-3.252,28.525a30.956,30.956,0,0,1,2.232,5.147l-14.914,9.62,15.815-6.39c2.023,8.968.538,18.7-3.949,25.877,6.381,11.63,5.036,27.9-3.091,37.36s-20.3,8.949-27.97-1.185-8.246-26.48-1.332-37.547c-5.646-10.293-5.314-24.439.8-34.233Z" transform="translate(-107.44 -451.737)" fill="#6c63ff"/>
      <path id="Path_480" data-name="Path 480" d="M149.484,567.746a33.546,33.546,0,0,1-4.825,16.927c6.381,11.63,5.036,27.9-3.091,37.36s-20.3,8.949-27.97-1.185-8.246-26.48-1.332-37.547C109.624,578.479,149.556,564.635,149.484,567.746Z" transform="translate(-107.44 -504.88)" opacity="0.1"/>
    </g>
    <path id="Path_481" data-name="Path 481" d="M524.419,230.944V489.759c0,5.492-3.314,9.944-7.4,9.944H221.4a5.576,5.576,0,0,1-2.043-.389C216.185,498.1,214,494.2,214,489.759V262.352a2.749,2.749,0,0,1,.515.032A162.193,162.193,0,0,1,240.651,221H517.017C521.105,221,524.419,225.452,524.419,230.944Z" transform="translate(-139.21 -156.185)" fill="#fff"/>
    <rect id="Rectangle_321" data-name="Rectangle 321" width="55.421" height="19.423" rx="9.711" transform="translate(286.362 98.426)" fill="#3f3d56"/>
    <rect id="Rectangle_322" data-name="Rectangle 322" width="48.195" height="12.925" rx="6.463" transform="translate(289.972 101.673)" opacity="0.1"/>
    <rect id="Rectangle_323" data-name="Rectangle 323" width="17.403" height="11.51" rx="5.755" transform="translate(319.559 102.38)" fill="#6c63ff"/>
    <ellipse id="Ellipse_270" data-name="Ellipse 270" cx="2.678" cy="3.597" rx="2.678" ry="3.597" transform="translate(325.449 104.541)" fill="#fff"/>
    <rect id="Rectangle_324" data-name="Rectangle 324" width="55.421" height="19.423" rx="9.711" transform="translate(286.362 226.463)" fill="#3f3d56"/>
    <rect id="Rectangle_325" data-name="Rectangle 325" width="48.195" height="12.925" rx="6.463" transform="translate(289.972 229.709)" opacity="0.1"/>
    <rect id="Rectangle_326" data-name="Rectangle 326" width="17.403" height="11.51" rx="5.755" transform="translate(319.559 230.416)" fill="#6c63ff"/>
    <ellipse id="Ellipse_271" data-name="Ellipse 271" cx="2.678" cy="3.597" rx="2.678" ry="3.597" transform="translate(325.449 232.577)" fill="#fff"/>
    <rect id="Rectangle_327" data-name="Rectangle 327" width="55.421" height="19.423" rx="9.711" transform="translate(286.362 290.478)" fill="#3f3d56"/>
    <rect id="Rectangle_328" data-name="Rectangle 328" width="48.195" height="12.925" rx="6.463" transform="translate(289.972 293.729)" opacity="0.1"/>
    <rect id="Rectangle_329" data-name="Rectangle 329" width="17.403" height="11.51" rx="5.755" transform="translate(319.559 294.437)" fill="#6c63ff"/>
    <ellipse id="Ellipse_272" data-name="Ellipse 272" cx="2.678" cy="3.597" rx="2.678" ry="3.597" transform="translate(325.449 296.592)" fill="#fff"/>
    <rect id="Rectangle_330" data-name="Rectangle 330" width="32.397" height="11.51" rx="5.755" transform="translate(118.216 86.198)" fill="#6c63ff"/>
    <rect id="Rectangle_331" data-name="Rectangle 331" width="89.961" height="11.51" rx="5.755" transform="translate(118.216 102.38)" fill="#6c63ff"/>
    <rect id="Rectangle_332" data-name="Rectangle 332" width="89.961" height="11.51" rx="5.755" transform="translate(118.216 118.568)" fill="#6c63ff"/>
    <g id="Group_41" data-name="Group 41" transform="translate(118.216 150.213)" opacity="0.5">
      <rect id="Rectangle_333" data-name="Rectangle 333" width="32.397" height="11.51" rx="5.755" fill="#6c63ff"/>
      <rect id="Rectangle_334" data-name="Rectangle 334" width="67.15" height="11.51" rx="5.755" transform="translate(0 16.187)" fill="#6c63ff"/>
      <rect id="Rectangle_335" data-name="Rectangle 335" width="89.961" height="11.51" rx="5.755" transform="translate(0 32.37)" fill="#6c63ff"/>
    </g>
    <rect id="Rectangle_336" data-name="Rectangle 336" width="32.397" height="11.51" rx="5.755" transform="translate(118.216 214.234)" fill="#6c63ff"/>
    <rect id="Rectangle_337" data-name="Rectangle 337" width="89.961" height="11.51" rx="5.755" transform="translate(118.216 230.416)" fill="#6c63ff"/>
    <rect id="Rectangle_338" data-name="Rectangle 338" width="55.892" height="11.51" rx="5.755" transform="translate(118.216 246.604)" fill="#6c63ff"/>
    <rect id="Rectangle_339" data-name="Rectangle 339" width="32.397" height="11.51" rx="5.755" transform="translate(118.216 278.249)" fill="#6c63ff"/>
    <rect id="Rectangle_340" data-name="Rectangle 340" width="89.961" height="11.51" rx="5.755" transform="translate(118.216 294.437)" fill="#6c63ff"/>
    <rect id="Rectangle_341" data-name="Rectangle 341" width="72.378" height="11.51" rx="5.755" transform="translate(118.216 310.619)" fill="#6c63ff"/>
    <line id="Line_36" data-name="Line 36" x2="262.168" transform="translate(104.545 140.426)" fill="none" stroke="#3f3d56" stroke-linecap="round" stroke-miterlimit="10" stroke-width="1" opacity="0.7"/>
    <line id="Line_37" data-name="Line 37" x2="262.168" transform="translate(104.545 205.511)" fill="none" stroke="#3f3d56" stroke-linecap="round" stroke-miterlimit="10" stroke-width="1" opacity="0.7"/>
    <line id="Line_38" data-name="Line 38" x2="262.168" transform="translate(104.545 270.596)" fill="none" stroke="#3f3d56" stroke-linecap="round" stroke-miterlimit="10" stroke-width="1" opacity="0.7"/>
    <line id="Line_39" data-name="Line 39" x2="262.168" transform="translate(104.545 337.301)" fill="none" stroke="#3f3d56" stroke-linecap="round" stroke-miterlimit="10" stroke-width="1" opacity="0.7"/>
    <ellipse id="Ellipse_273" data-name="Ellipse 273" cx="59.382" cy="5.671" rx="59.382" ry="5.671" transform="translate(260.286 365.657)" fill="#6c63ff" opacity="0.1"/>
    <ellipse id="Ellipse_274" data-name="Ellipse 274" cx="8.697" cy="11.683" rx="8.697" ry="11.683" transform="translate(19.658 64.572)" fill="#6c63ff" opacity="0.1"/>
    <ellipse id="Ellipse_275" data-name="Ellipse 275" cx="8.697" cy="11.683" rx="8.697" ry="11.683" transform="translate(55.907 0)" fill="#6c63ff" opacity="0.1"/>
    <ellipse id="Ellipse_276" data-name="Ellipse 276" cx="14.576" cy="19.579" rx="14.576" ry="19.579" transform="translate(47.081 36.464)" fill="#6c63ff" opacity="0.1"/>
    <rect id="Rectangle_342" data-name="Rectangle 342" width="55.421" height="19.423" rx="9.711" transform="translate(286.362 162.442)" fill="#3f3d56"/>
    <rect id="Rectangle_343" data-name="Rectangle 343" width="48.195" height="12.925" rx="6.463" transform="translate(289.972 165.693)" opacity="0.1"/>
    <path id="Path_482" data-name="Path 482" d="M733,595.244a17.787,17.787,0,0,0,1.882-.491,10.012,10.012,0,0,1-.531,2.4,9.12,9.12,0,0,1-2.923,3.473.737.737,0,0,0-1.142-.1c-1.331,1.08-2.393,2.6-3.8,3.532-.495.324-1.009.583-1.492.945a10.049,10.049,0,0,0-2.815,3.905,3.433,3.433,0,0,0-.334,2.771,2.1,2.1,0,0,0,.571.686,2.7,2.7,0,0,0,1.958.783c.4-.049.8-.254,1.243-.346a14.39,14.39,0,0,1,1.669-.13,7.839,7.839,0,0,0,2.348-.816l2.762-1.3a14.007,14.007,0,0,0,2.272-1.253c.438-.319.852-.691,1.3-.983a8.859,8.859,0,0,1,1.552-.734l1.568-.616a1.173,1.173,0,0,1,.708-.124c.217.054.4.238.623.313a1.437,1.437,0,0,0,1.005-.13l1.818-.691a3.027,3.027,0,0,0,1.082-.6c.832-.794.981-2.371.977-3.748a37.763,37.763,0,0,0-.523-6.2,1.571,1.571,0,0,0-.591.6,11.663,11.663,0,0,0-.6-1.01,13.738,13.738,0,0,1-1.814-4.5,7.654,7.654,0,0,0,1.608-2.441c-.961-4.92-1.946-9.917-3.9-14.259-.639-1.415-1.371-2.744-2.011-4.137-1.9-4.051-2.292-9.182-4.467-12.963a2.89,2.89,0,0,1,0-2.636c.249-.443.651-.859.575-1.41-.056-.394-.362-.756-.245-1.124a1.259,1.259,0,0,1,.3-.405,3.547,3.547,0,0,0,.358-1.928,11.105,11.105,0,0,1,1.572-4.623,2.7,2.7,0,0,1,.579-.843c.2-.162.43-.238.627-.4.692-.589.643-1.955.973-2.971.434-1.339,1.528-2.015,2.244-3.1.913-1.383,1.146-3.305,2.107-4.51a2.769,2.769,0,0,1,.318-.346,28.848,28.848,0,0,0-.567,6.292c-.092,7.308,1.259,14.87.627,22.145-.5,5.758,2.119,11.5,5.83,14.378a24.694,24.694,0,0,0,4.54,2.587c2.324,1.118,4.64,2.268,6.92,3.554q2.413,1.361,4.761,2.922a57.331,57.331,0,0,1,5.629,4.218,24.824,24.824,0,0,1,6.064,6.762,4.142,4.142,0,0,0,2.678-1.323c.611.648,1.351,1.14,1.926,1.858a9.007,9.007,0,0,1,1.528,4.029H782.1c.028.718.052,1.437.08,2.16a1.205,1.205,0,0,1-.06.54.865.865,0,0,1-.217.265l-1.239,1.129a4.816,4.816,0,0,0-1.942,3.311,2.105,2.105,0,0,0,.269,1.183,1.727,1.727,0,0,0,1.1.67,14.681,14.681,0,0,0,6.546.81,3.954,3.954,0,0,0,2.786-1.728,9.118,9.118,0,0,0,.973-3.586c.269-2.161.495-4.37.672-6.562a18.913,18.913,0,0,1,.667-4.359.542.542,0,0,1,.173-.292c.092-.054.2,0,.3-.054s.161-.254.193-.416a34.24,34.24,0,0,0,.575-6.525,5.8,5.8,0,0,0-.189-1.68,2.784,2.784,0,0,0-1.721-1.782,10.388,10.388,0,0,0-2.224-.356,8.554,8.554,0,0,1-1.846-.454,1.3,1.3,0,0,0-.768-.135.687.687,0,0,0-.467.718,1.139,1.139,0,0,0,.1.351l-.627-.167c-.507-.124-1.206-.421-1.966-.67q0-.259.024-.54a1.1,1.1,0,0,0-.426-.929l-10.624-7.627-1.986-1.426c-4.351-3.127-8.846-6.017-13.209-9.144-.289.119-.531-.329-.615-.729s-.145-.875-.422-1.053c-.137-.086-.318-.081-.4-.238a.825.825,0,0,1-.076-.481c.141-2.846,1.657-5.471,1.355-8.291a13.83,13.83,0,0,1-.4-3.576,19.98,19.98,0,0,1,.8-2.258c.523-1.739,0-3.829.571-5.531a16.273,16.273,0,0,0,.768-3.522,30.547,30.547,0,0,1,1.608-6.989,13.63,13.63,0,0,1,1.5-3.062c.318-.465.676-.88.981-1.361a13.912,13.912,0,0,0,1.528-5.4,34.526,34.526,0,0,0,.209-10.489,19.665,19.665,0,0,1-.495-3.527c0-1.437.43-3.084-.088-4.235a4.134,4.134,0,0,0,1-2.306A3.89,3.89,0,0,1,765,498.9a2.434,2.434,0,0,1,.672-.81,4.464,4.464,0,0,0,1.037-3.711c.551.335,1.13-.416,1.391-1.156s.458-1.62,1.017-1.955c.378-.216.8-.086,1.206-.227.639-.221,1.029-1.08,1.48-1.712a11.476,11.476,0,0,1,3.418-2.83c3.563-2.436,6.466-6.287,9.309-10.079a40.932,40.932,0,0,0,4.021-6.082c.318-.632.607-1.285.881-1.955l.072-.049.024.119c.044.238.1.475.149.708.129.54.273,1.118.4,1.669a14.375,14.375,0,0,0,1.789,4.575,4.658,4.658,0,0,0,.917.956,5.07,5.07,0,0,0,2.36.951,9.309,9.309,0,0,0,.949.108c.318.022.635.038.949.049l6.506.232c-2.236-4.353-2.412-10.014-2.264-15.312.374-13.611,2.348-27.346.515-40.741a12.84,12.84,0,0,0-1.251-4.542,6.716,6.716,0,0,0-4.093-3,19.718,19.718,0,0,1-4.592-1.583c-1.206-.74-2.316-1.928-3.619-2.317a5.975,5.975,0,0,0-2.9.065q-1.761.351-3.5.832l-.281.081h.012l-.193.059h-.052l-.173.054H781.1l-.161.059-.072.027-.149.065-.084.038-.137.059-.089.049-.129.065-.1.054-.117.07-.1.065-.109.07-.1.076-.1.076-.1.086-.092.081-.1.092-.08.086-.093.108-.076.092a1.2,1.2,0,0,0-.088.124l-.068.092a1.653,1.653,0,0,0-.089.151c0,.027-.036.054-.052.086s-.072.14-.109.221v.032a3.9,3.9,0,0,0-.221.643c-.028.113-.056.227-.076.34a6.806,6.806,0,0,0-.089.7,2.181,2.181,0,0,1-.02.362v.718q.025.608.1,1.21c-2.9,2.3-4.715,6.44-4.81,10.962s1.545,8.791,4.343,11.308q.029.32.032.643v.14c-.023.764-.082,1.525-.177,2.279a17.761,17.761,0,0,0-4.825-.578,27.935,27.935,0,0,0-2.911.221q-1.564-2.535-2.911-5.293l-2.147-4.229a44.3,44.3,0,0,1-2.01-4.321c-.527-1.372-.937-2.83-1.524-4.159-1.206-2.738-3.177-5.066-3.422-8.237l-.567.157c-.31-.681-.7-1.4-.844-1.793a44.22,44.22,0,0,1-1.785-7.022,13.574,13.574,0,0,0-.856-3.64,7.738,7.738,0,0,0-1.25-1.782,8.4,8.4,0,0,0-2.678-2.268,2.672,2.672,0,0,0-2.738.216,3.5,3.5,0,0,0-.4-.216,2.617,2.617,0,0,0-3.04.475,6.388,6.388,0,0,0-1.335,3.781,12.175,12.175,0,0,0,.716,5.736c.8,1.934,2.244,3.241,3.434,4.775a18.783,18.783,0,0,1,2.159,3.608,52.985,52.985,0,0,1-.165,8.755c-.153,1.242-.4,2.463-.474,3.716-.293,4.526,1.46,9.052.832,13.5a3.819,3.819,0,0,0,1.138,3.495,10.157,10.157,0,0,0,2.943,1.08c1.942.67,3.619,2.339,5.581,2.96.9.292,1.846.346,2.746.67l.141.059a10.083,10.083,0,0,0-1.443,3.684c-.4,2.269-.024,4.694-.426,6.962a17.9,17.9,0,0,1-1.974,5.083q-2.356,4.58-4.721,9.182a57.785,57.785,0,0,1-3.478,6.141c-2.167,3.181-5.907,5.7-7.009,9.528-.024-.092-.056-.184-.08-.275-1.56,1.539-2.143,4.407-3.386,6.4-.607.967-1.355,1.75-2.01,2.647a30.718,30.718,0,0,0-2.224,3.711,72.222,72.222,0,0,0-5.034,10.77c-.692,2.009-1.226,4.1-1.777,6.179-2.163,8.194-5.694,15.966-7.161,24.441-.358,2.069-1.295,3.937-1.436,6.055a14.774,14.774,0,0,0,1.407,6.422c1.206,3.046,2.549,6.006,3.619,9.139.631,1.826,1.178,3.711,1.882,5.493.768,1.944,1.709,3.748,2.513,5.666A88.344,88.344,0,0,1,733,595.244Zm26.6-154.772-.193-.13a6.9,6.9,0,0,1-1.95-1.734c-1.733-2.485-2.477-6.228-3.02-9.571-.064-.4-.121-.794-.173-1.194a64.88,64.88,0,0,1,5.336,12.639Z" transform="translate(-441.408 -238.223)" fill="url(#linear-gradient)"/>
    <path id="Path_483" data-name="Path 483" d="M785.925,408.653a13.33,13.33,0,0,0-.852-3.613,7.689,7.689,0,0,0-1.255-1.772,8.432,8.432,0,0,0-2.686-2.252,2.642,2.642,0,0,0-3.04.47,6.338,6.338,0,0,0-1.339,3.781,12.023,12.023,0,0,0,.716,5.7c.824,1.923,2.248,3.208,3.442,4.742a18.734,18.734,0,0,1,2.244,3.781,11.65,11.65,0,0,0,1.021,2.009,1.735,1.735,0,0,0,1.608.87,2.789,2.789,0,0,0,1.315-1.042c.491-.578,1.809-1.62,1.85-2.522.032-.74-1-2.414-1.251-3.111A44.189,44.189,0,0,1,785.925,408.653Z" transform="translate(-475.634 -238.838)" fill="#fbbebe"/>
    <path id="Path_484" data-name="Path 484" d="M785.925,408.653a13.33,13.33,0,0,0-.852-3.613,7.689,7.689,0,0,0-1.255-1.772,8.432,8.432,0,0,0-2.686-2.252,2.642,2.642,0,0,0-3.04.47,6.338,6.338,0,0,0-1.339,3.781,12.023,12.023,0,0,0,.716,5.7c.824,1.923,2.248,3.208,3.442,4.742a18.734,18.734,0,0,1,2.244,3.781,11.65,11.65,0,0,0,1.021,2.009,1.735,1.735,0,0,0,1.608.87,2.789,2.789,0,0,0,1.315-1.042c.491-.578,1.809-1.62,1.85-2.522.032-.74-1-2.414-1.251-3.111A44.189,44.189,0,0,1,785.925,408.653Z" transform="translate(-475.634 -238.838)" opacity="0.1"/>
    <path id="Path_485" data-name="Path 485" d="M822.234,459.4a18.011,18.011,0,0,0-6.506-1.08c-3.663.07-7.435,1.264-10.925-.248a16.909,16.909,0,0,1-2.614-1.5,6.874,6.874,0,0,1-1.954-1.723c-1.737-2.468-2.485-6.19-3.024-9.506a84.479,84.479,0,0,1-.824-10.116,4.676,4.676,0,0,1-2.855,1.01,2.48,2.48,0,0,1-2.011-2.479,55,55,0,0,1-.133,9.425c-.153,1.231-.4,2.447-.47,3.689-.3,4.5,1.46,8.993.832,13.427a3.748,3.748,0,0,0,1.138,3.468,10.34,10.34,0,0,0,2.947,1.08c1.942.664,3.619,2.323,5.589,2.944.9.286,1.85.34,2.75.664,1.283.459,2.453,1.448,3.764,1.755a24.171,24.171,0,0,0,2.988.189c.865.1,1.709.4,2.577.432,2.123.07,4.125-1.539,5.533-3.678S821.342,461.976,822.234,459.4Z" transform="translate(-484.131 -254.029)" fill="#f86d70"/>
    <path id="Path_486" data-name="Path 486" d="M822.234,459.4a18.011,18.011,0,0,0-6.506-1.08c-3.663.07-7.435,1.264-10.925-.248a16.909,16.909,0,0,1-2.614-1.5,6.874,6.874,0,0,1-1.954-1.723c-1.737-2.468-2.485-6.19-3.024-9.506a84.479,84.479,0,0,1-.824-10.116,4.676,4.676,0,0,1-2.855,1.01,2.48,2.48,0,0,1-2.011-2.479,55,55,0,0,1-.133,9.425c-.153,1.231-.4,2.447-.47,3.689-.3,4.5,1.46,8.993.832,13.427a3.748,3.748,0,0,0,1.138,3.468,10.34,10.34,0,0,0,2.947,1.08c1.942.664,3.619,2.323,5.589,2.944.9.286,1.85.34,2.75.664,1.283.459,2.453,1.448,3.764,1.755a24.171,24.171,0,0,0,2.988.189c.865.1,1.709.4,2.577.432,2.123.07,4.125-1.539,5.533-3.678S821.342,461.976,822.234,459.4Z" transform="translate(-484.131 -254.029)" opacity="0.1"/>
    <path id="Path_487" data-name="Path 487" d="M872.107,737.771a4.565,4.565,0,0,1,1.878.789,6.122,6.122,0,0,1,1.633,2.96,33.81,33.81,0,0,1,1.1,9.241,26.335,26.335,0,0,1-.708,7.491,5.186,5.186,0,0,1-.929,1.961,3.1,3.1,0,0,1-1.279.832,2.7,2.7,0,0,1-3-.5c-.917-.961-1.146-2.663-1.339-4.2-.261-2.074-.631-4.283-1.781-5.714-.852-1.08-2.075-1.62-2.694-2.927-.74-1.572-.35-3.624.121-5.374.4-1.518,1.009-4.591,2.191-5.369S870.881,737.474,872.107,737.771Z" transform="translate(-528.19 -393.351)" fill="#fbbebe"/>
    <path id="Path_488" data-name="Path 488" d="M755.679,749.935a13.657,13.657,0,0,0,1.842,4.6c.523.81,1.178,1.793.9,2.8a2.687,2.687,0,0,1-.495.891,22.821,22.821,0,0,1-14.7,8.491.391.391,0,0,1-.261,0c-.157-.092-.2-.362-.213-.594a9.778,9.778,0,0,1,0-2.274,6.671,6.671,0,0,1,2.545-3.992,9.211,9.211,0,0,0,2.992-3.511c.784-1.977.454-4.553,1.387-6.406a4.739,4.739,0,0,1,3.5-2.431c.462-.1,1.448-.778,1.842-.464S755.542,749.314,755.679,749.935Z" transform="translate(-455.312 -398.062)" fill="#fbbebe"/>
    <path id="Path_489" data-name="Path 489" d="M874.137,737.713A.68.68,0,0,1,874.6,737a1.338,1.338,0,0,1,.768.13,8.265,8.265,0,0,0,1.846.459,10.372,10.372,0,0,1,2.228.351,2.767,2.767,0,0,1,1.725,1.766,5.776,5.776,0,0,1,.189,1.674,33.773,33.773,0,0,1-.575,6.481c-.032.162-.08.351-.2.411s-.2,0-.294.059a.486.486,0,0,0-.173.292,18.58,18.58,0,0,0-.672,4.321c-.177,2.161-.4,4.353-.671,6.514a8.794,8.794,0,0,1-.973,3.565,3.954,3.954,0,0,1-2.791,1.718,14.868,14.868,0,0,1-6.554-.8,1.739,1.739,0,0,1-1.106-.664,2.083,2.083,0,0,1-.269-1.177,4.8,4.8,0,0,1,1.942-3.289l1.242-1.118a.76.76,0,0,0,.217-.265,1.183,1.183,0,0,0,.06-.54l-.08-2.16a4.638,4.638,0,0,1,3.969,3.316c.169.459.334.994.688,1.172.478.147.957-.243,1.082-.88a4.988,4.988,0,0,0-.036-1.874c-.728-5.223-.555-10.592-1-15.869a4.483,4.483,0,0,0-.4-1.674C874.579,738.55,874.181,738.2,874.137,737.713Z" transform="translate(-529.688 -393.477)" fill="#f86d70"/>
    <rect id="Rectangle_344" data-name="Rectangle 344" width="17.403" height="11.51" rx="5.755" transform="translate(308.581 177.911) rotate(180)" fill="#6c63ff"/>
    <ellipse id="Ellipse_277" data-name="Ellipse 277" cx="2.678" cy="3.597" rx="2.678" ry="3.597" transform="translate(297.335 168.556)" fill="#fff"/>
    <path id="Path_490" data-name="Path 490" d="M735.082,769.34c-.181.405-.466.718-.635,1.134a1.218,1.218,0,0,0,.137,1.269.716.716,0,0,0,.575.076,17.59,17.59,0,0,0,10.455-6.363,9.394,9.394,0,0,0,1.283-1.885c.342-.7.631-1.55,1.206-1.842a37.279,37.279,0,0,1,.539,6.184c0,1.372-.145,2.933-.977,3.727a3.048,3.048,0,0,1-1.086.594l-1.817.691a1.475,1.475,0,0,1-1.009.13c-.213-.076-.4-.259-.623-.313a1.173,1.173,0,0,0-.708.124l-1.572.616a8.442,8.442,0,0,0-1.552.729c-.45.286-.865.654-1.3.972a13.653,13.653,0,0,1-2.276,1.242l-2.762,1.291a8.034,8.034,0,0,1-2.352.81,15.748,15.748,0,0,0-1.673.124,8.9,8.9,0,0,1-1.247.346,2.7,2.7,0,0,1-1.958-.778,2.134,2.134,0,0,1-.571-.681,3.43,3.43,0,0,1,.334-2.755,10.1,10.1,0,0,1,2.815-3.878c.483-.357,1-.616,1.5-.94,1.411-.918,2.477-2.452,3.808-3.5C734.865,765.478,735.673,768.033,735.082,769.34Z" transform="translate(-444.724 -404.855)" fill="#f86d70"/>
    <path id="Path_491" data-name="Path 491" d="M846.69,483.9a10,10,0,0,0,4.889,2.555,14.885,14.885,0,0,0,2.766.2,52.848,52.848,0,0,0,11.512-1.291,20.774,20.774,0,0,1-3.619-7.562,16.673,16.673,0,0,1-.177-4.737,46.092,46.092,0,0,1,1.078-5.941,23.287,23.287,0,0,1-4.865-.167c-.921-.13-3.181-1.253-3.981-.4s-.185,3.6-.173,4.894q0,.07,0,.14a20.275,20.275,0,0,1-.929,5.714C852.042,480.8,849.549,483.671,846.69,483.9Z" transform="translate(-517.497 -268.967)" fill="#fbbebe"/>
    <path id="Path_492" data-name="Path 492" d="M864.827,471.408a7.642,7.642,0,0,0,7.941,1.62,46.058,46.058,0,0,1,1.078-5.941,23.288,23.288,0,0,1-4.865-.167c-.921-.13-3.181-1.253-3.981-.4S864.815,470.117,864.827,471.408Z" transform="translate(-528.199 -268.948)" opacity="0.1"/>
    <ellipse id="Ellipse_278" data-name="Ellipse 278" cx="9.695" cy="13.022" rx="9.695" ry="13.022" transform="translate(332.241 177.933)" fill="#fbbebe"/>
    <path id="Path_493" data-name="Path 493" d="M776.09,536.079a6.718,6.718,0,0,0,2.187,5.223,7.4,7.4,0,0,0,2.372,1.123c4.423,1.437,8.975,2.593,13.531,2.242a5.858,5.858,0,0,0,2.871-.81,4.113,4.113,0,0,0,1.773-2.976,3.654,3.654,0,0,1,.137-.945,2.414,2.414,0,0,1,.672-.8,4.41,4.41,0,0,0,1.041-3.684c.551.335,1.13-.416,1.391-1.15s.462-1.62,1.017-1.939c.378-.216.8-.086,1.206-.227.639-.221,1.029-1.08,1.48-1.7a11.648,11.648,0,0,1,3.422-2.814c3.571-2.414,6.478-6.244,9.329-10.009a40.488,40.488,0,0,0,4.021-6.039q.479-.941.885-1.944a66.067,66.067,0,0,0,2.232-6.865,10.3,10.3,0,0,0,.579-3.932,2.33,2.33,0,0,0-.052-.362,8.821,8.821,0,0,0-.881-2.387c-.985-1.944-2.276-3.781-3.973-4.386s-3.386.124-5.111.616a9.8,9.8,0,0,1-1.733.356,12.536,12.536,0,0,1-5.4-1.14l-1.922-.713c-.961-.357-1.444-1.917-2.413-2.193a2.458,2.458,0,0,0-1.307.092,15.054,15.054,0,0,0-5.71,2.506,8.976,8.976,0,0,0-1.11,1.015,10.017,10.017,0,0,0-2.582,5.115c-.4,2.252-.024,4.661-.426,6.914a17.709,17.709,0,0,1-1.974,5.045l-4.737,9.112a57.585,57.585,0,0,1-3.482,6.093C780.879,528.231,776.158,531.029,776.09,536.079Z" transform="translate(-475.285 -279.234)" fill="#f86d70"/>
    <path id="Path_494" data-name="Path 494" d="M793.775,408.653a13.33,13.33,0,0,0-.852-3.613,7.691,7.691,0,0,0-1.255-1.772,8.432,8.432,0,0,0-2.686-2.252,2.642,2.642,0,0,0-3.04.47,6.338,6.338,0,0,0-1.339,3.781,12.022,12.022,0,0,0,.716,5.7c.8,1.923,2.248,3.208,3.442,4.742A18.738,18.738,0,0,1,791,419.487a11.638,11.638,0,0,0,1.021,2.009,1.735,1.735,0,0,0,1.608.87,2.789,2.789,0,0,0,1.315-1.042c.491-.578,1.809-1.62,1.85-2.522.032-.74-1-2.414-1.25-3.111a44.176,44.176,0,0,1-1.773-7.038Z" transform="translate(-480.328 -238.838)" fill="#fbbebe"/>
    <path id="Path_495" data-name="Path 495" d="M720.69,638.319c1.206,3.025,2.549,5.941,3.639,9.074.631,1.82,1.178,3.689,1.882,5.461.768,1.928,1.713,3.721,2.517,5.623a80.846,80.846,0,0,1,4.19,15.572,19.6,19.6,0,0,0,8.251-3.9,5.319,5.319,0,0,0,.495-.427,7.506,7.506,0,0,0,1.665-2.468c-.961-4.861-1.946-9.846-3.9-14.162-.639-1.4-1.371-2.7-2.01-4.11-1.9-4.024-2.3-9.1-4.471-12.86a2.832,2.832,0,0,1,0-2.614c.249-.437.651-.853.575-1.4-.056-.394-.362-.751-.245-1.118a1.256,1.256,0,0,1,.3-.405,3.469,3.469,0,0,0,.358-1.907,11.04,11.04,0,0,1,1.576-4.6,2.731,2.731,0,0,1,.579-.837c.2-.162.43-.238.627-.4.692-.578.643-1.939.977-2.949.434-1.329,1.528-2,2.248-3.079.913-1.372,1.142-3.279,2.107-4.478a3.234,3.234,0,0,1,.318-.346,28.458,28.458,0,0,0-.567,6.271c-.093,7.259,1.258,14.767.627,21.978-.5,5.714,2.123,11.418,5.838,14.281a24.994,24.994,0,0,0,4.548,2.571c2.324,1.107,4.648,2.247,6.928,3.527,1.608.9,3.217,1.869,4.769,2.9a56.663,56.663,0,0,1,5.629,4.191,24.647,24.647,0,0,1,6.072,6.714c1.54-.054,2.951-1.3,3.924-2.9a23.382,23.382,0,0,0,2.147-5.461,19.419,19.419,0,0,0,1.021-5.147,1.1,1.1,0,0,0-.426-.924l-10.64-7.562-2.01-1.415c-4.355-3.106-8.846-5.979-13.225-9.079-.294.113-.535-.335-.619-.724s-.145-.875-.422-1.048c-.141-.086-.318-.086-.4-.238a.835.835,0,0,1-.072-.475c.141-2.83,1.661-5.434,1.355-8.237a13.656,13.656,0,0,1-.4-3.549,19.4,19.4,0,0,1,.8-2.247c.519-1.728,0-3.781.571-5.493a16,16,0,0,0,.768-3.5,29.859,29.859,0,0,1,1.628-6.935,13.508,13.508,0,0,1,1.5-3.046c.322-.459.68-.875.981-1.35a13.757,13.757,0,0,0,1.532-5.336,34.078,34.078,0,0,0,.209-10.419,19.419,19.419,0,0,1-.495-3.505c0-1.572.527-3.414-.286-4.553a2.492,2.492,0,0,0-1.206-.821,28.177,28.177,0,0,0-5.77-1.431l-8.87-1.55a6.575,6.575,0,0,1-2.955-1.032,7.98,7.98,0,0,1-2.493-4.278c-1.56,1.529-2.147,4.375-3.39,6.352-.607.967-1.355,1.745-2.01,2.63a29.836,29.836,0,0,0-2.228,3.689,71.643,71.643,0,0,0-5.046,10.694c-.688,1.993-1.206,4.073-1.777,6.136-2.167,8.14-5.7,15.863-7.169,24.273-.362,2.058-1.3,3.911-1.44,6.017A14.323,14.323,0,0,0,720.69,638.319Z" transform="translate(-441.309 -317.681)" fill="#434175"/>
    <path id="Path_496" data-name="Path 496" d="M836.572,567.782a4.745,4.745,0,0,1,.326,1.761c-.2-1.318-1.548-2.047-1.633-3.349-.04-.6.04-.573.318-.254C836.005,566.41,836.186,567.264,836.572,567.782Z" transform="translate(-510.661 -314.713)" opacity="0.1"/>
    <path id="Path_497" data-name="Path 497" d="M827.01,576.58a2.963,2.963,0,0,1,.615,1.221,4.1,4.1,0,0,1,.121,2.123c-.2-.124-.265-.448-.326-.735a6.107,6.107,0,0,0-.4-1.258c-.161-.34-.9-1.151-.889-1.523C826.118,575.846,826.813,576.381,827.01,576.58Z" transform="translate(-505.204 -319.515)" opacity="0.1"/>
    <path id="Path_498" data-name="Path 498" d="M827.14,492.19a10.516,10.516,0,0,0,2.043,1.826c1.922,1.307,4.049,1.993,5.983,3.241a28.5,28.5,0,0,1,2.774,2.161c1.918,1.62,3.832,3.241,5.746,4.888a6.934,6.934,0,0,1,1.267,1.291c.692.994.688,2.7,1.319,3.781a3.478,3.478,0,0,0,2.786,1.728,7,7,0,0,0,3.108-.7,13.094,13.094,0,0,0,1.777-.87,8.036,8.036,0,0,0,1.7-1.307,7.118,7.118,0,0,0,2.01-4.262,11.122,11.122,0,0,0-.342-3.478,16.631,16.631,0,0,0-.611-2.112,9.142,9.142,0,0,0-.491-1.107,8.8,8.8,0,0,0-5.891-4.283c-1.186-.308-2.393-.5-3.583-.767a9.808,9.808,0,0,1-1.733.356,12.537,12.537,0,0,1-5.4-1.14l-1.922-.713c-.961-.356-1.444-1.917-2.413-2.193a2.458,2.458,0,0,0-1.307.092,15.054,15.054,0,0,0-5.71,2.506A9.111,9.111,0,0,0,827.14,492.19Z" transform="translate(-505.808 -279.193)" opacity="0.1"/>
    <path id="Path_499" data-name="Path 499" d="M805.236,431.36c.245,3.149,2.224,5.461,3.43,8.177.587,1.323,1,2.771,1.524,4.137A44.518,44.518,0,0,0,812.2,448l2.151,4.2a43.855,43.855,0,0,0,4.162,7.022c2.815.643,5.187,3.457,7.861,4.823,2.143,1.08,4.475,1.242,6.723,1.831a8.78,8.78,0,0,1,5.891,4.283,13.373,13.373,0,0,1,1.1,3.241,11.089,11.089,0,0,1,.342,3.473,7.119,7.119,0,0,1-2.01,4.267,10.142,10.142,0,0,1-3.478,2.161,7.071,7.071,0,0,1-3.108.7,3.492,3.492,0,0,1-2.791-1.728c-.627-1.08-.623-2.8-1.315-3.781a6.938,6.938,0,0,0-1.267-1.291l-5.746-4.861a28.5,28.5,0,0,0-2.774-2.16c-1.934-1.269-4.061-1.955-5.983-3.241a9.17,9.17,0,0,1-4.089-6.309c-1.17-8.745-5.678-16.117-9.53-23.339.125-.032.088-.421.133-.583a6.955,6.955,0,0,1,2.815-3.824A11.6,11.6,0,0,1,805.236,431.36Z" transform="translate(-488.588 -252.925)" fill="#f86d70"/>
    <path id="Path_500" data-name="Path 500" d="M865.973,426.337a6.216,6.216,0,0,1,.4-2.744,4.394,4.394,0,0,1,3.189-2.263c1.214-.335,2.332-.594,3.506-.821a6.059,6.059,0,0,1,2.9-.07c1.311.389,2.413,1.572,3.619,2.3a20.605,20.605,0,0,0,4.6,1.577,6.811,6.811,0,0,1,4.1,2.981,12.7,12.7,0,0,1,1.251,4.51c1.838,13.3-.141,26.947-.515,40.466-.149,5.261.028,10.883,2.268,15.21l-6.518-.232c-1.669-.059-3.462-.178-4.773-1.561-1.158-1.215-1.7-3.176-2.2-5.029a20.18,20.18,0,0,1-.836-4.51c-.1-3.176,1.242-6.292.8-9.42a11.229,11.229,0,0,0-2.943-5.752,31.957,31.957,0,0,1-3.953-4.726c-1.95-3.322-2.324-7.853-2.083-12.072a61.163,61.163,0,0,0,.318-7.524,11.572,11.572,0,0,0-1.476-5.272A8.777,8.777,0,0,1,865.973,426.337Z" transform="translate(-529.015 -247.837)" fill="#434175"/>
    <path id="Path_501" data-name="Path 501" d="M866.371,424.491a4.316,4.316,0,0,1,3.124-2.241,3.416,3.416,0,0,0-1.548,1.62,6.31,6.31,0,0,0-.4,2.749,8.637,8.637,0,0,0,1.669,5.05,11.508,11.508,0,0,1,1.48,5.272,62.014,62.014,0,0,1-.318,7.524c-.245,4.213.129,8.75,2.083,12.072a31.025,31.025,0,0,0,3.953,4.726,11.13,11.13,0,0,1,2.943,5.752c.434,3.122-.909,6.244-.8,9.42a19.836,19.836,0,0,0,.832,4.5c.495,1.858,1.041,3.819,2.2,5.034,1.311,1.383,3.108,1.5,4.777,1.561l4.616.162c.1.227.209.454.322.675l-6.518-.232c-1.669-.059-3.462-.178-4.773-1.561-1.158-1.215-1.7-3.176-2.2-5.029a20.172,20.172,0,0,1-.836-4.51c-.1-3.176,1.242-6.292.8-9.42a11.228,11.228,0,0,0-2.943-5.752,31.95,31.95,0,0,1-3.953-4.726c-1.95-3.322-2.324-7.853-2.083-12.072a61.152,61.152,0,0,0,.318-7.524,11.572,11.572,0,0,0-1.476-5.272,8.667,8.667,0,0,1-1.673-5.05A6.213,6.213,0,0,1,866.371,424.491Z" transform="translate(-529.011 -248.736)" opacity="0.1"/>
    <path id="Path_502" data-name="Path 502" d="M745.22,658.059l11.974,39.186a7.506,7.506,0,0,0,1.665-2.468c-.961-4.861-1.946-9.846-3.9-14.162-.639-1.4-1.371-2.7-2.01-4.11-1.9-4.024-2.3-9.1-4.471-12.86a2.831,2.831,0,0,1,0-2.614c.249-.437.651-.853.575-1.4-.056-.394-.362-.751-.245-1.118a1.258,1.258,0,0,1,.3-.405,3.468,3.468,0,0,0,.358-1.907,11.042,11.042,0,0,1,1.576-4.6,2.735,2.735,0,0,1,.579-.837c.2-.162.43-.238.627-.4.692-.578.643-1.939.977-2.949.434-1.329,1.528-2,2.248-3.079.913-1.372,1.142-3.279,2.107-4.478l.084-.281-.9-7.562Z" transform="translate(-456.828 -345.204)" opacity="0.1"/>
    <ellipse id="Ellipse_279" data-name="Ellipse 279" cx="13.651" cy="3.527" rx="13.651" ry="3.527" transform="translate(379.218 352.603)" fill="#6c63ff"/>
    <ellipse id="Ellipse_280" data-name="Ellipse 280" cx="1.588" cy="2.792" rx="1.588" ry="2.792" transform="translate(391.51 351.836)" fill="#3f3d56"/>
    <ellipse id="Ellipse_281" data-name="Ellipse 281" cx="1.588" cy="2.792" rx="1.588" ry="2.792" transform="translate(391.51 348.422)" fill="#3f3d56"/>
    <ellipse id="Ellipse_282" data-name="Ellipse 282" cx="1.588" cy="2.792" rx="1.588" ry="2.792" transform="translate(391.51 345.003)" fill="#3f3d56"/>
    <ellipse id="Ellipse_283" data-name="Ellipse 283" cx="1.588" cy="2.792" rx="1.588" ry="2.792" transform="translate(391.51 341.59)" fill="#3f3d56"/>
    <ellipse id="Ellipse_284" data-name="Ellipse 284" cx="1.588" cy="2.792" rx="1.588" ry="2.792" transform="translate(391.51 338.171)" fill="#3f3d56"/>
    <ellipse id="Ellipse_285" data-name="Ellipse 285" cx="1.588" cy="2.792" rx="1.588" ry="2.792" transform="translate(391.51 334.757)" fill="#3f3d56"/>
    <ellipse id="Ellipse_286" data-name="Ellipse 286" cx="1.588" cy="2.792" rx="1.588" ry="2.792" transform="translate(391.51 331.343)" fill="#3f3d56"/>
    <path id="Path_503" data-name="Path 503" d="M988.4,662.227a10.861,10.861,0,0,1-.591-1.172l4.174-.924-4.516.049a13.53,13.53,0,0,1-.145-8.1l6.06,4.218-5.589-5.515c1.421-3.33,4.11-5.311,6.965-5.131s5.393,2.491,6.576,5.986a13.165,13.165,0,0,1-.966,10.591,10.88,10.88,0,0,1,.868,1.863l-5.42,3.781,5.782-2.6a13.552,13.552,0,0,1,.4,3.279,12.563,12.563,0,0,1-1.632,6.325c2.454,4.192,2.1,10.213-.819,13.831s-7.413,3.618-10.329,0-3.273-9.639-.819-13.831a13.086,13.086,0,0,1,0-12.644Z" transform="translate(-601.251 -351.468)" fill="#6c63ff"/>
    <path id="Path_504" data-name="Path 504" d="M1002,687.922a12.562,12.562,0,0,1-1.633,6.325c2.454,4.192,2.1,10.213-.819,13.831s-7.413,3.618-10.329,0-3.273-9.639-.819-13.831C987.377,692.508,1002,686.777,1002,687.922Z" transform="translate(-601.251 -370.843)" opacity="0.1"/>
    <ellipse id="Ellipse_287" data-name="Ellipse 287" cx="9.18" cy="2.371" rx="9.18" ry="2.371" transform="translate(410.276 314.589)" fill="#6c63ff"/>
    <ellipse id="Ellipse_288" data-name="Ellipse 288" cx="1.07" cy="1.88" rx="1.07" ry="1.88" transform="translate(418.543 314.076)" fill="#3f3d56"/>
    <ellipse id="Ellipse_289" data-name="Ellipse 289" cx="1.07" cy="1.88" rx="1.07" ry="1.88" transform="translate(418.543 311.78)" fill="#3f3d56"/>
    <ellipse id="Ellipse_290" data-name="Ellipse 290" cx="1.07" cy="1.88" rx="1.07" ry="1.88" transform="translate(418.543 309.479)" fill="#3f3d56"/>
    <ellipse id="Ellipse_291" data-name="Ellipse 291" cx="1.07" cy="1.88" rx="1.07" ry="1.88" transform="translate(418.543 307.184)" fill="#3f3d56"/>
    <ellipse id="Ellipse_292" data-name="Ellipse 292" cx="1.07" cy="1.88" rx="1.07" ry="1.88" transform="translate(418.543 304.888)" fill="#3f3d56"/>
    <ellipse id="Ellipse_293" data-name="Ellipse 293" cx="1.07" cy="1.88" rx="1.07" ry="1.88" transform="translate(418.543 302.593)" fill="#3f3d56"/>
    <ellipse id="Ellipse_294" data-name="Ellipse 294" cx="1.07" cy="1.88" rx="1.07" ry="1.88" transform="translate(418.543 300.292)" fill="#3f3d56"/>
    <path id="Path_505" data-name="Path 505" d="M1059.966,621.841a6.326,6.326,0,0,1-.4-.789l2.815-.621-3.036.032a8.831,8.831,0,0,1-.471-2.873,9.02,9.02,0,0,1,.37-2.576l4.077,2.841-3.76-3.711c.951-2.251,2.762-3.594,4.687-3.475s3.637,1.679,4.43,4.038a8.842,8.842,0,0,1-.673,7.134,7.435,7.435,0,0,1,.583,1.253l-3.643,2.544,3.884-1.755a8.849,8.849,0,0,1-.824,6.481,8.662,8.662,0,0,1-.543,9.315,4.221,4.221,0,0,1-6.956,0,8.662,8.662,0,0,1-.543-9.315,8.78,8.78,0,0,1,0-8.5Z" transform="translate(-644.354 -335.382)" fill="#6c63ff"/>
    <path id="Path_506" data-name="Path 506" d="M1069.117,639.144a8.48,8.48,0,0,1-1.094,4.251,8.662,8.662,0,0,1-.543,9.315,4.221,4.221,0,0,1-6.956,0,8.663,8.663,0,0,1-.543-9.315C1059.29,642.222,1069.117,638.371,1069.117,639.144Z" transform="translate(-644.366 -348.434)" opacity="0.1"/>
  </g>
</svg>
