<svg xmlns="http://www.w3.org/2000/svg" xmlns:xlink="http://www.w3.org/1999/xlink" width="460" height="295" viewBox="0 0 460 295">
  <defs>
    <linearGradient id="linear-gradient" x1="-6.735" y1="1" x2="-6.735" gradientUnits="objectBoundingBox">
      <stop offset="0" stop-color="gray" stop-opacity="0.251"/>
      <stop offset="0.54" stop-color="gray" stop-opacity="0.122"/>
      <stop offset="1" stop-color="gray" stop-opacity="0.102"/>
    </linearGradient>
  </defs>
  <g id="Smart_house" data-name="Smart house" transform="translate(-0.001 0.015)">
    <path id="Path_253" data-name="Path 253" d="M302.269,87.867c-29.489-.909-57.578-9.38-84.4-18.647S164.483,49.693,135.7,44.778C117.187,41.621,96.015,41.157,81.1,50,66.741,58.5,62.1,73.182,59.613,86.781c-1.877,10.242-2.98,21,2.158,30.605,3.57,6.653,9.908,12.248,14.293,18.622,15.245,22.185,4.478,49.539-12.058,71.2-7.735,10.162-16.743,19.853-22.724,30.671s-8.748,23.207-3.517,34.238c5.19,10.937,17.55,19.136,30.943,24.931,27.2,11.734,59.247,15.095,90.5,17,69.18,4.208,138.731,2.387,208.095.561,25.671-.677,51.452-1.362,76.707-4.893,14.02-1.959,28.5-5.07,38.673-12.585,12.925-9.539,16.129-25.691,7.466-37.664-14.525-20.06-54.692-25.043-64.845-46.573-5.589-11.85.151-25.05,8.272-36.041,17.423-23.58,46.628-44.262,48.166-71.214,1.058-18.51-12.982-37.048-34.688-45.805C424.3,50.645,392.748,51.8,375.96,67,358.683,82.649,328.306,88.671,302.269,87.867Z" transform="translate(-35 -42.72)" fill="#544c9a" opacity="0.1"/>
    <rect id="Rectangle_198" data-name="Rectangle 198" width="209.243" height="224.161" rx="19.8" transform="translate(135.316 48.544)" fill="#464353"/>
    <rect id="Rectangle_199" data-name="Rectangle 199" width="173.142" height="178.936" transform="translate(153.366 69.792)" fill="#fff" stroke="#fff" stroke-miterlimit="10" stroke-width="1" opacity="0.1"/>
    <ellipse id="Ellipse_129" data-name="Ellipse 129" cx="7.368" cy="6.555" rx="7.368" ry="6.555" transform="translate(232.569 255.337)" fill="#fff"/>
    <path id="Path_254" data-name="Path 254" d="M619.36,210.623a3.118,3.118,0,1,1,3.5-3.089,2.94,2.94,0,0,1-1.031,2.19A3.719,3.719,0,0,1,619.36,210.623Z" transform="translate(-379.423 -145.876)" fill="#fff"/>
    <path id="Path_255" data-name="Path 255" d="M619.034,204.292a3.308,3.308,0,0,1,3.044,1.791,2.685,2.685,0,0,1-.706,3.185,3.58,3.58,0,0,1-3.581.628,2.93,2.93,0,0,1-2.014-2.708,3.116,3.116,0,0,1,3.257-2.9m0-.362a3.714,3.714,0,0,0-3.406,2.027,3.02,3.02,0,0,0,.808,3.574,4.025,4.025,0,0,0,4.022.7,3.293,3.293,0,0,0,2.26-3.041A3.5,3.5,0,0,0,619.034,203.93Z" transform="translate(-379.097 -145.557)" fill="#fff"/>
    <path id="Path_256" data-name="Path 256" d="M604.762,296.528v-6.374h5.374v6.374H615.6v-9.557h3.493l-11.643-9.561-11.639,9.561H599.3v9.557Z" transform="translate(-367.511 -192.426)" fill="#544c9a"/>
    <path id="Path_257" data-name="Path 257" d="M469.146,397.307v-6.881a1.654,1.654,0,0,0-3.285,0v6.881a2.868,2.868,0,0,0-1.607,3.361,3.481,3.481,0,0,0,6.5,0A2.868,2.868,0,0,0,469.146,397.307Zm-2.211-6.881a.571.571,0,0,1,1.12,0v1.543h-1.12Z" transform="translate(-289.445 -263.581)" fill="#fff" stroke="#fff" stroke-miterlimit="10" stroke-width="1"/>
    <rect id="Rectangle_200" data-name="Rectangle 200" width="97.701" height="0.967" transform="translate(200.808 131.843)" fill="#544c9a" opacity="0.3"/>
    <ellipse id="Ellipse_130" data-name="Ellipse 130" cx="2.577" cy="2.292" rx="2.577" ry="2.292" transform="translate(228.401 130.036)" fill="#544c9a"/>
    <rect id="Rectangle_201" data-name="Rectangle 201" width="30.169" height="0.967" transform="translate(200.808 131.843)" fill="#544c9a"/>
    <path id="Path_258" data-name="Path 258" d="M462.394,487.376a.57.57,0,0,0-.6-.456.589.589,0,0,0-.59.391l-.594,2.875a1,1,0,0,0-.024.221,1.23,1.23,0,0,0,2.443,0,.974.974,0,0,0-.041-.264Zm4.624,1.235a1.61,1.61,0,0,0-.2-.123l-2.41-1.478a.536.536,0,0,0-.623.029.334.334,0,0,0-.065.478l1.856,2.046a.957.957,0,0,0,.122.134,1.1,1.1,0,0,0,1.315,0,.673.673,0,0,0,0-1.086Zm1.628-2.111-2.259-.072a.264.264,0,0,0-.3.188.258.258,0,0,0,.179.275h0l2.186.55c.318.062.672-.069.672-.362,0-.362-.118-.547-.476-.583Zm-11.227.391a.258.258,0,0,0,.179-.275.268.268,0,0,0-.305-.188l-2.255.072c-.362.036-.468.214-.468.579,0,.29.346.424.659.362l2.186-.554Zm1.844.116-2.41,1.474a1.314,1.314,0,0,0-.2.123.673.673,0,0,0,0,1.086,1.064,1.064,0,0,0,1.311,0,.657.657,0,0,0,.126-.13l1.856-2.039a.334.334,0,0,0-.065-.478.539.539,0,0,0-.639-.036Zm2.581-9.546a3.8,3.8,0,0,1,1.058,2,1.353,1.353,0,0,1-.421,1.094,1.725,1.725,0,0,1-1.187.471,1.824,1.824,0,0,1-1.225-.462,1.438,1.438,0,0,1-.484-1.1v-.214a5.555,5.555,0,0,0-1.522,3.792,3.8,3.8,0,0,0,7.539,0c0-2.26-1.254-4.907-3.774-5.581Zm-.134,7.678a1.432,1.432,0,0,1-1.518-1.318,1.379,1.379,0,0,1,1.323-1.307,3.8,3.8,0,0,0,2.182-1.086,5.287,5.287,0,0,1,.277,1.695,2.149,2.149,0,0,1-2.263,2.014Z" transform="translate(-283.768 -320.027)" fill="#fff" stroke="#fff" stroke-miterlimit="10" stroke-width="1"/>
    <rect id="Rectangle_202" data-name="Rectangle 202" width="97.701" height="0.967" transform="translate(200.808 163.919)" fill="#544c9a" opacity="0.3"/>
    <ellipse id="Ellipse_131" data-name="Ellipse 131" cx="2.577" cy="2.292" rx="2.577" ry="2.292" transform="translate(251.197 162.112)" fill="#544c9a"/>
    <rect id="Rectangle_203" data-name="Rectangle 203" width="53.214" height="0.967" transform="translate(200.808 163.919)" fill="#544c9a"/>
    <path id="Path_259" data-name="Path 259" d="M462.827,579.478a.669.669,0,0,0,.7.623H466.6a.669.669,0,0,0,.7-.623v-.558h-4.478Zm2.239-11.328c-2.789,0-5.036,1.865-5.036,4.172a4.026,4.026,0,0,0,2.149,3.44v1.351a.592.592,0,0,0,.221.432.748.748,0,0,0,.5.166h4.331a.748.748,0,0,0,.5-.166.592.592,0,0,0,.221-.432v-1.351a4.021,4.021,0,0,0,2.154-3.44c0-2.307-2.251-4.172-5.04-4.172Z" transform="translate(-287.005 -377.874)" fill="#fff" stroke="#fff" stroke-miterlimit="10" stroke-width="1"/>
    <rect id="Rectangle_204" data-name="Rectangle 204" width="97.701" height="0.967" transform="translate(200.808 195.77)" fill="#544c9a" opacity="0.3"/>
    <ellipse id="Ellipse_132" data-name="Ellipse 132" cx="2.577" cy="2.292" rx="2.577" ry="2.292" transform="translate(276.437 193.959)" fill="#544c9a"/>
    <rect id="Rectangle_205" data-name="Rectangle 205" width="78.454" height="0.967" transform="translate(200.808 195.77)" fill="#544c9a"/>
    <path id="Path_260" data-name="Path 260" d="M464.15,651.85v6.968h2.239v5.976l4.478-7.967h-2.239l2.239-4.976Z" transform="translate(-289.448 -431.262)" fill="#fff" stroke="#fff" stroke-miterlimit="10" stroke-width="1"/>
    <rect id="Rectangle_206" data-name="Rectangle 206" width="97.701" height="0.967" transform="translate(200.808 226.578)" fill="#544c9a" opacity="0.3"/>
    <ellipse id="Ellipse_133" data-name="Ellipse 133" cx="2.577" cy="2.292" rx="2.577" ry="2.292" transform="translate(228.401 224.768)" fill="#544c9a"/>
    <rect id="Rectangle_207" data-name="Rectangle 207" width="30.169" height="0.967" transform="translate(200.808 226.578)" fill="#544c9a"/>
    <ellipse id="Ellipse_134" data-name="Ellipse 134" cx="24.209" cy="4.143" rx="24.209" ry="4.143" transform="translate(115.861 278.522)" fill="#544c9a"/>
    <ellipse id="Ellipse_135" data-name="Ellipse 135" cx="2.817" cy="3.281" rx="2.817" ry="3.281" transform="translate(136.851 277.624)" fill="#3f3d56"/>
    <ellipse id="Ellipse_136" data-name="Ellipse 136" cx="2.817" cy="3.281" rx="2.817" ry="3.281" transform="translate(136.851 273.611)" fill="#3f3d56"/>
    <ellipse id="Ellipse_137" data-name="Ellipse 137" cx="2.817" cy="3.281" rx="2.817" ry="3.281" transform="translate(136.851 269.602)" fill="#3f3d56"/>
    <ellipse id="Ellipse_138" data-name="Ellipse 138" cx="2.817" cy="3.281" rx="2.817" ry="3.281" transform="translate(136.851 265.589)" fill="#3f3d56"/>
    <ellipse id="Ellipse_139" data-name="Ellipse 139" cx="2.817" cy="3.281" rx="2.817" ry="3.281" transform="translate(136.851 261.577)" fill="#3f3d56"/>
    <ellipse id="Ellipse_140" data-name="Ellipse 140" cx="2.817" cy="3.281" rx="2.817" ry="3.281" transform="translate(136.851 257.564)" fill="#3f3d56"/>
    <ellipse id="Ellipse_141" data-name="Ellipse 141" cx="2.817" cy="3.281" rx="2.817" ry="3.281" transform="translate(136.851 253.551)" fill="#3f3d56"/>
    <path id="Path_261" data-name="Path 261" d="M368.88,641.882a12.455,12.455,0,0,0,1.05-1.376l-7.409-1.086,8.011.054a10.836,10.836,0,0,0,.256-9.517l-10.739,4.961,9.909-6.483a13.965,13.965,0,0,0-12.34-5.984,13.606,13.606,0,0,0-11.635,7.014,10.946,10.946,0,0,0,1.674,12.414,12.154,12.154,0,0,0-1.539,2.173l9.615,4.444-10.25-3.038a10.972,10.972,0,0,0,2.174,11.277,11.078,11.078,0,0,0,1.454,16.244,14.754,14.754,0,0,0,18.317,0,11.078,11.078,0,0,0,1.454-16.244,10.991,10.991,0,0,0,0-14.848Z" transform="translate(-218.664 -412.501)" fill="#544c9a"/>
    <path id="Path_262" data-name="Path 262" d="M344.78,696.319a11.142,11.142,0,0,0,2.886,7.424,11.078,11.078,0,0,0,1.454,16.244,14.754,14.754,0,0,0,18.317,0,11.078,11.078,0,0,0,1.454-16.244C370.7,701.7,344.78,694.971,344.78,696.319Z" transform="translate(-218.672 -459.513)" opacity="0.1"/>
    <ellipse id="Ellipse_142" data-name="Ellipse 142" cx="37.428" cy="6.403" rx="37.428" ry="6.403" transform="translate(49.657 240.304)" fill="#544c9a"/>
    <ellipse id="Ellipse_143" data-name="Ellipse 143" cx="4.356" cy="5.074" rx="4.356" ry="5.074" transform="translate(83.351 238.913)" fill="#3f3d56"/>
    <ellipse id="Ellipse_144" data-name="Ellipse 144" cx="4.356" cy="5.074" rx="4.356" ry="5.074" transform="translate(83.351 232.71)" fill="#3f3d56"/>
    <ellipse id="Ellipse_145" data-name="Ellipse 145" cx="4.356" cy="5.074" rx="4.356" ry="5.074" transform="translate(83.351 226.506)" fill="#3f3d56"/>
    <ellipse id="Ellipse_146" data-name="Ellipse 146" cx="4.356" cy="5.074" rx="4.356" ry="5.074" transform="translate(83.351 220.302)" fill="#3f3d56"/>
    <ellipse id="Ellipse_147" data-name="Ellipse 147" cx="4.356" cy="5.074" rx="4.356" ry="5.074" transform="translate(83.351 214.102)" fill="#3f3d56"/>
    <ellipse id="Ellipse_148" data-name="Ellipse 148" cx="4.356" cy="5.074" rx="4.356" ry="5.074" transform="translate(83.351 207.899)" fill="#3f3d56"/>
    <ellipse id="Ellipse_149" data-name="Ellipse 149" cx="4.356" cy="5.074" rx="4.356" ry="5.074" transform="translate(83.351 201.695)" fill="#3f3d56"/>
    <path id="Path_263" data-name="Path 263" d="M203.869,443.585a18.991,18.991,0,0,1-1.628-2.126l11.455-1.67-12.384.083a16.745,16.745,0,0,1-.407-14.714l16.617,7.667L202.208,422.8c3.918-6.005,11.275-9.564,19.071-9.226s14.729,4.517,17.972,10.833a16.919,16.919,0,0,1-2.562,19.177,18.255,18.255,0,0,1,2.377,3.386L224.2,453.852l15.848-4.733a16.96,16.96,0,0,1-3.363,17.43c6.732,7.613,5.755,18.551-2.243,25.123a22.816,22.816,0,0,1-28.33,0c-8-6.573-8.975-17.51-2.243-25.123a16.993,16.993,0,0,1,0-22.964Z" transform="translate(-132.474 -279.264)" fill="#544c9a"/>
    <path id="Path_264" data-name="Path 264" d="M241.176,527.7a17.257,17.257,0,0,1-4.478,11.484c6.732,7.613,5.755,18.551-2.243,25.123a22.816,22.816,0,0,1-28.33,0c-8-6.573-8.975-17.51-2.243-25.123C201.082,536.021,241.176,525.616,241.176,527.7Z" transform="translate(-132.483 -351.898)" opacity="0.1"/>
    <ellipse id="Ellipse_150" data-name="Ellipse 150" cx="40.302" cy="7.605" rx="40.302" ry="7.605" transform="translate(318.749 279.775)" fill="#544c9a" opacity="0.1"/>
    <path id="Path_265" data-name="Path 265" d="M877.919,583.617a1.924,1.924,0,0,0,.155.54,3.125,3.125,0,0,0,1.335,1.648,3.92,3.92,0,0,0,1.058.362c2.5.532,5.089.362,7.637.59s5.247.818,7.763.181a2.059,2.059,0,0,0,1.466-.978.539.539,0,0,0,.037-.105,15.171,15.171,0,0,0,5.414-.076,2.067,2.067,0,0,0,1.466-.978,1.977,1.977,0,0,0,.085-.873,15.371,15.371,0,0,0-.676-4.516,11.918,11.918,0,0,0-.7-1.525q-.6-1.141-1.3-2.227l-.142-.235c.342.134.676.279,1.005.435a69.015,69.015,0,0,0,3.293-12.824,40.209,40.209,0,0,0-.5-15.525,19.723,19.723,0,0,1-.407-5.175,48.943,48.943,0,0,1,1.962-10.18q.684-2.535,1.364-5.1l1.946-7.272a14.646,14.646,0,0,0,.729-4.918,11.619,11.619,0,0,0-.6-2.673,28.749,28.749,0,0,0-1.71-4.107.852.852,0,0,0,.574-.105.842.842,0,0,0,.256-.453l1.026-3.288a32.166,32.166,0,0,0,1.628-7.015c.224-2.705-.236-5.432-.334-8.127-.126-3.52.354-7.051.1-10.564-.057-.76-.147-1.517-.248-2.271.045-.4.057-.8.069-1.2a12.729,12.729,0,0,0-.769-5.733,8.075,8.075,0,0,0-2.683-3.31c.037-.163.077-.322.114-.485l.855-3.622c.944-4.016,1.9-8.13,1.356-12.212a12.692,12.692,0,0,0-5.626-9.235l-.029-.018-.346-.2-.061-.033c-.106-.058-.216-.112-.326-.163l-.081-.04c-.13-.065-.269-.127-.407-.181a14.079,14.079,0,0,0-3.257-.866l-.448-.062q-.669-.094-1.347-.123h-.452a10.457,10.457,0,0,0-1.348.072,2.931,2.931,0,0,0-.5.072l-.489.091a22.858,22.858,0,0,1-2.947.547c-.187,0-.379.022-.566.025-.566,0-1.132-.033-1.7-.062-.281,0-.566-.022-.847-.022a7.507,7.507,0,0,0-1.4.112,6.248,6.248,0,0,0-2.2.9,8.933,8.933,0,0,0-1.335,1.057,12.435,12.435,0,0,0-.928.992c-.134.159-.265.322-.407.493l-.187.257c-.118.177-.232.362-.338.536a6.5,6.5,0,0,0-.407.84,3.6,3.6,0,0,0-.183,2.35,4.173,4.173,0,0,0,.179.489,8.392,8.392,0,0,0-1.12,4.2,8.922,8.922,0,0,0,6.631,8.453c.468.768,1.038,1.746,1.514,2.694a10.4,10.4,0,0,0-2.6,2.34,5.791,5.791,0,0,0-5.5,3.7,6.031,6.031,0,0,0-.289,2.535,22.921,22.921,0,0,0-.566,5.57c-.069,2.933-.24,5.86-.407,8.789s-.338,5.834-.509,8.753c-.049.837-.1,1.677-.22,2.506-.6.141-.627.869-.558,1.449.187,1.546.493,3.111.688,4.665a6.876,6.876,0,0,0-.167,2.93l.346.138a10.535,10.535,0,0,1-.488,2.959,1.02,1.02,0,0,1-.261.474,1.945,1.945,0,0,1,.541-.119c-.517,1.514-.928,3.064-1.535,4.552-.313.768-.68,1.521-.948,2.307a19.594,19.594,0,0,0-.57,2.267,9.9,9.9,0,0,0-.216,1.333,5.343,5.343,0,0,0,2.145,4.585c0,.3-.024.59-.024.887,0,2.119.35,4.23.265,6.345-.114,2.85-.688,5.548-.7,8.4-.053,7.895,2.381,15.612,5.239,23.033q1.7,4.411,3.6,8.739c.749,1.709,1.6,3.622.79,5.3.273-.1.541-.188.814-.275a7.589,7.589,0,0,1-1.865,2.535,8.288,8.288,0,0,1-4.673,1.967,11.816,11.816,0,0,0-2.536.3A1.89,1.89,0,0,0,877.919,583.617Zm10.405-40.967a32.864,32.864,0,0,1,5-11.545l.024.235a32.659,32.659,0,0,0,.631,3.495,28.979,28.979,0,0,1,1.087,7.352,37.325,37.325,0,0,0,.513,7.794,11.241,11.241,0,0,0,.814,2.948,14.814,14.814,0,0,1,.814,1.68,7.208,7.208,0,0,1,.326,2.082,66.819,66.819,0,0,1-1.189,17.344c-.281,0-.46.04-.464.072a7.309,7.309,0,0,1-1.111,2.774l-.049-.08c-.1-.152-.2-.326-.305-.5l.338.047c-.932-1.789-.847-3.875-.887-5.867a48.267,48.267,0,0,0-.924-8.058,43.23,43.23,0,0,0-4.132-11.654,8.384,8.384,0,0,1-.814-2.455A14.737,14.737,0,0,1,888.324,542.651Zm16.792-43.1a6.4,6.4,0,0,0-.493-.529c-.407-.388-.9-.837-.773-1.365a1.3,1.3,0,0,1,.342-.558,8.463,8.463,0,0,1,1.083-1.01l.13-.1q-.147,1.771-.289,3.553Z" transform="translate(-533.829 -295.361)" fill="url(#linear-gradient)"/>
    <path id="Path_266" data-name="Path 266" d="M950.8,534l.448,3.075c.151,1.043.3,2.082.383,3.129.273,3.484-.232,6.982-.1,10.473.106,2.687.586,5.371.354,8.054a30.962,30.962,0,0,1-1.722,6.953l-1.075,3.259a.837.837,0,0,1-.269.449,1.05,1.05,0,0,1-.688.1l-4.771-.362a36.725,36.725,0,0,0,.814-3.813c.13-1,.208-2.006.289-3.013.252-3.136.541-6.272.814-9.416l.509-5.5a37.24,37.24,0,0,1,1.115-7.113A13.8,13.8,0,0,1,950.8,534Z" transform="translate(-573.578 -356.091)" fill="#544c9a"/>
    <path id="Path_267" data-name="Path 267" d="M950.8,534l.448,3.075c.151,1.043.3,2.082.383,3.129.273,3.484-.232,6.982-.1,10.473.106,2.687.586,5.371.354,8.054a30.962,30.962,0,0,1-1.722,6.953l-1.075,3.259a.837.837,0,0,1-.269.449,1.05,1.05,0,0,1-.688.1l-4.771-.362a36.725,36.725,0,0,0,.814-3.813c.13-1,.208-2.006.289-3.013.252-3.136.541-6.272.814-9.416l.509-5.5a37.24,37.24,0,0,1,1.115-7.113A13.8,13.8,0,0,1,950.8,534Z" transform="translate(-573.578 -356.091)" opacity="0.1"/>
    <path id="Path_268" data-name="Path 268" d="M913.038,816.333a12.275,12.275,0,0,1,.733,1.514,14.63,14.63,0,0,1,.708,4.476,1.945,1.945,0,0,1-.089.866,2.128,2.128,0,0,1-1.543.967c-2.642.634-5.427.04-8.142-.177s-5.4-.058-8.02-.583a4.443,4.443,0,0,1-1.111-.344,3.156,3.156,0,0,1-1.4-1.63,1.947,1.947,0,0,1-.159-.536c-.086-.8.692-1.485,1.539-1.746a12.969,12.969,0,0,1,2.662-.3,8.041,8.041,0,0,0,7.425-6.233,20.7,20.7,0,0,1,4.885.156,3.714,3.714,0,0,1,1.168,1.365Q912.411,815.2,913.038,816.333Z" transform="translate(-544.314 -533.745)" fill="#a26565"/>
    <path id="Path_269" data-name="Path 269" d="M913.038,816.333a12.275,12.275,0,0,1,.733,1.514,14.63,14.63,0,0,1,.708,4.476,1.945,1.945,0,0,1-.089.866,2.128,2.128,0,0,1-1.543.967c-2.642.634-5.427.04-8.142-.177s-5.4-.058-8.02-.583a4.443,4.443,0,0,1-1.111-.344,3.156,3.156,0,0,1-1.4-1.63,1.947,1.947,0,0,1-.159-.536c-.086-.8.692-1.485,1.539-1.746a12.969,12.969,0,0,1,2.662-.3,8.041,8.041,0,0,0,7.425-6.233,20.7,20.7,0,0,1,4.885.156,3.714,3.714,0,0,1,1.168,1.365Q912.411,815.2,913.038,816.333Z" transform="translate(-544.314 -533.745)" opacity="0.1"/>
    <path id="Path_270" data-name="Path 270" d="M895.194,819.48a11.642,11.642,0,0,1,.733,1.51,14.47,14.47,0,0,1,.708,4.476,1.891,1.891,0,0,1-.09.866,2.126,2.126,0,0,1-1.539.971c-2.642.63-5.431.036-8.142-.181s-5.4-.058-8.02-.583a4.242,4.242,0,0,1-1.111-.362,3.141,3.141,0,0,1-1.4-1.63,1.944,1.944,0,0,1-.159-.536c-.086-.793.692-1.485,1.539-1.746a13.23,13.23,0,0,1,2.662-.3,8.046,8.046,0,0,0,7.425-6.229,20.681,20.681,0,0,1,4.885.152,3.689,3.689,0,0,1,1.172,1.365C894.319,817.988,894.774,818.727,895.194,819.48Z" transform="translate(-533.737 -535.739)" fill="#a26565"/>
    <path id="Path_271" data-name="Path 271" d="M876.379,655.148c-.057,7.826,2.5,15.475,5.5,22.816q1.783,4.368,3.782,8.659c.79,1.695,1.681,3.578.835,5.251a15.908,15.908,0,0,1,7.494-.931c-.977-1.775-.883-3.839-.928-5.794a45.421,45.421,0,0,0-.961-7.985,41.285,41.285,0,0,0-4.393-11.549,8.11,8.11,0,0,1-.851-2.434,13.876,13.876,0,0,1,.362-5.617,31.534,31.534,0,0,1,5.251-11.444l.024.232a30.367,30.367,0,0,0,.659,3.466A27.2,27.2,0,0,1,894.3,657.1a35.137,35.137,0,0,0,.537,7.725,10.73,10.73,0,0,0,.875,2.919,18.355,18.355,0,0,1,.867,1.67,6.829,6.829,0,0,1,.342,2.064,62.455,62.455,0,0,1-1.352,17.651,13.9,13.9,0,0,1,6.562,1.329,65.4,65.4,0,0,0,3.46-12.712,37.669,37.669,0,0,0-.529-15.377,18.235,18.235,0,0,1-.427-5.124,46.115,46.115,0,0,1,2.06-10.093l1.433-5.07q1.018-3.622,2.035-7.21a13.764,13.764,0,0,0,.765-4.875,10.954,10.954,0,0,0-.635-2.651,28.374,28.374,0,0,0-4.506-8.2c-7.845.391-15.783-.261-23.611-.8a1.753,1.753,0,0,0-1.107.167,1.329,1.329,0,0,0-.448.9l-2.943,14.848a33.373,33.373,0,0,0-.814,6.265c0,2.1.366,4.194.277,6.291C877,649.647,876.395,652.319,876.379,655.148Z" transform="translate(-533.864 -409.879)" fill="#454b69"/>
    <path id="Path_272" data-name="Path 272" d="M916,675.253a30.383,30.383,0,0,0,.659,3.466c1.706-2.626,3.546-5.186,5.117-7.877.407-.692.79-1.394,1.176-2.1l1.16-2.1c.216-.395.432-.789.627-1.191a8.015,8.015,0,0,0,.729-1.811c-.57-.094-1.978,1.275-2.4,1.633a30.726,30.726,0,0,0-2.443,2.4,27.031,27.031,0,0,0-2.589,2.97A13.552,13.552,0,0,0,916,675.253Z" transform="translate(-557.356 -438.78)" opacity="0.1"/>
    <path id="Path_273" data-name="Path 273" d="M899.9,491.2s4.356,6.175,3.55,7.468,13.719-1.148,13.719-1.148-7.91-6.175-7.1-8.76S899.9,491.2,899.9,491.2Z" transform="translate(-547.81 -326.762)" fill="#ee8e9e"/>
    <ellipse id="Ellipse_151" data-name="Ellipse 151" cx="9.847" cy="8.76" rx="9.847" ry="8.76" transform="translate(346.114 148.784)" fill="#ee8e9e"/>
    <path id="Path_274" data-name="Path 274" d="M887.873,506.94a9.868,9.868,0,0,1,4.14-2.973,16.345,16.345,0,0,1,2.943-.645l3.928-.616a5.6,5.6,0,0,1,2.886.058,4.741,4.741,0,0,1,1.221.8,16.2,16.2,0,0,0,4.4,3.013c.468.177.957.308,1.425.485a7.736,7.736,0,0,1,4.16,3.984,11.936,11.936,0,0,1,.814,5.679,8.918,8.918,0,0,1-.224,2,11.987,11.987,0,0,1-.745,1.833,30.875,30.875,0,0,0-1.352,3.882q-1.527,5.2-2.54,10.5a3.626,3.626,0,0,1-.493,1.449,5.606,5.606,0,0,1-1.36,1.162,8.1,8.1,0,0,0-1.136,1,1.287,1.287,0,0,0-.362.55c-.126.522.407.971.814,1.351a6.409,6.409,0,0,1,1.84,2.85,1.068,1.068,0,0,1,.293.786,1.238,1.238,0,0,0-.094.623,1.4,1.4,0,0,0,.37.511,1.77,1.77,0,0,1,.407,1.55,30.516,30.516,0,0,1-9.64,2.006c-.814.036-1.628.036-2.443.123-.578.065-1.148.17-1.726.232a20.93,20.93,0,0,1-2.524.058c-4.384-.08-8.895-.177-12.921-1.724-.379-1.836.44-3.708.953-5.519.814-2.9,1.018-5.863,1.628-8.786.407-2,1.018-3.962,1.364-5.972a12.764,12.764,0,0,0-.2-6.048c-.55-1.731-.716-3.5-1.286-5.226a8.022,8.022,0,0,1-.326-5.309A6.105,6.105,0,0,1,887.873,506.94Z" transform="translate(-535.929 -336.028)" fill="#544c9a"/>
    <path id="Path_275" data-name="Path 275" d="M887.473,450.49c-.48-1.554.464-3.172,1.588-4.436a8.511,8.511,0,0,1,4.686-2.923c1.551-.279,3.159.058,4.738-.054,1.4-.1,2.74-.547,4.128-.724a14.674,14.674,0,0,1,3.778.127,15.754,15.754,0,0,1,3.44.855,12.17,12.17,0,0,1,7.218,9.778c.57,4.045-.407,8.123-1.421,12.1l-.9,3.6a64.307,64.307,0,0,0-2.121,11.343,21.689,21.689,0,0,0,1.987,11.263,25.392,25.392,0,0,1-12.51-12.6c-.635-1.481-1.107-3.02-1.816-4.476-.607-1.253-1.384-2.441-1.921-3.719a10.89,10.89,0,0,1-.859-4.516c.033-1.159.248-2.311.212-3.469a4.48,4.48,0,0,0-1.27-3.205,11.367,11.367,0,0,0-2.964-1.568,12.119,12.119,0,0,1-4.148-3.078,3.172,3.172,0,0,1-.847-1.941A22.975,22.975,0,0,0,887.473,450.49Z" transform="translate(-540.366 -297.591)" fill="#454b69"/>
    <path id="Path_276" data-name="Path 276" d="M878.348,638.157a20.694,20.694,0,0,1-.138,2.705c-.167.666-.554,1.268-.782,1.919a8.184,8.184,0,0,0-.346,2.307c-.033.652.024,1.449.676,1.753.285.134.627.134.924.25s.55.431.379.677-.464.206-.733.254-.558.293-.407.492a.474.474,0,0,0,.236.134,3.052,3.052,0,0,1,.765.326.664.664,0,0,1,.313.663.424.424,0,0,1-.255.275.512.512,0,0,1-.4-.007,1.648,1.648,0,0,1,.191.724,4.086,4.086,0,0,1-3.188-.626,12.308,12.308,0,0,1-1.221-.7,5.211,5.211,0,0,1-2.377-4.625,9.7,9.7,0,0,1,.232-1.322,18.077,18.077,0,0,1,.6-2.249c.281-.779.664-1.521.993-2.285.7-1.626,1.152-3.328,1.787-4.976a.749.749,0,0,1,.305-.431.953.953,0,0,1,.452-.076,8.3,8.3,0,0,1,2.121.174c.407.109,1.1.362,1.295.724s-.114.666-.3.967A7.519,7.519,0,0,0,878.348,638.157Z" transform="translate(-531.253 -419.452)" fill="#ee8e9e"/>
    <path id="Path_277" data-name="Path 277" d="M883.707,525.14a2.686,2.686,0,0,0-.521.645c-1.4,2.263-1.417,4.969-1.482,7.551-.073,2.9-.252,5.794-.432,8.71l-.533,8.692c-.053.829-.1,1.659-.236,2.481-.627.141-.651.866-.582,1.449.452,3.542,1.571,7.189.407,10.6a1.03,1.03,0,0,1-.273.471,3.558,3.558,0,0,1,1.82-.022c.582.109,1.144.3,1.73.42a3.942,3.942,0,0,1,2.084.724,32.776,32.776,0,0,0,1.364-4.679,16.3,16.3,0,0,1,1.014-4.281,17.469,17.469,0,0,1,.949-1.557,31.575,31.575,0,0,0,3.362-8.789,11.45,11.45,0,0,0,.261-4.368,13.406,13.406,0,0,1-.2-2.01,13.842,13.842,0,0,1,.313-2.115,12.677,12.677,0,0,0-.476-6.124,15.561,15.561,0,0,0-2.443-5.334C888.535,526.049,885.869,525.165,883.707,525.14Z" transform="translate(-535.949 -350.44)" opacity="0.1"/>
    <path id="Path_278" data-name="Path 278" d="M882.52,524.34a2.706,2.706,0,0,0-.521.648c-1.4,2.26-1.417,4.969-1.482,7.551-.073,2.9-.252,5.794-.432,8.692l-.533,8.692c-.053.829-.1,1.659-.236,2.481-.627.141-.651.866-.578,1.449.448,3.542,1.567,7.185.407,10.6a1.03,1.03,0,0,1-.273.471,3.557,3.557,0,0,1,1.82-.022c.582.109,1.144.3,1.73.416a3.973,3.973,0,0,1,2.084.724,32.431,32.431,0,0,0,1.364-4.683,16.279,16.279,0,0,1,1.014-4.277,16.982,16.982,0,0,1,.949-1.557,31.473,31.473,0,0,0,3.362-8.793,11.447,11.447,0,0,0,.26-4.368,8.406,8.406,0,0,1,.11-4.125,12.66,12.66,0,0,0-.476-6.12,15.562,15.562,0,0,0-2.443-5.335C887.352,525.231,884.681,524.369,882.52,524.34Z" transform="translate(-535.246 -349.93)" fill="#544c9a"/>
    <g id="Group_11" data-name="Group 11" transform="translate(346.979 144.694)" opacity="0.1">
      <path id="Path_279" data-name="Path 279" d="M889.061,446.053a8.511,8.511,0,0,1,4.686-2.923c1.551-.279,3.159.058,4.739-.054,1.4-.1,2.74-.547,4.128-.724a14.675,14.675,0,0,1,3.778.127,15.754,15.754,0,0,1,3.44.855,10.618,10.618,0,0,1,1.7.858,15.928,15.928,0,0,0-3.041-.724,14.622,14.622,0,0,0-3.774-.127c-1.392.159-2.732.6-4.132.7-1.575.112-3.183-.221-4.739.054a8.464,8.464,0,0,0-4.682,2.926c-1.128,1.26-2.068,2.879-1.592,4.436a23.081,23.081,0,0,1,1,2.379,3.158,3.158,0,0,0,.851,1.941,11.933,11.933,0,0,0,2.988,2.473c-.313-.13-.635-.261-.94-.4a12.118,12.118,0,0,1-4.148-3.078,3.172,3.172,0,0,1-.847-1.941,23.329,23.329,0,0,0-1-2.379C886.993,448.936,887.937,447.317,889.061,446.053Z" transform="translate(-887.345 -442.285)"/>
      <path id="Path_280" data-name="Path 280" d="M908.859,488.954a3.971,3.971,0,0,0-.549-.424,8.669,8.669,0,0,1,2.65,1.449,4.525,4.525,0,0,1,1.27,3.205c.049,1.159-.183,2.311-.212,3.466a10.907,10.907,0,0,0,.859,4.52c.537,1.278,1.315,2.463,1.922,3.719.7,1.449,1.176,2.991,1.812,4.473a25.034,25.034,0,0,0,10.344,11.451c.024.047.045.1.069.145a25.393,25.393,0,0,1-12.51-12.6c-.635-1.481-1.107-3.02-1.816-4.476-.607-1.253-1.384-2.441-1.921-3.719a10.889,10.889,0,0,1-.859-4.516c.033-1.159.248-2.311.212-3.469A4.51,4.51,0,0,0,908.859,488.954Z" transform="translate(-899.775 -471.782)"/>
    </g>
    <rect id="Rectangle_208" data-name="Rectangle 208" width="33.381" height="21.005" rx="9.15" transform="translate(50.072 44.093)" fill="#544c9a" opacity="0.1"/>
    <rect id="Rectangle_209" data-name="Rectangle 209" width="33.381" height="21.005" rx="9.15" transform="translate(83.453 81.033)" fill="#544c9a" opacity="0.1"/>
    <rect id="Rectangle_210" data-name="Rectangle 210" width="33.381" height="21.005" rx="9.15" transform="translate(361.086 47.715)" fill="#544c9a" opacity="0.1"/>
  </g>
</svg>
