<svg xmlns="http://www.w3.org/2000/svg" xmlns:xlink="http://www.w3.org/1999/xlink" width="460" height="377" viewBox="0 0 460 377">
  <defs>
    <linearGradient id="linear-gradient" x1="-6.735" y1="1" x2="-6.735" gradientUnits="objectBoundingBox">
      <stop offset="0" stop-color="gray" stop-opacity="0.251"/>
      <stop offset="0.54" stop-color="gray" stop-opacity="0.122"/>
      <stop offset="1" stop-color="gray" stop-opacity="0.102"/>
    </linearGradient>
  </defs>
  <g id="smart_home" transform="translate(-0.001 0.015)">
    <path id="Path_507" data-name="Path 507" d="M302.269,100.421c-29.489-1.162-57.578-11.987-84.4-23.831S164.483,51.635,135.7,45.355c-18.514-4.036-39.687-4.628-54.6,6.678-14.358,10.858-18.995,29.62-21.486,47-1.877,13.089-2.98,26.843,2.158,39.113,3.57,8.5,9.908,15.653,14.293,23.8,15.245,28.352,4.478,63.309-12.058,90.985-7.735,12.987-16.743,25.372-22.724,39.2s-8.748,29.657-3.517,43.755c5.19,13.977,17.55,24.455,30.943,31.86,27.2,15,59.247,19.29,90.5,21.72,69.18,5.378,138.731,3.05,208.095.717,25.671-.865,51.452-1.74,76.707-6.253,14.02-2.5,28.5-6.479,38.673-16.083,12.925-12.191,16.129-32.832,7.466-48.133-14.525-25.635-54.692-32-64.845-59.518-5.589-15.143.151-32.013,8.272-46.06C451,184,480.2,157.565,481.742,123.122c1.058-23.655-12.982-47.346-34.688-58.537C424.3,52.852,392.748,54.329,375.96,73.749,358.683,93.752,328.306,101.448,302.269,100.421Z" transform="translate(-35 -42.72)" fill="#6c63ff" opacity="0.1"/>
    <rect id="Rectangle_345" data-name="Rectangle 345" width="209.243" height="286.471" rx="19.8" transform="translate(135.316 62.042)" fill="#464353"/>
    <rect id="Rectangle_346" data-name="Rectangle 346" width="173.142" height="228.674" transform="translate(153.366 89.196)" fill="#fff" stroke="#fff" stroke-miterlimit="10" stroke-width="1" opacity="0.1"/>
    <ellipse id="Ellipse_295" data-name="Ellipse 295" cx="7.368" cy="8.377" rx="7.368" ry="8.377" transform="translate(232.569 326.316)" fill="#fff"/>
    <path id="Path_508" data-name="Path 508" d="M619.36,212.344a3.989,3.989,0,1,1,3.5-3.948,4.249,4.249,0,0,1-1.031,2.8A3.283,3.283,0,0,1,619.36,212.344Z" transform="translate(-379.423 -129.596)" fill="#fff"/>
    <path id="Path_509" data-name="Path 509" d="M619.034,204.393a3.3,3.3,0,0,1,3.044,2.289,4.106,4.106,0,0,1-.706,4.071,3,3,0,0,1-3.581.8,3.768,3.768,0,0,1-2.014-3.461,3.528,3.528,0,0,1,3.257-3.7m0-.463a3.713,3.713,0,0,0-3.406,2.591,4.614,4.614,0,0,0,.808,4.567,3.366,3.366,0,0,0,4.022.893,4.236,4.236,0,0,0,2.26-3.886A3.957,3.957,0,0,0,619.034,203.93Z" transform="translate(-379.097 -129.327)" fill="#fff"/>
    <path id="Path_510" data-name="Path 510" d="M604.762,301.842V293.7h5.374v8.146H615.6V289.628h3.493L607.449,277.41,595.81,289.628H599.3v12.214Z" transform="translate(-367.511 -168.799)" fill="#6c63ff"/>
    <path id="Path_511" data-name="Path 511" d="M469.146,399.626v-8.794a1.656,1.656,0,1,0-3.285,0v8.794a4.042,4.042,0,0,0-1.607,4.3,3.277,3.277,0,0,0,6.5,0A4.042,4.042,0,0,0,469.146,399.626Zm-2.21-8.794a.56.56,0,1,1,1.12,0V392.8h-1.12Z" transform="translate(-289.445 -228.724)" fill="#fff" stroke="#fff" stroke-miterlimit="10" stroke-width="1"/>
    <rect id="Rectangle_347" data-name="Rectangle 347" width="97.701" height="1.236" transform="translate(200.808 168.495)" fill="#6c63ff" opacity="0.3"/>
    <ellipse id="Ellipse_296" data-name="Ellipse 296" cx="2.577" cy="2.93" rx="2.577" ry="2.93" transform="translate(228.401 166.185)" fill="#6c63ff"/>
    <rect id="Rectangle_348" data-name="Rectangle 348" width="30.169" height="1.236" transform="translate(200.808 168.495)" fill="#6c63ff"/>
    <path id="Path_512" data-name="Path 512" d="M462.394,490.132a.6.6,0,0,0-1.193-.083l-.594,3.675a1.611,1.611,0,0,0-.024.282,1.231,1.231,0,1,0,2.443,0,1.568,1.568,0,0,0-.041-.338Zm4.624,1.578a1.608,1.608,0,0,0-.2-.157l-2.41-1.888a.445.445,0,0,0-.623.037.509.509,0,0,0-.065.611l1.856,2.615a1.17,1.17,0,0,0,.122.171.916.916,0,0,0,1.315,0,1.012,1.012,0,0,0,0-1.388Zm1.628-2.7-2.259-.093a.27.27,0,0,0-.3.241.342.342,0,0,0,.179.352h0l2.186.7a.5.5,0,0,0,.672-.463c0-.463-.118-.7-.476-.745Zm-11.227.5a.342.342,0,0,0,.179-.352.273.273,0,0,0-.305-.241l-2.255.093c-.362.046-.468.273-.468.741a.5.5,0,0,0,.659.463l2.186-.708Zm1.844.148-2.41,1.884a1.326,1.326,0,0,0-.2.157,1.012,1.012,0,0,0,0,1.388.888.888,0,0,0,1.311,0,.786.786,0,0,0,.126-.167l1.856-2.606a.509.509,0,0,0-.065-.611.449.449,0,0,0-.639-.046Zm2.581-12.2a5.323,5.323,0,0,1,1.058,2.559,2.014,2.014,0,0,1-.421,1.4,1.548,1.548,0,0,1-1.187.6,1.62,1.62,0,0,1-1.225-.59,2.1,2.1,0,0,1-.484-1.409v-.273a8.258,8.258,0,0,0-1.523,4.846,3.8,3.8,0,1,0,7.539,0c0-2.888-1.254-6.271-3.774-7.132Zm-.134,9.812a1.7,1.7,0,0,1-.2-3.355,3.579,3.579,0,0,0,2.182-1.388,8.481,8.481,0,0,1,.277,2.166,2.433,2.433,0,0,1-2.263,2.573Z" transform="translate(-283.768 -276.262)" fill="#fff" stroke="#fff" stroke-miterlimit="10" stroke-width="1"/>
    <rect id="Rectangle_349" data-name="Rectangle 349" width="97.701" height="1.236" transform="translate(200.808 209.487)" fill="#6c63ff" opacity="0.3"/>
    <ellipse id="Ellipse_297" data-name="Ellipse 297" cx="2.577" cy="2.93" rx="2.577" ry="2.93" transform="translate(251.197 207.177)" fill="#6c63ff"/>
    <rect id="Rectangle_350" data-name="Rectangle 350" width="53.214" height="1.236" transform="translate(200.808 209.487)" fill="#6c63ff"/>
    <path id="Path_513" data-name="Path 513" d="M462.827,582.627a.757.757,0,0,0,.7.8H466.6a.757.757,0,0,0,.7-.8v-.713h-4.478Zm2.239-14.477a5.183,5.183,0,0,0-5.036,5.332,5.446,5.446,0,0,0,2.149,4.4V579.6a.842.842,0,0,0,.221.552.651.651,0,0,0,.5.212h4.331a.651.651,0,0,0,.5-.212.843.843,0,0,0,.221-.552v-1.726a5.435,5.435,0,0,0,2.154-4.4,5.186,5.186,0,0,0-5.04-5.332Z" transform="translate(-287.005 -324.979)" fill="#fff" stroke="#fff" stroke-miterlimit="10" stroke-width="1"/>
    <rect id="Rectangle_351" data-name="Rectangle 351" width="97.701" height="1.236" transform="translate(200.808 250.192)" fill="#6c63ff" opacity="0.3"/>
    <ellipse id="Ellipse_298" data-name="Ellipse 298" cx="2.577" cy="2.93" rx="2.577" ry="2.93" transform="translate(276.437 247.877)" fill="#6c63ff"/>
    <rect id="Rectangle_352" data-name="Rectangle 352" width="78.454" height="1.236" transform="translate(200.808 250.192)" fill="#6c63ff"/>
    <path id="Path_514" data-name="Path 514" d="M464.15,651.85v8.9h2.239v7.637l4.478-10.182h-2.239l2.239-6.359Z" transform="translate(-289.448 -369.941)" fill="#fff" stroke="#fff" stroke-miterlimit="10" stroke-width="1"/>
    <rect id="Rectangle_353" data-name="Rectangle 353" width="97.701" height="1.236" transform="translate(200.808 289.563)" fill="#6c63ff" opacity="0.3"/>
    <ellipse id="Ellipse_299" data-name="Ellipse 299" cx="2.577" cy="2.93" rx="2.577" ry="2.93" transform="translate(228.401 287.249)" fill="#6c63ff"/>
    <rect id="Rectangle_354" data-name="Rectangle 354" width="30.169" height="1.236" transform="translate(200.808 289.563)" fill="#6c63ff"/>
    <ellipse id="Ellipse_300" data-name="Ellipse 300" cx="24.209" cy="5.295" rx="24.209" ry="5.295" transform="translate(115.861 355.945)" fill="#6c63ff"/>
    <ellipse id="Ellipse_301" data-name="Ellipse 301" cx="2.817" cy="4.193" rx="2.817" ry="4.193" transform="translate(136.851 354.798)" fill="#3f3d56"/>
    <ellipse id="Ellipse_302" data-name="Ellipse 302" cx="2.817" cy="4.193" rx="2.817" ry="4.193" transform="translate(136.851 349.67)" fill="#3f3d56"/>
    <ellipse id="Ellipse_303" data-name="Ellipse 303" cx="2.817" cy="4.193" rx="2.817" ry="4.193" transform="translate(136.851 344.546)" fill="#3f3d56"/>
    <ellipse id="Ellipse_304" data-name="Ellipse 304" cx="2.817" cy="4.193" rx="2.817" ry="4.193" transform="translate(136.851 339.418)" fill="#3f3d56"/>
    <ellipse id="Ellipse_305" data-name="Ellipse 305" cx="2.817" cy="4.193" rx="2.817" ry="4.193" transform="translate(136.851 334.29)" fill="#3f3d56"/>
    <ellipse id="Ellipse_306" data-name="Ellipse 306" cx="2.817" cy="4.193" rx="2.817" ry="4.193" transform="translate(136.851 329.162)" fill="#3f3d56"/>
    <ellipse id="Ellipse_307" data-name="Ellipse 307" cx="2.817" cy="4.193" rx="2.817" ry="4.193" transform="translate(136.851 324.034)" fill="#3f3d56"/>
    <path id="Path_515" data-name="Path 515" d="M368.88,647.287a16.149,16.149,0,0,0,1.05-1.759l-7.409-1.388,8.011.069a17.342,17.342,0,0,0,.256-12.163l-10.739,6.341,9.909-8.284c-2.53-4.974-7.292-7.925-12.34-7.648s-9.537,3.735-11.634,8.963a17.088,17.088,0,0,0,1.674,15.864,16.117,16.117,0,0,0-1.539,2.777l9.615,5.679-10.25-3.883a17.068,17.068,0,0,0,2.174,14.412,16.892,16.892,0,0,0,1.454,20.759,12.334,12.334,0,0,0,18.317,0,16.892,16.892,0,0,0,1.454-20.759,17.036,17.036,0,0,0,0-18.976Z" transform="translate(-218.664 -354.142)" fill="#6c63ff"/>
    <path id="Path_516" data-name="Path 516" d="M344.78,696.368a16.648,16.648,0,0,0,2.886,9.488,16.892,16.892,0,0,0,1.454,20.759,12.334,12.334,0,0,0,18.317,0,16.892,16.892,0,0,0,1.454-20.759C370.7,703.245,344.78,694.646,344.78,696.368Z" transform="translate(-218.672 -393.734)" opacity="0.1"/>
    <ellipse id="Ellipse_308" data-name="Ellipse 308" cx="37.428" cy="8.183" rx="37.428" ry="8.183" transform="translate(49.657 307.104)" fill="#6c63ff"/>
    <ellipse id="Ellipse_309" data-name="Ellipse 309" cx="4.356" cy="6.484" rx="4.356" ry="6.484" transform="translate(83.351 305.327)" fill="#3f3d56"/>
    <ellipse id="Ellipse_310" data-name="Ellipse 310" cx="4.356" cy="6.484" rx="4.356" ry="6.484" transform="translate(83.351 297.399)" fill="#3f3d56"/>
    <ellipse id="Ellipse_311" data-name="Ellipse 311" cx="4.356" cy="6.484" rx="4.356" ry="6.484" transform="translate(83.351 289.471)" fill="#3f3d56"/>
    <ellipse id="Ellipse_312" data-name="Ellipse 312" cx="4.356" cy="6.484" rx="4.356" ry="6.484" transform="translate(83.351 281.543)" fill="#3f3d56"/>
    <ellipse id="Ellipse_313" data-name="Ellipse 313" cx="4.356" cy="6.484" rx="4.356" ry="6.484" transform="translate(83.351 273.619)" fill="#3f3d56"/>
    <ellipse id="Ellipse_314" data-name="Ellipse 314" cx="4.356" cy="6.484" rx="4.356" ry="6.484" transform="translate(83.351 265.691)" fill="#3f3d56"/>
    <ellipse id="Ellipse_315" data-name="Ellipse 315" cx="4.356" cy="6.484" rx="4.356" ry="6.484" transform="translate(83.351 257.763)" fill="#3f3d56"/>
    <path id="Path_517" data-name="Path 517" d="M203.869,451.933a24.587,24.587,0,0,1-1.628-2.717l11.455-2.134-12.384.106a26.8,26.8,0,0,1-.407-18.8l16.617,9.8-15.315-12.811c3.918-7.674,11.275-12.223,19.071-11.791s14.729,5.773,17.972,13.844a26.42,26.42,0,0,1-2.562,24.508,24.264,24.264,0,0,1,2.377,4.327L224.2,465.054,240.051,459a26.381,26.381,0,0,1-3.363,22.275c6.732,9.73,5.755,23.707-2.243,32.107s-20.331,8.4-28.33,0-8.975-22.377-2.243-32.107a26.34,26.34,0,0,1,0-29.347Z" transform="translate(-132.474 -241.933)" fill="#6c63ff"/>
    <path id="Path_518" data-name="Path 518" d="M241.176,527.775a25.775,25.775,0,0,1-4.478,14.676c6.732,9.729,5.755,23.707-2.243,32.107s-20.331,8.4-28.33,0-8.975-22.377-2.243-32.107C201.082,538.41,241.176,525.114,241.176,527.775Z" transform="translate(-132.483 -303.103)" opacity="0.1"/>
    <ellipse id="Ellipse_316" data-name="Ellipse 316" cx="40.302" cy="9.719" rx="40.302" ry="9.719" transform="translate(318.749 357.547)" fill="#6c63ff" opacity="0.1"/>
    <path id="Path_519" data-name="Path 519" d="M877.919,623.875a3,3,0,0,0,.155.69,3.956,3.956,0,0,0,1.335,2.106,3.382,3.382,0,0,0,1.058.463c2.5.68,5.089.463,7.637.754s5.247,1.046,7.763.231a2.121,2.121,0,0,0,1.465-1.25.819.819,0,0,0,.037-.134,11.936,11.936,0,0,0,5.414-.1,2.129,2.129,0,0,0,1.465-1.25,3.192,3.192,0,0,0,.085-1.115,24.73,24.73,0,0,0-.676-5.771,17.515,17.515,0,0,0-.7-1.948q-.6-1.458-1.3-2.846l-.143-.3c.342.171.676.356,1.005.555a108.6,108.6,0,0,0,3.293-16.388,65.391,65.391,0,0,0-.5-19.841,32.055,32.055,0,0,1-.407-6.614,78.207,78.207,0,0,1,1.962-13.01q.684-3.24,1.364-6.521l1.946-9.293a23.556,23.556,0,0,0,.729-6.285,18.426,18.426,0,0,0-.6-3.416,42.939,42.939,0,0,0-1.71-5.248.7.7,0,0,0,.574-.134,1.177,1.177,0,0,0,.256-.579l1.026-4.2a50.917,50.917,0,0,0,1.628-8.965c.224-3.457-.236-6.942-.334-10.386-.126-4.5.354-9.011.1-13.5-.057-.972-.146-1.939-.248-2.9.045-.509.057-1.018.069-1.527a20.473,20.473,0,0,0-.769-7.326,10.241,10.241,0,0,0-2.683-4.23c.037-.208.077-.412.114-.62l.855-4.628c.944-5.133,1.9-10.39,1.356-15.606-.484-4.628-2.394-9.33-5.626-11.8l-.029-.023-.346-.25-.061-.042c-.106-.074-.216-.143-.326-.208l-.081-.051a4.537,4.537,0,0,0-.407-.231,11.736,11.736,0,0,0-3.257-1.106l-.448-.079a11.038,11.038,0,0,0-1.347-.157h-.452a8.213,8.213,0,0,0-1.348.093,2.344,2.344,0,0,0-.5.093l-.489.116a18.47,18.47,0,0,1-2.947.7c-.187,0-.379.028-.566.032-.566,0-1.132-.042-1.7-.079-.281,0-.566-.028-.847-.028a5.919,5.919,0,0,0-1.4.143,5.591,5.591,0,0,0-2.2,1.152,9.694,9.694,0,0,0-1.335,1.351,15.066,15.066,0,0,0-.928,1.268c-.134.2-.265.412-.407.629l-.187.329c-.118.227-.232.463-.338.685a9.45,9.45,0,0,0-.407,1.074,5.8,5.8,0,0,0-.183,3,6.352,6.352,0,0,0,.179.625,13.1,13.1,0,0,0-1.119,5.364c0,5.091,2.793,9.386,6.631,10.8.468.981,1.038,2.231,1.514,3.443a11.824,11.824,0,0,0-2.6,2.99c-2.385-.153-4.739,2.009-5.5,4.735a9.731,9.731,0,0,0-.289,3.24,37.149,37.149,0,0,0-.566,7.118c-.069,3.749-.24,7.488-.407,11.233s-.338,7.456-.509,11.186c-.049,1.069-.1,2.143-.22,3.2-.6.181-.627,1.111-.558,1.851.187,1.976.493,3.976.688,5.961a11.16,11.16,0,0,0-.167,3.744l.346.176a16.919,16.919,0,0,1-.489,3.781,1.439,1.439,0,0,1-.26.606,1.593,1.593,0,0,1,.541-.153c-.517,1.935-.928,3.915-1.535,5.818-.313.981-.68,1.944-.949,2.948q-.353,1.43-.57,2.9a15.941,15.941,0,0,0-.216,1.7,7.694,7.694,0,0,0,2.145,5.859c0,.379-.024.754-.024,1.134,0,2.707.35,5.406.265,8.109-.114,3.642-.688,7.09-.7,10.737-.053,10.089,2.381,19.952,5.239,29.435q1.7,5.637,3.6,11.168c.749,2.184,1.6,4.628.79,6.771.273-.125.541-.241.814-.352a9.931,9.931,0,0,1-1.864,3.24,7.5,7.5,0,0,1-4.673,2.513,9.385,9.385,0,0,0-2.536.389A2.352,2.352,0,0,0,877.919,623.875Zm10.405-52.354a48.68,48.68,0,0,1,5-14.755l.024.3c.13,1.49.37,2.98.631,4.466a46.67,46.67,0,0,1,1.087,9.4,60.721,60.721,0,0,0,.513,9.96,17.581,17.581,0,0,0,.814,3.767,21.5,21.5,0,0,1,.814,2.148,11.578,11.578,0,0,1,.326,2.661,108.663,108.663,0,0,1-1.189,22.164c-.281,0-.46.051-.464.093a10.957,10.957,0,0,1-1.111,3.545l-.049-.1c-.1-.194-.2-.417-.305-.639l.338.06c-.932-2.286-.847-4.952-.887-7.5a78.139,78.139,0,0,0-.924-10.3,65.945,65.945,0,0,0-4.132-14.894,12.886,12.886,0,0,1-.814-3.138A23.931,23.931,0,0,1,888.324,571.521Zm16.792-55.075a7.73,7.73,0,0,0-.493-.676,2.283,2.283,0,0,1-.773-1.745,1.791,1.791,0,0,1,.342-.713,9.771,9.771,0,0,1,1.083-1.291l.13-.13q-.146,2.263-.289,4.54Z" transform="translate(-533.829 -255.489)" fill="url(#linear-gradient)"/>
    <path id="Path_520" data-name="Path 520" d="M950.8,534l.448,3.929c.151,1.333.3,2.661.383,4,.273,4.452-.232,8.923-.1,13.385.106,3.434.586,6.864.354,10.293a48.82,48.82,0,0,1-1.722,8.886l-1.075,4.165a1.155,1.155,0,0,1-.269.574.851.851,0,0,1-.688.125l-4.771-.463c.305-1.592.643-3.24.814-4.873.13-1.277.208-2.564.289-3.851.252-4.008.541-8.016.814-12.033l.509-7.035a59.9,59.9,0,0,1,1.115-9.09A18.907,18.907,0,0,1,950.8,534Z" transform="translate(-573.578 -306.635)" fill="#6c63ff"/>
    <path id="Path_521" data-name="Path 521" d="M950.8,534l.448,3.929c.151,1.333.3,2.661.383,4,.273,4.452-.232,8.923-.1,13.385.106,3.434.586,6.864.354,10.293a48.82,48.82,0,0,1-1.722,8.886l-1.075,4.165a1.155,1.155,0,0,1-.269.574.851.851,0,0,1-.688.125l-4.771-.463c.305-1.592.643-3.24.814-4.873.13-1.277.208-2.564.289-3.851.252-4.008.541-8.016.814-12.033l.509-7.035a59.9,59.9,0,0,1,1.115-9.09A18.907,18.907,0,0,1,950.8,534Z" transform="translate(-573.578 -306.635)" opacity="0.1"/>
    <path id="Path_522" data-name="Path 522" d="M913.038,817.394a17.855,17.855,0,0,1,.733,1.934,23.5,23.5,0,0,1,.708,5.72,3.142,3.142,0,0,1-.09,1.106,2.153,2.153,0,0,1-1.543,1.236c-2.642.81-5.426.051-8.142-.227s-5.4-.074-8.02-.745a3.78,3.78,0,0,1-1.111-.44,3.917,3.917,0,0,1-1.4-2.083,3.026,3.026,0,0,1-.159-.685,2.334,2.334,0,0,1,1.539-2.231,10.287,10.287,0,0,1,2.662-.384c3.775-.439,6.82-3.706,7.425-7.965a16.245,16.245,0,0,1,4.885.2,4.628,4.628,0,0,1,1.168,1.745Q912.411,815.95,913.038,817.394Z" transform="translate(-544.314 -456.251)" fill="#a26565"/>
    <path id="Path_523" data-name="Path 523" d="M913.038,817.394a17.855,17.855,0,0,1,.733,1.934,23.5,23.5,0,0,1,.708,5.72,3.142,3.142,0,0,1-.09,1.106,2.153,2.153,0,0,1-1.543,1.236c-2.642.81-5.426.051-8.142-.227s-5.4-.074-8.02-.745a3.78,3.78,0,0,1-1.111-.44,3.917,3.917,0,0,1-1.4-2.083,3.026,3.026,0,0,1-.159-.685,2.334,2.334,0,0,1,1.539-2.231,10.287,10.287,0,0,1,2.662-.384c3.775-.439,6.82-3.706,7.425-7.965a16.245,16.245,0,0,1,4.885.2,4.628,4.628,0,0,1,1.168,1.745Q912.411,815.95,913.038,817.394Z" transform="translate(-544.314 -456.251)" opacity="0.1"/>
    <path id="Path_524" data-name="Path 524" d="M895.194,820.545a16.937,16.937,0,0,1,.733,1.93,23.246,23.246,0,0,1,.708,5.72,3.051,3.051,0,0,1-.09,1.106,2.156,2.156,0,0,1-1.539,1.24c-2.642.805-5.431.046-8.142-.231s-5.4-.074-8.02-.745a3.629,3.629,0,0,1-1.111-.463,3.9,3.9,0,0,1-1.4-2.083,3.023,3.023,0,0,1-.159-.685,2.338,2.338,0,0,1,1.539-2.231,10.49,10.49,0,0,1,2.662-.384c3.773-.44,6.818-3.7,7.425-7.961a16.23,16.23,0,0,1,4.885.194,4.591,4.591,0,0,1,1.172,1.745C894.319,818.638,894.774,819.583,895.194,820.545Z" transform="translate(-533.737 -457.93)" fill="#a26565"/>
    <path id="Path_525" data-name="Path 525" d="M876.379,665.383c-.057,10,2.5,19.776,5.5,29.158q1.783,5.582,3.782,11.066c.79,2.166,1.681,4.573.835,6.711a12.735,12.735,0,0,1,7.495-1.189c-.977-2.268-.883-4.906-.928-7.405a73.5,73.5,0,0,0-.961-10.205,62.424,62.424,0,0,0-4.393-14.759,12.389,12.389,0,0,1-.851-3.11,22.515,22.515,0,0,1,.362-7.178,46.244,46.244,0,0,1,5.251-14.625l.024.3q.228,2.233.659,4.429a43.721,43.721,0,0,1,1.144,9.312,57.17,57.17,0,0,0,.537,9.872,16.662,16.662,0,0,0,.875,3.73c.281.717.647,1.389.867,2.134a10.964,10.964,0,0,1,.342,2.638,101.454,101.454,0,0,1-1.352,22.558,11.375,11.375,0,0,1,6.562,1.7,102.466,102.466,0,0,0,3.46-16.245,61.229,61.229,0,0,0-.529-19.651,29.6,29.6,0,0,1-.427-6.549,73.494,73.494,0,0,1,2.06-12.9l1.433-6.479q1.018-4.628,2.035-9.215a22.1,22.1,0,0,0,.765-6.23,17.31,17.31,0,0,0-.635-3.388,40.162,40.162,0,0,0-4.506-10.478c-7.845.5-15.783-.333-23.611-1.018a1.423,1.423,0,0,0-1.107.213,1.9,1.9,0,0,0-.448,1.148L877.677,638.7a53.932,53.932,0,0,0-.814,8.007c0,2.684.366,5.359.277,8.039C877,658.353,876.395,661.768,876.379,665.383Z" transform="translate(-533.864 -351.933)" fill="#454b69"/>
    <path id="Path_526" data-name="Path 526" d="M916,678.481q.228,2.233.659,4.429c1.706-3.355,3.546-6.628,5.117-10.066.407-.884.79-1.782,1.177-2.68l1.16-2.684c.216-.5.431-1.009.627-1.523a12.03,12.03,0,0,0,.729-2.314c-.57-.12-1.978,1.629-2.4,2.087a36.12,36.12,0,0,0-2.443,3.073,33.524,33.524,0,0,0-2.589,3.8A20.011,20.011,0,0,0,916,678.481Z" transform="translate(-557.356 -376.273)" opacity="0.1"/>
    <path id="Path_527" data-name="Path 527" d="M899.9,492.083s4.356,7.891,3.55,9.543,13.719-1.467,13.719-1.467-7.91-7.891-7.1-11.2S899.9,492.083,899.9,492.083Z" transform="translate(-547.81 -281.934)" fill="#ee8e9e"/>
    <ellipse id="Ellipse_317" data-name="Ellipse 317" cx="9.847" cy="11.196" rx="9.847" ry="11.196" transform="translate(346.114 190.146)" fill="#ee8e9e"/>
    <path id="Path_528" data-name="Path 528" d="M887.873,508.161a10.364,10.364,0,0,1,4.14-3.8,13.362,13.362,0,0,1,2.943-.824l3.928-.787a4.429,4.429,0,0,1,2.886.074,4.819,4.819,0,0,1,1.221,1.023,16.718,16.718,0,0,0,4.4,3.851c.468.227.957.393,1.425.62a8.984,8.984,0,0,1,4.16,5.091,19.153,19.153,0,0,1,.814,7.257,14.442,14.442,0,0,1-.224,2.555,18,18,0,0,1-.745,2.342,47.235,47.235,0,0,0-1.352,4.961q-1.527,6.642-2.54,13.422a5.548,5.548,0,0,1-.493,1.851,6.26,6.26,0,0,1-1.36,1.486,9.152,9.152,0,0,0-1.136,1.282,1.738,1.738,0,0,0-.362.7c-.126.666.407,1.24.814,1.726a8.694,8.694,0,0,1,1.84,3.642,1.6,1.6,0,0,1,.293,1,1.981,1.981,0,0,0-.094.8,1.838,1.838,0,0,0,.37.653,2.729,2.729,0,0,1,.407,1.981,24.916,24.916,0,0,1-9.64,2.564c-.814.046-1.628.046-2.443.157-.578.083-1.148.217-1.726.3a16.406,16.406,0,0,1-2.524.074c-4.384-.1-8.895-.227-12.921-2.2-.378-2.346.44-4.739.953-7.053.814-3.7,1.018-7.493,1.628-11.228.407-2.55,1.018-5.063,1.364-7.632a20.715,20.715,0,0,0-.2-7.729c-.549-2.212-.716-4.471-1.286-6.678a12.93,12.93,0,0,1-.326-6.785C882.894,510.161,885.365,508.009,887.873,508.161Z" transform="translate(-535.929 -289.738)" fill="#6c63ff"/>
    <path id="Path_529" data-name="Path 529" d="M887.473,452.77c-.48-1.985.464-4.054,1.588-5.669,1.221-1.736,2.776-3.3,4.686-3.735,1.551-.356,3.159.074,4.739-.069,1.4-.125,2.74-.7,4.128-.926a11.526,11.526,0,0,1,3.778.162,13.037,13.037,0,0,1,3.44,1.092c4.193,2.115,6.648,7.326,7.218,12.5s-.407,10.381-1.421,15.467l-.9,4.6a102.894,102.894,0,0,0-2.121,14.5,34.572,34.572,0,0,0,1.987,14.394,30.034,30.034,0,0,1-12.51-16.1c-.635-1.893-1.107-3.86-1.816-5.72-.607-1.6-1.384-3.119-1.922-4.753a17.355,17.355,0,0,1-.859-5.771c.033-1.481.248-2.953.212-4.434a6.66,6.66,0,0,0-1.27-4.1,10.822,10.822,0,0,0-2.964-2,12.866,12.866,0,0,1-4.148-3.934,4.671,4.671,0,0,1-.847-2.481C888.308,454.691,887.726,453.821,887.473,452.77Z" transform="translate(-540.366 -257.367)" fill="#454b69"/>
    <path id="Path_530" data-name="Path 530" d="M878.348,639.5a33.747,33.747,0,0,1-.138,3.457c-.167.852-.554,1.62-.782,2.453a13.162,13.162,0,0,0-.346,2.948c-.033.833.024,1.851.676,2.24.285.171.627.171.924.319a.693.693,0,0,1,.379.866c-.171.315-.464.264-.733.324s-.558.375-.407.629a.462.462,0,0,0,.236.171,2.749,2.749,0,0,1,.765.417.947.947,0,0,1,.313.847.513.513,0,0,1-.255.352.41.41,0,0,1-.4-.009,2.578,2.578,0,0,1,.191.926c-1.042.509-2.21-.157-3.187-.8a11.935,11.935,0,0,1-1.221-.889,7.361,7.361,0,0,1-2.377-5.91,15.538,15.538,0,0,1,.232-1.689,28.4,28.4,0,0,1,.6-2.874c.281-1,.664-1.944.993-2.92.7-2.078,1.152-4.253,1.787-6.359a.986.986,0,0,1,.305-.551.77.77,0,0,1,.452-.1,6.548,6.548,0,0,1,2.121.222,2.243,2.243,0,0,1,1.294.926c.191.463-.114.852-.3,1.236a11.343,11.343,0,0,0-1.124,3.767Z" transform="translate(-531.253 -359.996)" fill="#ee8e9e"/>
    <path id="Path_531" data-name="Path 531" d="M883.707,525.14a3.415,3.415,0,0,0-.521.824c-1.4,2.893-1.417,6.35-1.482,9.65-.073,3.7-.252,7.405-.432,11.131l-.533,11.108c-.053,1.06-.1,2.12-.236,3.17-.627.18-.651,1.106-.582,1.851.452,4.526,1.571,9.187.407,13.542a1.434,1.434,0,0,1-.273.6,2.814,2.814,0,0,1,1.82-.028c.582.139,1.144.384,1.73.537a3.438,3.438,0,0,1,2.084.926,51.089,51.089,0,0,0,1.364-5.98A25.762,25.762,0,0,1,888.067,567c.265-.69.623-1.328.948-1.99a47.7,47.7,0,0,0,3.363-11.233,18.594,18.594,0,0,0,.261-5.582,21.739,21.739,0,0,1-.2-2.569,22.307,22.307,0,0,1,.313-2.7,20.513,20.513,0,0,0-.476-7.826c-.611-2.356-1.148-4.836-2.442-6.817A7.812,7.812,0,0,0,883.707,525.14Z" transform="translate(-535.949 -301.875)" opacity="0.1"/>
    <path id="Path_532" data-name="Path 532" d="M882.52,524.34a3.445,3.445,0,0,0-.521.828c-1.4,2.888-1.417,6.35-1.482,9.65-.073,3.7-.252,7.405-.431,11.108l-.533,11.108c-.053,1.06-.1,2.12-.236,3.17-.627.181-.651,1.106-.578,1.851.448,4.526,1.567,9.182.407,13.542a1.435,1.435,0,0,1-.273.6,2.814,2.814,0,0,1,1.82-.028c.582.139,1.144.384,1.73.532a3.465,3.465,0,0,1,2.084.926,50.569,50.569,0,0,0,1.364-5.984,25.725,25.725,0,0,1,1.014-5.466q.43-1.022.949-1.99a47.542,47.542,0,0,0,3.362-11.237,18.592,18.592,0,0,0,.261-5.582,13.639,13.639,0,0,1,.11-5.271,20.486,20.486,0,0,0-.476-7.822c-.611-2.356-1.148-4.836-2.443-6.817A7.81,7.81,0,0,0,882.52,524.34Z" transform="translate(-535.246 -301.445)" fill="#6c63ff"/>
    <g id="Group_42" data-name="Group 42" transform="translate(346.979 184.918)" opacity="0.1">
      <path id="Path_533" data-name="Path 533" d="M889.061,447.1c1.221-1.736,2.776-3.3,4.686-3.735,1.551-.356,3.159.074,4.738-.069,1.4-.125,2.74-.7,4.128-.926a11.526,11.526,0,0,1,3.778.162,13.036,13.036,0,0,1,3.44,1.092,9.97,9.97,0,0,1,1.7,1.1,13.121,13.121,0,0,0-3.041-.926,11.482,11.482,0,0,0-3.774-.162c-1.392.2-2.732.773-4.132.9-1.576.143-3.183-.282-4.739.069-1.909.435-3.472,2-4.682,3.74-1.128,1.611-2.068,3.679-1.592,5.67.252,1.046.839,1.962,1,3.041a4.647,4.647,0,0,0,.851,2.481,13.165,13.165,0,0,0,2.988,3.161c-.313-.167-.635-.333-.94-.514a12.866,12.866,0,0,1-4.148-3.934,4.671,4.671,0,0,1-.847-2.481c-.163-1.092-.745-1.99-1-3.041C886.993,450.785,887.937,448.716,889.061,447.1Z" transform="translate(-887.345 -442.285)"/>
      <path id="Path_534" data-name="Path 534" d="M908.86,489.071a4.274,4.274,0,0,0-.549-.541,8.337,8.337,0,0,1,2.65,1.851,6.73,6.73,0,0,1,1.27,4.1c.049,1.481-.183,2.953-.212,4.429a17.38,17.38,0,0,0,.859,5.776c.537,1.634,1.315,3.147,1.921,4.753.7,1.851,1.176,3.823,1.812,5.716a30.6,30.6,0,0,0,10.344,14.634c.024.06.045.125.069.185a30.034,30.034,0,0,1-12.51-16.1c-.635-1.893-1.107-3.86-1.816-5.72-.607-1.6-1.384-3.119-1.922-4.753a17.356,17.356,0,0,1-.859-5.771c.033-1.481.248-2.953.212-4.434A6.711,6.711,0,0,0,908.86,489.071Z" transform="translate(-899.776 -467.127)"/>
    </g>
    <rect id="Rectangle_355" data-name="Rectangle 355" width="33.381" height="26.843" rx="9.15" transform="translate(50.072 56.354)" fill="#6c63ff" opacity="0.1"/>
    <rect id="Rectangle_356" data-name="Rectangle 356" width="33.381" height="26.843" rx="9.15" transform="translate(83.453 103.562)" fill="#6c63ff" opacity="0.1"/>
    <rect id="Rectangle_357" data-name="Rectangle 357" width="33.381" height="26.843" rx="9.15" transform="translate(361.086 60.982)" fill="#6c63ff" opacity="0.1"/>
  </g>
</svg>
