<svg xmlns="http://www.w3.org/2000/svg" width="460" height="295" viewBox="0 0 460 295">
  <g id="swift" transform="translate(0 0)">
    <rect id="Rectangle_211" data-name="Rectangle 211" width="323.738" height="0.931" transform="translate(0 280.179)" fill="#e6e6e6"/>
    <path id="Path_281" data-name="Path 281" d="M343.74,236.376h-2.966l-12.607,39.847s-.247,26.493,2.719,39.416c0,0,4.944-5.6,8.4-5.6s6.674-28.216,6.674-28.216S359.56,241.545,343.74,236.376Z" transform="translate(-243.36 -188.298)" fill="#e6e6e6"/>
    <path id="Path_282" data-name="Path 282" d="M476.309,400.208s-7.91,19.385-.494,20.677,11.371-15.077,9.394-17.231S476.309,400.208,476.309,400.208Z" transform="translate(-310.669 -275.882)" fill="#feb8b8"/>
    <path id="Path_283" data-name="Path 283" d="M331.756,390.847s2.224,20.483,9.572,18.926,3-17.851.165-19.076S331.756,390.847,331.756,390.847Z" transform="translate(-245.035 -270.525)" fill="#feb8b8"/>
    <path id="Path_284" data-name="Path 284" d="M363.429,644.743s3.461,14.647-2.472,18.524,1.978,12.062,1.978,12.062L381.721,658.1s-7.91-10.769-7.416-17.231Z" transform="translate(-257.611 -404.536)" fill="#feb8b8"/>
    <path id="Path_285" data-name="Path 285" d="M251.49,544.818l-1.977,11.631-.495,8.185,10.877-.861,1.483-16.8Z" transform="translate(-116.008 -291.257)" fill="#feb8b8"/>
    <path id="Path_286" data-name="Path 286" d="M339.765,396.014s-6.1,1.952-5.6,7.552,1.978,23.262,1.978,23.262-4.45,37.909,0,50.832,12.854,38.77,12.854,38.77,12.854,2.154,15.821-6.031c0,0-.494-28-5.933-34.032s-1.483-7.754-.989-8.616,1.978-2.154,1.978-3.446.494-6.031.494-7.754-.494-1.292.494-3.877,1.978-3.446,1.978-3.877,8.4-23.262,8.4-23.262l10.877,52.986s-2.472,52.124-1.483,52.124,11.866,3.446,15.821,0c0,0,9.888-44.8,7.91-47.386s-2.472-3.015-1.978-5.6,1.483-3.877.494-5.169-2.472-5.6-.989-6.892,1.978-7.323,1.978-7.323,8.4-42.216,2.966-48.248S339.765,396.014,339.765,396.014Z" transform="translate(-246.143 -273.639)" fill="#2f2e41"/>
    <path id="Path_287" data-name="Path 287" d="M352.743,679.139s-5.933-6.462-7.91-3.446-4.944,7.754-4.944,7.754-22.248,16.8-9.888,17.231a29.44,29.44,0,0,0,20.27-7.323s1.978-8.616,7.91-8.616l.989,2.154,10.877-6.031s-1.532-11.438-5.957-11.1Z" transform="translate(-242.476 -419.978)" fill="#2f2e41"/>
    <path id="Path_288" data-name="Path 288" d="M414.14,715.491s12.854-4.308,14.338,0a22.573,22.573,0,0,1,1.483,6.462s10.877,15.508,0,16.37-15.821-5.169-15.821-5.169,1.483-7.323,0-8.185S414.14,715.491,414.14,715.491Z" transform="translate(-283.108 -443.407)" fill="#2f2e41"/>
    <ellipse id="Ellipse_152" data-name="Ellipse 152" cx="17.304" cy="15.077" rx="17.304" ry="15.077" transform="translate(122.628 4.139)" fill="#feb8b8"/>
    <path id="Path_289" data-name="Path 289" d="M404.292,181.766l-3.461,16.8,24.226,5.169s-5.686-12.277.494-17.662C427.114,184.712,404.292,181.766,404.292,181.766Z" transform="translate(-277.214 -159.104)" fill="#feb8b8"/>
    <path id="Path_290" data-name="Path 290" d="M374.555,202.485a3.022,3.022,0,0,0-2.463,1.988,10.973,10.973,0,0,1-1.978,3.446s-23.237,9.477-23.237,10.77,9.393,28.862,9.393,28.862.494,17.231-3.461,21.108-7.91,18.093-6.922,19.385-6.922,4.308-3.955,6.462,44.5,22.831,69.216,13.354a25.728,25.728,0,0,0,0-6.462c-.494-2.585,2.966-11.2,1.978-14.216s0-34.032,0-34.032l5.1-36.727a3.012,3.012,0,0,0-2.406-3.22c-5.7-1.509-18.913-7.687-20.734-6.362C392.723,208.559,378.007,207.389,374.555,202.485Z" transform="translate(-249.464 -170.18)" fill="#e6e6e6"/>
    <path id="Path_291" data-name="Path 291" d="M471.555,225.009l.032-.011a3.741,3.741,0,0,1,4.045,1.009c3.064,3.653,9.511,11.863,10.261,17.094.989,6.892,3.955,25.416,3.461,28s-.989,3.015,0,4.308.494.862,0,2.154-6.427,37.047-6.427,37.047-3.955-7.754-11.371-5.169c0,0,.989-6.892,0-9.046s-1.978-3.446-.989-5.169,0-18.524-.494-20.247,0-10.77,0-10.77l-4.45-17.662Z" transform="translate(-307.399 -182.1)" fill="#e6e6e6"/>
    <path id="Path_292" data-name="Path 292" d="M410.727,154.855l.584-3.55c.136-.827.692-1.915,1.616-1.69.786.191,2.5.778,2.785.6,1.073-.663,2.7.5,3.827-.093.473-.247.781-.775,1.331-.81a1.625,1.625,0,0,1,.977.386,7,7,0,0,0,2.53,1.2,3,3,0,0,0,2.663-.632,1.35,1.35,0,0,1,.471-.393,1.2,1.2,0,0,1,.677.027l2.884.684a8.631,8.631,0,0,0-1.483-7.951,17.447,17.447,0,0,0-4.2-3.585q-2.679-1.776-5.53-3.341a19.4,19.4,0,0,0-6.719-2.547c-2.432-.322-5.156.254-6.686,1.933a3.838,3.838,0,0,1-1.549-1.823,1.3,1.3,0,0,0-.517,1.079,1.336,1.336,0,0,0,.619,1.038l-2.439-1.357c-.686.627.654,1.765.07,2.466a1.526,1.526,0,0,1-.657.374,11.527,11.527,0,0,0-3.577,1.962,11.27,11.27,0,0,0-2.817,4.521c-1.454,3.634-2.51,7.8-.445,11.2.234.386,3.325,6.75,3.737,7,1.392.839.486-1.191,1.483,0,.782.934.636-2.642,1.8-1.857a3.259,3.259,0,0,0,3.154.124c.482-.291.327-1.908.067-3.393a1.625,1.625,0,0,1,.621-1.549,2.221,2.221,0,0,1,1.821-.419A9.914,9.914,0,0,0,410.727,154.855Z" transform="translate(-274.027 -133.072)" fill="#2f2e41"/>
    <path id="Path_293" data-name="Path 293" d="M468.695,253.6l4.374,43.03S463.826,260.544,468.695,253.6Z" transform="translate(-308.17 -197.507)" opacity="0.1"/>
    <path id="Path_294" data-name="Path 294" d="M287.956,573.686c-7.077,8.717-8.947,58.329-9.363,74.232-.011.358-.021.7-.027,1.019H260.651c-.219-.34-.422-.675-.614-1.019-10.619-18.263-4.727-40.16-4.417-41.267-.807,3.481,2.842,13.571,6.965,23.345C265.1,599.944,286.61,575.2,287.956,573.686Z" transform="translate(-208.677 -368.622)" fill="#e6e6e6"/>
    <ellipse id="Ellipse_153" data-name="Ellipse 153" cx="12.107" cy="10.549" rx="12.107" ry="10.549" transform="translate(385.915 58.636)" fill="#544c9a"/>
    <path id="Path_295" data-name="Path 295" d="M855.744,279.376H801.262c-10.03,0-18.161-7.085-18.161-15.824s8.131-15.824,18.161-15.824h54.482c10.03,0,18.161,7.085,18.161,15.824S865.773,279.376,855.744,279.376Zm-54.482-29.538c-8.693,0-15.739,6.14-15.739,13.714s7.047,13.714,15.739,13.714h54.482c8.693,0,15.739-6.14,15.739-13.714s-7.047-13.714-15.739-13.714Z" transform="translate(-455.3 -194.366)" fill="#3f3d56"/>
    <ellipse id="Ellipse_154" data-name="Ellipse 154" cx="12.107" cy="10.549" rx="12.107" ry="10.549" transform="translate(335.817 116.708)" fill="#e6e6e6"/>
    <path id="Path_296" data-name="Path 296" d="M855.744,404.154H801.262c-10.03,0-18.161-7.085-18.161-15.824s8.131-15.824,18.161-15.824h54.482c10.03,0,18.161,7.085,18.161,15.824S865.773,404.154,855.744,404.154Zm-54.482-29.538c-8.693,0-15.739,6.14-15.739,13.714s7.047,13.714,15.739,13.714h54.482c8.693,0,15.739-6.14,15.739-13.714s-7.047-13.714-15.739-13.714Z" transform="translate(-455.3 -261.072)" fill="#e6e6e6"/>
    <ellipse id="Ellipse_155" data-name="Ellipse 155" cx="12.107" cy="10.549" rx="12.107" ry="10.549" transform="translate(335.817 174.781)" fill="#e6e6e6"/>
    <path id="Path_297" data-name="Path 297" d="M855.744,528.932H801.262c-10.03,0-18.161-7.085-18.161-15.824s8.131-15.824,18.161-15.824h54.482c10.03,0,18.161,7.085,18.161,15.824S865.773,528.932,855.744,528.932Zm-54.482-29.538c-8.693,0-15.739,6.14-15.739,13.714s7.047,13.714,15.739,13.714h54.482c8.693,0,15.739-6.14,15.739-13.714s-7.047-13.714-15.739-13.714Z" transform="translate(-455.3 -327.778)" fill="#e6e6e6"/>
    <path id="Path_298" data-name="Path 298" d="M876.524,388.863H708.272a2.52,2.52,0,0,1-2.671-2.327V153.845a2.52,2.52,0,0,1,2.671-2.327H876.525a2.52,2.52,0,0,1,2.671,2.327V386.536a2.52,2.52,0,0,1-2.671,2.327ZM708.272,152.449a1.512,1.512,0,0,0-1.6,1.4V386.536a1.512,1.512,0,0,0,1.6,1.4H876.525a1.512,1.512,0,0,0,1.6-1.4V153.845a1.512,1.512,0,0,0-1.6-1.4Z" transform="translate(-419.196 -142.933)" fill="#e6e6e6"/>
  </g>
</svg>
