<svg xmlns="http://www.w3.org/2000/svg" width="370.24" height="269.811" viewBox="0 0 370.24 269.811">
  <g id="switches" transform="translate(0 0)">
    <rect id="Rectangle_319" data-name="Rectangle 319" width="260.567" height="0.851" transform="translate(0 256.256)" fill="#e6e6e6"/>
    <path id="Path_455" data-name="Path 455" d="M340.7,236.376h-2.388l-10.147,36.445s-.2,24.231,2.189,36.051c0,0,3.979-5.122,6.765-5.122s5.372-25.807,5.372-25.807S353.433,241.1,340.7,236.376Z" transform="translate(-259.907 -192.403)" fill="#e6e6e6"/>
    <path id="Path_456" data-name="Path 456" d="M475.593,400.208s-6.367,17.73-.4,18.912,9.152-13.79,7.561-15.76S475.593,400.208,475.593,400.208Z" transform="translate(-342.274 -286.497)" fill="#feb8b8"/>
    <path id="Path_457" data-name="Path 457" d="M331.756,390.791s1.79,18.734,7.7,17.31,2.415-16.327.133-17.447S331.756,390.791,331.756,390.791Z" transform="translate(-261.957 -280.743)" fill="#feb8b8"/>
    <path id="Path_458" data-name="Path 458" d="M362.516,644.411s2.786,13.4-1.99,16.942,1.592,11.032,1.592,11.032l15.121-15.76s-6.367-9.85-5.969-15.76Z" transform="translate(-277.346 -424.715)" fill="#feb8b8"/>
    <path id="Path_459" data-name="Path 459" d="M251.008,544.818l-1.592,10.638-.4,7.486,8.754-.788,1.194-15.366Z" transform="translate(-141.962 -312.907)" fill="#feb8b8"/>
    <path id="Path_460" data-name="Path 460" d="M338.666,396.014s-4.907,1.785-4.509,6.907,1.592,21.276,1.592,21.276-3.581,34.672,0,46.492,10.346,35.46,10.346,35.46,10.346,1.97,12.734-5.516c0,0-.4-25.61-4.775-31.126s-1.194-7.092-.8-7.88,1.592-1.97,1.592-3.152.4-5.516.4-7.092-.4-1.182.4-3.546,1.592-3.152,1.592-3.546S364,423.015,364,423.015l8.754,48.462s-1.99,47.674-1.194,47.674,9.55,3.152,12.734,0c0,0,7.959-40.976,6.367-43.34s-1.99-2.758-1.592-5.122,1.194-3.546.4-4.728-1.99-5.122-.8-6.3,1.592-6.7,1.592-6.7,6.765-38.612,2.388-44.128S338.666,396.014,338.666,396.014Z" transform="translate(-263.312 -284.088)" fill="#2f2e41"/>
    <path id="Path_461" data-name="Path 461" d="M347.576,678.337s-4.775-5.91-6.367-3.152-3.979,7.092-3.979,7.092-17.907,15.366-7.958,15.76,16.315-6.7,16.315-6.7,1.592-7.88,6.367-7.88l.8,1.97,8.754-5.516s-1.233-10.461-4.795-10.156Z" transform="translate(-258.825 -441.304)" fill="#2f2e41"/>
    <path id="Path_462" data-name="Path 462" d="M414.011,715.327s10.346-3.94,11.54,0a23.115,23.115,0,0,1,1.194,5.91s8.754,14.184,0,14.972-12.734-4.728-12.734-4.728,1.194-6.7,0-7.486S414.011,715.327,414.011,715.327Z" transform="translate(-308.547 -466.475)" fill="#2f2e41"/>
    <ellipse id="Ellipse_263" data-name="Ellipse 263" cx="13.927" cy="13.79" rx="13.927" ry="13.79" transform="translate(98.699 3.786)" fill="#feb8b8"/>
    <path id="Path_463" data-name="Path 463" d="M403.616,181.766l-2.785,15.366,19.5,4.728s-4.576-11.229.4-16.154C421.985,184.46,403.616,181.766,403.616,181.766Z" transform="translate(-301.336 -161.038)" fill="#feb8b8"/>
    <path id="Path_464" data-name="Path 464" d="M368.059,202.485a2.53,2.53,0,0,0-1.983,1.818,10.449,10.449,0,0,1-1.592,3.152s-18.7,8.668-18.7,9.85,7.561,26.4,7.561,26.4.4,15.76-2.786,19.306-6.367,16.548-5.571,17.73-5.571,3.94-3.183,5.91,35.813,20.882,55.71,12.214a26.721,26.721,0,0,0,0-5.91c-.4-2.364,2.388-10.244,1.592-13s0-31.126,0-31.126l4.1-33.591a2.734,2.734,0,0,0-1.937-2.945c-4.587-1.38-15.223-7.031-16.689-5.818C382.682,208.04,370.837,206.971,368.059,202.485Z" transform="translate(-267.377 -172.938)" fill="#e6e6e6"/>
    <path id="Path_465" data-name="Path 465" d="M470.4,224.99l.025-.01a2.776,2.776,0,0,1,3.255.923c2.466,3.341,7.655,10.85,8.259,15.635.8,6.3,3.183,23.246,2.785,25.61s-.8,2.758,0,3.94.4.788,0,1.97-5.173,33.884-5.173,33.884-3.183-7.092-9.152-4.728c0,0,.8-6.3,0-8.274s-1.592-3.152-.8-4.728,0-16.942-.4-18.518,0-9.85,0-9.85l-3.581-16.154Z" transform="translate(-338.273 -185.745)" fill="#e6e6e6"/>
    <path id="Path_466" data-name="Path 466" d="M407.46,152.995l.47-3.247c.11-.757.557-1.752,1.3-1.546.633.175,2.011.711,2.241.549.864-.606,2.172.454,3.08-.085.381-.226.629-.709,1.071-.741a1.226,1.226,0,0,1,.786.353,5.369,5.369,0,0,0,2.036,1.1,2.2,2.2,0,0,0,2.143-.578,1.133,1.133,0,0,1,.379-.36.858.858,0,0,1,.545.025l2.322.626a8.759,8.759,0,0,0-1.193-7.272,14.7,14.7,0,0,0-3.381-3.279q-2.157-1.624-4.451-3.056a14.53,14.53,0,0,0-5.408-2.329,5.809,5.809,0,0,0-5.381,1.768,3.434,3.434,0,0,1-1.246-1.667,1.255,1.255,0,0,0,.082,1.936l-1.963-1.241c-.552.574.526,1.614.056,2.255a1.2,1.2,0,0,1-.529.342,9.014,9.014,0,0,0-2.879,1.794,10.6,10.6,0,0,0-2.267,4.135c-1.17,3.323-2.02,7.135-.358,10.245.188.353,2.676,6.174,3.007,6.4,1.12.767.391-1.09,1.194,0,.63.855.512-2.416,1.447-1.7a2.351,2.351,0,0,0,2.538.113c.388-.266.263-1.745.054-3.1a1.591,1.591,0,0,1,.5-1.417,1.627,1.627,0,0,1,1.466-.383A7.078,7.078,0,0,0,407.46,152.995Z" transform="translate(-297.435 -133.071)" fill="#2f2e41"/>
    <path id="Path_467" data-name="Path 467" d="M468.418,253.6l3.52,39.356S464.5,259.951,468.418,253.6Z" transform="translate(-339.217 -202.297)" opacity="0.1"/>
    <path id="Path_468" data-name="Path 468" d="M281.274,573.686c-5.7,7.973-7.2,53.349-7.536,67.894-.009.328-.017.638-.022.932H259.3c-.176-.311-.34-.617-.494-.932-8.547-16.7-3.8-36.731-3.555-37.744-.649,3.184,2.287,12.412,5.606,21.352C262.878,597.7,280.191,575.074,281.274,573.686Z" transform="translate(-217.465 -386.131)" fill="#e6e6e6"/>
    <ellipse id="Ellipse_264" data-name="Ellipse 264" cx="9.745" cy="9.648" rx="9.745" ry="9.648" transform="translate(310.612 53.629)" fill="#0a0d11"/>
    <path id="Path_469" data-name="Path 469" d="M841.569,276.673H797.718a14.473,14.473,0,1,1,0-28.945h43.851a14.473,14.473,0,1,1,0,28.945Zm-43.851-27.016a12.544,12.544,0,1,0,0,25.086h43.851a12.544,12.544,0,1,0,0-25.086Z" transform="translate(-519.264 -198.923)" fill="#3f3d56"/>
    <ellipse id="Ellipse_265" data-name="Ellipse 265" cx="9.745" cy="9.648" rx="9.745" ry="9.648" transform="translate(270.289 106.743)" fill="#e6e6e6"/>
    <path id="Path_470" data-name="Path 470" d="M841.569,401.451H797.718a14.473,14.473,0,1,1,0-28.945h43.851a14.473,14.473,0,1,1,0,28.945Zm-43.851-27.016a12.544,12.544,0,1,0,0,25.086h43.851a12.544,12.544,0,1,0,0-25.086Z" transform="translate(-519.264 -270.587)" fill="#e6e6e6"/>
    <ellipse id="Ellipse_266" data-name="Ellipse 266" cx="9.745" cy="9.648" rx="9.745" ry="9.648" transform="translate(270.289 159.857)" fill="#e6e6e6"/>
    <path id="Path_471" data-name="Path 471" d="M841.569,526.229H797.718a14.473,14.473,0,1,1,0-28.945h43.851a14.473,14.473,0,1,1,0,28.945Zm-43.851-27.016a12.544,12.544,0,1,0,0,25.086h43.851a12.544,12.544,0,1,0,0-25.086Z" transform="translate(-519.264 -342.251)" fill="#e6e6e6"/>
    <path id="Path_472" data-name="Path 472" d="M843.172,368.6H707.75a2.142,2.142,0,0,1-2.149-2.128V153.646a2.142,2.142,0,0,1,2.15-2.128H843.172a2.142,2.142,0,0,1,2.15,2.128V366.469a2.142,2.142,0,0,1-2.15,2.128ZM707.75,152.369a1.285,1.285,0,0,0-1.29,1.277V366.469a1.285,1.285,0,0,0,1.29,1.277H843.172a1.285,1.285,0,0,0,1.29-1.277V153.646a1.285,1.285,0,0,0-1.29-1.277Z" transform="translate(-475.082 -143.666)" fill="#e6e6e6"/>
  </g>
</svg>
