<svg xmlns="http://www.w3.org/2000/svg" xmlns:xlink="http://www.w3.org/1999/xlink" width="460" height="371" viewBox="0 0 460 371">
  <defs>
    <linearGradient id="linear-gradient" x1="-6.735" y1="1" x2="-6.735" gradientUnits="objectBoundingBox">
      <stop offset="0" stop-color="gray" stop-opacity="0.251"/>
      <stop offset="0.54" stop-color="gray" stop-opacity="0.122"/>
      <stop offset="1" stop-color="gray" stop-opacity="0.102"/>
    </linearGradient>
  </defs>
  <g id="undraw_smart_home_28oy" transform="translate(-0.001 0.015)">
    <path id="Path_427" data-name="Path 427" d="M302.269,99.5c-29.489-1.143-57.578-11.8-84.4-23.451S164.483,51.493,135.7,45.313c-18.514-3.972-39.687-4.555-54.6,6.572C66.741,62.57,62.1,81.034,59.613,98.136c-1.877,12.88-2.98,26.416,2.158,38.49,3.57,8.367,9.908,15.4,14.293,23.419,15.245,27.9,4.478,62.3-12.058,89.537-7.735,12.78-16.743,24.968-22.724,38.572s-8.748,29.185-3.517,43.058c5.19,13.755,17.55,24.066,30.943,31.353,27.2,14.757,59.247,18.983,90.5,21.374,69.18,5.292,138.731,3,208.095.706,25.671-.852,51.452-1.712,76.707-6.153,14.02-2.464,28.5-6.376,38.673-15.827,12.925-12,16.129-32.31,7.466-47.367-14.525-25.228-54.692-31.495-64.845-58.571-5.589-14.9.151-31.5,8.272-45.327,17.423-29.655,46.628-55.665,48.166-89.56,1.058-23.278-12.982-46.593-34.688-57.606C424.3,52.691,392.748,54.144,375.96,73.255,358.683,92.939,328.307,100.513,302.269,99.5Z" transform="translate(-35 -42.72)" fill="#eef0fa" opacity="0.1"/>
    <rect id="Rectangle_304" data-name="Rectangle 304" width="209.243" height="281.911" rx="19.8" transform="translate(135.316 61.054)" fill="#464353"/>
    <rect id="Rectangle_305" data-name="Rectangle 305" width="173.142" height="225.034" transform="translate(153.366 87.776)" fill="#fff" stroke="#fff" stroke-miterlimit="10" stroke-width="1" opacity="0.1"/>
    <ellipse id="Ellipse_240" data-name="Ellipse 240" cx="7.368" cy="8.244" rx="7.368" ry="8.244" transform="translate(232.569 321.122)" fill="#fff"/>
    <path id="Path_428" data-name="Path 428" d="M619.36,212.218a3.918,3.918,0,1,1,3.5-3.885,4.142,4.142,0,0,1-1.031,2.754A3.3,3.3,0,0,1,619.36,212.218Z" transform="translate(-379.423 -130.787)" fill="#fff"/>
    <path id="Path_429" data-name="Path 429" d="M619.034,204.385a3.292,3.292,0,0,1,3.044,2.253,3.99,3.99,0,0,1-.707,4.006,3.028,3.028,0,0,1-3.581.79,3.7,3.7,0,0,1-2.014-3.406,3.493,3.493,0,0,1,3.257-3.644m0-.455a3.706,3.706,0,0,0-3.406,2.55,4.484,4.484,0,0,0,.808,4.495,3.4,3.4,0,0,0,4.022.879,4.159,4.159,0,0,0,2.26-3.824,3.919,3.919,0,0,0-3.684-4.1Z" transform="translate(-379.097 -130.515)" fill="#fff"/>
    <path id="Path_430" data-name="Path 430" d="M604.762,301.453v-8.016h5.373v8.016H615.6V289.434h3.493L607.449,277.41,595.81,289.434H599.3v12.019Z" transform="translate(-367.511 -170.528)" fill="#eef0fa"/>
    <path id="Path_431" data-name="Path 431" d="M469.146,399.456V390.8a1.653,1.653,0,1,0-3.285,0v8.654a3.947,3.947,0,0,0-1.607,4.227,3.284,3.284,0,0,0,6.5,0A3.947,3.947,0,0,0,469.146,399.456Zm-2.211-8.654a.56.56,0,1,1,1.12,0v1.94h-1.12Z" transform="translate(-289.445 -231.275)" fill="#fff" stroke="#fff" stroke-miterlimit="10" stroke-width="1"/>
    <rect id="Rectangle_306" data-name="Rectangle 306" width="97.701" height="1.216" transform="translate(200.808 165.813)" fill="#eef0fa" opacity="0.3"/>
    <ellipse id="Ellipse_241" data-name="Ellipse 241" cx="2.577" cy="2.883" rx="2.577" ry="2.883" transform="translate(228.401 163.54)" fill="#eef0fa"/>
    <rect id="Rectangle_307" data-name="Rectangle 307" width="30.169" height="1.216" transform="translate(200.808 165.813)" fill="#eef0fa"/>
    <path id="Path_432" data-name="Path 432" d="M462.394,489.93a.6.6,0,0,0-1.193-.082l-.594,3.616a1.562,1.562,0,0,0-.024.278,1.229,1.229,0,1,0,2.443,0,1.522,1.522,0,0,0-.041-.332Zm4.625,1.553a1.6,1.6,0,0,0-.2-.155l-2.41-1.858a.45.45,0,0,0-.623.036.5.5,0,0,0-.065.6l1.856,2.573a1.152,1.152,0,0,0,.122.169.926.926,0,0,0,1.315,0,.984.984,0,0,0,0-1.366Zm1.628-2.655-2.259-.091a.269.269,0,0,0-.3.237.335.335,0,0,0,.179.346h0l2.186.692a.5.5,0,0,0,.672-.455c0-.455-.118-.688-.476-.733Zm-11.227.492a.335.335,0,0,0,.179-.346.273.273,0,0,0-.305-.237l-2.255.091c-.362.046-.468.269-.468.729a.5.5,0,0,0,.659.455l2.186-.7Zm1.844.146-2.41,1.854a1.321,1.321,0,0,0-.2.155.984.984,0,0,0,0,1.366.9.9,0,0,0,1.311,0,.777.777,0,0,0,.126-.164l1.856-2.564a.5.5,0,0,0-.065-.6.454.454,0,0,0-.639-.046Zm2.581-12.006a5.2,5.2,0,0,1,1.058,2.519,1.96,1.96,0,0,1-.421,1.375,1.557,1.557,0,0,1-1.187.592,1.63,1.63,0,0,1-1.225-.581,2.047,2.047,0,0,1-.484-1.387v-.269a8.038,8.038,0,0,0-1.523,4.769,3.793,3.793,0,1,0,7.539,0c0-2.842-1.254-6.171-3.774-7.019Zm-.134,9.656a1.673,1.673,0,0,1-.2-3.3,3.585,3.585,0,0,0,2.182-1.366,8.221,8.221,0,0,1,.277,2.132,2.409,2.409,0,0,1-2.263,2.532Z" transform="translate(-283.768 -279.465)" fill="#fff" stroke="#fff" stroke-miterlimit="10" stroke-width="1"/>
    <rect id="Rectangle_308" data-name="Rectangle 308" width="97.701" height="1.216" transform="translate(200.808 206.152)" fill="#eef0fa" opacity="0.3"/>
    <ellipse id="Ellipse_242" data-name="Ellipse 242" cx="2.577" cy="2.883" rx="2.577" ry="2.883" transform="translate(251.197 203.88)" fill="#eef0fa"/>
    <rect id="Rectangle_309" data-name="Rectangle 309" width="53.214" height="1.216" transform="translate(200.808 206.152)" fill="#eef0fa"/>
    <path id="Path_433" data-name="Path 433" d="M462.827,582.4a.75.75,0,0,0,.7.783H466.6a.75.75,0,0,0,.7-.783v-.7h-4.478Zm2.239-14.247a5.138,5.138,0,0,0-5.036,5.247,5.33,5.33,0,0,0,2.149,4.327v1.7a.822.822,0,0,0,.221.543.656.656,0,0,0,.5.209h4.331a.655.655,0,0,0,.5-.209.822.822,0,0,0,.221-.543v-1.7a5.32,5.32,0,0,0,2.154-4.327,5.141,5.141,0,0,0-5.04-5.247Z" transform="translate(-287.005 -328.85)" fill="#fff" stroke="#fff" stroke-miterlimit="10" stroke-width="1"/>
    <rect id="Rectangle_310" data-name="Rectangle 310" width="97.701" height="1.216" transform="translate(200.808 246.21)" fill="#eef0fa" opacity="0.3"/>
    <ellipse id="Ellipse_243" data-name="Ellipse 243" cx="2.577" cy="2.883" rx="2.577" ry="2.883" transform="translate(276.437 243.932)" fill="#eef0fa"/>
    <rect id="Rectangle_311" data-name="Rectangle 311" width="78.454" height="1.216" transform="translate(200.808 246.21)" fill="#eef0fa"/>
    <path id="Path_434" data-name="Path 434" d="M464.15,651.85v8.763h2.239v7.515l4.478-10.02h-2.239l2.239-6.258Z" transform="translate(-289.448 -374.428)" fill="#fff" stroke="#fff" stroke-miterlimit="10" stroke-width="1"/>
    <rect id="Rectangle_312" data-name="Rectangle 312" width="97.701" height="1.216" transform="translate(200.808 284.955)" fill="#eef0fa" opacity="0.3"/>
    <ellipse id="Ellipse_244" data-name="Ellipse 244" cx="2.577" cy="2.883" rx="2.577" ry="2.883" transform="translate(228.401 282.678)" fill="#eef0fa"/>
    <rect id="Rectangle_313" data-name="Rectangle 313" width="30.169" height="1.216" transform="translate(200.808 284.955)" fill="#eef0fa"/>
    <ellipse id="Ellipse_245" data-name="Ellipse 245" cx="24.209" cy="5.21" rx="24.209" ry="5.21" transform="translate(115.861 350.28)" fill="#eef0fa"/>
    <ellipse id="Ellipse_246" data-name="Ellipse 246" cx="2.817" cy="4.126" rx="2.817" ry="4.126" transform="translate(136.851 349.151)" fill="#3f3d56"/>
    <ellipse id="Ellipse_247" data-name="Ellipse 247" cx="2.817" cy="4.126" rx="2.817" ry="4.126" transform="translate(136.851 344.104)" fill="#3f3d56"/>
    <ellipse id="Ellipse_248" data-name="Ellipse 248" cx="2.817" cy="4.126" rx="2.817" ry="4.126" transform="translate(136.851 339.063)" fill="#3f3d56"/>
    <ellipse id="Ellipse_249" data-name="Ellipse 249" cx="2.817" cy="4.126" rx="2.817" ry="4.126" transform="translate(136.851 334.016)" fill="#3f3d56"/>
    <ellipse id="Ellipse_250" data-name="Ellipse 250" cx="2.817" cy="4.126" rx="2.817" ry="4.126" transform="translate(136.851 328.97)" fill="#3f3d56"/>
    <ellipse id="Ellipse_251" data-name="Ellipse 251" cx="2.817" cy="4.126" rx="2.817" ry="4.126" transform="translate(136.851 323.923)" fill="#3f3d56"/>
    <ellipse id="Ellipse_252" data-name="Ellipse 252" cx="2.817" cy="4.126" rx="2.817" ry="4.126" transform="translate(136.851 318.877)" fill="#3f3d56"/>
    <path id="Path_435" data-name="Path 435" d="M368.88,646.892a15.847,15.847,0,0,0,1.05-1.731l-7.409-1.366,8.012.068a16.812,16.812,0,0,0,.256-11.969l-10.739,6.24,9.908-8.153a13.234,13.234,0,0,0-12.34-7.526,13.6,13.6,0,0,0-11.635,8.821,16.587,16.587,0,0,0,1.674,15.612,15.784,15.784,0,0,0-1.539,2.733l9.615,5.588-10.25-3.821a16.572,16.572,0,0,0,2.174,14.183A16.419,16.419,0,0,0,349.112,686a12.468,12.468,0,0,0,18.317,0,16.419,16.419,0,0,0,1.454-20.428,16.544,16.544,0,0,0,0-18.674Z" transform="translate(-218.664 -358.412)" fill="#eef0fa"/>
    <path id="Path_436" data-name="Path 436" d="M344.78,696.364a16.2,16.2,0,0,0,2.886,9.337,16.419,16.419,0,0,0,1.454,20.429,12.469,12.469,0,0,0,18.317,0,16.419,16.419,0,0,0,1.454-20.428C370.7,703.132,344.78,694.67,344.78,696.364Z" transform="translate(-218.672 -398.547)" opacity="0.1"/>
    <ellipse id="Ellipse_253" data-name="Ellipse 253" cx="37.428" cy="8.052" rx="37.428" ry="8.052" transform="translate(49.657 302.217)" fill="#eef0fa"/>
    <ellipse id="Ellipse_254" data-name="Ellipse 254" cx="4.356" cy="6.381" rx="4.356" ry="6.381" transform="translate(83.351 300.468)" fill="#3f3d56"/>
    <ellipse id="Ellipse_255" data-name="Ellipse 255" cx="4.356" cy="6.381" rx="4.356" ry="6.381" transform="translate(83.351 292.666)" fill="#3f3d56"/>
    <ellipse id="Ellipse_256" data-name="Ellipse 256" cx="4.356" cy="6.381" rx="4.356" ry="6.381" transform="translate(83.351 284.864)" fill="#3f3d56"/>
    <ellipse id="Ellipse_257" data-name="Ellipse 257" cx="4.356" cy="6.381" rx="4.356" ry="6.381" transform="translate(83.351 277.062)" fill="#3f3d56"/>
    <ellipse id="Ellipse_258" data-name="Ellipse 258" cx="4.356" cy="6.381" rx="4.356" ry="6.381" transform="translate(83.351 269.265)" fill="#3f3d56"/>
    <ellipse id="Ellipse_259" data-name="Ellipse 259" cx="4.356" cy="6.381" rx="4.356" ry="6.381" transform="translate(83.351 261.463)" fill="#3f3d56"/>
    <ellipse id="Ellipse_260" data-name="Ellipse 260" cx="4.356" cy="6.381" rx="4.356" ry="6.381" transform="translate(83.351 253.661)" fill="#3f3d56"/>
    <path id="Path_437" data-name="Path 437" d="M203.869,451.322a24.115,24.115,0,0,1-1.628-2.673l11.455-2.1-12.384.1a25.978,25.978,0,0,1-.407-18.505l16.617,9.642-15.315-12.607c3.918-7.552,11.275-12.028,19.071-11.6s14.729,5.681,17.972,13.624a25.647,25.647,0,0,1-2.562,24.118,23.764,23.764,0,0,1,2.377,4.259L224.2,464.234l15.848-5.953a25.614,25.614,0,0,1-3.363,21.921c6.732,9.575,5.755,23.33-2.243,31.6a19.282,19.282,0,0,1-28.33,0c-8-8.266-8.975-22.021-2.243-31.6a25.579,25.579,0,0,1,0-28.88Z" transform="translate(-132.474 -244.664)" fill="#eef0fa"/>
    <path id="Path_438" data-name="Path 438" d="M241.176,527.769a25.082,25.082,0,0,1-4.478,14.442c6.732,9.575,5.755,23.33-2.243,31.6a19.282,19.282,0,0,1-28.33,0c-8-8.266-8.975-22.021-2.243-31.6C201.082,538.235,241.176,525.15,241.176,527.769Z" transform="translate(-132.483 -306.673)" opacity="0.1"/>
    <ellipse id="Ellipse_261" data-name="Ellipse 261" cx="40.302" cy="9.564" rx="40.302" ry="9.564" transform="translate(318.749 351.856)" fill="#eef0fa" opacity="0.1"/>
    <path id="Path_439" data-name="Path 439" d="M877.919,620.929a2.918,2.918,0,0,0,.155.679,3.887,3.887,0,0,0,1.335,2.072,3.408,3.408,0,0,0,1.058.455c2.5.67,5.089.456,7.637.742s5.247,1.029,7.763.228a2.112,2.112,0,0,0,1.465-1.23.8.8,0,0,0,.037-.132,12.124,12.124,0,0,0,5.414-.1,2.12,2.12,0,0,0,1.465-1.23,3.093,3.093,0,0,0,.085-1.1,23.974,23.974,0,0,0-.676-5.679,17.081,17.081,0,0,0-.7-1.917q-.6-1.435-1.3-2.8l-.142-.3c.342.169.676.351,1.005.547a105.373,105.373,0,0,0,3.293-16.128,63.332,63.332,0,0,0-.5-19.525,31.044,31.044,0,0,1-.407-6.508,75.824,75.824,0,0,1,1.962-12.8q.684-3.188,1.364-6.417l1.946-9.145a22.83,22.83,0,0,0,.729-6.185,17.861,17.861,0,0,0-.6-3.361,41.8,41.8,0,0,0-1.71-5.165.708.708,0,0,0,.574-.132,1.151,1.151,0,0,0,.257-.569l1.026-4.135a49.367,49.367,0,0,0,1.628-8.822c.224-3.4-.236-6.832-.334-10.22-.126-4.427.354-8.868.1-13.286-.057-.956-.146-1.908-.248-2.856.045-.5.057-1,.069-1.5a19.842,19.842,0,0,0-.769-7.21,10.059,10.059,0,0,0-2.683-4.163c.037-.2.077-.405.114-.61l.855-4.555c.944-5.051,1.9-10.225,1.355-15.358-.484-4.555-2.394-9.182-5.626-11.614l-.029-.023-.346-.246-.061-.041c-.106-.073-.216-.141-.326-.2l-.081-.05a4.558,4.558,0,0,0-.407-.228,11.864,11.864,0,0,0-3.257-1.089l-.448-.077a11.215,11.215,0,0,0-1.348-.155h-.452a8.342,8.342,0,0,0-1.347.091,2.377,2.377,0,0,0-.5.091l-.489.114a18.719,18.719,0,0,1-2.947.688c-.187,0-.379.027-.566.032-.566,0-1.132-.041-1.7-.077-.281,0-.566-.027-.847-.027a6.01,6.01,0,0,0-1.4.141,5.622,5.622,0,0,0-2.2,1.134,9.613,9.613,0,0,0-1.335,1.33,14.862,14.862,0,0,0-.928,1.248c-.134.2-.265.405-.407.619l-.187.323c-.118.223-.232.455-.338.674a9.234,9.234,0,0,0-.407,1.057,5.62,5.62,0,0,0-.183,2.956,6.2,6.2,0,0,0,.179.615,12.719,12.719,0,0,0-1.119,5.279c0,5.01,2.793,9.237,6.632,10.63.468.966,1.038,2.2,1.514,3.389a11.694,11.694,0,0,0-2.6,2.942c-2.385-.15-4.739,1.977-5.5,4.659a9.43,9.43,0,0,0-.289,3.188,36,36,0,0,0-.566,7c-.069,3.689-.24,7.369-.407,11.054s-.338,7.337-.509,11.008c-.049,1.052-.1,2.109-.22,3.152-.6.178-.627,1.093-.558,1.822.187,1.945.492,3.912.688,5.866a10.812,10.812,0,0,0-.167,3.685l.346.173a16.4,16.4,0,0,1-.489,3.721,1.4,1.4,0,0,1-.261.6,1.616,1.616,0,0,1,.542-.15c-.517,1.9-.928,3.853-1.535,5.725-.313.966-.68,1.913-.948,2.9q-.353,1.407-.57,2.851a15.414,15.414,0,0,0-.216,1.676,7.5,7.5,0,0,0,2.145,5.766c0,.374-.025.742-.025,1.116,0,2.664.35,5.32.265,7.98-.114,3.584-.688,6.977-.7,10.567-.053,9.929,2.381,19.635,5.239,28.967q1.7,5.547,3.6,10.99c.749,2.15,1.6,4.555.79,6.663.273-.123.542-.237.814-.346a9.735,9.735,0,0,1-1.864,3.188,7.534,7.534,0,0,1-4.673,2.473,9.521,9.521,0,0,0-2.536.383A2.314,2.314,0,0,0,877.919,620.929Zm10.405-51.521a47.392,47.392,0,0,1,5-14.52l.025.3c.13,1.466.37,2.933.631,4.4a45.23,45.23,0,0,1,1.087,9.246,58.841,58.841,0,0,0,.513,9.8,17.073,17.073,0,0,0,.814,3.707,20.971,20.971,0,0,1,.814,2.113,11.235,11.235,0,0,1,.326,2.619,105.248,105.248,0,0,1-1.189,21.812c-.281,0-.46.05-.464.091a10.663,10.663,0,0,1-1.111,3.489l-.049-.1c-.1-.191-.2-.41-.305-.628l.338.059c-.932-2.25-.847-4.873-.887-7.378a75.767,75.767,0,0,0-.924-10.134,64.1,64.1,0,0,0-4.132-14.656,12.52,12.52,0,0,1-.814-3.088A23.188,23.188,0,0,1,888.324,569.408Zm16.792-54.2a7.6,7.6,0,0,0-.493-.665,2.231,2.231,0,0,1-.773-1.717,1.749,1.749,0,0,1,.342-.7,9.637,9.637,0,0,1,1.083-1.271l.13-.128q-.146,2.227-.289,4.468Z" transform="translate(-533.829 -258.406)" fill="url(#linear-gradient)"/>
    <path id="Path_440" data-name="Path 440" d="M950.8,534l.448,3.867c.151,1.312.3,2.619.383,3.935.273,4.381-.232,8.781-.1,13.172.106,3.379.586,6.754.354,10.129a47.361,47.361,0,0,1-1.722,8.745l-1.075,4.1a1.127,1.127,0,0,1-.269.565.863.863,0,0,1-.688.123l-4.771-.455c.305-1.567.643-3.188.814-4.8.13-1.257.208-2.523.289-3.789.252-3.944.542-7.888.814-11.842l.509-6.923a58.069,58.069,0,0,1,1.115-8.945A18.485,18.485,0,0,1,950.8,534Z" transform="translate(-573.578 -310.253)" fill="#eef0fa"/>
    <path id="Path_441" data-name="Path 441" d="M950.8,534l.448,3.867c.151,1.312.3,2.619.383,3.935.273,4.381-.232,8.781-.1,13.172.106,3.379.586,6.754.354,10.129a47.361,47.361,0,0,1-1.722,8.745l-1.075,4.1a1.127,1.127,0,0,1-.269.565.863.863,0,0,1-.688.123l-4.771-.455c.305-1.567.643-3.188.814-4.8.13-1.257.208-2.523.289-3.789.252-3.944.542-7.888.814-11.842l.509-6.923a58.069,58.069,0,0,1,1.115-8.945A18.485,18.485,0,0,1,950.8,534Z" transform="translate(-573.578 -310.253)" opacity="0.1"/>
    <path id="Path_442" data-name="Path 442" d="M913.038,817.316a17.393,17.393,0,0,1,.733,1.9,22.774,22.774,0,0,1,.708,5.629,3.042,3.042,0,0,1-.09,1.089,2.147,2.147,0,0,1-1.543,1.216c-2.642.8-5.426.05-8.142-.223s-5.4-.073-8.02-.733a3.812,3.812,0,0,1-1.111-.433,3.852,3.852,0,0,1-1.4-2.05,2.937,2.937,0,0,1-.159-.674,2.3,2.3,0,0,1,1.539-2.2,10.442,10.442,0,0,1,2.662-.378c3.775-.432,6.821-3.647,7.425-7.838a16.508,16.508,0,0,1,4.885.2,4.553,4.553,0,0,1,1.168,1.717Q912.411,815.895,913.038,817.316Z" transform="translate(-544.314 -461.921)" fill="#a26565"/>
    <path id="Path_443" data-name="Path 443" d="M913.038,817.316a17.393,17.393,0,0,1,.733,1.9,22.774,22.774,0,0,1,.708,5.629,3.042,3.042,0,0,1-.09,1.089,2.147,2.147,0,0,1-1.543,1.216c-2.642.8-5.426.05-8.142-.223s-5.4-.073-8.02-.733a3.812,3.812,0,0,1-1.111-.433,3.852,3.852,0,0,1-1.4-2.05,2.937,2.937,0,0,1-.159-.674,2.3,2.3,0,0,1,1.539-2.2,10.442,10.442,0,0,1,2.662-.378c3.775-.432,6.821-3.647,7.425-7.838a16.508,16.508,0,0,1,4.885.2,4.553,4.553,0,0,1,1.168,1.717Q912.411,815.895,913.038,817.316Z" transform="translate(-544.314 -461.921)" opacity="0.1"/>
    <path id="Path_444" data-name="Path 444" d="M895.194,820.467a16.482,16.482,0,0,1,.733,1.9,22.532,22.532,0,0,1,.708,5.629,2.961,2.961,0,0,1-.09,1.089,2.149,2.149,0,0,1-1.539,1.221c-2.642.792-5.431.046-8.142-.228s-5.4-.073-8.02-.733a3.661,3.661,0,0,1-1.111-.455,3.835,3.835,0,0,1-1.4-2.049,2.937,2.937,0,0,1-.159-.674,2.3,2.3,0,0,1,1.539-2.2,10.653,10.653,0,0,1,2.662-.378,8.862,8.862,0,0,0,7.425-7.834,16.493,16.493,0,0,1,4.885.191,4.516,4.516,0,0,1,1.172,1.717C894.319,818.591,894.775,819.52,895.194,820.467Z" transform="translate(-533.737 -463.624)" fill="#a26565"/>
    <path id="Path_445" data-name="Path 445" d="M876.379,664.634c-.057,9.842,2.5,19.461,5.5,28.694q1.783,5.493,3.782,10.89c.79,2.132,1.681,4.5.835,6.6a12.917,12.917,0,0,1,7.494-1.171c-.977-2.232-.883-4.828-.928-7.287a71.212,71.212,0,0,0-.961-10.043,60.693,60.693,0,0,0-4.392-14.524,12.047,12.047,0,0,1-.851-3.061,21.822,21.822,0,0,1,.362-7.064,45.044,45.044,0,0,1,5.251-14.392l.024.292q.228,2.2.659,4.359a42.377,42.377,0,0,1,1.144,9.164,55.369,55.369,0,0,0,.537,9.715,16.173,16.173,0,0,0,.875,3.671c.281.706.647,1.366.867,2.1a10.627,10.627,0,0,1,.342,2.6,98.278,98.278,0,0,1-1.352,22.2,11.518,11.518,0,0,1,6.562,1.672,99.446,99.446,0,0,0,3.46-15.986,59.308,59.308,0,0,0-.529-19.339,28.676,28.676,0,0,1-.428-6.445,71.275,71.275,0,0,1,2.06-12.693l1.433-6.376q1.018-4.555,2.036-9.068a21.423,21.423,0,0,0,.765-6.13,16.786,16.786,0,0,0-.635-3.334,39.2,39.2,0,0,0-4.506-10.312c-7.845.492-15.783-.328-23.611-1a1.441,1.441,0,0,0-1.107.21,1.855,1.855,0,0,0-.448,1.129l-2.943,18.674a52.266,52.266,0,0,0-.814,7.879c0,2.642.366,5.274.277,7.911C877,657.715,876.4,661.077,876.379,664.634Z" transform="translate(-533.864 -356.173)" fill="#454b69"/>
    <path id="Path_446" data-name="Path 446" d="M916,678.245q.228,2.2.66,4.359c1.706-3.3,3.546-6.522,5.117-9.906.407-.87.79-1.753,1.177-2.637l1.16-2.642c.216-.5.432-.993.627-1.5a11.7,11.7,0,0,0,.729-2.277c-.57-.118-1.979,1.6-2.4,2.054a35.614,35.614,0,0,0-2.443,3.024,32.989,32.989,0,0,0-2.589,3.735A19.488,19.488,0,0,0,916,678.245Z" transform="translate(-557.356 -380.847)" opacity="0.1"/>
    <path id="Path_447" data-name="Path 447" d="M899.9,492.018s4.356,7.765,3.55,9.391,13.719-1.444,13.719-1.444-7.91-7.765-7.1-11.017S899.9,492.018,899.9,492.018Z" transform="translate(-547.81 -285.214)" fill="#ee8e9e"/>
    <ellipse id="Ellipse_262" data-name="Ellipse 262" cx="9.847" cy="11.017" rx="9.847" ry="11.017" transform="translate(346.114 187.119)" fill="#ee8e9e"/>
    <path id="Path_448" data-name="Path 448" d="M887.873,508.072a10.307,10.307,0,0,1,4.14-3.739,13.533,13.533,0,0,1,2.943-.811l3.928-.774a4.5,4.5,0,0,1,2.886.073,4.8,4.8,0,0,1,1.221,1.007,16.643,16.643,0,0,0,4.4,3.789c.468.223.957.387,1.425.61a8.875,8.875,0,0,1,4.161,5.01,18.569,18.569,0,0,1,.814,7.142,13.975,13.975,0,0,1-.224,2.514,17.514,17.514,0,0,1-.745,2.3,45.948,45.948,0,0,0-1.352,4.882q-1.526,6.536-2.54,13.208a5.392,5.392,0,0,1-.493,1.822,6.2,6.2,0,0,1-1.36,1.462,9.053,9.053,0,0,0-1.136,1.262,1.7,1.7,0,0,0-.362.692c-.126.656.407,1.221.814,1.7a8.507,8.507,0,0,1,1.84,3.584,1.559,1.559,0,0,1,.293.988,1.923,1.923,0,0,0-.094.783,1.8,1.8,0,0,0,.371.642,2.652,2.652,0,0,1,.407,1.949,25.235,25.235,0,0,1-9.64,2.523c-.814.045-1.628.045-2.442.155-.578.082-1.148.214-1.726.292a16.664,16.664,0,0,1-2.524.073c-4.384-.1-8.895-.223-12.921-2.168-.379-2.309.44-4.664.953-6.941.814-3.644,1.018-7.374,1.628-11.049.407-2.51,1.018-4.983,1.364-7.51a20.071,20.071,0,0,0-.2-7.606c-.549-2.177-.716-4.4-1.286-6.572a12.531,12.531,0,0,1-.326-6.677C882.894,510.04,885.365,507.922,887.873,508.072Z" transform="translate(-535.929 -293.125)" fill="#eef0fa"/>
    <path id="Path_449" data-name="Path 449" d="M887.473,452.6c-.48-1.954.464-3.99,1.588-5.579a8.519,8.519,0,0,1,4.686-3.676c1.551-.351,3.159.073,4.739-.068,1.4-.123,2.74-.688,4.128-.911a11.707,11.707,0,0,1,3.778.159,13.189,13.189,0,0,1,3.44,1.075c4.193,2.081,6.648,7.21,7.218,12.3s-.407,10.216-1.421,15.221l-.9,4.527a99.734,99.734,0,0,0-2.121,14.265,33.521,33.521,0,0,0,1.987,14.165,29.632,29.632,0,0,1-12.51-15.845c-.635-1.863-1.107-3.8-1.816-5.629-.607-1.576-1.384-3.07-1.921-4.677a16.825,16.825,0,0,1-.859-5.68c.033-1.457.248-2.906.212-4.363a6.483,6.483,0,0,0-1.27-4.031,10.834,10.834,0,0,0-2.964-1.972,12.784,12.784,0,0,1-4.148-3.871,4.549,4.549,0,0,1-.847-2.441C888.308,454.493,887.726,453.637,887.473,452.6Z" transform="translate(-540.366 -260.31)" fill="#454b69"/>
    <path id="Path_450" data-name="Path 450" d="M878.348,639.4a32.686,32.686,0,0,1-.138,3.4c-.167.838-.554,1.594-.782,2.414a12.772,12.772,0,0,0-.346,2.9c-.032.82.025,1.822.676,2.2.285.168.627.168.924.314a.678.678,0,0,1,.379.852c-.171.31-.464.26-.733.319s-.558.369-.407.619a.461.461,0,0,0,.236.169,2.759,2.759,0,0,1,.765.41.924.924,0,0,1,.313.833.5.5,0,0,1-.255.346.416.416,0,0,1-.4-.009,2.5,2.5,0,0,1,.191.911c-1.042.5-2.211-.155-3.187-.788a11.932,11.932,0,0,1-1.221-.875,7.186,7.186,0,0,1-2.377-5.816,15.054,15.054,0,0,1,.232-1.662,27.555,27.555,0,0,1,.6-2.828c.281-.979.664-1.913.993-2.874.7-2.045,1.152-4.186,1.787-6.258a.968.968,0,0,1,.305-.542.781.781,0,0,1,.452-.1,6.649,6.649,0,0,1,2.121.219,2.243,2.243,0,0,1,1.295.911c.191.456-.114.838-.3,1.216A11.032,11.032,0,0,0,878.348,639.4Z" transform="translate(-531.253 -364.346)" fill="#ee8e9e"/>
    <path id="Path_451" data-name="Path 451" d="M883.707,525.14a3.36,3.36,0,0,0-.521.811c-1.4,2.847-1.417,6.249-1.482,9.5-.073,3.644-.252,7.287-.431,10.954l-.533,10.931c-.053,1.043-.1,2.086-.236,3.12-.627.178-.651,1.089-.582,1.822.452,4.454,1.571,9.041.407,13.326a1.4,1.4,0,0,1-.273.592,2.857,2.857,0,0,1,1.82-.027c.582.137,1.144.378,1.73.528a3.465,3.465,0,0,1,2.084.911,49.573,49.573,0,0,0,1.364-5.885,25,25,0,0,1,1.014-5.383c.265-.679.623-1.307.949-1.958a46.39,46.39,0,0,0,3.362-11.054,18.013,18.013,0,0,0,.261-5.493,21.048,21.048,0,0,1-.2-2.528,21.584,21.584,0,0,1,.313-2.66,19.881,19.881,0,0,0-.476-7.7c-.611-2.318-1.148-4.76-2.443-6.709A7.853,7.853,0,0,0,883.707,525.14Z" transform="translate(-535.949 -305.429)" opacity="0.1"/>
    <path id="Path_452" data-name="Path 452" d="M882.52,524.34a3.389,3.389,0,0,0-.521.815c-1.4,2.842-1.417,6.249-1.482,9.5-.073,3.644-.252,7.287-.432,10.931l-.533,10.931c-.053,1.043-.1,2.086-.236,3.12-.627.178-.651,1.089-.578,1.822.448,4.454,1.567,9.036.407,13.326a1.4,1.4,0,0,1-.273.592,2.858,2.858,0,0,1,1.82-.027c.582.137,1.144.378,1.73.524a3.491,3.491,0,0,1,2.084.911,49.109,49.109,0,0,0,1.364-5.889,24.955,24.955,0,0,1,1.014-5.379q.43-1.005.949-1.958a46.237,46.237,0,0,0,3.363-11.058,18.006,18.006,0,0,0,.26-5.493,13.215,13.215,0,0,1,.11-5.188,19.846,19.846,0,0,0-.476-7.7c-.611-2.318-1.148-4.76-2.443-6.709A7.852,7.852,0,0,0,882.52,524.34Z" transform="translate(-535.246 -304.993)" fill="#eef0fa"/>
    <g id="Group_38" data-name="Group 38" transform="translate(346.979 181.975)" opacity="0.1">
      <path id="Path_453" data-name="Path 453" d="M889.061,447.024a8.518,8.518,0,0,1,4.686-3.676c1.551-.351,3.159.073,4.738-.068,1.4-.123,2.74-.688,4.128-.911a11.708,11.708,0,0,1,3.778.159,13.189,13.189,0,0,1,3.44,1.075,9.986,9.986,0,0,1,1.7,1.079,13.277,13.277,0,0,0-3.041-.911,11.666,11.666,0,0,0-3.774-.159c-1.392.2-2.732.761-4.132.884-1.575.141-3.183-.278-4.739.068a8.477,8.477,0,0,0-4.681,3.68c-1.128,1.585-2.068,3.621-1.592,5.579.252,1.029.839,1.931,1,2.992a4.526,4.526,0,0,0,.851,2.441,13.046,13.046,0,0,0,2.988,3.111c-.313-.164-.635-.328-.94-.506a12.785,12.785,0,0,1-4.148-3.871,4.549,4.549,0,0,1-.847-2.441c-.163-1.075-.745-1.958-1-2.992C886.993,450.649,887.937,448.613,889.061,447.024Z" transform="translate(-887.345 -442.285)"/>
      <path id="Path_454" data-name="Path 454" d="M908.86,489.063a4.235,4.235,0,0,0-.55-.533,8.339,8.339,0,0,1,2.65,1.822,6.55,6.55,0,0,1,1.27,4.031c.049,1.457-.183,2.906-.212,4.359a16.854,16.854,0,0,0,.859,5.684c.537,1.608,1.315,3.1,1.922,4.678.7,1.822,1.177,3.762,1.812,5.625a30.132,30.132,0,0,0,10.344,14.4c.024.059.045.123.069.182a29.633,29.633,0,0,1-12.51-15.845c-.635-1.863-1.107-3.8-1.816-5.629-.607-1.576-1.384-3.07-1.921-4.677a16.825,16.825,0,0,1-.859-5.68c.033-1.457.248-2.906.212-4.363A6.531,6.531,0,0,0,908.86,489.063Z" transform="translate(-899.775 -467.468)"/>
    </g>
    <rect id="Rectangle_314" data-name="Rectangle 314" width="33.381" height="26.416" rx="9.15" transform="translate(50.072 55.457)" fill="#eef0fa" opacity="0.1"/>
    <rect id="Rectangle_315" data-name="Rectangle 315" width="33.381" height="26.416" rx="9.15" transform="translate(83.453 101.913)" fill="#eef0fa" opacity="0.1"/>
    <rect id="Rectangle_316" data-name="Rectangle 316" width="33.381" height="26.416" rx="9.15" transform="translate(361.086 60.011)" fill="#eef0fa" opacity="0.1"/>
  </g>
</svg>
