<svg id="undraw_control_panel1_20gm_1_" data-name="undraw_control_panel1_20gm (1)" xmlns="http://www.w3.org/2000/svg" xmlns:xlink="http://www.w3.org/1999/xlink" width="460" height="374" viewBox="0 0 460 374">
  <defs>
    <linearGradient id="linear-gradient" x1="0.5" y1="1" x2="0.5" gradientUnits="objectBoundingBox">
      <stop offset="0" stop-color="gray" stop-opacity="0.251"/>
      <stop offset="0.54" stop-color="gray" stop-opacity="0.122"/>
      <stop offset="1" stop-color="gray" stop-opacity="0.102"/>
    </linearGradient>
    <linearGradient id="linear-gradient-8" x1="0.5" x2="0.5" y2="0" xlink:href="#linear-gradient"/>
    <linearGradient id="linear-gradient-17" x1="0" y1="0.5" x2="1" y2="0.5" xlink:href="#linear-gradient"/>
    <linearGradient id="linear-gradient-19" x1="0.5" x2="0.5" y2="-0.001" xlink:href="#linear-gradient"/>
    <linearGradient id="linear-gradient-20" x1="0.5" x2="0.5" y2="0" xlink:href="#linear-gradient"/>
    <linearGradient id="linear-gradient-24" x1="0.5" x2="0.5" y2="0" xlink:href="#linear-gradient"/>
  </defs>
  <rect id="Rectangle_223" data-name="Rectangle 223" width="460" height="246.171" transform="translate(0 63.914)" opacity="0.5" fill="url(#linear-gradient)"/>
  <rect id="Rectangle_224" data-name="Rectangle 224" width="451.948" height="237.701" transform="translate(4.026 68.147)" fill="#fff"/>
  <rect id="Rectangle_225" data-name="Rectangle 225" width="235.176" height="7.097" transform="translate(24.726 106.667)" fill="#f5f5f5"/>
  <ellipse id="Ellipse_158" data-name="Ellipse 158" cx="13.602" cy="11.99" rx="13.602" ry="11.99" transform="translate(128.421 98.226)" opacity="0.5" fill="url(#linear-gradient)"/>
  <ellipse id="Ellipse_159" data-name="Ellipse 159" cx="13.602" cy="11.99" rx="13.602" ry="11.99" transform="translate(56.205 130.528)" opacity="0.5" fill="url(#linear-gradient)"/>
  <ellipse id="Ellipse_160" data-name="Ellipse 160" cx="13.602" cy="11.99" rx="13.602" ry="11.99" transform="translate(210.337 163.305)" opacity="0.5" fill="url(#linear-gradient)"/>
  <ellipse id="Ellipse_161" data-name="Ellipse 161" cx="13.602" cy="11.99" rx="13.602" ry="11.99" transform="translate(100.935 195.608)" opacity="0.5" fill="url(#linear-gradient)"/>
  <ellipse id="Ellipse_162" data-name="Ellipse 162" cx="13.602" cy="11.99" rx="13.602" ry="11.99" transform="translate(30.336 227.91)" opacity="0.5" fill="url(#linear-gradient)"/>
  <ellipse id="Ellipse_163" data-name="Ellipse 163" cx="13.602" cy="11.99" rx="13.602" ry="11.99" transform="translate(173.151 260.212)" opacity="0.5" fill="url(#linear-gradient)"/>
  <ellipse id="Ellipse_164" data-name="Ellipse 164" cx="10.347" cy="9.121" rx="10.347" ry="9.121" transform="translate(131.676 101.095)" fill="#0a0d11" opacity="0.5"/>
  <rect id="Rectangle_226" data-name="Rectangle 226" width="235.176" height="7.097" transform="translate(24.726 139.103)" fill="#f5f5f5"/>
  <ellipse id="Ellipse_165" data-name="Ellipse 165" cx="10.347" cy="9.121" rx="10.347" ry="9.121" transform="translate(59.228 133.53)" fill="#0a0d11" opacity="0.5"/>
  <rect id="Rectangle_227" data-name="Rectangle 227" width="235.176" height="7.097" transform="translate(24.726 171.542)" fill="#f5f5f5"/>
  <ellipse id="Ellipse_166" data-name="Ellipse 166" cx="10.347" cy="9.121" rx="10.347" ry="9.121" transform="translate(213.328 165.97)" fill="#0a0d11"/>
  <rect id="Rectangle_228" data-name="Rectangle 228" width="235.176" height="7.097" transform="translate(24.726 203.978)" fill="#f5f5f5"/>
  <ellipse id="Ellipse_167" data-name="Ellipse 167" cx="10.347" cy="9.121" rx="10.347" ry="9.121" transform="translate(104.077 198.406)" fill="#0a0d11"/>
  <rect id="Rectangle_229" data-name="Rectangle 229" width="235.176" height="7.097" transform="translate(24.726 236.418)" fill="#f5f5f5"/>
  <ellipse id="Ellipse_168" data-name="Ellipse 168" cx="10.347" cy="9.121" rx="10.347" ry="9.121" transform="translate(33.354 230.845)" fill="#0a0d11" opacity="0.5"/>
  <rect id="Rectangle_230" data-name="Rectangle 230" width="235.176" height="7.097" transform="translate(24.726 268.853)" fill="#f5f5f5"/>
  <ellipse id="Ellipse_169" data-name="Ellipse 169" cx="10.347" cy="9.121" rx="10.347" ry="9.121" transform="translate(176.53 263.281)" fill="#0a0d11"/>
  <rect id="Rectangle_231" data-name="Rectangle 231" width="36.798" height="22.013" transform="translate(292.674 193.988)" opacity="0.5" fill="url(#linear-gradient-8)"/>
  <rect id="Rectangle_232" data-name="Rectangle 232" width="36.798" height="22.013" transform="translate(342.126 193.988)" opacity="0.5" fill="url(#linear-gradient-8)"/>
  <rect id="Rectangle_233" data-name="Rectangle 233" width="36.798" height="22.013" transform="translate(391.578 193.988)" opacity="0.5" fill="url(#linear-gradient-8)"/>
  <rect id="Rectangle_234" data-name="Rectangle 234" width="36.798" height="22.013" transform="translate(292.674 227.439)" opacity="0.5" fill="url(#linear-gradient-8)"/>
  <rect id="Rectangle_235" data-name="Rectangle 235" width="36.798" height="22.013" transform="translate(342.126 227.439)" opacity="0.5" fill="url(#linear-gradient-8)"/>
  <rect id="Rectangle_236" data-name="Rectangle 236" width="36.798" height="22.013" transform="translate(391.578 227.439)" opacity="0.5" fill="url(#linear-gradient-8)"/>
  <rect id="Rectangle_237" data-name="Rectangle 237" width="36.798" height="22.013" transform="translate(292.674 260.886)" opacity="0.5" fill="url(#linear-gradient)"/>
  <rect id="Rectangle_238" data-name="Rectangle 238" width="36.798" height="22.013" transform="translate(342.126 260.886)" opacity="0.5" fill="url(#linear-gradient)"/>
  <rect id="Rectangle_239" data-name="Rectangle 239" width="36.798" height="22.013" transform="translate(391.578 260.886)" opacity="0.5" fill="url(#linear-gradient)"/>
  <rect id="Rectangle_240" data-name="Rectangle 240" width="32.201" height="19.258" transform="translate(294.976 195.361)" fill="#0a0d11"/>
  <rect id="Rectangle_241" data-name="Rectangle 241" width="32.201" height="19.258" transform="translate(344.427 195.361)" fill="#0a0d11"/>
  <rect id="Rectangle_242" data-name="Rectangle 242" width="32.201" height="19.258" transform="translate(393.874 195.361)" fill="#0a0d11" opacity="0.5"/>
  <rect id="Rectangle_243" data-name="Rectangle 243" width="32.201" height="19.258" transform="translate(294.976 228.812)" fill="#0a0d11"/>
  <rect id="Rectangle_244" data-name="Rectangle 244" width="32.201" height="19.258" transform="translate(344.427 228.812)" fill="#0a0d11"/>
  <rect id="Rectangle_245" data-name="Rectangle 245" width="32.201" height="19.258" transform="translate(393.874 228.812)" fill="#0a0d11" opacity="0.5"/>
  <rect id="Rectangle_246" data-name="Rectangle 246" width="32.201" height="19.258" transform="translate(294.976 262.264)" fill="#0a0d11"/>
  <rect id="Rectangle_247" data-name="Rectangle 247" width="32.201" height="19.258" transform="translate(344.427 262.264)" fill="#0a0d11" opacity="0.5"/>
  <rect id="Rectangle_248" data-name="Rectangle 248" width="32.201" height="19.258" transform="translate(393.874 262.264)" fill="#3ad29f" opacity="0.5"/>
  <path id="Path_334" data-name="Path 334" d="M401.873,736.635c-3.234,0-5.632.475-7.335,3.088H325.21v-6.584c0-1.71-2.479-1.069-4.112-1.069h-1.353c-1.617,0-2.964-.641-2.964,1.069v1.468H238.918c-4.031,0-5.632,3.116-6.181,7.168a3.046,3.046,0,0,0-.043-.309c-.027.29-.043.584-.043.879v4.432c0,4.617,1.854,8.356,6.273,8.356h77.864v2.228c0,1.71,1.326,1.069,2.964,1.069H321.1c1.617,0,4.112.641,4.112-1.069v-6.5h69.753a9.8,9.8,0,0,0,1.046,1.159c2.986,1.335,3.029,1.629,5.761,1.629l21.374-.76V737.675Z" transform="translate(-200.622 -411.016)" opacity="0.5" fill="url(#linear-gradient-17)"/>
  <rect id="Rectangle_249" data-name="Rectangle 249" width="106.95" height="9.121" transform="translate(89.699 329.671)" fill="#e6e6e6"/>
  <path id="Path_335" data-name="Path 335" d="M531.58,754.91h0a7.428,7.428,0,0,0,1.617,4.56h1.347V750.35H533.2A7.428,7.428,0,0,0,531.58,754.91Z" transform="translate(-338.451 -420.674)" opacity="0.03"/>
  <path id="Path_336" data-name="Path 336" d="M560.909,757.251l-19.067,1.9c-5.06,0-9.162-3.616-9.162-8.076h0c0-4.46,4.1-8.076,9.162-8.076l19.067,1.867Z" transform="translate(-338.958 -416.816)" fill="#e6e6e6"/>
  <path id="Path_337" data-name="Path 337" d="M444.179,763.15H338.55v2.532H444.179a9.561,9.561,0,0,0,7.583,3.529l19.067-1.857v-2.532l-19.067,1.867A9.558,9.558,0,0,1,444.179,763.15Z" transform="translate(-249.449 -427.394)" opacity="0.05"/>
  <path id="Path_338" data-name="Path 338" d="M68.775,683.53h77.492v16.807H68.775c-4.018,0-7.276-2.871-7.276-6.413v-3.995C61.509,686.393,64.764,683.53,68.775,683.53Z" transform="translate(-28.356 -358.044)" fill="#0a0d11"/>
  <rect id="Rectangle_250" data-name="Rectangle 250" width="7.06" height="24.896" rx="3.53" transform="translate(116.5 321.752)" fill="#0a0d11"/>
  <rect id="Rectangle_251" data-name="Rectangle 251" width="1.412" height="16.807" transform="translate(115.088 325.486)" opacity="0.05"/>
  <rect id="Rectangle_252" data-name="Rectangle 252" width="64.967" height="1.245" transform="translate(45.173 328.598)" opacity="0.05"/>
  <rect id="Rectangle_253" data-name="Rectangle 253" width="64.967" height="1.245" transform="translate(45.173 332.954)" opacity="0.05"/>
  <rect id="Rectangle_254" data-name="Rectangle 254" width="64.967" height="1.245" transform="translate(45.173 337.314)" opacity="0.05"/>
  <path id="Path_339" data-name="Path 339" d="M322.286,763.829h-1.31A2.718,2.718,0,0,1,318.1,761.3v-1.824H242.531c-3.971,0-7.3-2.642-7.717-6.123a6.1,6.1,0,0,0-.043.722v3.121c0,3.778,3.474,6.841,7.76,6.841H318.1v1.824a2.718,2.718,0,0,0,2.872,2.532h1.31a2.718,2.718,0,0,0,2.872-2.532V761.3a2.718,2.718,0,0,1-2.867,2.532Z" transform="translate(-201.599 -422.249)" opacity="0.05"/>
  <path id="Path_340" data-name="Path 340" d="M680.826,34.04,666,41.588v18.36l14.826,7.544,14.826-7.544V41.588Z" transform="translate(-307.076 -17.082)" fill="url(#linear-gradient)"/>
  <path id="Path_341" data-name="Path 341" d="M863.365,127.022a4.432,4.432,0,0,1-3.934-2.194,4.625,4.625,0,0,1,7.868,0A4.432,4.432,0,0,1,863.365,127.022Z" transform="translate(-489.614 -91.144)" opacity="0.5" fill="url(#linear-gradient-19)"/>
  <path id="Path_342" data-name="Path 342" d="M854.922,100.88l-13.8,7.021v14.047l13.8,7.016,13.8-7.021V107.906Zm0,17.576a3.577,3.577,0,1,1,4.026-3.548,3.346,3.346,0,0,1-1.172,2.521,4.315,4.315,0,0,1-2.854,1.046Z" transform="translate(-481.172 -79.723)" fill="#e6e6e6"/>
  <path id="Path_343" data-name="Path 343" d="M854.922,94.48l-13.8,7.021v14.047l13.8,7.021,13.8-7.021V101.506Zm0,17.576a3.577,3.577,0,1,1,4.026-3.553,3.345,3.345,0,0,1-1.169,2.525,4.314,4.314,0,0,1-2.856,1.048Z" transform="translate(-481.172 -76.363)" fill="#fff"/>
  <path id="Path_344" data-name="Path 344" d="M609.341,34.04,594.51,41.588v18.36l14.831,7.544,14.826-7.544V41.588Z" transform="translate(-274.113 -17.082)" fill="url(#linear-gradient-20)"/>
  <path id="Path_345" data-name="Path 345" d="M791.885,127.022a4.432,4.432,0,0,1-3.934-2.194,4.625,4.625,0,0,1,7.868,0A4.433,4.433,0,0,1,791.885,127.022Z" transform="translate(-456.657 -91.144)" opacity="0.5" fill="url(#linear-gradient-19)"/>
  <path id="Path_346" data-name="Path 346" d="M783.442,100.88l-13.8,7.021v14.047l13.8,7.016,13.8-7.021V107.906Zm0,17.576a3.577,3.577,0,1,1,4.026-3.548,3.346,3.346,0,0,1-1.171,2.521,4.315,4.315,0,0,1-2.854,1.046Z" transform="translate(-448.214 -79.723)" fill="#e6e6e6"/>
  <path id="Path_347" data-name="Path 347" d="M783.442,94.48l-13.8,7.021v14.047l13.8,7.021,13.8-7.021V101.506Zm0,17.576a3.577,3.577,0,1,1,4.026-3.548,3.346,3.346,0,0,1-1.171,2.521,4.315,4.315,0,0,1-2.854,1.046Z" transform="translate(-448.214 -76.363)" fill="#fff"/>
  <path id="Path_348" data-name="Path 348" d="M639.216,30.84,624.39,38.388V56.743l14.826,7.548,14.826-7.548V38.388Z" transform="translate(-287.89 -15.403)" fill="url(#linear-gradient)"/>
  <path id="Path_349" data-name="Path 349" d="M821.754,123.822a4.432,4.432,0,0,1-3.934-2.194,4.625,4.625,0,0,1,7.868,0A4.432,4.432,0,0,1,821.754,123.822Z" transform="translate(-470.429 -89.464)" opacity="0.5" fill="url(#linear-gradient-19)"/>
  <path id="Path_350" data-name="Path 350" d="M813.312,97.68l-13.8,7.021v14.032l13.8,7.021,13.8-7.021V104.706Zm0,17.576a3.577,3.577,0,1,1,4.026-3.548,3.346,3.346,0,0,1-1.171,2.521,4.315,4.315,0,0,1-2.854,1.046Z" transform="translate(-461.986 -78.043)" fill="#e6e6e6"/>
  <path id="Path_351" data-name="Path 351" d="M813.312,91.28,799.51,98.3v14.047l13.8,7.021,13.8-7.021V98.306Zm0,17.576a3.577,3.577,0,1,1,4.026-3.548,3.346,3.346,0,0,1-1.171,2.521,4.315,4.315,0,0,1-2.854,1.046Z" transform="translate(-461.986 -74.683)" fill="#fff"/>
  <path id="Path_352" data-name="Path 352" d="M161.11,57.519V16.97h190.9" transform="translate(-74.284 -8.121)" fill="none" stroke="#3ad29f" stroke-miterlimit="10" stroke-width="3" stroke-dasharray="12" opacity="0.5"/>
  <ellipse id="Ellipse_170" data-name="Ellipse 170" cx="8.052" cy="7.097" rx="8.052" ry="7.097" transform="translate(288.363 1.5)" fill="none" stroke="#3ad29f" stroke-miterlimit="10" stroke-width="3" stroke-dasharray="12" opacity="0.5"/>
  <path id="Path_353" data-name="Path 353" d="M649.684,681.67v40.549H458.78" transform="translate(-211.532 -357.067)" fill="none" stroke="#3ad29f" stroke-miterlimit="10" stroke-width="3" stroke-dasharray="12" opacity="0.5"/>
  <ellipse id="Ellipse_171" data-name="Ellipse 171" cx="8.052" cy="7.097" rx="8.052" ry="7.097" transform="translate(220.512 358.306)" fill="none" stroke="#3ad29f" stroke-miterlimit="10" stroke-width="3" stroke-dasharray="12" opacity="0.5"/>
  <ellipse id="Ellipse_172" data-name="Ellipse 172" cx="21.094" cy="18.593" rx="21.094" ry="18.593" transform="translate(311.677 89.979)" fill="url(#linear-gradient-24)"/>
  <ellipse id="Ellipse_173" data-name="Ellipse 173" cx="19.773" cy="17.429" rx="19.773" ry="17.429" transform="translate(312.997 91.143)" fill="#fff"/>
  <ellipse id="Ellipse_174" data-name="Ellipse 174" cx="1.32" cy="1.164" rx="1.32" ry="1.164" transform="translate(331.45 107.408)" fill="#333"/>
  <line id="Line_24" data-name="Line 24" y1="10.455" x2="11.862" transform="translate(332.77 98.117)" fill="none" stroke="#333" stroke-miterlimit="10" stroke-width="3"/>
  <path id="Path_354" data-name="Path 354" d="M797.05,268.633c0,5.848,3.325,11.306,8.86,14.531a16.722,16.722,0,0,0,7.74-14.433,17.072,17.072,0,0,0-8.844-13.931A16.771,16.771,0,0,0,797.05,268.633Z" transform="translate(-460.852 -160.526)" opacity="0.05"/>
  <ellipse id="Ellipse_175" data-name="Ellipse 175" cx="21.094" cy="18.593" rx="21.094" ry="18.593" transform="translate(367.186 89.979)" fill="url(#linear-gradient-24)"/>
  <ellipse id="Ellipse_176" data-name="Ellipse 176" cx="19.773" cy="17.429" rx="19.773" ry="17.429" transform="translate(368.507 91.143)" fill="#fff"/>
  <ellipse id="Ellipse_177" data-name="Ellipse 177" cx="1.32" cy="1.164" rx="1.32" ry="1.164" transform="translate(386.959 107.408)" fill="#333"/>
  <line id="Line_25" data-name="Line 25" y1="10.455" x2="11.862" transform="translate(388.28 98.117)" fill="none" stroke="#333" stroke-miterlimit="10" stroke-width="3"/>
  <path id="Path_355" data-name="Path 355" d="M900.05,268.633c0,5.848,3.325,11.306,8.86,14.531a16.723,16.723,0,0,0,7.74-14.433A17.072,17.072,0,0,0,907.8,254.8,16.771,16.771,0,0,0,900.05,268.633Z" transform="translate(-508.343 -160.526)" opacity="0.05"/>
  <ellipse id="Ellipse_178" data-name="Ellipse 178" cx="21.094" cy="18.593" rx="21.094" ry="18.593" transform="translate(311.677 133.682)" fill="url(#linear-gradient-24)"/>
  <ellipse id="Ellipse_179" data-name="Ellipse 179" cx="19.773" cy="17.429" rx="19.773" ry="17.429" transform="translate(312.997 134.846)" fill="#fff"/>
  <ellipse id="Ellipse_180" data-name="Ellipse 180" cx="1.32" cy="1.164" rx="1.32" ry="1.164" transform="translate(331.45 151.111)" fill="#333"/>
  <line id="Line_26" data-name="Line 26" x1="12.611" y2="11.116" transform="translate(320.16 152.275)" fill="none" stroke="#333" stroke-miterlimit="10" stroke-width="3"/>
  <path id="Path_356" data-name="Path 356" d="M797.05,360.633c0,5.848,3.325,11.306,8.86,14.531a16.722,16.722,0,0,0,7.74-14.433,17.072,17.072,0,0,0-8.844-13.931A16.771,16.771,0,0,0,797.05,360.633Z" transform="translate(-460.852 -208.823)" opacity="0.05"/>
  <ellipse id="Ellipse_181" data-name="Ellipse 181" cx="21.094" cy="18.593" rx="21.094" ry="18.593" transform="translate(367.186 133.682)" fill="url(#linear-gradient-24)"/>
  <ellipse id="Ellipse_182" data-name="Ellipse 182" cx="19.773" cy="17.429" rx="19.773" ry="17.429" transform="translate(368.507 134.846)" fill="#fff"/>
  <ellipse id="Ellipse_183" data-name="Ellipse 183" cx="1.32" cy="1.164" rx="1.32" ry="1.164" transform="translate(386.959 151.111)" fill="#333"/>
  <line id="Line_27" data-name="Line 27" y1="10.455" x2="11.862" transform="translate(388.28 141.82)" fill="none" stroke="#333" stroke-miterlimit="10" stroke-width="3"/>
  <path id="Path_357" data-name="Path 357" d="M900.05,360.633c0,5.848,3.325,11.306,8.86,14.531a16.723,16.723,0,0,0,7.74-14.433A17.072,17.072,0,0,0,907.8,346.8,16.771,16.771,0,0,0,900.05,360.633Z" transform="translate(-508.343 -208.823)" opacity="0.05"/>
</svg>
