<svg xmlns="http://www.w3.org/2000/svg" xmlns:xlink="http://www.w3.org/1999/xlink" width="360" height="340" viewBox="0 0 360 340">
  <defs>
    <linearGradient id="linear-gradient" x1="-6.735" y1="1" x2="-6.735" gradientUnits="objectBoundingBox">
      <stop offset="0" stop-color="gray" stop-opacity="0.251"/>
      <stop offset="0.54" stop-color="gray" stop-opacity="0.122"/>
      <stop offset="1" stop-color="gray" stop-opacity="0.102"/>
    </linearGradient>
  </defs>
  <g id="undraw_smart_home_28oy" transform="translate(-0.001 0.015)">
    <path id="Path_427" data-name="Path 427" d="M244.167,94.756c-23.079-1.048-45.061-10.811-66.05-21.492s-41.783-22.506-64.307-28.17c-14.489-3.64-31.059-4.174-42.732,6.023C59.841,60.91,56.212,77.831,54.262,93.5c-1.469,11.8-2.332,24.209,1.689,35.274,2.794,7.668,7.754,14.116,11.186,21.462,11.931,25.57,3.5,57.1-9.437,82.056-6.053,11.712-13.1,22.882-17.784,35.349s-6.846,26.747-2.753,39.461C41.226,319.712,50.9,329.162,61.38,335.84c21.285,13.524,46.368,17.4,70.826,19.588,54.141,4.85,108.572,2.751,162.857.647,20.09-.781,40.267-1.569,60.032-5.639,10.972-2.258,22.3-5.844,30.266-14.5,10.115-10.994,12.623-29.61,5.843-43.409-11.367-23.12-42.8-28.863-50.748-53.677-4.374-13.657.118-28.871,6.474-41.539,13.636-27.177,36.491-51.014,37.7-82.077.828-21.333-10.16-42.7-27.147-52.792-17.809-10.581-42.5-9.249-55.638,8.264C288.317,88.742,264.544,95.683,244.167,94.756Z" transform="translate(-35 -42.72)" fill="#eef0fa" opacity="0.1"/>
    <rect id="Rectangle_304" data-name="Rectangle 304" width="163.755" height="258.355" rx="19.8" transform="translate(105.9 55.952)" fill="#464353"/>
    <rect id="Rectangle_305" data-name="Rectangle 305" width="135.503" height="206.231" transform="translate(120.026 80.44)" fill="#fff" stroke="#fff" stroke-miterlimit="10" stroke-width="1" opacity="0.1"/>
    <ellipse id="Ellipse_240" data-name="Ellipse 240" cx="5.766" cy="7.555" rx="5.766" ry="7.555" transform="translate(182.011 294.289)" fill="#fff"/>
    <path id="Path_428" data-name="Path 428" d="M618.608,211.568c-1.5-.012-2.715-1.616-2.708-3.585s1.23-3.559,2.733-3.552,2.718,1.608,2.714,3.577a4.192,4.192,0,0,1-.807,2.524A2.444,2.444,0,0,1,618.608,211.568Z" transform="translate(-430.831 -136.942)" fill="#fff"/>
    <path id="Path_429" data-name="Path 429" d="M618.233,204.347a2.653,2.653,0,0,1,2.382,2.065,4.152,4.152,0,0,1-.553,3.671,2.143,2.143,0,0,1-2.8.724,3.506,3.506,0,0,1-1.576-3.121c.01-1.839,1.146-3.326,2.549-3.339m0-.417a2.994,2.994,0,0,0-2.665,2.337,4.664,4.664,0,0,0,.632,4.119,2.407,2.407,0,0,0,3.148.805,3.942,3.942,0,0,0,1.769-3.5c-.009-2.078-1.3-3.757-2.883-3.757Z" transform="translate(-430.456 -136.65)" fill="#fff"/>
    <path id="Path_430" data-name="Path 430" d="M602.816,299.444V292.1h4.205v7.346H611.3V288.429h2.734l-9.112-11.019-9.108,11.019h2.73v11.015Z" transform="translate(-417.141 -179.46)" fill="#eef0fa"/>
    <path id="Path_431" data-name="Path 431" d="M468.058,398.58v-7.931a1.333,1.333,0,1,0-2.571,0v7.931a3.934,3.934,0,0,0-1.258,3.874,2.543,2.543,0,1,0,5.086,0A3.934,3.934,0,0,0,468.058,398.58Zm-1.73-7.931a.446.446,0,1,1,.876,0v1.778h-.876Z" transform="translate(-327.423 -244.452)" fill="#fff" stroke="#fff" stroke-miterlimit="10" stroke-width="1"/>
    <rect id="Rectangle_306" data-name="Rectangle 306" width="76.462" height="1.114" transform="translate(157.154 151.957)" fill="#eef0fa" opacity="0.3"/>
    <ellipse id="Ellipse_241" data-name="Ellipse 241" cx="2.017" cy="2.642" rx="2.017" ry="2.642" transform="translate(178.748 149.874)" fill="#eef0fa"/>
    <rect id="Rectangle_307" data-name="Rectangle 307" width="23.611" height="1.114" transform="translate(157.154 151.957)" fill="#eef0fa"/>
    <path id="Path_432" data-name="Path 432" d="M460.693,488.888c-.03-.309-.234-.537-.472-.526a.5.5,0,0,0-.462.451l-.465,3.314a1.67,1.67,0,0,0-.019.255.991.991,0,1,0,1.912,0,1.622,1.622,0,0,0-.032-.3Zm3.619,1.423a1.3,1.3,0,0,0-.156-.142l-1.886-1.7a.317.317,0,0,0-.487.033.514.514,0,0,0-.051.551l1.453,2.358a1.064,1.064,0,0,0,.1.154.653.653,0,0,0,1.029,0,1.016,1.016,0,0,0,0-1.252Zm1.274-2.433-1.768-.083c-.11-.023-.215.073-.236.217a.323.323,0,0,0,.14.317h0l1.711.634a.4.4,0,0,0,.526-.417c0-.417-.092-.63-.373-.672Zm-8.787.451a.323.323,0,0,0,.14-.317c-.022-.144-.128-.24-.239-.217l-1.765.083c-.284.042-.366.246-.366.668a.4.4,0,0,0,.516.417l1.711-.639Zm1.443.134-1.886,1.7a1.081,1.081,0,0,0-.153.142,1.016,1.016,0,0,0,0,1.252.636.636,0,0,0,1.026,0,.709.709,0,0,0,.1-.15l1.453-2.35a.514.514,0,0,0-.051-.551.321.321,0,0,0-.5-.042Zm2.02-11a5.181,5.181,0,0,1,.828,2.308,2.013,2.013,0,0,1-.33,1.26,1.167,1.167,0,0,1-.929.543,1.212,1.212,0,0,1-.959-.532,2.083,2.083,0,0,1-.379-1.271v-.246a8.253,8.253,0,0,0-1.192,4.37c0,2.135,1.321,3.865,2.95,3.865s2.95-1.73,2.95-3.865c0-2.6-.981-5.656-2.953-6.432Zm-.105,8.849a1.385,1.385,0,0,1-1.188-1.519,1.42,1.42,0,0,1,1.035-1.507,2.789,2.789,0,0,0,1.708-1.252,8.754,8.754,0,0,1,.217,1.953,2.1,2.1,0,0,1-1.771,2.321Z" transform="translate(-320.899 -296.01)" fill="#fff" stroke="#fff" stroke-miterlimit="10" stroke-width="1"/>
    <rect id="Rectangle_308" data-name="Rectangle 308" width="76.462" height="1.114" transform="translate(157.154 188.926)" fill="#eef0fa" opacity="0.3"/>
    <ellipse id="Ellipse_242" data-name="Ellipse 242" cx="2.017" cy="2.642" rx="2.017" ry="2.642" transform="translate(196.589 186.843)" fill="#eef0fa"/>
    <rect id="Rectangle_309" data-name="Rectangle 309" width="41.646" height="1.114" transform="translate(157.154 188.926)" fill="#eef0fa"/>
    <path id="Path_433" data-name="Path 433" d="M462.219,581.206a.654.654,0,0,0,.548.718h2.409a.654.654,0,0,0,.548-.718v-.643h-3.5Zm1.752-13.056c-2.182,0-3.941,2.15-3.941,4.808a5.2,5.2,0,0,0,1.682,3.965v1.557a.825.825,0,0,0,.173.5.479.479,0,0,0,.391.191h3.39a.479.479,0,0,0,.391-.191.825.825,0,0,0,.173-.5v-1.557a5.193,5.193,0,0,0,1.685-3.965c0-2.659-1.762-4.808-3.944-4.808Z" transform="translate(-324.619 -348.846)" fill="#fff" stroke="#fff" stroke-miterlimit="10" stroke-width="1"/>
    <rect id="Rectangle_310" data-name="Rectangle 310" width="76.462" height="1.114" transform="translate(157.154 225.636)" fill="#eef0fa" opacity="0.3"/>
    <ellipse id="Ellipse_243" data-name="Ellipse 243" cx="2.017" cy="2.642" rx="2.017" ry="2.642" transform="translate(216.342 223.549)" fill="#eef0fa"/>
    <rect id="Rectangle_311" data-name="Rectangle 311" width="61.399" height="1.114" transform="translate(157.154 225.636)" fill="#eef0fa"/>
    <path id="Path_434" data-name="Path 434" d="M464.15,651.85v8.031H465.9v6.887l3.5-9.183h-1.752l1.752-5.735Z" transform="translate(-327.427 -397.61)" fill="#fff" stroke="#fff" stroke-miterlimit="10" stroke-width="1"/>
    <rect id="Rectangle_312" data-name="Rectangle 312" width="76.462" height="1.114" transform="translate(157.154 261.143)" fill="#eef0fa" opacity="0.3"/>
    <ellipse id="Ellipse_244" data-name="Ellipse 244" cx="2.017" cy="2.642" rx="2.017" ry="2.642" transform="translate(178.748 259.056)" fill="#eef0fa"/>
    <rect id="Rectangle_313" data-name="Rectangle 313" width="23.611" height="1.114" transform="translate(157.154 261.143)" fill="#eef0fa"/>
    <ellipse id="Ellipse_245" data-name="Ellipse 245" cx="18.947" cy="4.775" rx="18.947" ry="4.775" transform="translate(90.674 321.01)" fill="#eef0fa"/>
    <ellipse id="Ellipse_246" data-name="Ellipse 246" cx="2.205" cy="3.782" rx="2.205" ry="3.782" transform="translate(107.101 319.975)" fill="#3f3d56"/>
    <ellipse id="Ellipse_247" data-name="Ellipse 247" cx="2.205" cy="3.782" rx="2.205" ry="3.782" transform="translate(107.101 315.351)" fill="#3f3d56"/>
    <ellipse id="Ellipse_248" data-name="Ellipse 248" cx="2.205" cy="3.782" rx="2.205" ry="3.782" transform="translate(107.101 310.73)" fill="#3f3d56"/>
    <ellipse id="Ellipse_249" data-name="Ellipse 249" cx="2.205" cy="3.782" rx="2.205" ry="3.782" transform="translate(107.101 306.105)" fill="#3f3d56"/>
    <ellipse id="Ellipse_250" data-name="Ellipse 250" cx="2.205" cy="3.782" rx="2.205" ry="3.782" transform="translate(107.101 301.48)" fill="#3f3d56"/>
    <ellipse id="Ellipse_251" data-name="Ellipse 251" cx="2.205" cy="3.782" rx="2.205" ry="3.782" transform="translate(107.101 296.856)" fill="#3f3d56"/>
    <ellipse id="Ellipse_252" data-name="Ellipse 252" cx="2.205" cy="3.782" rx="2.205" ry="3.782" transform="translate(107.101 292.231)" fill="#3f3d56"/>
    <path id="Path_435" data-name="Path 435" d="M363.638,644.848a15.178,15.178,0,0,0,.822-1.586l-5.8-1.252,6.27.063a17.878,17.878,0,0,0,.2-10.969l-8.4,5.718,7.754-7.471c-1.98-4.486-5.707-7.147-9.657-6.9s-7.464,3.369-9.105,8.083a17.436,17.436,0,0,0,1.31,14.307,15.3,15.3,0,0,0-1.2,2.5l7.525,5.121-8.022-3.5a17.388,17.388,0,0,0,1.7,13c-3.4,5.675-2.909,13.824,1.138,18.722s10.288,4.9,14.335,0,4.543-13.047,1.138-18.721a17.335,17.335,0,0,0,0-17.113Z" transform="translate(-246.078 -380.474)" fill="#eef0fa"/>
    <path id="Path_436" data-name="Path 436" d="M344.78,696.346a16.674,16.674,0,0,0,2.259,8.557c-3.4,5.675-2.909,13.825,1.138,18.722s10.288,4.9,14.335,0,4.543-13.047,1.138-18.721C365.064,702.548,344.78,694.793,344.78,696.346Z" transform="translate(-246.086 -423.415)" opacity="0.1"/>
    <ellipse id="Ellipse_253" data-name="Ellipse 253" cx="29.291" cy="7.38" rx="29.291" ry="7.38" transform="translate(38.862 276.963)" fill="#eef0fa"/>
    <ellipse id="Ellipse_254" data-name="Ellipse 254" cx="3.409" cy="5.848" rx="3.409" ry="5.848" transform="translate(65.232 275.36)" fill="#3f3d56"/>
    <ellipse id="Ellipse_255" data-name="Ellipse 255" cx="3.409" cy="5.848" rx="3.409" ry="5.848" transform="translate(65.232 268.21)" fill="#3f3d56"/>
    <ellipse id="Ellipse_256" data-name="Ellipse 256" cx="3.409" cy="5.848" rx="3.409" ry="5.848" transform="translate(65.232 261.06)" fill="#3f3d56"/>
    <ellipse id="Ellipse_257" data-name="Ellipse 257" cx="3.409" cy="5.848" rx="3.409" ry="5.848" transform="translate(65.232 253.91)" fill="#3f3d56"/>
    <ellipse id="Ellipse_258" data-name="Ellipse 258" cx="3.409" cy="5.848" rx="3.409" ry="5.848" transform="translate(65.232 246.764)" fill="#3f3d56"/>
    <ellipse id="Ellipse_259" data-name="Ellipse 259" cx="3.409" cy="5.848" rx="3.409" ry="5.848" transform="translate(65.232 239.614)" fill="#3f3d56"/>
    <ellipse id="Ellipse_260" data-name="Ellipse 260" cx="3.409" cy="5.848" rx="3.409" ry="5.848" transform="translate(65.232 232.464)" fill="#3f3d56"/>
    <path id="Path_437" data-name="Path 437" d="M202.9,448.166a23.08,23.08,0,0,1-1.274-2.45l8.965-1.924-9.692.1a27.625,27.625,0,0,1-.319-16.959l13,8.836L201.6,424.212c3.066-6.921,8.824-11.023,14.925-10.634s11.527,5.206,14.065,12.485a26.962,26.962,0,0,1-2.005,22.1,23.069,23.069,0,0,1,1.861,3.9L218.811,460l12.4-5.455a26.875,26.875,0,0,1-2.632,20.089c5.268,8.775,4.5,21.381-1.755,28.956s-15.912,7.575-22.171,0-7.024-20.181-1.755-28.956a26.8,26.8,0,0,1,0-26.467Z" transform="translate(-147.023 -258.777)" fill="#eef0fa"/>
    <path id="Path_438" data-name="Path 438" d="M232.1,527.74a25.812,25.812,0,0,1-3.5,13.236c5.268,8.775,4.5,21.381-1.755,28.956s-15.912,7.575-22.171,0-7.024-20.181-1.755-28.956C200.719,537.332,232.1,525.34,232.1,527.74Z" transform="translate(-147.033 -325.12)" opacity="0.1"/>
    <ellipse id="Ellipse_261" data-name="Ellipse 261" cx="31.54" cy="8.765" rx="31.54" ry="8.765" transform="translate(249.456 322.455)" fill="#eef0fa" opacity="0.1"/>
    <path id="Path_439" data-name="Path 439" d="M877.571,605.71a3.065,3.065,0,0,0,.121.622,3.667,3.667,0,0,0,1.045,1.9,2.483,2.483,0,0,0,.828.417c1.953.614,3.982.417,5.977.68s4.107.943,6.076.209a1.747,1.747,0,0,0,1.147-1.127.827.827,0,0,0,.029-.121,8.143,8.143,0,0,0,4.237-.088,1.754,1.754,0,0,0,1.147-1.127,3.306,3.306,0,0,0,.067-1.006,25.563,25.563,0,0,0-.529-5.2,17.46,17.46,0,0,0-.545-1.757q-.468-1.315-1.02-2.567l-.111-.271c.268.154.529.321.787.5a111.208,111.208,0,0,0,2.577-14.78,67.84,67.84,0,0,0-.4-17.894,33.226,33.226,0,0,1-.319-5.965,80.565,80.565,0,0,1,1.536-11.733q.535-2.922,1.067-5.881l1.523-8.381a24.335,24.335,0,0,0,.57-5.668,18.924,18.924,0,0,0-.471-3.08,43.064,43.064,0,0,0-1.338-4.733.493.493,0,0,0,.449-.121,1.145,1.145,0,0,0,.2-.522l.8-3.79a52.256,52.256,0,0,0,1.274-8.085c.175-3.118-.185-6.261-.261-9.366-.1-4.057.277-8.127.076-12.175-.045-.877-.115-1.749-.194-2.617.035-.459.045-.918.054-1.377a21.145,21.145,0,0,0-.6-6.607,9.507,9.507,0,0,0-2.1-3.815c.029-.188.061-.371.089-.559l.669-4.174c.739-4.629,1.485-9.371,1.061-14.075-.379-4.174-1.873-8.415-4.4-10.644l-.022-.021-.271-.225-.048-.038c-.083-.067-.169-.129-.255-.188l-.064-.046a3.447,3.447,0,0,0-.319-.209,8.388,8.388,0,0,0-2.549-1l-.35-.071a7.551,7.551,0,0,0-1.055-.142h-.354a5.6,5.6,0,0,0-1.055.083,1.62,1.62,0,0,0-.389.083l-.382.1a12.88,12.88,0,0,1-2.307.63c-.147,0-.3.025-.443.029-.443,0-.886-.038-1.332-.071-.22,0-.443-.025-.663-.025a4.044,4.044,0,0,0-1.093.129,4.212,4.212,0,0,0-1.72,1.039,8.285,8.285,0,0,0-1.045,1.219q-.386.546-.726,1.144c-.105.184-.207.372-.319.568l-.146.3c-.092.2-.182.417-.264.618a9.4,9.4,0,0,0-.319.968,5.994,5.994,0,0,0-.143,2.709q.058.287.14.564a13.372,13.372,0,0,0-.876,4.838c0,4.591,2.186,8.465,5.19,9.742.366.885.812,2.012,1.185,3.105a10.372,10.372,0,0,0-2.036,2.7c-1.867-.138-3.708,1.811-4.3,4.27a10.067,10.067,0,0,0-.226,2.922,38.512,38.512,0,0,0-.443,6.42c-.054,3.381-.188,6.753-.319,10.13s-.264,6.724-.4,10.088c-.038.964-.076,1.933-.172,2.888-.468.163-.491,1-.436,1.67.146,1.782.385,3.585.538,5.376a11.573,11.573,0,0,0-.131,3.377l.271.159a17.463,17.463,0,0,1-.382,3.41,1.405,1.405,0,0,1-.2.547,1.126,1.126,0,0,1,.424-.138c-.4,1.745-.726,3.531-1.2,5.247-.245.885-.532,1.753-.742,2.659q-.276,1.29-.446,2.613c-.08.507-.136,1.02-.169,1.536a7.576,7.576,0,0,0,1.679,5.284c0,.342-.019.68-.019,1.023,0,2.442.274,4.875.207,7.313-.089,3.285-.538,6.394-.551,9.684-.041,9.1,1.864,17.994,4.1,26.546q1.329,5.084,2.82,10.072c.586,1.97,1.249,4.174.618,6.107.214-.113.424-.217.637-.317a9.368,9.368,0,0,1-1.459,2.922,5.685,5.685,0,0,1-3.657,2.267,6.455,6.455,0,0,0-1.985.351A2.15,2.15,0,0,0,877.571,605.71Zm8.143-47.216a48.605,48.605,0,0,1,3.912-13.307l.019.271c.1,1.344.29,2.688.494,4.028a48.244,48.244,0,0,1,.851,8.473,63.037,63.037,0,0,0,.4,8.982,17.964,17.964,0,0,0,.637,3.4c.21.651.484,1.252.637,1.937a11.972,11.972,0,0,1,.255,2.4,112.734,112.734,0,0,1-.93,19.989c-.22,0-.36.046-.363.083a11,11,0,0,1-.87,3.2l-.038-.092c-.076-.175-.156-.376-.239-.576l.264.054a21.582,21.582,0,0,1-.694-6.762,81.008,81.008,0,0,0-.723-9.287,66.686,66.686,0,0,0-3.234-13.432,13.069,13.069,0,0,1-.637-2.83A24.821,24.821,0,0,1,885.714,558.494Zm13.142-49.67a7.022,7.022,0,0,0-.385-.609,2.213,2.213,0,0,1-.605-1.574,1.729,1.729,0,0,1,.268-.643,8.63,8.63,0,0,1,.848-1.165l.1-.117q-.115,2.041-.226,4.095Z" transform="translate(-608.283 -273.48)" fill="url(#linear-gradient)"/>
    <path id="Path_440" data-name="Path 440" d="M949.184,534l.35,3.544c.118,1.2.236,2.4.3,3.606.213,4.015-.182,8.047-.08,12.071.083,3.1.459,6.19.277,9.283a50.026,50.026,0,0,1-1.348,8.014l-.841,3.757a1.116,1.116,0,0,1-.21.518.6.6,0,0,1-.538.113l-3.734-.417c.239-1.436.5-2.922.637-4.4.1-1.152.162-2.312.226-3.473.2-3.615.424-7.229.637-10.852l.4-6.344a61.9,61.9,0,0,1,.873-8.2A18.219,18.219,0,0,1,949.184,534Z" transform="translate(-653.966 -328.95)" fill="#eef0fa"/>
    <path id="Path_441" data-name="Path 441" d="M949.184,534l.35,3.544c.118,1.2.236,2.4.3,3.606.213,4.015-.182,8.047-.08,12.071.083,3.1.459,6.19.277,9.283a50.026,50.026,0,0,1-1.348,8.014l-.841,3.757a1.116,1.116,0,0,1-.21.518.6.6,0,0,1-.538.113l-3.734-.417c.239-1.436.5-2.922.637-4.4.1-1.152.162-2.312.226-3.473.2-3.615.424-7.229.637-10.852l.4-6.344a61.9,61.9,0,0,1,.873-8.2A18.219,18.219,0,0,1,949.184,534Z" transform="translate(-653.966 -328.95)" opacity="0.1"/>
    <path id="Path_442" data-name="Path 442" d="M908.9,816.915a17.7,17.7,0,0,1,.573,1.745,24.26,24.26,0,0,1,.554,5.159,3.251,3.251,0,0,1-.07,1,1.755,1.755,0,0,1-1.207,1.114c-2.068.73-4.247.046-6.372-.2s-4.224-.067-6.276-.672a2.74,2.74,0,0,1-.87-.4,3.593,3.593,0,0,1-1.1-1.878,3.086,3.086,0,0,1-.124-.618,2.116,2.116,0,0,1,1.2-2.012,7.067,7.067,0,0,1,2.084-.346c2.954-.4,5.338-3.342,5.811-7.183a11.062,11.062,0,0,1,3.823.18,4.259,4.259,0,0,1,.914,1.574Q908.409,815.613,908.9,816.915Z" transform="translate(-620.334 -491.217)" fill="#a26565"/>
    <path id="Path_443" data-name="Path 443" d="M908.9,816.915a17.7,17.7,0,0,1,.573,1.745,24.26,24.26,0,0,1,.554,5.159,3.251,3.251,0,0,1-.07,1,1.755,1.755,0,0,1-1.207,1.114c-2.068.73-4.247.046-6.372-.2s-4.224-.067-6.276-.672a2.74,2.74,0,0,1-.87-.4,3.593,3.593,0,0,1-1.1-1.878,3.086,3.086,0,0,1-.124-.618,2.116,2.116,0,0,1,1.2-2.012,7.067,7.067,0,0,1,2.084-.346c2.954-.4,5.338-3.342,5.811-7.183a11.062,11.062,0,0,1,3.823.18,4.259,4.259,0,0,1,.914,1.574Q908.409,815.613,908.9,816.915Z" transform="translate(-620.334 -491.217)" opacity="0.1"/>
    <path id="Path_444" data-name="Path 444" d="M891.057,820.064a16.78,16.78,0,0,1,.573,1.74,24,24,0,0,1,.554,5.159,3.158,3.158,0,0,1-.07,1,1.759,1.759,0,0,1-1.2,1.119c-2.068.726-4.25.042-6.372-.209s-4.228-.067-6.276-.672a2.649,2.649,0,0,1-.87-.417,3.577,3.577,0,0,1-1.1-1.878,3.082,3.082,0,0,1-.124-.618,2.12,2.12,0,0,1,1.2-2.012,7.207,7.207,0,0,1,2.084-.346c2.953-.4,5.335-3.34,5.811-7.179a11.052,11.052,0,0,1,3.823.175,4.221,4.221,0,0,1,.918,1.574C890.372,818.345,890.729,819.2,891.057,820.064Z" transform="translate(-608.177 -493.039)" fill="#a26565"/>
    <path id="Path_445" data-name="Path 445" d="M876.378,660.764c-.045,9.02,1.956,17.835,4.3,26.3q1.4,5.034,2.96,9.98c.618,1.953,1.316,4.124.653,6.052a8.812,8.812,0,0,1,5.865-1.073c-.765-2.045-.691-4.424-.726-6.678a76.123,76.123,0,0,0-.752-9.2,62.864,62.864,0,0,0-3.438-13.311,12.536,12.536,0,0,1-.666-2.8,23.349,23.349,0,0,1,.284-6.474,45.969,45.969,0,0,1,4.11-13.19l.019.267q.178,2.014.516,3.994a45.159,45.159,0,0,1,.9,8.4,59.307,59.307,0,0,0,.42,8.9,16.967,16.967,0,0,0,.685,3.364c.22.647.507,1.252.679,1.924a11.317,11.317,0,0,1,.268,2.379,105.219,105.219,0,0,1-1.058,20.344,8.012,8.012,0,0,1,5.136,1.532,104.74,104.74,0,0,0,2.708-14.651,63.512,63.512,0,0,0-.414-17.723,30.7,30.7,0,0,1-.335-5.906,75.638,75.638,0,0,1,1.612-11.633l1.121-5.844q.8-4.174,1.593-8.31a22.814,22.814,0,0,0,.6-5.618,17.745,17.745,0,0,0-.5-3.055,39.3,39.3,0,0,0-3.527-9.45c-6.139.451-12.352-.3-18.478-.918a.994.994,0,0,0-.867.192,1.87,1.87,0,0,0-.35,1.035l-2.3,17.113a55.826,55.826,0,0,0-.637,7.221c0,2.421.287,4.833.217,7.25C876.863,654.424,876.391,657.5,876.378,660.764Z" transform="translate(-608.323 -378.079)" fill="#454b69"/>
    <path id="Path_446" data-name="Path 446" d="M916,677.024q.179,2.013.516,3.995c1.335-3.026,2.775-5.977,4-9.078.319-.8.618-1.607.921-2.417l.908-2.421c.169-.455.338-.91.491-1.373a12.075,12.075,0,0,0,.57-2.087c-.446-.109-1.548,1.469-1.88,1.883a32.273,32.273,0,0,0-1.911,2.772,30.835,30.835,0,0,0-2.026,3.423A19.956,19.956,0,0,0,916,677.024Z" transform="translate(-635.322 -404.478)" opacity="0.1"/>
    <path id="Path_447" data-name="Path 447" d="M899.9,491.684s3.409,7.117,2.778,8.607,10.736-1.323,10.736-1.323-6.19-7.117-5.556-10.1S899.9,491.684,899.9,491.684Z" transform="translate(-624.351 -302.161)" fill="#ee8e9e"/>
    <ellipse id="Ellipse_262" data-name="Ellipse 262" cx="7.707" cy="10.097" rx="7.707" ry="10.097" transform="translate(270.872 171.483)" fill="#ee8e9e"/>
    <path id="Path_448" data-name="Path 448" d="M886.131,507.61a8.673,8.673,0,0,1,3.24-3.427,9.41,9.41,0,0,1,2.3-.743l3.074-.71a3.036,3.036,0,0,1,2.259.067,3.957,3.957,0,0,1,.956.922,13.856,13.856,0,0,0,3.444,3.473c.366.2.749.355,1.115.559a7.95,7.95,0,0,1,3.256,4.591,19.772,19.772,0,0,1,.637,6.545,14.947,14.947,0,0,1-.175,2.3,18.07,18.07,0,0,1-.583,2.112q-.632,2.193-1.058,4.474-1.195,5.99-1.988,12.1a5.616,5.616,0,0,1-.385,1.67,5.434,5.434,0,0,1-1.064,1.34,8,8,0,0,0-.889,1.156,1.663,1.663,0,0,0-.284.634,2.19,2.19,0,0,0,.637,1.557,8.341,8.341,0,0,1,1.44,3.285,1.606,1.606,0,0,1,.229.906,2.045,2.045,0,0,0-.073.718,1.738,1.738,0,0,0,.29.589,2.771,2.771,0,0,1,.319,1.786,17.521,17.521,0,0,1-7.544,2.312c-.637.042-1.274.042-1.911.142-.452.075-.9.2-1.351.267a11.149,11.149,0,0,1-1.975.067c-3.431-.092-6.961-.2-10.112-1.987-.3-2.116.344-4.274.745-6.361.637-3.339.8-6.758,1.274-10.126.319-2.3.8-4.566,1.067-6.883a21.48,21.48,0,0,0-.153-6.971c-.43-2-.561-4.032-1.007-6.023a13.368,13.368,0,0,1-.255-6.119C882.235,509.413,884.169,507.472,886.131,507.61Z" transform="translate(-610.697 -310.625)" fill="#eef0fa"/>
    <path id="Path_449" data-name="Path 449" d="M887.445,451.741a7.35,7.35,0,0,1,1.242-5.113c.956-1.565,2.173-2.976,3.667-3.368,1.214-.321,2.472.067,3.708-.063,1.093-.113,2.144-.63,3.23-.835a7.852,7.852,0,0,1,2.956.146,9.267,9.267,0,0,1,2.692.985c3.281,1.908,5.2,6.607,5.649,11.27s-.319,9.362-1.112,13.949l-.7,4.149a106.067,106.067,0,0,0-1.66,13.073,35.583,35.583,0,0,0,1.555,12.981c-4.482-3.154-7.955-8.3-9.79-14.521-.5-1.707-.867-3.481-1.421-5.159-.475-1.444-1.083-2.813-1.5-4.287a17.857,17.857,0,0,1-.672-5.2c.026-1.336.194-2.663.166-4a6.657,6.657,0,0,0-.994-3.694,8.517,8.517,0,0,0-2.319-1.807,10.843,10.843,0,0,1-3.246-3.548,4.649,4.649,0,0,1-.663-2.237C888.1,453.473,887.643,452.689,887.445,451.741Z" transform="translate(-615.796 -275.517)" fill="#454b69"/>
    <path id="Path_450" data-name="Path 450" d="M876.962,638.893c-.08,1.039.064,2.087-.108,3.118-.131.768-.433,1.461-.612,2.212a13.607,13.607,0,0,0-.271,2.659c-.025.751.019,1.67.529,2.02.223.154.491.154.723.288a.661.661,0,0,1,.3.781c-.134.284-.363.238-.573.292s-.436.338-.319.568a.368.368,0,0,0,.185.154,2.08,2.08,0,0,1,.6.376.928.928,0,0,1,.245.764.463.463,0,0,1-.2.317.285.285,0,0,1-.313-.008,2.632,2.632,0,0,1,.15.835c-.816.459-1.73-.142-2.495-.722a9.521,9.521,0,0,1-.956-.8,7.181,7.181,0,0,1-1.861-5.33c.036-.512.1-1.021.182-1.523q.177-1.313.468-2.592c.22-.9.519-1.753.777-2.634.548-1.874.9-3.836,1.4-5.735a.934.934,0,0,1,.239-.5.539.539,0,0,1,.354-.088,4.479,4.479,0,0,1,1.66.2,1.787,1.787,0,0,1,1.013.835c.15.417-.089.768-.233,1.114a11.416,11.416,0,0,0-.879,3.4Z" transform="translate(-605.323 -386.823)" fill="#ee8e9e"/>
    <path id="Path_451" data-name="Path 451" d="M882.878,525.14a3.184,3.184,0,0,0-.408.743c-1.1,2.609-1.109,5.727-1.16,8.7-.057,3.339-.2,6.678-.338,10.038l-.417,10.018c-.042.956-.08,1.912-.185,2.859-.491.163-.51,1-.456,1.67.354,4.082,1.23,8.285.319,12.213a1.4,1.4,0,0,1-.214.543,1.928,1.928,0,0,1,1.424-.025c.456.125.9.346,1.354.484a2.541,2.541,0,0,1,1.631.835,52.1,52.1,0,0,0,1.067-5.393,26.435,26.435,0,0,1,.793-4.934c.207-.622.488-1.2.742-1.795a48.03,48.03,0,0,0,2.631-10.13,19.285,19.285,0,0,0,.2-5.034,22.537,22.537,0,0,1-.159-2.317,23.048,23.048,0,0,1,.245-2.438,21.246,21.246,0,0,0-.373-7.058,22.707,22.707,0,0,0-1.911-6.148A5.9,5.9,0,0,0,882.878,525.14Z" transform="translate(-610.719 -323.789)" opacity="0.1"/>
    <path id="Path_452" data-name="Path 452" d="M881.691,524.34a3.215,3.215,0,0,0-.408.747c-1.1,2.6-1.109,5.727-1.16,8.7-.057,3.339-.2,6.678-.338,10.018l-.417,10.017c-.041.956-.08,1.912-.185,2.859-.491.163-.51,1-.452,1.67.35,4.082,1.227,8.281.319,12.213a1.394,1.394,0,0,1-.213.543,1.928,1.928,0,0,1,1.424-.025c.456.125.9.346,1.354.48.58.175,1.236.246,1.631.835a51.6,51.6,0,0,0,1.067-5.4,26.386,26.386,0,0,1,.793-4.929q.336-.921.742-1.795a47.877,47.877,0,0,0,2.632-10.134,19.277,19.277,0,0,0,.2-5.034,14.142,14.142,0,0,1,.086-4.754,21.213,21.213,0,0,0-.373-7.054,22.7,22.7,0,0,0-1.912-6.148A5.892,5.892,0,0,0,881.691,524.34Z" transform="translate(-609.911 -323.322)" fill="#eef0fa"/>
    <g id="Group_38" data-name="Group 38" transform="translate(271.549 166.768)" opacity="0.1">
      <path id="Path_453" data-name="Path 453" d="M888.688,446.628c.956-1.565,2.173-2.976,3.667-3.368,1.214-.321,2.472.067,3.708-.063,1.093-.113,2.144-.63,3.231-.835a7.852,7.852,0,0,1,2.957.146,9.266,9.266,0,0,1,2.692.985,7.777,7.777,0,0,1,1.328.989,9.292,9.292,0,0,0-2.38-.835,7.823,7.823,0,0,0-2.953-.146c-1.09.184-2.138.7-3.234.81-1.233.129-2.491-.255-3.708.063-1.494.392-2.718,1.807-3.664,3.373a7.342,7.342,0,0,0-1.246,5.113c.2.943.656,1.77.781,2.742a4.624,4.624,0,0,0,.666,2.237,11.355,11.355,0,0,0,2.339,2.851c-.245-.15-.5-.3-.736-.463a10.843,10.843,0,0,1-3.246-3.548,4.649,4.649,0,0,1-.663-2.237c-.127-.985-.583-1.795-.781-2.742A7.293,7.293,0,0,1,888.688,446.628Z" transform="translate(-887.345 -442.285)"/>
      <path id="Path_454" data-name="Path 454" d="M908.74,489.018a3.632,3.632,0,0,0-.43-.488,6.6,6.6,0,0,1,2.074,1.67,6.726,6.726,0,0,1,.994,3.694c.038,1.336-.143,2.663-.166,3.994a17.888,17.888,0,0,0,.672,5.209c.421,1.473,1.029,2.838,1.5,4.287.551,1.67.921,3.448,1.418,5.155a27.869,27.869,0,0,0,8.1,13.2c.019.054.035.113.054.167-4.482-3.154-7.954-8.3-9.79-14.521-.5-1.707-.867-3.481-1.421-5.159-.475-1.444-1.083-2.813-1.5-4.287a17.859,17.859,0,0,1-.672-5.2c.026-1.336.194-2.663.166-4A6.708,6.708,0,0,0,908.74,489.018Z" transform="translate(-901.631 -469.228)"/>
    </g>
    <rect id="Rectangle_314" data-name="Rectangle 314" width="26.124" height="24.209" rx="9.15" transform="translate(39.187 50.822)" fill="#eef0fa" opacity="0.1"/>
    <rect id="Rectangle_315" data-name="Rectangle 315" width="26.124" height="24.209" rx="9.15" transform="translate(65.311 93.396)" fill="#eef0fa" opacity="0.1"/>
    <rect id="Rectangle_316" data-name="Rectangle 316" width="26.124" height="24.209" rx="9.15" transform="translate(282.59 54.996)" fill="#eef0fa" opacity="0.1"/>
  </g>
</svg>
