<svg xmlns="http://www.w3.org/2000/svg" xmlns:xlink="http://www.w3.org/1999/xlink" width="520" height="478.801" viewBox="0 0 520 478.801">
  <defs>
    <linearGradient id="linear-gradient" x1="0.5" y1="1" x2="0.5" gradientUnits="objectBoundingBox">
      <stop offset="0" stop-color="gray" stop-opacity="0.251"/>
      <stop offset="0.54" stop-color="gray" stop-opacity="0.122"/>
      <stop offset="1" stop-color="gray" stop-opacity="0.102"/>
    </linearGradient>
    <linearGradient id="linear-gradient-8" x1="0.5" x2="0.5" y2="0" xlink:href="#linear-gradient"/>
    <linearGradient id="linear-gradient-17" x1="0" y1="0.5" x2="1" y2="0.5" xlink:href="#linear-gradient"/>
    <linearGradient id="linear-gradient-19" x1="0.5" x2="0.5" y2="-0.001" xlink:href="#linear-gradient"/>
    <linearGradient id="linear-gradient-20" x1="0.5" x2="0.5" y2="0" xlink:href="#linear-gradient"/>
    <linearGradient id="linear-gradient-24" x1="0.5" x2="0.5" y2="0" xlink:href="#linear-gradient"/>
  </defs>
  <g id="undraw_control_panel1_20gm_1_" data-name="undraw_control_panel1_20gm (1)" transform="translate(0 1.5)">
    <rect id="Rectangle_62" data-name="Rectangle 62" width="520" height="260.799" transform="translate(0 107.501)" opacity="0.5" fill="url(#linear-gradient)"/>
    <rect id="Rectangle_63" data-name="Rectangle 63" width="505.06" height="242.969" transform="translate(7.47 116.412)" fill="#fff"/>
    <rect id="Rectangle_64" data-name="Rectangle 64" width="436.38" height="14.94" transform="translate(45.88 133.188)" fill="#f5f5f5"/>
    <circle id="Ellipse_37" data-name="Ellipse 37" cx="25.24" cy="25.24" r="25.24" transform="translate(139.318 118.551)" opacity="0.5" fill="url(#linear-gradient)"/>
    <circle id="Ellipse_38" data-name="Ellipse 38" cx="25.24" cy="25.24" r="25.24" transform="translate(93.853 158.142)" opacity="0.5" fill="url(#linear-gradient)"/>
    <circle id="Ellipse_39" data-name="Ellipse 39" cx="25.24" cy="25.24" r="25.24" transform="translate(228.186 198.315)" opacity="0.5" fill="url(#linear-gradient)"/>
    <circle id="Ellipse_40" data-name="Ellipse 40" cx="25.24" cy="25.24" r="25.24" transform="translate(109.5 237.905)" opacity="0.5" fill="url(#linear-gradient)"/>
    <circle id="Ellipse_41" data-name="Ellipse 41" cx="25.24" cy="25.24" r="25.24" transform="translate(56.29 277.496)" opacity="0.5" fill="url(#linear-gradient)"/>
    <circle id="Ellipse_42" data-name="Ellipse 42" cx="25.24" cy="25.24" r="25.24" transform="translate(187.844 317.087)" opacity="0.5" fill="url(#linear-gradient)"/>
    <circle id="Ellipse_43" data-name="Ellipse 43" cx="19.2" cy="19.2" r="19.2" transform="translate(144.353 123.492)" fill="#f3f3f3" opacity="0.5"/>
    <rect id="Rectangle_65" data-name="Rectangle 65" width="436.38" height="14.94" transform="translate(45.88 174.265)" fill="#f5f5f5"/>
    <circle id="Ellipse_44" data-name="Ellipse 44" cx="19.2" cy="19.2" r="19.2" transform="translate(84.874 163.71)" fill="#f3f3f3" opacity="0.5"/>
    <rect id="Rectangle_66" data-name="Rectangle 66" width="436.38" height="14.94" transform="translate(45.88 215.348)" fill="#f5f5f5"/>
    <circle id="Ellipse_45" data-name="Ellipse 45" cx="19.2" cy="19.2" r="19.2" transform="translate(233.867 203.934)" fill="#f3f3f3"/>
    <rect id="Rectangle_67" data-name="Rectangle 67" width="436.38" height="14.94" transform="translate(45.88 256.426)" fill="#f5f5f5"/>
    <circle id="Ellipse_46" data-name="Ellipse 46" cx="19.2" cy="19.2" r="19.2" transform="translate(114.098 244.152)" fill="#f3f3f3"/>
    <rect id="Rectangle_68" data-name="Rectangle 68" width="436.38" height="14.94" transform="translate(45.88 297.509)" fill="#f5f5f5"/>
    <circle id="Ellipse_47" data-name="Ellipse 47" cx="19.2" cy="19.2" r="19.2" transform="translate(61.89 284.375)" fill="#f3f3f3" opacity="0.5"/>
    <rect id="Rectangle_69" data-name="Rectangle 69" width="436.38" height="14.94" transform="translate(45.88 338.586)" fill="#f5f5f5"/>
    <circle id="Ellipse_48" data-name="Ellipse 48" cx="19.2" cy="19.2" r="19.2" transform="translate(193.526 324.593)" fill="#f3f3f3"/>
    <rect id="Rectangle_70" data-name="Rectangle 70" width="68.28" height="46.34" transform="translate(312.396 236.874)" opacity="0.5" fill="url(#linear-gradient-8)"/>
    <rect id="Rectangle_71" data-name="Rectangle 71" width="68.28" height="46.34" transform="translate(365.181 236.874)" opacity="0.5" fill="url(#linear-gradient-8)"/>
    <rect id="Rectangle_72" data-name="Rectangle 72" width="68.28" height="46.34" transform="translate(393.04 236.874)" opacity="0.5" fill="url(#linear-gradient-8)"/>
    <rect id="Rectangle_73" data-name="Rectangle 73" width="68.28" height="46.34" transform="translate(312.396 278.04)" opacity="0.5" fill="url(#linear-gradient-8)"/>
    <rect id="Rectangle_74" data-name="Rectangle 74" width="68.28" height="46.34" transform="translate(365.181 278.04)" opacity="0.5" fill="url(#linear-gradient-8)"/>
    <rect id="Rectangle_75" data-name="Rectangle 75" width="68.28" height="46.34" transform="translate(393.04 278.04)" opacity="0.5" fill="url(#linear-gradient-8)"/>
    <rect id="Rectangle_76" data-name="Rectangle 76" width="68.28" height="46.34" transform="translate(312.396 319.199)" opacity="0.5" fill="url(#linear-gradient)"/>
    <rect id="Rectangle_77" data-name="Rectangle 77" width="68.28" height="46.34" transform="translate(365.181 319.199)" opacity="0.5" fill="url(#linear-gradient)"/>
    <rect id="Rectangle_78" data-name="Rectangle 78" width="68.28" height="46.34" transform="translate(393.04 319.199)" opacity="0.5" fill="url(#linear-gradient)"/>
    <rect id="Rectangle_79" data-name="Rectangle 79" width="59.75" height="40.54" transform="translate(317.351 239.891)" fill="#f3f3f3"/>
    <rect id="Rectangle_80" data-name="Rectangle 80" width="59.75" height="40.54" transform="translate(370.554 239.891)" fill="#f3f3f3"/>
    <rect id="Rectangle_81" data-name="Rectangle 81" width="59.75" height="40.54" transform="translate(397.3 239.891)" fill="#f3f3f3" opacity="0.5"/>
    <rect id="Rectangle_82" data-name="Rectangle 82" width="59.75" height="40.54" transform="translate(317.351 281.286)" fill="#f3f3f3"/>
    <rect id="Rectangle_83" data-name="Rectangle 83" width="59.75" height="40.54" transform="translate(370.554 281.286)" fill="#f3f3f3"/>
    <rect id="Rectangle_84" data-name="Rectangle 84" width="59.75" height="40.54" transform="translate(397.3 281.286)" fill="#f3f3f3" opacity="0.5"/>
    <rect id="Rectangle_85" data-name="Rectangle 85" width="59.75" height="40.54" transform="translate(317.351 322.681)" fill="#f3f3f3"/>
    <rect id="Rectangle_86" data-name="Rectangle 86" width="59.75" height="40.54" transform="translate(370.554 322.681)" fill="#f3f3f3" opacity="0.5"/>
    <rect id="Rectangle_87" data-name="Rectangle 87" width="59.75" height="40.54" transform="translate(397.3 322.681)" fill="#3ad29f" opacity="0.5"/>
    <path id="Path_93" data-name="Path 93" d="M546.65,741.81c-6,0-10.45,1-13.61,6.5H404.4V734.45c0-3.6-4.6-2.25-7.63-2.25h-2.51c-3,0-5.5-1.35-5.5,2.25v3.09H244.28c-7.48,0-10.45,6.56-11.47,15.09,0-.22-.06-.43-.08-.65-.05.61-.08,1.23-.08,1.85v9.33c0,9.72,3.44,17.59,11.64,17.59H388.77v4.69c0,3.6,2.46,2.25,5.5,2.25h2.51c3,0,7.63,1.35,7.63-2.25V771.76H533.84a20,20,0,0,0,1.94,2.44c5.54,2.81,5.62,3.43,10.69,3.43l39.66-1.6V744Z" transform="translate(-173.22 -364.699)" opacity="0.5" fill="url(#linear-gradient-17)"/>
    <rect id="Rectangle_88" data-name="Rectangle 88" width="198.45" height="19.2" transform="translate(81.696 385.641)" fill="#e6e6e6"/>
    <path id="Path_94" data-name="Path 94" d="M531.58,759.95h0a17,17,0,0,0,3,9.6h2.5v-19.2h-2.5A17,17,0,0,0,531.58,759.95Z" transform="translate(-314.168 -364.699)" opacity="0.03"/>
    <path id="Path_95" data-name="Path 95" d="M585.06,773l-35.38,4a17,17,0,0,1-17-17h0a17,17,0,0,1,17-17l35.38,3.93Z" transform="translate(-322.873 -364.699)" fill="#e6e6e6"/>
    <path id="Path_96" data-name="Path 96" d="M534.55,763.15h-196v5.33h196a17,17,0,0,0,14.07,7.43L584,772v-5.33l-35.38,3.93A17,17,0,0,1,534.55,763.15Z" transform="translate(-263.905 -364.699)" opacity="0.05"/>
    <path id="Path_97" data-name="Path 97" d="M75,683.53H218.79v35.38H75a13.5,13.5,0,0,1-13.5-13.5V697A13.5,13.5,0,0,1,75,683.53Z" transform="translate(0 -306.699)" fill="#f3f3f3"/>
    <rect id="Rectangle_89" data-name="Rectangle 89" width="13.1" height="52.41" rx="5" transform="translate(130.378 368.971)" fill="#f3f3f3"/>
    <rect id="Rectangle_90" data-name="Rectangle 90" width="2.62" height="35.38" transform="translate(129.842 376.831)" opacity="0.05"/>
    <rect id="Rectangle_91" data-name="Rectangle 91" width="120.55" height="2.62" transform="translate(83.82 383.381)" opacity="0.05"/>
    <rect id="Rectangle_92" data-name="Rectangle 92" width="120.55" height="2.62" transform="translate(83.82 392.551)" opacity="0.05"/>
    <rect id="Rectangle_93" data-name="Rectangle 93" width="120.55" height="2.62" transform="translate(83.82 401.731)" opacity="0.05"/>
    <path id="Path_98" data-name="Path 98" d="M397.16,775.41h-2.43a5.33,5.33,0,0,1-5.33-5.33v-3.84H249.17a14.4,14.4,0,0,1-14.32-12.889,14.564,14.564,0,0,0-.08,1.519v6.57a14.4,14.4,0,0,0,14.4,14.4H389.39v3.84a5.33,5.33,0,0,0,5.33,5.33h2.43a5.33,5.33,0,0,0,5.33-5.33v-9.6a5.33,5.33,0,0,1-5.32,5.33Z" transform="translate(-173.22 -364.699)" opacity="0.05"/>
    <path id="Path_99" data-name="Path 99" d="M693.51,34.04,666,49.93V88.58l27.51,15.88,27.51-15.88V49.93Z" transform="translate(-278.192 -1.5)" fill="url(#linear-gradient)"/>
    <path id="Path_100" data-name="Path 100" d="M866.73,131.87a8.079,8.079,0,0,1-7.3-4.618,8.08,8.08,0,0,1,14.6,0,8.08,8.08,0,0,1-7.3,4.619Z" transform="translate(-461.992 -59.5)" opacity="0.5" fill="url(#linear-gradient-19)"/>
    <path id="Path_101" data-name="Path 101" d="M866.73,100.88l-25.61,14.78v29.57L866.73,160l25.61-14.78V115.67Zm0,37a3.1,3.1,0,1,1,0,.04Z" transform="translate(-450.884 -59.5)" fill="#e6e6e6"/>
    <path id="Path_102" data-name="Path 102" d="M866.73,94.48l-25.61,14.78v29.57l25.61,14.78,25.61-14.78V109.27Zm0,37a3.1,3.1,0,1,1,0,.04Z" transform="translate(-450.884 -59.5)" fill="#fff"/>
    <path id="Path_103" data-name="Path 103" d="M622.03,34.04,594.51,49.93V88.58l27.52,15.88,27.51-15.88V49.93Z" transform="translate(-248.333 -1.5)" fill="url(#linear-gradient-20)"/>
    <path id="Path_104" data-name="Path 104" d="M795.25,131.87a8.079,8.079,0,0,1-7.3-4.618,8.08,8.08,0,0,1,14.6,0,8.08,8.08,0,0,1-7.3,4.619Z" transform="translate(-417.625 -59.5)" opacity="0.5" fill="url(#linear-gradient-19)"/>
    <path id="Path_105" data-name="Path 105" d="M795.25,100.88l-25.61,14.78v29.57L795.25,160l25.61-14.78V115.67Zm0,37a3.1,3.1,0,1,1,0,.04Z" transform="translate(-421.168 -59.5)" fill="#e6e6e6"/>
    <path id="Path_106" data-name="Path 106" d="M795.25,94.48l-25.61,14.78v29.57l25.61,14.78,25.61-14.78V109.27Zm0,37a3.1,3.1,0,1,1,0,.04Z" transform="translate(-421.168 -59.5)" fill="#fff"/>
    <path id="Path_107" data-name="Path 107" d="M651.9,30.84,624.39,46.73V85.37l27.51,15.89,27.51-15.89V46.73Z" transform="translate(-260.811 -1.5)" fill="url(#linear-gradient)"/>
    <path id="Path_108" data-name="Path 108" d="M825.12,128.67a8.079,8.079,0,0,1-7.3-4.618,8.08,8.08,0,0,1,14.6,0A8.08,8.08,0,0,1,825.12,128.67Z" transform="translate(-429.5 -59.5)" opacity="0.5" fill="url(#linear-gradient-19)"/>
    <path id="Path_109" data-name="Path 109" d="M825.12,97.68l-25.61,14.78V142l25.61,14.78L850.73,142V112.47Zm0,37a3.1,3.1,0,1,1,0,.04Z" transform="translate(-433.585 -59.5)" fill="#e6e6e6"/>
    <path id="Path_110" data-name="Path 110" d="M825.12,91.28l-25.61,14.78v29.57l25.61,14.78,25.61-14.78V106.07Zm0,37a3.1,3.1,0,1,1,0,.04Z" transform="translate(-433.585 -59.5)" fill="#fff"/>
    <path id="Path_111" data-name="Path 111" d="M161.11,102.33V16.97H515.33" transform="translate(-90.773 -1.5)" fill="none" stroke="#3ad29f" stroke-miterlimit="10" stroke-width="3" stroke-dasharray="12" opacity="0.5"/>
    <circle id="Ellipse_49" data-name="Ellipse 49" cx="14.94" cy="14.94" r="14.94" transform="translate(318.39)" fill="none" stroke="#3ad29f" stroke-miterlimit="10" stroke-width="3" stroke-dasharray="12" opacity="0.5"/>
    <path id="Path_112" data-name="Path 112" d="M813.01,681.67v85.36H458.78" transform="translate(-333.55 -306.699)" fill="none" stroke="#3ad29f" stroke-miterlimit="10" stroke-width="3" stroke-dasharray="12" opacity="0.5"/>
    <circle id="Ellipse_50" data-name="Ellipse 50" cx="14.94" cy="14.94" r="14.94" transform="translate(243.474 445.921)" fill="none" stroke="#3ad29f" stroke-miterlimit="10" stroke-width="3" stroke-dasharray="12" opacity="0.5"/>
    <circle id="Ellipse_51" data-name="Ellipse 51" cx="39.14" cy="39.14" r="39.14" transform="translate(329.511 105.365)" fill="url(#linear-gradient-24)"/>
    <circle id="Ellipse_52" data-name="Ellipse 52" cx="36.69" cy="36.69" r="36.69" transform="translate(332.476 107.319)" fill="#fff"/>
    <circle id="Ellipse_53" data-name="Ellipse 53" cx="2.45" cy="2.45" r="2.45" transform="translate(373.295 135.276)" fill="#333"/>
    <line id="Line_5" data-name="Line 5" y1="22.01" x2="22.01" transform="translate(369.788 121.604)" fill="none" stroke="#333" stroke-miterlimit="10" stroke-width="3"/>
    <path id="Path_113" data-name="Path 113" d="M797.05,283.92a36.65,36.65,0,0,0,16.44,30.59,36.68,36.68,0,0,0-2.05-59.71A36.62,36.62,0,0,0,797.05,283.92Z" transform="translate(-426.133 -142.137)" opacity="0.05"/>
    <circle id="Ellipse_54" data-name="Ellipse 54" cx="39.14" cy="39.14" r="39.14" transform="translate(357.711 105.365)" fill="url(#linear-gradient-24)"/>
    <circle id="Ellipse_55" data-name="Ellipse 55" cx="36.69" cy="36.69" r="36.69" transform="translate(360.32 107.319)" fill="#fff"/>
    <circle id="Ellipse_56" data-name="Ellipse 56" cx="2.45" cy="2.45" r="2.45" transform="translate(396.493 135.276)" fill="#333"/>
    <line id="Line_6" data-name="Line 6" y1="22.01" x2="22.01" transform="translate(397.461 121.604)" fill="none" stroke="#333" stroke-miterlimit="10" stroke-width="3"/>
    <path id="Path_114" data-name="Path 114" d="M900.05,283.92a36.65,36.65,0,0,0,16.44,30.59,36.68,36.68,0,0,0-2.05-59.71,36.62,36.62,0,0,0-14.39,29.12Z" transform="translate(-497.521 -142.137)" opacity="0.05"/>
    <circle id="Ellipse_57" data-name="Ellipse 57" cx="39.14" cy="39.14" r="39.14" transform="translate(329.511 157.409)" fill="url(#linear-gradient-24)"/>
    <circle id="Ellipse_58" data-name="Ellipse 58" cx="36.69" cy="36.69" r="36.69" transform="translate(332.476 159.639)" fill="#fff"/>
    <circle id="Ellipse_59" data-name="Ellipse 59" cx="2.45" cy="2.45" r="2.45" transform="translate(373.295 191.097)" fill="#333"/>
    <line id="Line_7" data-name="Line 7" x1="23.4" y2="23.4" transform="translate(355.376 189.536)" fill="none" stroke="#333" stroke-miterlimit="10" stroke-width="3"/>
    <path id="Path_115" data-name="Path 115" d="M797.05,375.92a36.65,36.65,0,0,0,16.44,30.59,36.68,36.68,0,0,0-2.05-59.71A36.62,36.62,0,0,0,797.05,375.92Z" transform="translate(-426.133 -181.065)" opacity="0.05"/>
    <circle id="Ellipse_60" data-name="Ellipse 60" cx="39.14" cy="39.14" r="39.14" transform="translate(357.711 157.409)" fill="url(#linear-gradient-24)"/>
    <circle id="Ellipse_61" data-name="Ellipse 61" cx="36.69" cy="36.69" r="36.69" transform="translate(360.32 159.639)" fill="#fff"/>
    <circle id="Ellipse_62" data-name="Ellipse 62" cx="2.45" cy="2.45" r="2.45" transform="translate(396.493 191.097)" fill="#333"/>
    <line id="Line_8" data-name="Line 8" y1="22.01" x2="22.01" transform="translate(397.461 176.61)" fill="none" stroke="#333" stroke-miterlimit="10" stroke-width="3"/>
    <path id="Path_116" data-name="Path 116" d="M900.05,375.92a36.65,36.65,0,0,0,16.44,30.59,36.68,36.68,0,0,0-2.05-59.71,36.62,36.62,0,0,0-14.39,29.12Z" transform="translate(-497.521 -181.065)" opacity="0.05"/>
  </g>
</svg>
