<svg id="undraw_personal_settings_kihd_1_" data-name="undraw_personal_settings_kihd (1)" xmlns="http://www.w3.org/2000/svg" xmlns:xlink="http://www.w3.org/1999/xlink" width="381.403" height="340" viewBox="0 0 381.403 340">
  <defs>
    <linearGradient id="linear-gradient" x1="9.046" y1="1" x2="9.046" gradientUnits="objectBoundingBox">
      <stop offset="0" stop-color="gray" stop-opacity="0.251"/>
      <stop offset="0.54" stop-color="gray" stop-opacity="0.122"/>
      <stop offset="1" stop-color="gray" stop-opacity="0.102"/>
    </linearGradient>
  </defs>
  <path id="Path_393" data-name="Path 393" d="M409.4,313.089a120.06,120.06,0,0,1-8.708,45.73c0,16.864-5.381,32.149-14.109,43.29a54.168,54.168,0,0,1-7.028,7.443c-.1.093-.2.18-.307.268-.187.161-.373.322-.563.487l-.177.151h0c-8.264,6.726-17.578,10.216-27.038,10.132H100.4a50.293,50.293,0,0,1-5.948-.351A52.662,52.662,0,0,1,74.1,413.351q-1.907-1.1-3.741-2.367-.873-.6-1.73-1.232c-.357-.263-.713-.536-1.067-.809a67.673,67.673,0,0,1-11.489-11.394c-11.335-14.238-18.363-33.908-18.363-55.633A119.069,119.069,0,0,1,28,293.853c0-48.292,26.418-87.442,59.011-87.442,1,0,2,.044,3,.122a2.1,2.1,0,0,1,.427.029,148.614,148.614,0,0,1,21.671-37.323c24.084-30.152,59.284-49.159,98.495-49.159,32.946,0,63.061,13.42,86.129,35.593,8.741-7.22,18.614-11,28.655-10.984,32.586,0,59.011,39.149,59.011,87.442q-.007,4.583-.333,9.148C400.005,257.765,409.457,284.554,409.4,313.089Z" transform="translate(-28 -110.786)" fill="#0a0d11" opacity="0.1"/>
  <g id="Group_36" data-name="Group 36" transform="translate(26.485 170.849)" opacity="0.2">
    <path id="Path_394" data-name="Path 394" d="M153.231,713.428c0,.224-.017.443-.033.658q-1.907-1.1-3.741-2.367a2.814,2.814,0,0,1-1.73-1.232c-.357-.263-.713-.536-1.067-.809q.12-.367.27-.711c.687-1.588,1.73-2.582,2.881-2.528s2.147,1.14,2.764,2.781A11.431,11.431,0,0,1,153.231,713.428Z" transform="translate(-133.584 -582.369)" fill="#3f3d56"/>
    <path id="Path_395" data-name="Path 395" d="M152.639,696.308a11.15,11.15,0,0,1-.837,4.131c-.687,1.583-1.73,2.577-2.881,2.523l-.237-.024a2.814,2.814,0,0,1-1.73-1.232,6.409,6.409,0,0,1-.8-1.52,12.059,12.059,0,0,1,.18-8.339c.687-1.588,1.73-2.582,2.881-2.528s2.147,1.14,2.764,2.781A11.431,11.431,0,0,1,152.639,696.308Z" transform="translate(-132.812 -573.588)" fill="#3f3d56"/>
    <path id="Path_424" data-name="Path 424" d="M6.869-.01c3.768-.038,6.8,1.53,6.77,3.5s-3.106,3.6-6.874,3.637-6.8-1.53-6.77-3.5S3.1.028,6.869-.01Z" transform="translate(12.669 120.933) rotate(-88.19)" fill="#3f3d56"/>
    <path id="Path_425" data-name="Path 425" d="M6.869-.01c3.768-.038,6.8,1.53,6.77,3.5s-3.106,3.6-6.874,3.637-6.8-1.53-6.77-3.5S3.1.028,6.869-.01Z" transform="translate(12.848 112.594) rotate(-88.19)" fill="#3f3d56"/>
    <path id="Path_426" data-name="Path 426" d="M6.867-.009c3.768-.036,6.8,1.533,6.773,3.5s-3.1,3.6-6.872,3.633S-.032,5.6-.005,3.624,3.1.027,6.867-.009Z" transform="translate(13.064 103.72) rotate(-88.282)" fill="#3f3d56"/>
    <path id="Path_396" data-name="Path 396" d="M112.118,491.589a27.575,27.575,0,0,1-1.267-2.923l9.422-1.817-10.142-.356a35.773,35.773,0,0,1,.1-19.8l13.376,10.936L111.358,463.58c3.369-7.962,9.5-12.5,15.889-11.765s11.955,6.63,14.426,15.266,1.43,18.566-2.7,25.726a29.252,29.252,0,0,1,1.85,4.642l-12.366,8.675,13.112-5.763c1.678,8.088.446,16.866-3.274,23.337,5.291,10.489,4.175,25.158-2.563,33.693s-16.835,8.071-23.191-1.068-6.837-23.881-1.1-33.862c-4.681-9.283-4.406-22.04.667-30.873Z" transform="translate(-107.44 -451.737)" fill="#0a0d11"/>
    <path id="Path_397" data-name="Path 397" d="M142.3,567.7a32.249,32.249,0,0,1-4,15.266c5.291,10.489,4.175,25.158-2.563,33.693s-16.834,8.071-23.191-1.068-6.837-23.881-1.1-33.862C109.251,577.381,142.36,564.9,142.3,567.7Z" transform="translate(-107.44 -511.005)" opacity="0.1"/>
  </g>
  <path id="Path_398" data-name="Path 398" d="M471.38,229.968V463.383c0,4.953-2.748,8.968-6.138,8.968h-245.1a4.3,4.3,0,0,1-1.694-.351c-2.633-1.1-4.447-4.617-4.444-8.617V258.293a2.1,2.1,0,0,1,.427.029A148.614,148.614,0,0,1,236.1,221H465.242C468.632,221,471.38,225.015,471.38,229.968Z" transform="translate(-151.989 -162.546)" fill="#fff"/>
  <rect id="Rectangle_280" data-name="Rectangle 280" width="45.952" height="17.517" rx="8.758" transform="translate(237.433 88.767)" fill="#3f3d56"/>
  <rect id="Rectangle_281" data-name="Rectangle 281" width="39.961" height="11.657" rx="5.828" transform="translate(240.427 91.694)" opacity="0.1"/>
  <rect id="Rectangle_282" data-name="Rectangle 282" width="14.429" height="10.38" rx="5.19" transform="translate(264.958 92.332)" fill="#0a0d11"/>
  <ellipse id="Ellipse_215" data-name="Ellipse 215" cx="2.22" cy="3.244" rx="2.22" ry="3.244" transform="translate(269.843 94.281)" fill="#fff"/>
  <rect id="Rectangle_283" data-name="Rectangle 283" width="45.952" height="17.517" rx="8.758" transform="translate(237.433 204.237)" fill="#3f3d56"/>
  <rect id="Rectangle_284" data-name="Rectangle 284" width="39.961" height="11.657" rx="5.828" transform="translate(240.427 207.164)" opacity="0.1"/>
  <rect id="Rectangle_285" data-name="Rectangle 285" width="14.429" height="10.38" rx="5.19" transform="translate(264.958 207.802)" fill="#0a0d11"/>
  <ellipse id="Ellipse_216" data-name="Ellipse 216" cx="2.22" cy="3.244" rx="2.22" ry="3.244" transform="translate(269.843 209.751)" fill="#fff"/>
  <rect id="Rectangle_286" data-name="Rectangle 286" width="45.952" height="17.517" rx="8.758" transform="translate(237.433 261.969)" fill="#3f3d56"/>
  <rect id="Rectangle_287" data-name="Rectangle 287" width="39.961" height="11.657" rx="5.828" transform="translate(240.427 264.902)" opacity="0.1"/>
  <rect id="Rectangle_288" data-name="Rectangle 288" width="14.429" height="10.38" rx="5.19" transform="translate(264.958 265.54)" fill="#0a0d11"/>
  <ellipse id="Ellipse_217" data-name="Ellipse 217" cx="2.22" cy="3.244" rx="2.22" ry="3.244" transform="translate(269.843 267.483)" fill="#fff"/>
  <rect id="Rectangle_289" data-name="Rectangle 289" width="26.862" height="10.38" rx="5.19" transform="translate(98.018 77.738)" fill="#0a0d11"/>
  <rect id="Rectangle_290" data-name="Rectangle 290" width="74.59" height="10.38" rx="5.19" transform="translate(98.018 92.332)" fill="#0a0d11"/>
  <rect id="Rectangle_291" data-name="Rectangle 291" width="74.59" height="10.38" rx="5.19" transform="translate(98.018 106.931)" fill="#0a0d11"/>
  <g id="Group_37" data-name="Group 37" transform="translate(98.018 135.471)" opacity="0.5">
    <rect id="Rectangle_292" data-name="Rectangle 292" width="26.862" height="10.38" rx="5.19" fill="#0a0d11"/>
    <rect id="Rectangle_293" data-name="Rectangle 293" width="55.677" height="10.38" rx="5.19" transform="translate(0 14.599)" fill="#0a0d11"/>
    <rect id="Rectangle_294" data-name="Rectangle 294" width="74.59" height="10.38" rx="5.19" transform="translate(0 29.193)" fill="#0a0d11"/>
  </g>
  <rect id="Rectangle_295" data-name="Rectangle 295" width="26.862" height="10.38" rx="5.19" transform="translate(98.018 193.209)" fill="#0a0d11"/>
  <rect id="Rectangle_296" data-name="Rectangle 296" width="74.59" height="10.38" rx="5.19" transform="translate(98.018 207.802)" fill="#0a0d11"/>
  <rect id="Rectangle_297" data-name="Rectangle 297" width="46.342" height="10.38" rx="5.19" transform="translate(98.018 222.401)" fill="#0a0d11"/>
  <rect id="Rectangle_298" data-name="Rectangle 298" width="26.862" height="10.38" rx="5.19" transform="translate(98.018 250.941)" fill="#0a0d11"/>
  <rect id="Rectangle_299" data-name="Rectangle 299" width="74.59" height="10.38" rx="5.19" transform="translate(98.018 265.54)" fill="#0a0d11"/>
  <rect id="Rectangle_300" data-name="Rectangle 300" width="60.011" height="10.38" rx="5.19" transform="translate(98.018 280.134)" fill="#0a0d11"/>
  <line id="Line_32" data-name="Line 32" x2="217.373" transform="translate(86.683 126.645)" fill="none" stroke="#3f3d56" stroke-linecap="round" stroke-miterlimit="10" stroke-width="1" opacity="0.7"/>
  <line id="Line_33" data-name="Line 33" x2="217.373" transform="translate(86.683 185.342)" fill="none" stroke="#3f3d56" stroke-linecap="round" stroke-miterlimit="10" stroke-width="1" opacity="0.7"/>
  <line id="Line_34" data-name="Line 34" x2="217.373" transform="translate(86.683 244.039)" fill="none" stroke="#3f3d56" stroke-linecap="round" stroke-miterlimit="10" stroke-width="1" opacity="0.7"/>
  <line id="Line_35" data-name="Line 35" x2="217.373" transform="translate(86.683 304.197)" fill="none" stroke="#3f3d56" stroke-linecap="round" stroke-miterlimit="10" stroke-width="1" opacity="0.7"/>
  <ellipse id="Ellipse_218" data-name="Ellipse 218" cx="49.236" cy="5.115" rx="49.236" ry="5.115" transform="translate(215.813 329.771)" fill="#0a0d11" opacity="0.1"/>
  <ellipse id="Ellipse_219" data-name="Ellipse 219" cx="7.211" cy="10.536" rx="7.211" ry="10.536" transform="translate(16.3 58.234)" fill="#0a0d11" opacity="0.1"/>
  <ellipse id="Ellipse_220" data-name="Ellipse 220" cx="7.211" cy="10.536" rx="7.211" ry="10.536" transform="translate(46.355)" fill="#0a0d11" opacity="0.1"/>
  <ellipse id="Ellipse_221" data-name="Ellipse 221" cx="12.086" cy="17.658" rx="12.086" ry="17.658" transform="translate(39.037 32.885)" fill="#0a0d11" opacity="0.1"/>
  <rect id="Rectangle_301" data-name="Rectangle 301" width="45.952" height="17.517" rx="8.758" transform="translate(237.433 146.499)" fill="#3f3d56"/>
  <rect id="Rectangle_302" data-name="Rectangle 302" width="39.961" height="11.657" rx="5.828" transform="translate(240.427 149.432)" opacity="0.1"/>
  <path id="Path_399" data-name="Path 399" d="M730.678,576.023a13.8,13.8,0,0,0,1.56-.443,9.71,9.71,0,0,1-.44,2.163,8.09,8.09,0,0,1-2.424,3.132.582.582,0,0,0-.947-.093c-1.1.974-1.984,2.348-3.154,3.186-.41.292-.837.526-1.237.852a9.072,9.072,0,0,0-2.334,3.522,3.336,3.336,0,0,0-.277,2.5,1.864,1.864,0,0,0,.473.619,2.144,2.144,0,0,0,1.624.706c.333-.044.667-.229,1.03-.312a10.989,10.989,0,0,1,1.384-.117,6.156,6.156,0,0,0,1.947-.736l2.29-1.169a11.375,11.375,0,0,0,1.884-1.13c.363-.287.707-.624,1.077-.887a7.086,7.086,0,0,1,1.287-.662l1.3-.555a.9.9,0,0,1,.587-.112c.18.049.333.214.517.282a1.106,1.106,0,0,0,.833-.117l1.507-.624a2.46,2.46,0,0,0,.9-.546c.69-.716.813-2.138.81-3.381a36.976,36.976,0,0,0-.433-5.592,1.365,1.365,0,0,0-.49.541q-.231-.475-.5-.911a13.025,13.025,0,0,1-1.5-4.058,6.977,6.977,0,0,0,1.334-2.2,63.464,63.464,0,0,0-3.234-12.86c-.53-1.276-1.137-2.475-1.667-3.731-1.577-3.653-1.9-8.281-3.7-11.691a2.811,2.811,0,0,1,0-2.377c.207-.4.54-.775.477-1.271-.047-.356-.3-.682-.2-1.013a1.135,1.135,0,0,1,.247-.365,3.439,3.439,0,0,0,.3-1.739,10.613,10.613,0,0,1,1.3-4.17,2.451,2.451,0,0,1,.48-.76c.163-.146.357-.214.52-.36.573-.531.533-1.763.807-2.679.36-1.208,1.267-1.817,1.86-2.8.757-1.247.95-2.981,1.747-4.067a2.435,2.435,0,0,1,.263-.312,28.228,28.228,0,0,0-.47,5.675c-.077,6.591,1.044,13.41.52,19.972-.413,5.193,1.757,10.371,4.834,12.967a20.114,20.114,0,0,0,3.764,2.333c1.927,1.008,3.847,2.046,5.738,3.205q2,1.228,3.947,2.635a48.069,48.069,0,0,1,4.667,3.8,21.861,21.861,0,0,1,5.028,6.1,3.337,3.337,0,0,0,2.22-1.193c.507.585,1.12,1.028,1.6,1.676a8.561,8.561,0,0,1,1.267,3.634h-.2c.023.648.043,1.3.067,1.948a1.175,1.175,0,0,1-.05.487.767.767,0,0,1-.18.239l-1.027,1.018a4.427,4.427,0,0,0-1.61,2.986,2.034,2.034,0,0,0,.223,1.067,1.417,1.417,0,0,0,.913.6,11.263,11.263,0,0,0,5.428.731,3.252,3.252,0,0,0,2.31-1.559,8.79,8.79,0,0,0,.807-3.234c.223-1.948.41-3.941.557-5.918a18.447,18.447,0,0,1,.553-3.931.5.5,0,0,1,.143-.263c.077-.049.167,0,.247-.049a.642.642,0,0,0,.16-.375,33.515,33.515,0,0,0,.477-5.884,5.667,5.667,0,0,0-.157-1.515,2.424,2.424,0,0,0-1.427-1.607,7.975,7.975,0,0,0-1.844-.321,6.626,6.626,0,0,1-1.53-.409,1,1,0,0,0-.637-.122.621.621,0,0,0-.387.648,1.1,1.1,0,0,0,.08.317l-.52-.151c-.42-.112-1-.38-1.63-.6q0-.234.02-.487a1.026,1.026,0,0,0-.353-.838l-8.808-6.878-1.647-1.286c-3.607-2.82-7.335-5.426-10.952-8.247-.24.107-.44-.3-.51-.658s-.12-.789-.35-.95c-.113-.078-.263-.073-.333-.214a.8.8,0,0,1-.063-.434c.117-2.567,1.373-4.934,1.123-7.477a13.52,13.52,0,0,1-.333-3.225,19.065,19.065,0,0,1,.667-2.036c.433-1.568,0-3.454.474-4.988a15.779,15.779,0,0,0,.637-3.176,29.6,29.6,0,0,1,1.334-6.3,12.768,12.768,0,0,1,1.24-2.762c.263-.419.56-.794.813-1.228a13.392,13.392,0,0,0,1.267-4.871,33.837,33.837,0,0,0,.173-9.46,19.2,19.2,0,0,1-.41-3.181c0-1.3.357-2.781-.073-3.819a3.894,3.894,0,0,0,.83-2.08,3.8,3.8,0,0,1,.117-.862,2.164,2.164,0,0,1,.557-.731,4.273,4.273,0,0,0,.86-3.346c.457.3.937-.375,1.154-1.042s.38-1.461.844-1.763c.313-.195.667-.078,1-.2.53-.2.853-.974,1.227-1.544a9.742,9.742,0,0,1,2.834-2.552c2.954-2.2,5.361-5.67,7.718-9.09a37.334,37.334,0,0,0,3.334-5.485c.263-.57.5-1.159.73-1.763l.06-.044.02.107c.037.214.08.429.123.638.107.487.227,1.008.333,1.505a13.654,13.654,0,0,0,1.484,4.126,4.069,4.069,0,0,0,.76.862,4.021,4.021,0,0,0,1.957.857,7.129,7.129,0,0,0,.787.1c.263.02.527.034.787.044l5.394.209c-1.854-3.926-2-9.031-1.877-13.81.31-12.275,1.947-24.663.427-36.743a12.372,12.372,0,0,0-1.037-4.1,5.621,5.621,0,0,0-3.394-2.708,15.474,15.474,0,0,1-3.807-1.427c-1-.667-1.92-1.739-3-2.09a4.567,4.567,0,0,0-2.4.058q-1.46.317-2.9.75l-.233.073h.01l-.16.054h-.043l-.143.049h-.053l-.133.054-.06.024-.123.058-.07.034-.113.054-.073.044-.107.058-.08.049-.1.063-.08.058-.09.063-.08.068-.083.068-.08.078-.077.073-.08.083-.067.078-.077.1-.063.083a1.108,1.108,0,0,0-.073.112l-.057.083a1.517,1.517,0,0,0-.073.136c0,.024-.03.049-.043.078s-.06.127-.09.2v.029a3.739,3.739,0,0,0-.183.58c-.023.1-.047.2-.063.307-.034.208-.059.42-.073.633a2.158,2.158,0,0,1-.017.326v.648q.02.549.083,1.091c-2.4,2.075-3.909,5.808-3.988,9.886s1.281,7.928,3.6,10.2q.024.289.027.58v.127c-.019.689-.068,1.376-.147,2.056a13.6,13.6,0,0,0-4-.521,21.342,21.342,0,0,0-2.414.2q-1.3-2.286-2.414-4.774l-1.78-3.814a41.65,41.65,0,0,1-1.667-3.9c-.437-1.237-.777-2.552-1.263-3.751-1-2.47-2.634-4.569-2.837-7.428l-.47.141c-.257-.614-.58-1.262-.7-1.617a42.764,42.764,0,0,1-1.48-6.332,13.146,13.146,0,0,0-.71-3.283,7.01,7.01,0,0,0-1.037-1.607,7.145,7.145,0,0,0-2.22-2.046,2.066,2.066,0,0,0-2.27.195,2.828,2.828,0,0,0-.333-.195,2.04,2.04,0,0,0-2.52.429,6.081,6.081,0,0,0-1.107,3.41,11.872,11.872,0,0,0,.594,5.173,19.154,19.154,0,0,0,2.847,4.306,17.3,17.3,0,0,1,1.79,3.254,51.964,51.964,0,0,1-.137,7.9c-.127,1.12-.333,2.221-.393,3.351-.243,4.082,1.21,8.164.69,12.178a3.63,3.63,0,0,0,.944,3.152,8,8,0,0,0,2.44.974c1.61.6,3,2.109,4.627,2.669.75.263,1.53.312,2.277.6l.117.054a9.573,9.573,0,0,0-1.2,3.322c-.333,2.046-.02,4.233-.353,6.279a17,17,0,0,1-1.637,4.584q-1.954,4.131-3.914,8.281a53.534,53.534,0,0,1-2.884,5.538c-1.8,2.869-4.9,5.144-5.811,8.593-.02-.083-.047-.166-.067-.248-1.294,1.388-1.777,3.975-2.807,5.772-.5.872-1.124,1.578-1.667,2.387a28.285,28.285,0,0,0-1.844,3.346,67.922,67.922,0,0,0-4.174,9.713c-.573,1.812-1.017,3.7-1.474,5.573-1.794,7.39-4.721,14.4-5.938,22.042-.3,1.866-1.074,3.551-1.19,5.461a14.314,14.314,0,0,0,1.167,5.792c1,2.747,2.114,5.417,3,8.242.523,1.646.977,3.346,1.56,4.954.637,1.754,1.417,3.381,2.084,5.11A85.337,85.337,0,0,1,730.678,576.023ZM752.736,436.44l-.16-.117a5.9,5.9,0,0,1-1.617-1.564c-1.437-2.241-2.054-5.616-2.5-8.632-.053-.36-.1-.716-.143-1.077a61.4,61.4,0,0,1,4.424,11.4Z" transform="translate(-488.911 -254.041)" fill="url(#linear-gradient)"/>
  <path id="Path_400" data-name="Path 400" d="M784.344,407.875a12.9,12.9,0,0,0-.707-3.259,6.959,6.959,0,0,0-1.04-1.6,7.167,7.167,0,0,0-2.227-2.031,2.059,2.059,0,0,0-2.52.424,6.032,6.032,0,0,0-1.11,3.41,11.724,11.724,0,0,0,.594,5.139,19.666,19.666,0,0,0,2.854,4.277,17.272,17.272,0,0,1,1.86,3.41,10.893,10.893,0,0,0,.847,1.812,1.412,1.412,0,0,0,1.334.784,2.354,2.354,0,0,0,1.09-.94c.407-.521,1.5-1.461,1.534-2.275a12.706,12.706,0,0,0-1.037-2.806A42.723,42.723,0,0,1,784.344,407.875Z" transform="translate(-527.071 -254.726)" fill="#fbbebe"/>
  <path id="Path_401" data-name="Path 401" d="M784.344,407.875a12.9,12.9,0,0,0-.707-3.259,6.959,6.959,0,0,0-1.04-1.6,7.167,7.167,0,0,0-2.227-2.031,2.059,2.059,0,0,0-2.52.424,6.032,6.032,0,0,0-1.11,3.41,11.724,11.724,0,0,0,.594,5.139,19.666,19.666,0,0,0,2.854,4.277,17.272,17.272,0,0,1,1.86,3.41,10.893,10.893,0,0,0,.847,1.812,1.412,1.412,0,0,0,1.334.784,2.354,2.354,0,0,0,1.09-.94c.407-.521,1.5-1.461,1.534-2.275a12.706,12.706,0,0,0-1.037-2.806A42.723,42.723,0,0,1,784.344,407.875Z" transform="translate(-527.071 -254.726)" opacity="0.1"/>
  <path id="Path_402" data-name="Path 402" d="M816.878,456.883a13.85,13.85,0,0,0-5.394-.974c-3.037.063-6.165,1.14-9.058-.224a13.774,13.774,0,0,1-2.167-1.349,5.882,5.882,0,0,1-1.62-1.554c-1.44-2.226-2.06-5.582-2.507-8.573a82.683,82.683,0,0,1-.683-9.124,3.685,3.685,0,0,1-2.367.911,2.193,2.193,0,0,1-1.667-2.236,53.942,53.942,0,0,1-.11,8.5c-.127,1.111-.333,2.207-.39,3.327-.247,4.058,1.21,8.11.69,12.11a3.56,3.56,0,0,0,.944,3.127,8.145,8.145,0,0,0,2.444.974c1.61.6,3,2.095,4.634,2.655.75.258,1.534.307,2.28.6,1.063.414,2.034,1.305,3.121,1.583a18.451,18.451,0,0,0,2.477.17c.717.088,1.417.36,2.137.39,1.76.063,3.421-1.388,4.588-3.317A34.7,34.7,0,0,0,816.878,456.883Z" transform="translate(-536.543 -271.668)" fill="#f86d70"/>
  <path id="Path_403" data-name="Path 403" d="M816.878,456.883a13.85,13.85,0,0,0-5.394-.974c-3.037.063-6.165,1.14-9.058-.224a13.774,13.774,0,0,1-2.167-1.349,5.882,5.882,0,0,1-1.62-1.554c-1.44-2.226-2.06-5.582-2.507-8.573a82.683,82.683,0,0,1-.683-9.124,3.685,3.685,0,0,1-2.367.911,2.193,2.193,0,0,1-1.667-2.236,53.942,53.942,0,0,1-.11,8.5c-.127,1.111-.333,2.207-.39,3.327-.247,4.058,1.21,8.11.69,12.11a3.56,3.56,0,0,0,.944,3.127,8.145,8.145,0,0,0,2.444.974c1.61.6,3,2.095,4.634,2.655.75.258,1.534.307,2.28.6,1.063.414,2.034,1.305,3.121,1.583a18.451,18.451,0,0,0,2.477.17c.717.088,1.417.36,2.137.39,1.76.063,3.421-1.388,4.588-3.317A34.7,34.7,0,0,0,816.878,456.883Z" transform="translate(-536.543 -271.668)" opacity="0.1"/>
  <path id="Path_404" data-name="Path 404" d="M870.82,737.667a3.627,3.627,0,0,1,1.557.711,5.672,5.672,0,0,1,1.354,2.669,33.034,33.034,0,0,1,.91,8.334,25.763,25.763,0,0,1-.587,6.756,4.865,4.865,0,0,1-.77,1.768,2.557,2.557,0,0,1-1.06.75,2.1,2.1,0,0,1-2.487-.448c-.76-.867-.95-2.4-1.11-3.79-.217-1.87-.524-3.863-1.477-5.154-.707-.974-1.72-1.461-2.234-2.64-.614-1.417-.29-3.269.1-4.847.333-1.369.837-4.14,1.817-4.842S869.8,737.4,870.82,737.667Z" transform="translate(-585.665 -427.05)" fill="#fbbebe"/>
  <path id="Path_405" data-name="Path 405" d="M753.459,749.643a12.956,12.956,0,0,0,1.527,4.145,3.511,3.511,0,0,1,.75,2.523,2.492,2.492,0,0,1-.41.8,18.639,18.639,0,0,1-12.192,7.657.3.3,0,0,1-.217,0c-.13-.083-.163-.326-.177-.536a9.573,9.573,0,0,1,0-2.051,6.089,6.089,0,0,1,2.11-3.6,8.158,8.158,0,0,0,2.48-3.166c.65-1.783.377-4.106,1.15-5.777a3.944,3.944,0,0,1,2.9-2.192c.383-.088,1.2-.7,1.527-.419S753.345,749.083,753.459,749.643Z" transform="translate(-504.413 -432.304)" fill="#fbbebe"/>
  <path id="Path_406" data-name="Path 406" d="M872.931,737.642a.614.614,0,0,1,.387-.643,1.032,1.032,0,0,1,.637.117,6.4,6.4,0,0,0,1.53.414,7.965,7.965,0,0,1,1.847.317,2.4,2.4,0,0,1,1.43,1.593,5.641,5.641,0,0,1,.157,1.51,33.042,33.042,0,0,1-.477,5.845c-.027.146-.067.317-.163.37s-.167,0-.243.054a.447.447,0,0,0-.143.263,18.123,18.123,0,0,0-.557,3.9c-.147,1.948-.333,3.926-.557,5.875a8.474,8.474,0,0,1-.807,3.215,3.25,3.25,0,0,1-2.314,1.549,11.4,11.4,0,0,1-5.434-.726,1.425,1.425,0,0,1-.917-.6,2.012,2.012,0,0,1-.223-1.062,4.406,4.406,0,0,1,1.61-2.967l1.03-1.008a.678.678,0,0,0,.18-.239,1.154,1.154,0,0,0,.05-.487l-.067-1.948c1.39.036,2.654,1.185,3.291,2.991.14.414.277.9.57,1.057.4.133.794-.219.9-.794a4.884,4.884,0,0,0-.03-1.69c-.6-4.71-.46-9.552-.827-14.311a4.336,4.336,0,0,0-.333-1.51C873.3,738.4,872.968,738.081,872.931,737.642Z" transform="translate(-587.336 -427.191)" fill="#f86d70"/>
  <rect id="Rectangle_303" data-name="Rectangle 303" width="14.429" height="10.38" rx="5.19" transform="translate(255.857 160.45) rotate(180)" fill="#0a0d11"/>
  <ellipse id="Ellipse_222" data-name="Ellipse 222" cx="2.22" cy="3.244" rx="2.22" ry="3.244" transform="translate(246.532 152.013)" fill="#fff"/>
  <path id="Path_407" data-name="Path 407" d="M733.356,768.593c-.15.365-.387.648-.527,1.023a1.178,1.178,0,0,0,.113,1.145.552.552,0,0,0,.477.068,14.432,14.432,0,0,0,8.668-5.738,8.54,8.54,0,0,0,1.064-1.7c.283-.628.523-1.4,1-1.661a36.5,36.5,0,0,1,.447,5.577c0,1.237-.12,2.645-.81,3.361a2.474,2.474,0,0,1-.9.536l-1.507.624a1.136,1.136,0,0,1-.837.117,5.714,5.714,0,0,0-.517-.282.9.9,0,0,0-.587.112l-1.3.555a6.758,6.758,0,0,0-1.287.658c-.373.258-.717.589-1.08.877a11.072,11.072,0,0,1-1.887,1.12l-2.29,1.164a6.31,6.31,0,0,1-1.95.731,12.017,12.017,0,0,0-1.387.112,6.922,6.922,0,0,1-1.034.312,2.148,2.148,0,0,1-1.624-.7,1.894,1.894,0,0,1-.473-.614,3.332,3.332,0,0,1,.277-2.484,9.114,9.114,0,0,1,2.334-3.5c.4-.321.83-.555,1.24-.848,1.17-.828,2.054-2.211,3.157-3.156C733.176,765.111,733.846,767.415,733.356,768.593Z" transform="translate(-492.608 -439.88)" fill="#f86d70"/>
  <path id="Path_408" data-name="Path 408" d="M846.69,482.17a8.085,8.085,0,0,0,4.054,2.3,11.369,11.369,0,0,0,2.294.18,40.444,40.444,0,0,0,9.545-1.164,19.477,19.477,0,0,1-3-6.82,16.341,16.341,0,0,1-.147-4.272,44.862,44.862,0,0,1,.894-5.358,17.767,17.767,0,0,1-4.034-.151c-.763-.117-2.637-1.13-3.3-.36s-.153,3.249-.143,4.413c0,.042,0,.084,0,.127a19.756,19.756,0,0,1-.77,5.154C851.128,479.369,849.06,481.96,846.69,482.17Z" transform="translate(-573.743 -288.328)" fill="#fbbebe"/>
  <path id="Path_409" data-name="Path 409" d="M864.787,470.9a5.961,5.961,0,0,0,6.585,1.461,44.858,44.858,0,0,1,.893-5.358,17.767,17.767,0,0,1-4.034-.151c-.763-.117-2.637-1.13-3.3-.36S864.777,469.733,864.787,470.9Z" transform="translate(-585.676 -288.308)" opacity="0.1"/>
  <ellipse id="Ellipse_223" data-name="Ellipse 223" cx="8.038" cy="11.744" rx="8.038" ry="11.744" transform="translate(275.474 160.47)" fill="#fbbebe"/>
  <path id="Path_410" data-name="Path 410" d="M776.09,531.416a6.321,6.321,0,0,0,1.814,4.71,5.93,5.93,0,0,0,1.967,1.013c3.667,1.3,7.441,2.338,11.219,2.021a4.566,4.566,0,0,0,2.38-.731,3.77,3.77,0,0,0,1.47-2.684,3.563,3.563,0,0,1,.113-.852,2.144,2.144,0,0,1,.557-.726,4.22,4.22,0,0,0,.864-3.322c.457.3.937-.375,1.154-1.037s.383-1.461.844-1.749c.313-.195.667-.078,1-.2.53-.2.853-.974,1.227-1.534a9.883,9.883,0,0,1,2.837-2.538c2.961-2.177,5.371-5.631,7.735-9.026a36.913,36.913,0,0,0,3.334-5.446q.4-.849.734-1.754a63.375,63.375,0,0,0,1.85-6.191,10.038,10.038,0,0,0,.48-3.546,2.278,2.278,0,0,0-.043-.326,8.406,8.406,0,0,0-.73-2.153c-.817-1.754-1.887-3.41-3.294-3.955s-2.807.112-4.237.555a7.558,7.558,0,0,1-1.437.322,9.688,9.688,0,0,1-4.474-1.028l-1.594-.643c-.8-.321-1.2-1.729-2-1.978a1.882,1.882,0,0,0-1.083.083,12,12,0,0,0-4.734,2.26,7.706,7.706,0,0,0-.92.916,9.34,9.34,0,0,0-2.14,4.613c-.333,2.031-.02,4.2-.353,6.235a16.829,16.829,0,0,1-1.637,4.55l-3.928,8.218a53.305,53.305,0,0,1-2.887,5.495C780.061,524.338,776.147,526.862,776.09,531.416Z" transform="translate(-526.681 -299.779)" fill="#f86d70"/>
  <path id="Path_411" data-name="Path 411" d="M792.194,407.875a12.906,12.906,0,0,0-.707-3.259,6.962,6.962,0,0,0-1.04-1.6,7.169,7.169,0,0,0-2.227-2.031,2.059,2.059,0,0,0-2.521.424,6.032,6.032,0,0,0-1.11,3.41,11.725,11.725,0,0,0,.593,5.139,19.091,19.091,0,0,0,2.854,4.277,17.265,17.265,0,0,1,1.86,3.41,10.873,10.873,0,0,0,.847,1.812,1.412,1.412,0,0,0,1.333.784,2.355,2.355,0,0,0,1.09-.94c.407-.521,1.5-1.461,1.534-2.275a12.7,12.7,0,0,0-1.037-2.806A42.71,42.71,0,0,1,792.194,407.875Z" transform="translate(-532.303 -254.726)" fill="#fbbebe"/>
  <path id="Path_412" data-name="Path 412" d="M720.446,631.827c1,2.728,2.114,5.358,3.017,8.183.523,1.642.977,3.327,1.56,4.925.637,1.739,1.42,3.356,2.087,5.071a78.022,78.022,0,0,1,3.474,14.044,15.711,15.711,0,0,0,6.841-3.517,4.524,4.524,0,0,0,.41-.385,6.826,6.826,0,0,0,1.38-2.226c-.8-4.384-1.614-8.88-3.237-12.772-.53-1.266-1.137-2.436-1.667-3.707-1.577-3.629-1.9-8.2-3.707-11.6a2.754,2.754,0,0,1,0-2.358c.207-.395.54-.77.477-1.262-.047-.356-.3-.677-.2-1.008a1.13,1.13,0,0,1,.247-.365,3.365,3.365,0,0,0,.3-1.72,10.547,10.547,0,0,1,1.307-4.145,2.479,2.479,0,0,1,.48-.755c.163-.146.357-.214.52-.36.573-.521.533-1.749.81-2.66.36-1.2,1.267-1.807,1.864-2.776.757-1.237.947-2.957,1.747-4.038a2.842,2.842,0,0,1,.263-.312,27.845,27.845,0,0,0-.47,5.655c-.077,6.547,1.043,13.318.52,19.821-.413,5.154,1.76,10.3,4.841,12.879a20.332,20.332,0,0,0,3.771,2.319c1.927,1,3.854,2.026,5.744,3.181,1.334.809,2.667,1.685,3.954,2.616a47.492,47.492,0,0,1,4.668,3.78,21.684,21.684,0,0,1,5.034,6.055c1.277-.049,2.447-1.169,3.254-2.616a22.218,22.218,0,0,0,1.78-4.925,18.869,18.869,0,0,0,.847-4.642,1.03,1.03,0,0,0-.354-.833l-8.822-6.82-1.667-1.276c-3.611-2.8-7.335-5.392-10.965-8.188-.243.1-.443-.3-.513-.653s-.12-.789-.35-.945c-.117-.078-.263-.078-.333-.214a.812.812,0,0,1-.06-.429c.117-2.552,1.377-4.9,1.124-7.428a13.35,13.35,0,0,1-.333-3.2,18.55,18.55,0,0,1,.667-2.026c.43-1.559,0-3.41.473-4.954a15.514,15.514,0,0,0,.637-3.156,28.921,28.921,0,0,1,1.35-6.255,12.649,12.649,0,0,1,1.24-2.747c.267-.414.563-.789.813-1.218a13.235,13.235,0,0,0,1.27-4.813,33.4,33.4,0,0,0,.173-9.4,18.947,18.947,0,0,1-.41-3.161c0-1.418.437-3.079-.237-4.106a2.068,2.068,0,0,0-1-.74,21.835,21.835,0,0,0-4.784-1.291l-7.355-1.4a5.17,5.17,0,0,1-2.451-.93,7.347,7.347,0,0,1-2.067-3.858c-1.294,1.379-1.78,3.946-2.81,5.728-.5.872-1.124,1.573-1.667,2.372a27.48,27.48,0,0,0-1.847,3.327,67.32,67.32,0,0,0-4.184,9.645c-.57,1.8-1,3.673-1.474,5.534-1.8,7.341-4.728,14.307-5.944,21.891-.3,1.856-1.077,3.527-1.194,5.427A13.872,13.872,0,0,0,720.446,631.827Z" transform="translate(-488.801 -342.657)" fill="#434175"/>
  <path id="Path_413" data-name="Path 413" d="M836.348,567.58a4.611,4.611,0,0,1,.27,1.588c-.163-1.188-1.284-1.846-1.354-3.02-.033-.541.033-.516.263-.229C835.878,566.342,836.027,567.112,836.348,567.58Z" transform="translate(-566.122 -339.348)" opacity="0.1"/>
  <path id="Path_414" data-name="Path 414" d="M826.86,576.539a2.766,2.766,0,0,1,.51,1.1,4.008,4.008,0,0,1,.1,1.914c-.163-.112-.22-.4-.27-.662a5.852,5.852,0,0,0-.333-1.135c-.133-.307-.744-1.038-.737-1.374C826.12,575.877,826.7,576.359,826.86,576.539Z" transform="translate(-560.038 -344.702)" opacity="0.1"/>
  <path id="Path_415" data-name="Path 415" d="M827.14,491.826a9.013,9.013,0,0,0,1.694,1.646c1.594,1.179,3.357,1.8,4.961,2.923a24.012,24.012,0,0,1,2.3,1.948c1.59,1.461,3.177,2.923,4.764,4.408a6.041,6.041,0,0,1,1.05,1.164c.573.9.57,2.436,1.094,3.41a2.862,2.862,0,0,0,2.31,1.559,5.417,5.417,0,0,0,2.577-.633,10.528,10.528,0,0,0,1.474-.784,6.759,6.759,0,0,0,1.414-1.179,6.662,6.662,0,0,0,1.667-3.843,10.877,10.877,0,0,0-.283-3.137,16.012,16.012,0,0,0-.507-1.9,8.636,8.636,0,0,0-.407-1,7.357,7.357,0,0,0-4.884-3.863c-.984-.278-1.984-.448-2.971-.692a7.562,7.562,0,0,1-1.437.322,9.687,9.687,0,0,1-4.474-1.028l-1.594-.643c-.8-.322-1.2-1.729-2-1.978a1.883,1.883,0,0,0-1.083.083,12,12,0,0,0-4.734,2.26A7.871,7.871,0,0,0,827.14,491.826Z" transform="translate(-560.711 -299.733)" opacity="0.1"/>
  <path id="Path_416" data-name="Path 416" d="M804.058,431.36c.2,2.84,1.844,4.925,2.844,7.375.487,1.193.827,2.5,1.264,3.731a41.88,41.88,0,0,0,1.667,3.9l1.784,3.785a40.436,40.436,0,0,0,3.451,6.332c2.334.58,4.3,3.117,6.518,4.35,1.777.974,3.711,1.12,5.574,1.651a7.343,7.343,0,0,1,4.884,3.863,12.793,12.793,0,0,1,.913,2.923,10.845,10.845,0,0,1,.283,3.132,6.665,6.665,0,0,1-1.667,3.848,8.332,8.332,0,0,1-2.884,1.948,5.472,5.472,0,0,1-2.577.633,2.873,2.873,0,0,1-2.314-1.559c-.52-.974-.517-2.528-1.09-3.41a6.044,6.044,0,0,0-1.05-1.164l-4.764-4.384a24.007,24.007,0,0,0-2.3-1.948c-1.6-1.145-3.367-1.763-4.961-2.923a8.345,8.345,0,0,1-3.391-5.689c-.97-7.886-4.708-14.535-7.9-21.048.1-.029.073-.38.11-.526a6.253,6.253,0,0,1,2.334-3.449A9.16,9.16,0,0,1,804.058,431.36Z" transform="translate(-541.513 -270.437)" fill="#f86d70"/>
  <path id="Path_417" data-name="Path 417" d="M865.969,425.744a6.058,6.058,0,0,1,.333-2.474,3.667,3.667,0,0,1,2.644-2.041c1.007-.3,1.934-.536,2.907-.74a4.631,4.631,0,0,1,2.4-.063c1.087.351,2,1.417,3,2.075a16.172,16.172,0,0,0,3.814,1.422,5.7,5.7,0,0,1,3.4,2.689,12.229,12.229,0,0,1,1.037,4.067c1.524,12-.117,24.3-.427,36.494-.123,4.744.023,9.815,1.88,13.717l-5.4-.209c-1.384-.054-2.871-.161-3.957-1.408a11.049,11.049,0,0,1-1.82-4.535,19.635,19.635,0,0,1-.693-4.067c-.083-2.864,1.03-5.675.667-8.5a10.46,10.46,0,0,0-2.44-5.188,28.4,28.4,0,0,1-3.277-4.262c-1.617-3-1.927-7.083-1.727-10.887a59.982,59.982,0,0,0,.263-6.785,11.136,11.136,0,0,0-1.224-4.754A8.383,8.383,0,0,1,865.969,425.744Z" transform="translate(-586.585 -264.763)" fill="#434175"/>
  <path id="Path_418" data-name="Path 418" d="M866.3,424.272a3.606,3.606,0,0,1,2.591-2.022,2.981,2.981,0,0,0-1.284,1.461,6.15,6.15,0,0,0-.333,2.479,8.247,8.247,0,0,0,1.384,4.555,11.075,11.075,0,0,1,1.227,4.754,60.792,60.792,0,0,1-.263,6.786c-.2,3.8.107,7.891,1.727,10.887a27.576,27.576,0,0,0,3.277,4.262,10.367,10.367,0,0,1,2.44,5.188c.36,2.816-.754,5.631-.667,8.5a19.3,19.3,0,0,0,.69,4.063,11.135,11.135,0,0,0,1.82,4.54c1.087,1.247,2.577,1.354,3.961,1.408l3.827.146c.083.2.173.409.267.609l-5.4-.209c-1.384-.054-2.87-.161-3.957-1.408a11.047,11.047,0,0,1-1.82-4.535,19.63,19.63,0,0,1-.693-4.067c-.083-2.864,1.03-5.675.667-8.5a10.46,10.46,0,0,0-2.44-5.188,28.384,28.384,0,0,1-3.277-4.262c-1.617-3-1.927-7.083-1.727-10.887a59.926,59.926,0,0,0,.263-6.786,11.137,11.137,0,0,0-1.224-4.754,8.275,8.275,0,0,1-1.387-4.555,6.051,6.051,0,0,1,.337-2.465Z" transform="translate(-586.581 -265.765)" opacity="0.1"/>
  <path id="Path_419" data-name="Path 419" d="M745.22,655.5l9.928,35.34a6.828,6.828,0,0,0,1.38-2.226c-.8-4.384-1.614-8.88-3.237-12.772-.53-1.266-1.137-2.436-1.667-3.707-1.577-3.629-1.9-8.2-3.707-11.6a2.753,2.753,0,0,1,0-2.358c.207-.395.54-.77.477-1.262-.047-.356-.3-.677-.2-1.008a1.131,1.131,0,0,1,.247-.365,3.365,3.365,0,0,0,.3-1.72,10.55,10.55,0,0,1,1.307-4.145,2.479,2.479,0,0,1,.48-.755c.163-.146.357-.214.52-.36.573-.521.533-1.749.81-2.66.36-1.2,1.267-1.807,1.864-2.777.757-1.237.947-2.957,1.747-4.038l.07-.253-.75-6.82Z" transform="translate(-506.103 -373.353)" opacity="0.1"/>
  <ellipse id="Ellipse_224" data-name="Ellipse 224" cx="11.319" cy="3.181" rx="11.319" ry="3.181" transform="translate(314.424 317.997)" fill="#0a0d11"/>
  <ellipse id="Ellipse_225" data-name="Ellipse 225" cx="1.317" cy="2.518" rx="1.317" ry="2.518" transform="translate(324.616 317.305)" fill="#3f3d56"/>
  <ellipse id="Ellipse_226" data-name="Ellipse 226" cx="1.317" cy="2.518" rx="1.317" ry="2.518" transform="translate(324.616 314.227)" fill="#3f3d56"/>
  <ellipse id="Ellipse_227" data-name="Ellipse 227" cx="1.317" cy="2.518" rx="1.317" ry="2.518" transform="translate(324.616 311.143)" fill="#3f3d56"/>
  <ellipse id="Ellipse_228" data-name="Ellipse 228" cx="1.317" cy="2.518" rx="1.317" ry="2.518" transform="translate(324.616 308.065)" fill="#3f3d56"/>
  <ellipse id="Ellipse_229" data-name="Ellipse 229" cx="1.317" cy="2.518" rx="1.317" ry="2.518" transform="translate(324.616 304.981)" fill="#3f3d56"/>
  <ellipse id="Ellipse_230" data-name="Ellipse 230" cx="1.317" cy="2.518" rx="1.317" ry="2.518" transform="translate(324.616 301.903)" fill="#3f3d56"/>
  <ellipse id="Ellipse_231" data-name="Ellipse 231" cx="1.317" cy="2.518" rx="1.317" ry="2.518" transform="translate(324.616 298.824)" fill="#3f3d56"/>
  <path id="Path_420" data-name="Path 420" d="M988.12,660.6a10.138,10.138,0,0,1-.49-1.057l3.461-.833-3.744.044a13.225,13.225,0,0,1-.12-7.307l5.024,3.8-4.634-4.973c1.178-3,3.408-4.79,5.775-4.627s4.472,2.247,5.452,5.4a12.8,12.8,0,0,1-.8,9.551,10.226,10.226,0,0,1,.72,1.681l-4.494,3.41,4.794-2.348a13.248,13.248,0,0,1,.333,2.957,12.112,12.112,0,0,1-1.354,5.7c2.035,3.78,1.739,9.211-.679,12.474s-6.146,3.263-8.564,0-2.714-8.693-.679-12.474A12.714,12.714,0,0,1,988.12,660.6Z" transform="translate(-667.122 -380.339)" fill="#0a0d11"/>
  <path id="Path_421" data-name="Path 421" d="M999.4,687.908a12.114,12.114,0,0,1-1.354,5.7c2.035,3.78,1.739,9.211-.679,12.474s-6.146,3.263-8.564,0-2.713-8.693-.679-12.474C987.273,692.043,999.4,686.875,999.4,687.908Z" transform="translate(-667.122 -401.948)" opacity="0.1"/>
  <ellipse id="Ellipse_232" data-name="Ellipse 232" cx="7.611" cy="2.138" rx="7.611" ry="2.138" transform="translate(340.175 283.714)" fill="#0a0d11"/>
  <ellipse id="Ellipse_233" data-name="Ellipse 233" cx="0.887" cy="1.695" rx="0.887" ry="1.695" transform="translate(347.03 283.251)" fill="#3f3d56"/>
  <ellipse id="Ellipse_234" data-name="Ellipse 234" cx="0.887" cy="1.695" rx="0.887" ry="1.695" transform="translate(347.03 281.181)" fill="#3f3d56"/>
  <ellipse id="Ellipse_235" data-name="Ellipse 235" cx="0.887" cy="1.695" rx="0.887" ry="1.695" transform="translate(347.03 279.106)" fill="#3f3d56"/>
  <ellipse id="Ellipse_236" data-name="Ellipse 236" cx="0.887" cy="1.695" rx="0.887" ry="1.695" transform="translate(347.03 277.036)" fill="#3f3d56"/>
  <ellipse id="Ellipse_237" data-name="Ellipse 237" cx="0.887" cy="1.695" rx="0.887" ry="1.695" transform="translate(347.03 274.966)" fill="#3f3d56"/>
  <ellipse id="Ellipse_238" data-name="Ellipse 238" cx="0.887" cy="1.695" rx="0.887" ry="1.695" transform="translate(347.03 272.895)" fill="#3f3d56"/>
  <ellipse id="Ellipse_239" data-name="Ellipse 239" cx="0.887" cy="1.695" rx="0.887" ry="1.695" transform="translate(347.03 270.82)" fill="#3f3d56"/>
  <path id="Path_422" data-name="Path 422" d="M1059.776,620.744a5.94,5.94,0,0,1-.333-.711l2.334-.56-2.517.029a8.6,8.6,0,0,1-.39-2.591,8.794,8.794,0,0,1,.307-2.324l3.381,2.562-3.117-3.346c.788-2.03,2.29-3.241,3.886-3.134s3.015,1.514,3.673,3.642a8.6,8.6,0,0,1-.558,6.434,7,7,0,0,1,.483,1.13l-3.021,2.294,3.221-1.583a8.6,8.6,0,0,1-.683,5.845,8.388,8.388,0,0,1-.45,8.4,3.346,3.346,0,0,1-5.768,0,8.388,8.388,0,0,1-.45-8.4,8.53,8.53,0,0,1,0-7.667Z" transform="translate(-715.177 -362.399)" fill="#0a0d11"/>
  <path id="Path_423" data-name="Path 423" d="M1067.368,639.134a8.179,8.179,0,0,1-.907,3.834,8.387,8.387,0,0,1-.45,8.4,3.345,3.345,0,0,1-5.768,0,8.388,8.388,0,0,1-.45-8.4C1059.22,641.91,1067.368,638.437,1067.368,639.134Z" transform="translate(-715.191 -376.955)" opacity="0.1"/>
</svg>
