<svg id="undraw_personal_settings_kihd_1_" data-name="undraw_personal_settings_kihd (1)" xmlns="http://www.w3.org/2000/svg" xmlns:xlink="http://www.w3.org/1999/xlink" width="460" height="371" viewBox="0 0 460 371">
  <defs>
    <linearGradient id="linear-gradient" x1="9.046" y1="1" x2="9.046" gradientUnits="objectBoundingBox">
      <stop offset="0" stop-color="gray" stop-opacity="0.251"/>
      <stop offset="0.54" stop-color="gray" stop-opacity="0.122"/>
      <stop offset="1" stop-color="gray" stop-opacity="0.102"/>
    </linearGradient>
  </defs>
  <path id="Path_393" data-name="Path 393" d="M488,330.687a120.155,120.155,0,0,1-10.5,49.9c0,18.4-6.49,35.081-17.017,47.237A62.08,62.08,0,0,1,452,435.945c-.121.1-.245.2-.37.292-.225.175-.45.351-.68.532l-.213.165h0c-9.967,7.339-21.2,11.147-32.61,11.056H115.323a66.966,66.966,0,0,1-7.173-.383A68.153,68.153,0,0,1,83.6,440.091q-2.3-1.2-4.512-2.583-1.053-.654-2.087-1.345c-.43-.287-.86-.585-1.287-.882a78.328,78.328,0,0,1-13.856-12.432c-13.671-15.536-22.148-37-22.148-60.706A119.36,119.36,0,0,1,28,309.7c0-52.7,31.862-95.414,71.171-95.414,1.206,0,2.413.048,3.619.133a2.791,2.791,0,0,1,.515.032A158.423,158.423,0,0,1,352.11,158.919c10.542-7.878,22.45-12.008,34.56-11.986,39.3,0,71.171,42.719,71.171,95.414q-.009,5-.4,9.982C476.665,270.319,488.065,299.55,488,330.687Z" transform="translate(-28 -109.938)" fill="#0a0d11" opacity="0.1"/>
  <g id="Group_36" data-name="Group 36" transform="translate(31.943 186.426)" opacity="0.2">
    <path id="Path_394" data-name="Path 394" d="M154.585,714.065c0,.245-.02.484-.04.718q-2.3-1.2-4.512-2.583a3.409,3.409,0,0,1-2.087-1.345c-.43-.287-.86-.585-1.287-.882a8.188,8.188,0,0,1,.326-.776c.828-1.733,2.087-2.817,3.474-2.759s2.589,1.244,3.333,3.035A11.4,11.4,0,0,1,154.585,714.065Z" transform="translate(-130.89 -571.057)" fill="#3f3d56"/>
    <path id="Path_395" data-name="Path 395" d="M154.109,696.945a11.174,11.174,0,0,1-1.009,4.507c-.828,1.727-2.087,2.812-3.474,2.753l-.285-.027a3.409,3.409,0,0,1-2.087-1.345,6.791,6.791,0,0,1-.961-1.658,11.988,11.988,0,0,1,.217-9.1c.828-1.733,2.087-2.817,3.474-2.759s2.59,1.244,3.333,3.035A11.4,11.4,0,0,1,154.109,696.945Z" transform="translate(-130.197 -563.036)" fill="#3f3d56"/>
    <path id="Path_424" data-name="Path 424" d="M7.476-.02c4.112-.032,7.425,1.87,7.4,4.247S11.5,8.556,7.389,8.588s-7.425-1.87-7.4-4.247S3.364.012,7.476-.02Z" transform="translate(15.314 131.941) rotate(-88.19)" fill="#3f3d56"/>
    <path id="Path_425" data-name="Path 425" d="M7.476-.02c4.112-.032,7.425,1.87,7.4,4.247S11.5,8.556,7.389,8.588s-7.425-1.87-7.4-4.247S3.364.012,7.476-.02Z" transform="translate(15.529 122.841) rotate(-88.19)" fill="#3f3d56"/>
    <path id="Path_426" data-name="Path 426" d="M7.475-.019c4.112-.03,7.426,1.872,7.4,4.249S11.5,8.559,7.392,8.589-.035,6.716-.012,4.339,3.363.011,7.475-.019Z" transform="translate(15.788 113.159) rotate(-88.282)" fill="#3f3d56"/>
    <path id="Path_396" data-name="Path 396" d="M113.082,495.223a28.674,28.674,0,0,1-1.528-3.189l11.363-1.983-12.232-.388a35.469,35.469,0,0,1,.125-21.6l16.132,11.933L112.165,464.66c4.063-8.687,11.46-13.643,19.163-12.838s14.419,7.235,17.4,16.658,1.725,20.259-3.252,28.071a30.215,30.215,0,0,1,2.232,5.065l-14.914,9.466,15.814-6.288c2.023,8.825.538,18.4-3.949,25.465,6.381,11.445,5.036,27.451-3.091,36.765s-20.3,8.806-27.97-1.166-8.246-26.059-1.332-36.949c-5.646-10.129-5.314-24.05.8-33.688Z" transform="translate(-107.44 -451.737)" fill="#0a0d11"/>
    <path id="Path_397" data-name="Path 397" d="M149.484,567.739a32.624,32.624,0,0,1-4.825,16.658c6.381,11.445,5.036,27.451-3.091,36.765s-20.3,8.806-27.97-1.166-8.246-26.059-1.332-36.949C109.624,578.3,149.556,564.677,149.484,567.739Z" transform="translate(-107.44 -505.873)" opacity="0.1"/>
  </g>
  <path id="Path_398" data-name="Path 398" d="M524.419,230.785v254.7c0,5.4-3.314,9.785-7.4,9.785H221.4a5.655,5.655,0,0,1-2.043-.383c-3.175-1.2-5.363-5.038-5.36-9.4V261.694a2.791,2.791,0,0,1,.515.032A159.282,159.282,0,0,1,240.651,221H517.017C521.105,221,524.419,225.381,524.419,230.785Z" transform="translate(-139.21 -157.217)" fill="#fff"/>
  <rect id="Rectangle_280" data-name="Rectangle 280" width="55.421" height="19.114" rx="9.557" transform="translate(286.362 96.86)" fill="#3f3d56"/>
  <rect id="Rectangle_281" data-name="Rectangle 281" width="48.195" height="12.719" rx="6.36" transform="translate(289.973 100.055)" opacity="0.1"/>
  <rect id="Rectangle_282" data-name="Rectangle 282" width="17.403" height="11.327" rx="5.663" transform="translate(319.559 100.751)" fill="#0a0d11"/>
  <ellipse id="Ellipse_215" data-name="Ellipse 215" cx="2.678" cy="3.54" rx="2.678" ry="3.54" transform="translate(325.45 102.877)" fill="#fff"/>
  <rect id="Rectangle_283" data-name="Rectangle 283" width="55.421" height="19.114" rx="9.557" transform="translate(286.362 222.858)" fill="#3f3d56"/>
  <rect id="Rectangle_284" data-name="Rectangle 284" width="48.195" height="12.719" rx="6.36" transform="translate(289.973 226.053)" opacity="0.1"/>
  <rect id="Rectangle_285" data-name="Rectangle 285" width="17.403" height="11.327" rx="5.663" transform="translate(319.559 226.749)" fill="#0a0d11"/>
  <ellipse id="Ellipse_216" data-name="Ellipse 216" cx="2.678" cy="3.54" rx="2.678" ry="3.54" transform="translate(325.45 228.875)" fill="#fff"/>
  <rect id="Rectangle_286" data-name="Rectangle 286" width="55.421" height="19.114" rx="9.557" transform="translate(286.362 285.855)" fill="#3f3d56"/>
  <rect id="Rectangle_287" data-name="Rectangle 287" width="48.195" height="12.719" rx="6.36" transform="translate(289.973 289.055)" opacity="0.1"/>
  <rect id="Rectangle_288" data-name="Rectangle 288" width="17.403" height="11.327" rx="5.663" transform="translate(319.559 289.751)" fill="#0a0d11"/>
  <ellipse id="Ellipse_217" data-name="Ellipse 217" cx="2.678" cy="3.54" rx="2.678" ry="3.54" transform="translate(325.45 291.872)" fill="#fff"/>
  <rect id="Rectangle_289" data-name="Rectangle 289" width="32.397" height="11.327" rx="5.663" transform="translate(118.217 84.826)" fill="#0a0d11"/>
  <rect id="Rectangle_290" data-name="Rectangle 290" width="89.961" height="11.327" rx="5.663" transform="translate(118.217 100.751)" fill="#0a0d11"/>
  <rect id="Rectangle_291" data-name="Rectangle 291" width="89.961" height="11.327" rx="5.663" transform="translate(118.217 116.681)" fill="#0a0d11"/>
  <g id="Group_37" data-name="Group 37" transform="translate(118.217 147.823)" opacity="0.5">
    <rect id="Rectangle_292" data-name="Rectangle 292" width="32.397" height="11.327" rx="5.663" fill="#0a0d11"/>
    <rect id="Rectangle_293" data-name="Rectangle 293" width="67.15" height="11.327" rx="5.663" transform="translate(0 15.93)" fill="#0a0d11"/>
    <rect id="Rectangle_294" data-name="Rectangle 294" width="89.961" height="11.327" rx="5.663" transform="translate(0 31.854)" fill="#0a0d11"/>
  </g>
  <rect id="Rectangle_295" data-name="Rectangle 295" width="32.397" height="11.327" rx="5.663" transform="translate(118.217 210.825)" fill="#0a0d11"/>
  <rect id="Rectangle_296" data-name="Rectangle 296" width="89.961" height="11.327" rx="5.663" transform="translate(118.217 226.749)" fill="#0a0d11"/>
  <rect id="Rectangle_297" data-name="Rectangle 297" width="55.892" height="11.327" rx="5.663" transform="translate(118.217 242.679)" fill="#0a0d11"/>
  <rect id="Rectangle_298" data-name="Rectangle 298" width="32.397" height="11.327" rx="5.663" transform="translate(118.217 273.821)" fill="#0a0d11"/>
  <rect id="Rectangle_299" data-name="Rectangle 299" width="89.961" height="11.327" rx="5.663" transform="translate(118.217 289.751)" fill="#0a0d11"/>
  <rect id="Rectangle_300" data-name="Rectangle 300" width="72.378" height="11.327" rx="5.663" transform="translate(118.217 305.675)" fill="#0a0d11"/>
  <line id="Line_32" data-name="Line 32" x2="262.168" transform="translate(104.546 138.192)" fill="none" stroke="#3f3d56" stroke-linecap="round" stroke-miterlimit="10" stroke-width="1" opacity="0.7"/>
  <line id="Line_33" data-name="Line 33" x2="262.168" transform="translate(104.546 202.24)" fill="none" stroke="#3f3d56" stroke-linecap="round" stroke-miterlimit="10" stroke-width="1" opacity="0.7"/>
  <line id="Line_34" data-name="Line 34" x2="262.168" transform="translate(104.546 266.289)" fill="none" stroke="#3f3d56" stroke-linecap="round" stroke-miterlimit="10" stroke-width="1" opacity="0.7"/>
  <line id="Line_35" data-name="Line 35" x2="262.168" transform="translate(104.546 331.933)" fill="none" stroke="#3f3d56" stroke-linecap="round" stroke-miterlimit="10" stroke-width="1" opacity="0.7"/>
  <ellipse id="Ellipse_218" data-name="Ellipse 218" cx="59.382" cy="5.581" rx="59.382" ry="5.581" transform="translate(260.286 359.838)" fill="#0a0d11" opacity="0.1"/>
  <ellipse id="Ellipse_219" data-name="Ellipse 219" cx="8.697" cy="11.497" rx="8.697" ry="11.497" transform="translate(19.659 63.544)" fill="#0a0d11" opacity="0.1"/>
  <ellipse id="Ellipse_220" data-name="Ellipse 220" cx="8.697" cy="11.497" rx="8.697" ry="11.497" transform="translate(55.908)" fill="#0a0d11" opacity="0.1"/>
  <ellipse id="Ellipse_221" data-name="Ellipse 221" cx="14.576" cy="19.268" rx="14.576" ry="19.268" transform="translate(47.082 35.883)" fill="#0a0d11" opacity="0.1"/>
  <rect id="Rectangle_301" data-name="Rectangle 301" width="55.421" height="19.114" rx="9.557" transform="translate(286.362 159.857)" fill="#3f3d56"/>
  <rect id="Rectangle_302" data-name="Rectangle 302" width="48.195" height="12.719" rx="6.36" transform="translate(289.973 163.056)" opacity="0.1"/>
  <path id="Path_399" data-name="Path 399" d="M733,592.127a17.994,17.994,0,0,0,1.882-.484,9.714,9.714,0,0,1-.531,2.36,9.014,9.014,0,0,1-2.923,3.418.745.745,0,0,0-1.142-.1c-1.331,1.063-2.392,2.562-3.8,3.476-.494.319-1.009.574-1.492.93a9.9,9.9,0,0,0-2.815,3.843,3.332,3.332,0,0,0-.334,2.727,2.072,2.072,0,0,0,.571.675,2.721,2.721,0,0,0,1.958.771c.4-.048.8-.25,1.243-.34a14.626,14.626,0,0,1,1.669-.128,7.922,7.922,0,0,0,2.348-.8l2.762-1.276a14.082,14.082,0,0,0,2.272-1.233c.438-.314.852-.68,1.3-.967a8.914,8.914,0,0,1,1.552-.723l1.568-.606a1.189,1.189,0,0,1,.708-.122c.217.053.4.234.623.308a1.457,1.457,0,0,0,1.005-.128l1.817-.68a3.04,3.04,0,0,0,1.082-.6c.832-.781.981-2.333.977-3.689a36.6,36.6,0,0,0-.523-6.1,1.557,1.557,0,0,0-.591.59,11.494,11.494,0,0,0-.6-.994,13.4,13.4,0,0,1-1.814-4.428,7.521,7.521,0,0,0,1.609-2.4c-.961-4.842-1.946-9.759-3.9-14.032-.639-1.393-1.371-2.7-2.01-4.071-1.9-3.987-2.292-9.036-4.467-12.757a2.8,2.8,0,0,1,0-2.594c.249-.436.651-.845.575-1.387-.056-.388-.362-.744-.245-1.106a1.24,1.24,0,0,1,.3-.4,3.442,3.442,0,0,0,.358-1.9,10.815,10.815,0,0,1,1.572-4.55,2.656,2.656,0,0,1,.579-.829c.2-.159.43-.234.627-.393.692-.579.643-1.924.973-2.923.434-1.318,1.528-1.983,2.244-3.051.913-1.361,1.146-3.253,2.107-4.438a2.735,2.735,0,0,1,.318-.34,27.953,27.953,0,0,0-.567,6.192c-.093,7.191,1.259,14.633.627,21.792-.5,5.666,2.119,11.316,5.83,14.149a24.817,24.817,0,0,0,4.54,2.546c2.324,1.1,4.64,2.232,6.92,3.5q2.412,1.34,4.761,2.876a57.261,57.261,0,0,1,5.629,4.151,24.566,24.566,0,0,1,6.064,6.655,4.168,4.168,0,0,0,2.678-1.3c.611.638,1.351,1.122,1.926,1.828a8.779,8.779,0,0,1,1.528,3.965H782.1c.028.707.052,1.414.08,2.126a1.165,1.165,0,0,1-.06.531.851.851,0,0,1-.217.26l-1.239,1.111a4.726,4.726,0,0,0-1.942,3.258,2.043,2.043,0,0,0,.269,1.164,1.731,1.731,0,0,0,1.1.659,14.9,14.9,0,0,0,6.546.8,3.963,3.963,0,0,0,2.786-1.7,8.864,8.864,0,0,0,.973-3.529c.269-2.126.495-4.3.671-6.458a18.345,18.345,0,0,1,.668-4.289.532.532,0,0,1,.173-.287c.093-.053.2,0,.3-.053s.161-.25.193-.409a33.164,33.164,0,0,0,.575-6.421,5.615,5.615,0,0,0-.189-1.653,2.762,2.762,0,0,0-1.721-1.754,10.538,10.538,0,0,0-2.224-.351,8.666,8.666,0,0,1-1.846-.447,1.314,1.314,0,0,0-.768-.133.677.677,0,0,0-.466.707,1.107,1.107,0,0,0,.1.346l-.627-.165c-.507-.122-1.206-.415-1.966-.659q0-.255.024-.532a1.074,1.074,0,0,0-.426-.914l-10.623-7.505-1.986-1.4c-4.351-3.078-8.846-5.921-13.209-9-.29.117-.531-.324-.615-.718s-.145-.861-.422-1.036c-.137-.085-.318-.08-.4-.234a.8.8,0,0,1-.076-.473c.141-2.8,1.656-5.384,1.355-8.159a13.4,13.4,0,0,1-.4-3.519,19.406,19.406,0,0,1,.8-2.222c.523-1.711,0-3.768.571-5.443a15.769,15.769,0,0,0,.768-3.466,29.659,29.659,0,0,1,1.608-6.878,13.321,13.321,0,0,1,1.5-3.014c.318-.457.676-.866.981-1.339a13.527,13.527,0,0,0,1.528-5.315,33.443,33.443,0,0,0,.209-10.322,19.064,19.064,0,0,1-.495-3.471c0-1.414.43-3.035-.089-4.167a4.038,4.038,0,0,0,1-2.27,3.766,3.766,0,0,1,.141-.941,2.4,2.4,0,0,1,.671-.8,4.345,4.345,0,0,0,1.037-3.652c.551.33,1.13-.409,1.391-1.138s.458-1.595,1.017-1.924c.378-.213.8-.085,1.206-.223.639-.218,1.029-1.063,1.48-1.685a11.441,11.441,0,0,1,3.418-2.785c3.563-2.4,6.466-6.187,9.309-9.918a40.214,40.214,0,0,0,4.021-5.985c.318-.622.607-1.265.881-1.924l.072-.048.024.117c.044.234.1.468.149.7.129.531.273,1.1.4,1.642a14.018,14.018,0,0,0,1.789,4.5,4.615,4.615,0,0,0,.917.941,5.116,5.116,0,0,0,2.36.935,9.462,9.462,0,0,0,.949.106c.318.021.635.037.949.048l6.506.229c-2.236-4.284-2.413-9.854-2.264-15.069.374-13.394,2.348-26.911.515-40.093a12.478,12.478,0,0,0-1.25-4.47,6.71,6.71,0,0,0-4.093-2.955,19.928,19.928,0,0,1-4.592-1.557c-1.206-.728-2.316-1.9-3.619-2.28a6.069,6.069,0,0,0-2.9.064q-1.761.346-3.5.819l-.282.08h.012l-.193.058h-.052l-.173.053H781.1l-.161.058-.073.027-.149.064-.084.037-.137.058-.088.048-.129.064-.1.053-.117.069-.1.064-.109.069-.1.074-.1.074-.1.085-.092.08-.1.09-.08.085-.093.106-.077.09a1.231,1.231,0,0,0-.088.122l-.068.09a1.608,1.608,0,0,0-.089.149c0,.027-.036.053-.052.085s-.072.138-.109.218v.032a3.8,3.8,0,0,0-.221.633c-.028.112-.056.223-.076.335a6.561,6.561,0,0,0-.088.691,2.112,2.112,0,0,1-.02.356v.707q.025.6.1,1.191c-2.9,2.265-4.715,6.338-4.81,10.787s1.545,8.651,4.343,11.128q.029.315.032.632v.138c-.022.752-.082,1.5-.177,2.243a18.034,18.034,0,0,0-4.825-.569,28.388,28.388,0,0,0-2.911.218q-1.564-2.495-2.911-5.209l-2.147-4.162a43.3,43.3,0,0,1-2.01-4.252c-.527-1.35-.937-2.785-1.524-4.093-1.206-2.695-3.177-4.986-3.422-8.106l-.567.154c-.31-.67-.7-1.377-.844-1.765a42.954,42.954,0,0,1-1.785-6.91,13.19,13.19,0,0,0-.856-3.583,7.613,7.613,0,0,0-1.251-1.754,8.362,8.362,0,0,0-2.678-2.232,2.708,2.708,0,0,0-2.738.213,3.507,3.507,0,0,0-.4-.213,2.649,2.649,0,0,0-3.04.468,6.224,6.224,0,0,0-1.335,3.721,11.8,11.8,0,0,0,.716,5.645c.8,1.9,2.244,3.189,3.434,4.7a18.432,18.432,0,0,1,2.159,3.551,51.315,51.315,0,0,1-.165,8.616c-.153,1.222-.4,2.424-.474,3.657-.294,4.454,1.459,8.908.832,13.288a3.723,3.723,0,0,0,1.138,3.439,10.258,10.258,0,0,0,2.943,1.063c1.942.659,3.619,2.3,5.581,2.913.9.287,1.846.34,2.746.659l.141.058a9.831,9.831,0,0,0-1.444,3.625c-.4,2.232-.024,4.619-.426,6.851a17.439,17.439,0,0,1-1.974,5q-2.356,4.507-4.721,9.036a56.662,56.662,0,0,1-3.478,6.043c-2.167,3.131-5.907,5.613-7.009,9.376-.024-.09-.056-.181-.08-.271-1.56,1.515-2.143,4.337-3.386,6.3-.607.951-1.355,1.722-2.01,2.6a30.123,30.123,0,0,0-2.224,3.652,70.579,70.579,0,0,0-5.034,10.6c-.692,1.977-1.226,4.034-1.777,6.081-2.163,8.063-5.694,15.712-7.161,24.052-.358,2.036-1.295,3.875-1.436,5.958a14.347,14.347,0,0,0,1.407,6.32c1.206,3,2.549,5.911,3.619,8.993.631,1.8,1.178,3.652,1.882,5.406.768,1.913,1.709,3.689,2.513,5.576A85.805,85.805,0,0,1,733,592.127Zm26.6-152.309-.193-.128a6.861,6.861,0,0,1-1.95-1.706c-1.733-2.445-2.477-6.128-3.02-9.419-.064-.393-.121-.781-.173-1.175a63.31,63.31,0,0,1,5.336,12.438Z" transform="translate(-441.407 -240.788)" fill="url(#linear-gradient)"/>
  <path id="Path_400" data-name="Path 400" d="M785.925,408.526a12.938,12.938,0,0,0-.852-3.556,7.563,7.563,0,0,0-1.255-1.743,8.4,8.4,0,0,0-2.686-2.216,2.675,2.675,0,0,0-3.04.462,6.176,6.176,0,0,0-1.339,3.721,11.657,11.657,0,0,0,.716,5.608c.824,1.892,2.248,3.157,3.442,4.667a18.379,18.379,0,0,1,2.244,3.721,11.4,11.4,0,0,0,1.021,1.977,1.743,1.743,0,0,0,1.609.856A2.782,2.782,0,0,0,787.1,421c.49-.569,1.81-1.595,1.85-2.482.032-.728-1-2.376-1.25-3.062A42.9,42.9,0,0,1,785.925,408.526Z" transform="translate(-475.634 -241.415)" fill="#fbbebe"/>
  <path id="Path_401" data-name="Path 401" d="M785.925,408.526a12.938,12.938,0,0,0-.852-3.556,7.563,7.563,0,0,0-1.255-1.743,8.4,8.4,0,0,0-2.686-2.216,2.675,2.675,0,0,0-3.04.462,6.176,6.176,0,0,0-1.339,3.721,11.657,11.657,0,0,0,.716,5.608c.824,1.892,2.248,3.157,3.442,4.667a18.379,18.379,0,0,1,2.244,3.721,11.4,11.4,0,0,0,1.021,1.977,1.743,1.743,0,0,0,1.609.856A2.782,2.782,0,0,0,787.1,421c.49-.569,1.81-1.595,1.85-2.482.032-.728-1-2.376-1.25-3.062A42.9,42.9,0,0,1,785.925,408.526Z" transform="translate(-475.634 -241.415)" opacity="0.1"/>
  <path id="Path_402" data-name="Path 402" d="M822.234,458.992a18.276,18.276,0,0,0-6.506-1.063c-3.663.069-7.435,1.244-10.925-.244a16.981,16.981,0,0,1-2.614-1.472,6.843,6.843,0,0,1-1.954-1.7c-1.737-2.429-2.485-6.091-3.024-9.355a81.8,81.8,0,0,1-.824-9.955,4.723,4.723,0,0,1-2.855.994,2.451,2.451,0,0,1-2.01-2.44,53.289,53.289,0,0,1-.133,9.275c-.153,1.212-.4,2.408-.471,3.63-.3,4.428,1.46,8.85.832,13.214a3.654,3.654,0,0,0,1.138,3.412,10.449,10.449,0,0,0,2.947,1.063c1.942.654,3.619,2.285,5.589,2.9.9.282,1.85.335,2.75.654,1.283.452,2.453,1.424,3.764,1.727a24.558,24.558,0,0,0,2.988.186c.865.1,1.709.393,2.577.425,2.123.069,4.126-1.515,5.533-3.62S821.342,461.527,822.234,458.992Z" transform="translate(-484.131 -256.889)" fill="#f86d70"/>
  <path id="Path_403" data-name="Path 403" d="M822.234,458.992a18.276,18.276,0,0,0-6.506-1.063c-3.663.069-7.435,1.244-10.925-.244a16.981,16.981,0,0,1-2.614-1.472,6.843,6.843,0,0,1-1.954-1.7c-1.737-2.429-2.485-6.091-3.024-9.355a81.8,81.8,0,0,1-.824-9.955,4.723,4.723,0,0,1-2.855.994,2.451,2.451,0,0,1-2.01-2.44,53.289,53.289,0,0,1-.133,9.275c-.153,1.212-.4,2.408-.471,3.63-.3,4.428,1.46,8.85.832,13.214a3.654,3.654,0,0,0,1.138,3.412,10.449,10.449,0,0,0,2.947,1.063c1.942.654,3.619,2.285,5.589,2.9.9.282,1.85.335,2.75.654,1.283.452,2.453,1.424,3.764,1.727a24.558,24.558,0,0,0,2.988.186c.865.1,1.709.393,2.577.425,2.123.069,4.126-1.515,5.533-3.62S821.342,461.527,822.234,458.992Z" transform="translate(-484.131 -256.889)" opacity="0.1"/>
  <path id="Path_404" data-name="Path 404" d="M872.108,737.754a4.6,4.6,0,0,1,1.878.776,6,6,0,0,1,1.633,2.913,32.77,32.77,0,0,1,1.1,9.094,25.522,25.522,0,0,1-.708,7.372,5.07,5.07,0,0,1-.929,1.929,3.1,3.1,0,0,1-1.279.818,2.732,2.732,0,0,1-3-.489c-.917-.946-1.146-2.62-1.339-4.135-.261-2.041-.631-4.215-1.781-5.623-.852-1.063-2.075-1.595-2.694-2.881-.74-1.547-.35-3.567.12-5.289.4-1.494,1.009-4.518,2.192-5.283S870.881,737.462,872.108,737.754Z" transform="translate(-528.189 -398.816)" fill="#fbbebe"/>
  <path id="Path_405" data-name="Path 405" d="M755.679,749.888a13.321,13.321,0,0,0,1.842,4.523c.523.8,1.178,1.765.9,2.753a2.632,2.632,0,0,1-.495.877,22.907,22.907,0,0,1-14.7,8.356.4.4,0,0,1-.261,0c-.157-.09-.2-.356-.213-.585a9.463,9.463,0,0,1,0-2.238,6.556,6.556,0,0,1,2.545-3.928,9.107,9.107,0,0,0,2.992-3.455c.784-1.945.454-4.481,1.387-6.3a4.739,4.739,0,0,1,3.5-2.392c.463-.1,1.448-.765,1.842-.457S755.542,749.277,755.679,749.888Z" transform="translate(-455.312 -403.615)" fill="#fbbebe"/>
  <path id="Path_406" data-name="Path 406" d="M874.137,737.7a.67.67,0,0,1,.466-.7,1.358,1.358,0,0,1,.768.128,8.369,8.369,0,0,0,1.846.452,10.532,10.532,0,0,1,2.228.345,2.746,2.746,0,0,1,1.725,1.738,5.6,5.6,0,0,1,.189,1.648,32.706,32.706,0,0,1-.575,6.378c-.032.16-.08.346-.2.4s-.2,0-.294.058a.478.478,0,0,0-.173.287,18.033,18.033,0,0,0-.671,4.252c-.177,2.126-.4,4.284-.671,6.41a8.548,8.548,0,0,1-.973,3.508,3.963,3.963,0,0,1-2.79,1.69,15.092,15.092,0,0,1-6.554-.792,1.745,1.745,0,0,1-1.106-.654,2.023,2.023,0,0,1-.269-1.159,4.706,4.706,0,0,1,1.942-3.237l1.242-1.1a.751.751,0,0,0,.217-.26,1.145,1.145,0,0,0,.06-.532l-.08-2.126a4.622,4.622,0,0,1,3.969,3.264c.169.452.334.978.688,1.153.478.145.957-.239,1.082-.866a4.83,4.83,0,0,0-.036-1.844c-.728-5.14-.555-10.423-1-15.616a4.354,4.354,0,0,0-.4-1.648C874.579,738.526,874.181,738.18,874.137,737.7Z" transform="translate(-529.688 -398.944)" fill="#f86d70"/>
  <rect id="Rectangle_303" data-name="Rectangle 303" width="17.403" height="11.327" rx="5.663" transform="translate(308.582 175.079) rotate(180)" fill="#0a0d11"/>
  <ellipse id="Ellipse_222" data-name="Ellipse 222" cx="2.678" cy="3.54" rx="2.678" ry="3.54" transform="translate(297.335 165.873)" fill="#fff"/>
  <path id="Path_407" data-name="Path 407" d="M735.082,769.219c-.181.4-.466.707-.635,1.116a1.183,1.183,0,0,0,.137,1.249.726.726,0,0,0,.575.074,17.64,17.64,0,0,0,10.455-6.261,9.235,9.235,0,0,0,1.283-1.855c.342-.686.631-1.525,1.206-1.812a36.124,36.124,0,0,1,.539,6.086c0,1.35-.145,2.886-.977,3.668a3.064,3.064,0,0,1-1.086.585l-1.817.68a1.5,1.5,0,0,1-1.009.128c-.213-.074-.4-.255-.623-.308a1.189,1.189,0,0,0-.708.122l-1.572.606a8.5,8.5,0,0,0-1.552.717c-.45.282-.865.643-1.3.957a13.727,13.727,0,0,1-2.276,1.223l-2.762,1.27a8.124,8.124,0,0,1-2.352.8,15.993,15.993,0,0,0-1.673.122,9.009,9.009,0,0,1-1.246.34,2.728,2.728,0,0,1-1.958-.765,2.108,2.108,0,0,1-.571-.67,3.328,3.328,0,0,1,.334-2.711,9.952,9.952,0,0,1,2.815-3.816c.483-.351,1-.606,1.5-.925,1.411-.9,2.477-2.413,3.808-3.444C734.865,765.419,735.673,767.933,735.082,769.219Z" transform="translate(-444.724 -410.535)" fill="#f86d70"/>
  <path id="Path_408" data-name="Path 408" d="M846.69,483.622a10.055,10.055,0,0,0,4.89,2.514,15.126,15.126,0,0,0,2.766.2,53.672,53.672,0,0,0,11.512-1.27,20.307,20.307,0,0,1-3.619-7.441,16.155,16.155,0,0,1-.177-4.661,44.708,44.708,0,0,1,1.078-5.847,23.661,23.661,0,0,1-4.865-.165c-.921-.128-3.18-1.233-3.981-.393s-.185,3.545-.173,4.816c0,.046,0,.092,0,.138a19.665,19.665,0,0,1-.929,5.624C852.042,480.566,849.549,483.394,846.69,483.622Z" transform="translate(-517.497 -272.106)" fill="#fbbebe"/>
  <path id="Path_409" data-name="Path 409" d="M864.827,471.325a7.735,7.735,0,0,0,7.941,1.595,44.715,44.715,0,0,1,1.078-5.847,23.663,23.663,0,0,1-4.865-.165c-.921-.128-3.181-1.233-3.981-.393S864.815,470.055,864.827,471.325Z" transform="translate(-528.199 -272.088)" opacity="0.1"/>
  <ellipse id="Ellipse_223" data-name="Ellipse 223" cx="9.695" cy="12.815" rx="9.695" ry="12.815" transform="translate(332.241 175.101)" fill="#fbbebe"/>
  <path id="Path_410" data-name="Path 410" d="M776.09,535.323a6.563,6.563,0,0,0,2.187,5.14,7.453,7.453,0,0,0,2.372,1.106c4.423,1.414,8.975,2.551,13.53,2.206a5.929,5.929,0,0,0,2.871-.8,4.038,4.038,0,0,0,1.773-2.929,3.54,3.54,0,0,1,.137-.93,2.385,2.385,0,0,1,.671-.792,4.292,4.292,0,0,0,1.042-3.625c.551.33,1.13-.409,1.391-1.132s.462-1.595,1.017-1.908c.378-.213.8-.085,1.206-.223.639-.218,1.029-1.063,1.48-1.674a11.615,11.615,0,0,1,3.422-2.769c3.571-2.376,6.478-6.144,9.329-9.849a39.8,39.8,0,0,0,4.021-5.942q.479-.926.885-1.913a64.278,64.278,0,0,0,2.232-6.756,9.987,9.987,0,0,0,.579-3.87,2.264,2.264,0,0,0-.052-.356,8.6,8.6,0,0,0-.881-2.349c-.985-1.914-2.276-3.721-3.973-4.316s-3.386.122-5.111.606a9.942,9.942,0,0,1-1.733.351,12.71,12.71,0,0,1-5.4-1.122l-1.922-.7c-.961-.351-1.443-1.887-2.413-2.158a2.5,2.5,0,0,0-1.307.09,15.175,15.175,0,0,0-5.71,2.466,8.9,8.9,0,0,0-1.11,1,9.8,9.8,0,0,0-2.581,5.034c-.4,2.216-.024,4.587-.426,6.8a17.271,17.271,0,0,1-1.974,4.964l-4.737,8.967a56.469,56.469,0,0,1-3.482,6C780.879,527.6,776.158,530.353,776.09,535.323Z" transform="translate(-475.285 -282.566)" fill="#f86d70"/>
  <path id="Path_411" data-name="Path 411" d="M793.775,408.526a12.949,12.949,0,0,0-.853-3.556,7.572,7.572,0,0,0-1.255-1.743,8.4,8.4,0,0,0-2.686-2.216,2.675,2.675,0,0,0-3.04.462,6.176,6.176,0,0,0-1.339,3.721,11.657,11.657,0,0,0,.716,5.608c.8,1.892,2.248,3.157,3.442,4.667A18.371,18.371,0,0,1,791,419.189a11.383,11.383,0,0,0,1.021,1.977,1.742,1.742,0,0,0,1.608.856A2.783,2.783,0,0,0,794.949,421c.491-.569,1.809-1.595,1.849-2.482.032-.728-1-2.376-1.25-3.062A42.891,42.891,0,0,1,793.775,408.526Z" transform="translate(-480.327 -241.415)" fill="#fbbebe"/>
  <path id="Path_412" data-name="Path 412" d="M720.69,637.266c1.206,2.976,2.549,5.847,3.639,8.93.631,1.791,1.178,3.63,1.882,5.374.768,1.9,1.713,3.662,2.517,5.533a78.548,78.548,0,0,1,4.19,15.324,19.739,19.739,0,0,0,8.251-3.838,5.292,5.292,0,0,0,.495-.42,7.38,7.38,0,0,0,1.665-2.429c-.961-4.784-1.946-9.69-3.9-13.937-.639-1.382-1.371-2.658-2.011-4.045-1.9-3.96-2.3-8.951-4.471-12.656a2.748,2.748,0,0,1,0-2.573c.249-.43.651-.84.575-1.377-.056-.388-.362-.739-.245-1.1a1.235,1.235,0,0,1,.3-.4,3.367,3.367,0,0,0,.358-1.876,10.75,10.75,0,0,1,1.576-4.523,2.689,2.689,0,0,1,.579-.824c.2-.159.43-.234.627-.393.691-.569.643-1.908.977-2.9.434-1.308,1.528-1.972,2.248-3.03.913-1.35,1.142-3.226,2.107-4.406a3.2,3.2,0,0,1,.318-.34,27.57,27.57,0,0,0-.567,6.171c-.093,7.144,1.258,14.532.627,21.628-.5,5.624,2.123,11.236,5.838,14.054a25.1,25.1,0,0,0,4.548,2.53c2.324,1.09,4.648,2.211,6.928,3.471,1.608.882,3.217,1.839,4.769,2.854a56.621,56.621,0,0,1,5.629,4.125A24.4,24.4,0,0,1,776.2,672.8c1.54-.053,2.951-1.276,3.924-2.854a22.8,22.8,0,0,0,2.147-5.374,18.844,18.844,0,0,0,1.021-5.065,1.079,1.079,0,0,0-.426-.909l-10.639-7.441-2.01-1.393c-4.355-3.056-8.846-5.884-13.225-8.935-.294.112-.535-.33-.619-.712s-.145-.861-.422-1.031c-.141-.085-.318-.085-.4-.234a.809.809,0,0,1-.072-.468c.141-2.785,1.661-5.347,1.355-8.106a13.239,13.239,0,0,1-.4-3.492,18.908,18.908,0,0,1,.8-2.211c.519-1.7,0-3.721.571-5.406a15.527,15.527,0,0,0,.768-3.444A29,29,0,0,1,760.2,608.9a13.2,13.2,0,0,1,1.5-3c.322-.452.68-.861.981-1.329a13.377,13.377,0,0,0,1.532-5.251,33.013,33.013,0,0,0,.209-10.253,18.816,18.816,0,0,1-.495-3.45c0-1.547.527-3.359-.286-4.481a2.5,2.5,0,0,0-1.206-.808,28.561,28.561,0,0,0-5.77-1.409l-8.87-1.525a6.643,6.643,0,0,1-2.955-1.015,7.828,7.828,0,0,1-2.493-4.21c-1.56,1.5-2.147,4.305-3.39,6.251-.607.951-1.355,1.717-2.011,2.589a29.3,29.3,0,0,0-2.227,3.63,70.015,70.015,0,0,0-5.046,10.524c-.687,1.961-1.206,4.008-1.777,6.038-2.167,8.01-5.7,15.611-7.169,23.887-.362,2.025-1.3,3.848-1.439,5.921A13.908,13.908,0,0,0,720.69,637.266Z" transform="translate(-441.308 -321.731)" fill="#434175"/>
  <path id="Path_413" data-name="Path 413" d="M836.572,567.749a4.6,4.6,0,0,1,.326,1.733c-.2-1.3-1.548-2.014-1.633-3.3-.04-.59.04-.563.318-.25C836.006,566.4,836.186,567.239,836.572,567.749Z" transform="translate(-510.66 -318.708)" opacity="0.1"/>
  <path id="Path_414" data-name="Path 414" d="M827.01,576.574a2.9,2.9,0,0,1,.615,1.2,3.973,3.973,0,0,1,.121,2.089c-.2-.122-.266-.441-.326-.723a5.936,5.936,0,0,0-.4-1.238c-.161-.335-.9-1.132-.889-1.5C826.118,575.851,826.813,576.377,827.01,576.574Z" transform="translate(-505.203 -323.599)" opacity="0.1"/>
  <path id="Path_415" data-name="Path 415" d="M827.14,492.131a10.465,10.465,0,0,0,2.043,1.8c1.922,1.286,4.049,1.961,5.983,3.189a28.438,28.438,0,0,1,2.775,2.126c1.918,1.595,3.832,3.189,5.746,4.81a6.879,6.879,0,0,1,1.267,1.27c.692.978.688,2.658,1.319,3.721a3.486,3.486,0,0,0,2.786,1.7,7.093,7.093,0,0,0,3.108-.691,13.2,13.2,0,0,0,1.777-.856,8.025,8.025,0,0,0,1.7-1.286,6.958,6.958,0,0,0,2.01-4.194,10.778,10.778,0,0,0-.342-3.423,16.152,16.152,0,0,0-.611-2.078,8.93,8.93,0,0,0-.491-1.09,8.791,8.791,0,0,0-5.891-4.215c-1.186-.3-2.392-.489-3.583-.755a9.944,9.944,0,0,1-1.733.351,12.71,12.71,0,0,1-5.4-1.122l-1.922-.7c-.961-.351-1.443-1.887-2.413-2.158a2.5,2.5,0,0,0-1.307.09,15.178,15.178,0,0,0-5.71,2.466A9.06,9.06,0,0,0,827.14,492.131Z" transform="translate(-505.808 -282.524)" opacity="0.1"/>
  <path id="Path_416" data-name="Path 416" d="M805.236,431.36c.245,3.1,2.224,5.374,3.43,8.047.587,1.3,1,2.727,1.524,4.072a43.488,43.488,0,0,0,2.011,4.252l2.151,4.13a43.012,43.012,0,0,0,4.162,6.91c2.815.633,5.187,3.4,7.861,4.747,2.143,1.063,4.475,1.223,6.723,1.8a8.774,8.774,0,0,1,5.891,4.215,13.013,13.013,0,0,1,1.1,3.189,10.748,10.748,0,0,1,.342,3.418,6.962,6.962,0,0,1-2.011,4.2,10.17,10.17,0,0,1-3.478,2.126,7.166,7.166,0,0,1-3.108.691,3.5,3.5,0,0,1-2.791-1.7c-.627-1.063-.623-2.759-1.315-3.721a6.88,6.88,0,0,0-1.266-1.27l-5.746-4.784a28.436,28.436,0,0,0-2.775-2.126c-1.934-1.249-4.061-1.924-5.983-3.189a9.016,9.016,0,0,1-4.089-6.208c-1.17-8.605-5.678-15.861-9.53-22.967.125-.032.088-.415.133-.574a6.855,6.855,0,0,1,2.815-3.763A11.708,11.708,0,0,1,805.236,431.36Z" transform="translate(-488.588 -255.765)" fill="#f86d70"/>
  <path id="Path_417" data-name="Path 417" d="M865.973,426.241a6.03,6.03,0,0,1,.4-2.7,4.393,4.393,0,0,1,3.189-2.227c1.214-.33,2.332-.585,3.506-.808a6.153,6.153,0,0,1,2.9-.069c1.311.383,2.413,1.547,3.619,2.264a20.831,20.831,0,0,0,4.6,1.552,6.807,6.807,0,0,1,4.1,2.934,12.339,12.339,0,0,1,1.25,4.438c1.838,13.091-.141,26.518-.515,39.822-.149,5.177.028,10.71,2.268,14.968l-6.518-.229c-1.669-.058-3.462-.175-4.773-1.536-1.158-1.2-1.7-3.125-2.2-4.949a19.576,19.576,0,0,1-.836-4.438c-.1-3.125,1.242-6.192.8-9.27a10.99,10.99,0,0,0-2.943-5.661,31.581,31.581,0,0,1-3.953-4.651c-1.95-3.269-2.324-7.728-2.083-11.88a59.274,59.274,0,0,0,.318-7.4,11.251,11.251,0,0,0-1.476-5.188A8.547,8.547,0,0,1,865.973,426.241Z" transform="translate(-529.015 -250.582)" fill="#434175"/>
  <path id="Path_418" data-name="Path 418" d="M866.371,424.456a4.314,4.314,0,0,1,3.124-2.206,3.386,3.386,0,0,0-1.548,1.595,6.122,6.122,0,0,0-.4,2.705,8.41,8.41,0,0,0,1.669,4.97,11.191,11.191,0,0,1,1.48,5.188,60.063,60.063,0,0,1-.318,7.4c-.245,4.146.129,8.611,2.083,11.88a30.662,30.662,0,0,0,3.953,4.651,10.892,10.892,0,0,1,2.943,5.661c.434,3.072-.909,6.144-.8,9.27a19.238,19.238,0,0,0,.832,4.433c.495,1.828,1.042,3.758,2.2,4.954,1.311,1.361,3.108,1.478,4.777,1.536l4.616.159c.1.223.209.446.322.664l-6.518-.229c-1.669-.058-3.462-.175-4.773-1.536-1.158-1.2-1.7-3.125-2.2-4.949a19.573,19.573,0,0,1-.836-4.438c-.1-3.125,1.242-6.192.8-9.27a10.99,10.99,0,0,0-2.943-5.661,31.562,31.562,0,0,1-3.953-4.651c-1.95-3.269-2.324-7.728-2.083-11.88a59.2,59.2,0,0,0,.318-7.4,11.252,11.252,0,0,0-1.476-5.188,8.439,8.439,0,0,1-1.673-4.97,6.023,6.023,0,0,1,.406-2.69Z" transform="translate(-529.011 -251.497)" opacity="0.1"/>
  <path id="Path_419" data-name="Path 419" d="M745.22,657.645l11.974,38.562a7.381,7.381,0,0,0,1.665-2.429c-.961-4.784-1.946-9.69-3.9-13.937-.639-1.382-1.371-2.658-2.01-4.045-1.9-3.96-2.3-8.951-4.471-12.656a2.747,2.747,0,0,1,0-2.573c.249-.431.651-.84.575-1.377-.056-.388-.362-.739-.245-1.1a1.237,1.237,0,0,1,.3-.4,3.367,3.367,0,0,0,.358-1.876,10.75,10.75,0,0,1,1.576-4.523,2.688,2.688,0,0,1,.579-.824c.2-.159.43-.234.627-.393.692-.569.643-1.908.977-2.9.434-1.308,1.528-1.972,2.248-3.03.913-1.35,1.142-3.226,2.107-4.406l.084-.276-.9-7.441Z" transform="translate(-456.827 -349.769)" opacity="0.1"/>
  <ellipse id="Ellipse_224" data-name="Ellipse 224" cx="13.651" cy="3.471" rx="13.651" ry="3.471" transform="translate(379.218 346.991)" fill="#0a0d11"/>
  <ellipse id="Ellipse_225" data-name="Ellipse 225" cx="1.588" cy="2.748" rx="1.588" ry="2.748" transform="translate(391.51 346.236)" fill="#3f3d56"/>
  <ellipse id="Ellipse_226" data-name="Ellipse 226" cx="1.588" cy="2.748" rx="1.588" ry="2.748" transform="translate(391.51 342.877)" fill="#3f3d56"/>
  <ellipse id="Ellipse_227" data-name="Ellipse 227" cx="1.588" cy="2.748" rx="1.588" ry="2.748" transform="translate(391.51 339.512)" fill="#3f3d56"/>
  <ellipse id="Ellipse_228" data-name="Ellipse 228" cx="1.588" cy="2.748" rx="1.588" ry="2.748" transform="translate(391.51 336.153)" fill="#3f3d56"/>
  <ellipse id="Ellipse_229" data-name="Ellipse 229" cx="1.588" cy="2.748" rx="1.588" ry="2.748" transform="translate(391.51 332.789)" fill="#3f3d56"/>
  <ellipse id="Ellipse_230" data-name="Ellipse 230" cx="1.588" cy="2.748" rx="1.588" ry="2.748" transform="translate(391.51 329.429)" fill="#3f3d56"/>
  <ellipse id="Ellipse_231" data-name="Ellipse 231" cx="1.588" cy="2.748" rx="1.588" ry="2.748" transform="translate(391.51 326.07)" fill="#3f3d56"/>
  <path id="Path_420" data-name="Path 420" d="M988.4,661.963a10.6,10.6,0,0,1-.591-1.153l4.174-.909-4.516.048a13.113,13.113,0,0,1-.145-7.973l6.06,4.151-5.589-5.427c1.421-3.277,4.11-5.227,6.965-5.049s5.393,2.452,6.576,5.89a12.772,12.772,0,0,1-.966,10.422,10.635,10.635,0,0,1,.869,1.834l-5.42,3.721,5.782-2.562a13.137,13.137,0,0,1,.4,3.226,12.209,12.209,0,0,1-1.632,6.224,12.5,12.5,0,0,1-.819,13.611c-2.916,3.561-7.413,3.561-10.329,0a12.5,12.5,0,0,1-.819-13.611A12.7,12.7,0,0,1,988.4,661.963Z" transform="translate(-601.251 -356.149)" fill="#0a0d11"/>
  <path id="Path_421" data-name="Path 421" d="M1002,687.92a12.21,12.21,0,0,1-1.632,6.224,12.5,12.5,0,0,1-.819,13.611c-2.916,3.561-7.413,3.561-10.329,0a12.5,12.5,0,0,1-.819-13.611C987.377,692.432,1002,686.793,1002,687.92Z" transform="translate(-601.251 -375.887)" opacity="0.1"/>
  <ellipse id="Ellipse_232" data-name="Ellipse 232" cx="9.18" cy="2.333" rx="9.18" ry="2.333" transform="translate(410.276 309.582)" fill="#0a0d11"/>
  <ellipse id="Ellipse_233" data-name="Ellipse 233" cx="1.07" cy="1.85" rx="1.07" ry="1.85" transform="translate(418.543 309.077)" fill="#3f3d56"/>
  <ellipse id="Ellipse_234" data-name="Ellipse 234" cx="1.07" cy="1.85" rx="1.07" ry="1.85" transform="translate(418.543 306.818)" fill="#3f3d56"/>
  <ellipse id="Ellipse_235" data-name="Ellipse 235" cx="1.07" cy="1.85" rx="1.07" ry="1.85" transform="translate(418.543 304.554)" fill="#3f3d56"/>
  <ellipse id="Ellipse_236" data-name="Ellipse 236" cx="1.07" cy="1.85" rx="1.07" ry="1.85" transform="translate(418.543 302.295)" fill="#3f3d56"/>
  <ellipse id="Ellipse_237" data-name="Ellipse 237" cx="1.07" cy="1.85" rx="1.07" ry="1.85" transform="translate(418.543 300.036)" fill="#3f3d56"/>
  <ellipse id="Ellipse_238" data-name="Ellipse 238" cx="1.07" cy="1.85" rx="1.07" ry="1.85" transform="translate(418.543 297.777)" fill="#3f3d56"/>
  <ellipse id="Ellipse_239" data-name="Ellipse 239" cx="1.07" cy="1.85" rx="1.07" ry="1.85" transform="translate(418.543 295.513)" fill="#3f3d56"/>
  <path id="Path_422" data-name="Path 422" d="M1059.965,621.664a6.235,6.235,0,0,1-.4-.776l2.815-.611-3.036.032a8.565,8.565,0,0,1-.47-2.828,8.737,8.737,0,0,1,.37-2.535l4.077,2.8-3.76-3.652c.951-2.215,2.762-3.537,4.687-3.42s3.637,1.653,4.43,3.974a8.577,8.577,0,0,1-.673,7.021,7.264,7.264,0,0,1,.583,1.233l-3.643,2.5,3.884-1.727a8.587,8.587,0,0,1-.824,6.378,8.413,8.413,0,0,1-.543,9.167,4.26,4.26,0,0,1-6.956,0,8.412,8.412,0,0,1-.543-9.167,8.52,8.52,0,0,1,0-8.366Z" transform="translate(-644.353 -339.763)" fill="#0a0d11"/>
  <path id="Path_423" data-name="Path 423" d="M1069.117,639.142a8.243,8.243,0,0,1-1.094,4.183,8.412,8.412,0,0,1-.543,9.167,4.26,4.26,0,0,1-6.956,0,8.412,8.412,0,0,1-.543-9.167C1059.29,642.172,1069.117,638.382,1069.117,639.142Z" transform="translate(-644.365 -353.059)" opacity="0.1"/>
</svg>
